<svg xmlns="http://www.w3.org/2000/svg" width="16" height="16" viewBox="0 0 16 16">
  <path
    fill-rule="evenodd"
    clip-rule="evenodd"
    d="M5.89236 9.71973C5.72269 9.73972 5.55005 9.75 5.375 9.75C2.95875 9.75 1 7.79125 1 5.375C1 2.95875 2.95875 1 5.375 1C7.79125 1 9.75 2.95875 9.75 5.375C9.75 5.85307 9.67332 6.31323 9.53159 6.74386C9.52781 6.75532 9.52399 6.76677 9.52013 6.77819C9.42958 7.04576 9.31386 7.30172 9.17578 7.54325C8.644 8.47341 7.78061 9.18957 6.74669 9.53065C6.72321 9.5384 6.69964 9.54595 6.67599 9.55331C6.4238 9.63175 6.16183 9.68798 5.89236 9.71973ZM13.25 10.625C14.2165 10.625 15 9.8415 15 8.875C15 7.9085 14.2165 7.125 13.25 7.125C12.6946 7.125 12.1997 7.38371 11.8791 7.78719L9.93332 6.9224C9.8387 7.20123 9.71921 7.46857 9.57751 7.72179L11.5236 8.58674C11.5081 8.68052 11.5 8.77681 11.5 8.875C11.5 9.8415 12.2835 10.625 13.25 10.625ZM7.125 15C8.0915 15 8.875 14.2165 8.875 13.25C8.875 12.3034 8.12347 11.5324 7.18454 11.501L6.84205 9.9598C6.5672 10.0477 6.2816 10.1115 5.98772 10.1489L6.3303 11.6904C5.76326 11.98 5.375 12.5696 5.375 13.25C5.375 14.2165 6.1585 15 7.125 15Z"
  />
</svg>
