<svg width="16" height="16" viewBox="0 0 16 16" fill="none" xmlns="http://www.w3.org/2000/svg">
<g id="error">
<path id="Vector" d="M12.2446 3.75538C9.90417 1.41499 6.09587 1.41476 3.75526 3.75538C1.41464 6.096 1.41487 9.90406 3.75526 12.2447C6.09564 14.5853 9.90394 14.5853 12.2446 12.2447C14.5849 9.90406 14.5849 6.09577 12.2446 3.75538ZM10.3671 10.3672C10.1868 10.5475 9.89447 10.5475 9.71416 10.3672L7.99991 8.65294L6.20415 10.4487C6.02384 10.629 5.73155 10.629 5.55124 10.4487C5.37092 10.2684 5.37092 9.97609 5.55124 9.79578L7.34699 8.00003L5.63274 6.28578C5.45242 6.10546 5.45242 5.81294 5.63274 5.63286C5.81305 5.45254 6.10534 5.45254 6.28565 5.63286L7.99991 7.34711L9.63243 5.71459C9.81274 5.53427 10.105 5.53427 10.2853 5.71459C10.4657 5.8949 10.4657 6.18719 10.2853 6.36751L8.65282 8.00003L10.3671 9.71428C10.5474 9.89459 10.5474 10.1869 10.3671 10.3672Z" fill="#DD2222"/>
</g>
</svg>
