<svg width="16" height="16" viewBox="0 0 16 16" fill="none" xmlns="http://www.w3.org/2000/svg">
<g id="loading">
<path id="Icon" d="M8.03128 14C7.21376 14 6.43379 13.8423 5.69134 13.527C4.9489 13.2116 4.30657 12.7842 3.76434 12.2448C3.2221 11.7054 2.79249 11.0705 2.47549 10.3402C2.1585 9.60995 2 8.82988 2 8C2 7.17012 2.1585 6.39419 2.4755 5.6722C2.79249 4.9502 3.2221 4.31121 3.76434 3.75519C4.30657 3.19917 4.9489 2.77179 5.69135 2.47303C6.43379 2.17427 7.21376 2.0166 8.03128 2C9.02399 2 9.94994 2.22406 10.8092 2.6722C11.6684 3.12033 12.3816 3.73444 12.9489 4.51452C13.5162 5.29461 13.8665 6.16182 14 7.11618L12.4108 7.11618C12.2023 6.08713 11.6893 5.23652 10.8717 4.56432C10.0542 3.89211 9.10741 3.55602 8.03128 3.55602C7.43065 3.55602 6.85089 3.6722 6.29197 3.90456C5.73305 4.13693 5.26173 4.45643 4.878 4.86307C4.49426 5.26971 4.1731 5.73859 3.91449 6.26971C3.65589 6.80083 3.5391 7.37759 3.56413 8C3.58915 8.62241 3.70594 9.19917 3.91449 9.73029C4.12305 10.2614 4.44421 10.7344 4.878 11.1494C5.31179 11.5643 5.7831 11.8797 6.29197 12.0954C6.80084 12.3112 7.3806 12.4274 8.03128 12.444C9.09907 12.444 10.0459 12.1079 10.8717 11.4357C11.6976 10.7635 12.2106 9.91287 12.4108 8.88382L14 8.88382C13.8582 9.83818 13.5078 10.7054 12.9489 11.4855C12.39 12.2656 11.6768 12.8797 10.8092 13.3278C9.9416 13.7759 9.01565 14 8.03128 14Z" fill="#646265"/>
</g>
</svg>
