<svg width="16" height="16" viewBox="0 0 16 16" fill="none" xmlns="http://www.w3.org/2000/svg">
<rect x="2" y="2" width="12" height="12" rx="6" fill="#19AF66"/>
<path d="M4 8.05714C4 8.26667 4.06969 8.44762 4.20906 8.6L6.34146 10.7857C6.47155 10.9286 6.64344 11 6.85714 11C7.07085 11 7.24739 10.9286 7.38676 10.7857L11.777 6.28571C11.9257 6.13333 12 5.95238 12 5.74286C12 5.53333 11.9257 5.35714 11.777 5.21429C11.6283 5.07143 11.4518 5 11.2474 5C11.043 5 10.8711 5.07143 10.7317 5.21429L6.87108 9.18571L5.25436 7.52857C5.11498 7.38571 4.94309 7.31429 4.73868 7.31429C4.53426 7.31429 4.36005 7.38809 4.21603 7.53571C4.07201 7.68333 4 7.85714 4 8.05714Z" fill="white"/>
</svg>
