<svg xmlns="http://www.w3.org/2000/svg" width="16" height="16" viewBox="0 0 16 16">
  <g clip-path="url(#clip0_1566_95521)">
    <path
      d="M16 11.254V9.65937L14.404 9.49037C14.3044 9.08227 14.1432 8.6983 13.9308 8.34893L14.9401 7.10055L13.8126 5.97299L12.5642 6.9823C12.2148 6.7699 11.8309 6.60871 11.4227 6.50915L11.2537 4.91309H9.65912L9.49012 6.50915C9.08203 6.60871 8.69806 6.7699 8.34869 6.9823L7.10031 5.97299L5.97275 7.10055L6.98206 8.34893C6.76965 8.6983 6.60847 9.08224 6.5089 9.49037L4.91284 9.65937V11.254L6.5089 11.423C6.60847 11.8311 6.76965 12.2151 6.98206 12.5644L5.97275 13.8128L7.10031 14.9404L8.34869 13.9311C8.69806 14.1435 9.082 14.3046 9.49012 14.4042L9.65915 16.0002H11.2538L11.4228 14.4042C11.8309 14.3046 12.2148 14.1434 12.5642 13.931L13.8126 14.9403L14.9402 13.8128L13.9308 12.5644C14.1432 12.215 14.3044 11.8311 14.404 11.423L16 11.254ZM10.4565 12.3247C9.42478 12.3247 8.58844 11.4884 8.58844 10.4567C8.58844 9.42499 9.42478 8.58865 10.4565 8.58865C11.4882 8.58865 12.3245 9.42499 12.3245 10.4567C12.3245 11.4884 11.4882 12.3247 10.4565 12.3247Z"
    />
    <path
      d="M7.40559 3.57147C7.32791 3.25303 7.20212 2.95347 7.03641 2.68084L7.82394 1.70678L6.94413 0.826969L5.97006 1.6145C5.69747 1.44878 5.39788 1.323 5.07944 1.24531L4.94759 0H3.70338L3.5715 1.24534C3.25306 1.32303 2.9535 1.44878 2.68088 1.61453L1.70681 0.827L0.827 1.70681L1.61453 2.68088C1.44881 2.95347 1.32303 3.25306 1.24534 3.5715L0 3.70334V4.94756L1.24534 5.07944C1.32303 5.39788 1.44878 5.69744 1.61453 5.97006L0.827 6.94413L1.70681 7.82394L2.68088 7.03641C2.95347 7.20212 3.25306 7.32791 3.5715 7.40559L3.70338 8.65094H4.94759L5.07188 7.47719L4.71344 7.03384L5.30988 6.43741L6.43744 5.30984L7.03384 4.71341L7.47719 5.07184L8.65094 4.94756V3.70334L7.40559 3.57147ZM4.32547 5.78303C3.52047 5.78303 2.86791 5.13047 2.86791 4.32547C2.86791 3.52047 3.52047 2.86791 4.32547 2.86791C5.13047 2.86791 5.78303 3.52047 5.78303 4.32547C5.78303 5.13047 5.13047 5.78303 4.32547 5.78303Z"
    />
  </g>
  <defs>
    <clipPath id="clip0_1566_95521">
      <rect width="16" height="16" fill="white" />
    </clipPath>
  </defs>
</svg>
