<svg width="32" height="32" viewBox="0 0 32 32" fill="none" xmlns="http://www.w3.org/2000/svg">
<path d="M22.8533 8.36001V14.6933H2.41333V8.36001H22.8533ZM23.04 7.02667H2.24C1.6 7.02667 1.08 7.54667 1.08 8.18667V14.8667C1.08 15.5067 1.6 16.0267 2.24 16.0267H23.04C23.68 16.0267 24.2 15.5067 24.2 14.8667V8.17334C24.1867 7.53334 23.6667 7.02667 23.04 7.02667Z" fill="black"/>
<path d="M22.8533 17.9733V23.68H2.41333V17.9733H22.8533ZM23.04 16.64H2.24C1.6 16.64 1.08 17.16 1.08 17.8V23.8533C1.08 24.4933 1.6 25.0133 2.24 25.0133H23.04C23.68 25.0133 24.2 24.4933 24.2 23.8533V17.8C24.1867 17.16 23.6667 16.64 23.04 16.64Z" fill="#FB6E00"/>
<path d="M4.97333 24.44L13.2667 17.36" stroke="#FB6E00" stroke-miterlimit="10"/>
<path d="M1.85333 24.2934L10.1467 17.2267" stroke="#FB6E00" stroke-miterlimit="10"/>
<path d="M8.41333 24.3067L16.7467 17.2133" stroke="#FB6E00" stroke-miterlimit="10"/>
<path d="M18.8533 24.3067L23.6133 20.2533" stroke="#FB6E00" stroke-miterlimit="10"/>
<path d="M1.70667 21.6933L7.01333 17.2" stroke="#FB6E00" stroke-miterlimit="10"/>
<path d="M11.9867 24.2667L20.28 17.2" stroke="#FB6E00" stroke-miterlimit="10"/>
<path d="M15.2133 24.4267L23.2933 17.5333" stroke="#FB6E00" stroke-miterlimit="10"/>
<path d="M25.7067 9.42666C25.7067 9.31999 25.7467 9.21332 25.8133 9.11999C25.9867 8.90666 26.3067 8.86666 26.52 9.03999C28.28 10.44 29.3333 12.7333 29.4133 15.3467C29.48 18.1067 28.44 20.7333 26.6 22.3733C26.4 22.56 25.8933 22.3333 25.8933 22.3333C25.7067 22.1333 25.72 21.8133 25.9333 21.6267C27.56 20.1733 28.48 17.8267 28.4133 15.3733C28.3467 13.0533 27.4267 11.0267 25.9067 9.81332C25.7733 9.71999 25.7067 9.57332 25.7067 9.42666Z" fill="black"/>
<path d="M25.68 18H26.44L26.3867 21.7067L30.08 21.48L30.12 22.2267L25.6267 22.4933L25.68 18Z" fill="black"/>
</svg>
