<svg width="16" height="16" viewBox="0 0 16 16" fill="none" xmlns="http://www.w3.org/2000/svg">
<path d="M13.9078 6.56293C13.7758 6.31228 13.5245 6.15685 13.2521 6.15784H6.14399C5.65169 6.15784 5.21847 6.49978 5.08062 6.99714L3.67382 12.0736C3.52168 12.6225 3.04344 13 2.50027 13H11.4393C11.9827 13 12.4609 12.6225 12.613 12.0734L13.9636 7.20018C14.0271 6.9885 14.0069 6.75882 13.9078 6.56293Z" fill="black"/>
<path d="M3.19277 11.9263L4.60051 6.8501C4.80188 6.12947 5.42945 5.63384 6.14328 5.63162H12.5024V5.36838C12.5024 4.78714 12.0546 4.31569 11.5021 4.31569H7.69027C7.5393 4.31569 7.39653 4.24414 7.30136 4.12103L6.80976 3.48502C6.57252 3.17812 6.21689 3 5.84087 3H3.0003C2.44776 3 2 3.47146 2 4.0527V11.9473C2 12.2379 2.22388 12.4735 2.50004 12.4735C2.82073 12.4728 3.10252 12.25 3.19277 11.9263Z" fill="black"/>
<circle cx="12" cy="12" r="3" fill="white"/>
<mask id="mask0_634_217" style="mask-type:alpha" maskUnits="userSpaceOnUse" x="10" y="10" width="4" height="4">
<path d="M13.7931 11.6552C13.931 11.6552 14 11.7701 14 12C14 12.2299 13.931 12.3448 13.7931 12.3448H12.3448V13.7931C12.3448 13.931 12.2299 14 12 14C11.7701 14 11.6552 13.931 11.6552 13.7931V12.3448H10.2069C10.069 12.3448 10 12.2299 10 12C10 11.7701 10.069 11.6552 10.2069 11.6552H11.6552V10.2069C11.6552 10.069 11.7701 10 12 10C12.2299 10 12.3448 10.069 12.3448 10.2069V11.6552H13.7931Z" fill="#857F87"/>
</mask>
<g mask="url(#mask0_634_217)">
<path d="M13.7931 11.6552C13.931 11.6552 14 11.7701 14 12C14 12.2299 13.931 12.3448 13.7931 12.3448H12.3448V13.7931C12.3448 13.931 12.2299 14 12 14C11.7701 14 11.6552 13.931 11.6552 13.7931V12.3448H10.2069C10.069 12.3448 10 12.2299 10 12C10 11.7701 10.069 11.6552 10.2069 11.6552H11.6552V10.2069C11.6552 10.069 11.7701 10 12 10C12.2299 10 12.3448 10.069 12.3448 10.2069V11.6552H13.7931Z" fill="#857F87"/>
</g>
</svg>
