<svg width="32" height="32" viewBox="0 0 32 32" fill="none" xmlns="http://www.w3.org/2000/svg">
<path d="M15.7867 11.28V26.6H3.41333V11.28H15.7867ZM15.9733 9.94669H3.24C2.6 9.94669 2.08 10.4667 2.08 11.1067V26.7867C2.08 27.4267 2.6 27.9467 3.24 27.9467H15.9733C16.6133 27.9467 17.1333 27.4267 17.1333 26.7867V11.1067C17.12 10.4667 16.6133 9.94669 15.9733 9.94669Z" fill="black"/>
<path d="M28.5867 11.28V26.6H19.2667V11.28H28.5867ZM28.76 9.94669H19.0933C18.4533 9.94669 17.9333 10.4667 17.9333 11.1067V26.7867C17.9333 27.4267 18.4533 27.9467 19.0933 27.9467H28.76C29.4 27.9467 29.92 27.4267 29.92 26.7867V11.1067C29.92 10.4667 29.4 9.94669 28.76 9.94669Z" fill="#FB6E00"/>
<path d="M18.8 14.0267L20.74 12.3733L22.68 10.72" stroke="#FB6E00" stroke-miterlimit="10" stroke-linecap="round"/>
<path d="M25.0133 27.1867L28.8933 23.88" stroke="#FB6E00" stroke-miterlimit="10" stroke-linecap="round"/>
<path d="M18.6533 16.8267L26.0933 10.4933" stroke="#FB6E00" stroke-miterlimit="10"/>
<path d="M18.56 19.5734L28.4933 11.1067" stroke="#FB6E00" stroke-miterlimit="10"/>
<path d="M19.0933 26.88L29.0267 18.4133" stroke="#FB6E00" stroke-miterlimit="10"/>
<path d="M21.96 27.2133L29.32 20.9867" stroke="#FB6E00" stroke-miterlimit="10"/>
<path d="M18.8 22.0934L29.32 13.12" stroke="#FB6E00" stroke-miterlimit="10"/>
<path d="M18.8 24.5333L29.32 15.5733" stroke="#FB6E00" stroke-miterlimit="10"/>
<path d="M9.30667 8.46668C9.2 8.46668 9.09333 8.42668 9 8.36001C8.77333 8.18668 8.73333 7.88001 8.90667 7.66668C10.3067 5.90668 12.6 4.85335 15.2133 4.77335C17.9733 4.70668 20.6 5.74668 22.24 7.58668C22.4267 7.78668 22.2 8.29335 22.2 8.29335C22 8.48001 21.68 8.46668 21.4933 8.25335C20.04 6.62668 17.6933 5.70668 15.24 5.77335C12.9333 5.84001 10.9067 6.76001 9.69333 8.28001C9.6 8.41335 9.45333 8.46668 9.30667 8.46668Z" fill="black"/>
<path d="M17.8667 8.49334L17.88 7.74668L21.5733 7.80001L21.36 4.10668L22.1067 4.05334L22.3733 8.56001L17.8667 8.49334Z" fill="black"/>
</svg>
