<svg width="16" height="16" viewBox="0 0 16 16" fill="none" xmlns="http://www.w3.org/2000/svg">
<mask id="mask0_248_48130" style="mask-type:alpha" maskUnits="userSpaceOnUse" x="3" y="2" width="10" height="12">
<path d="M8 14C7.7881 14 7.61288 13.9232 7.47433 13.7695C7.33578 13.6158 7.2665 13.4322 7.2665 13.2188L7.2665 4.9968L4.28362 8.09605C4.13692 8.25827 3.95762 8.33938 3.74572 8.33938C3.53382 8.33938 3.36267 8.25827 3.23227 8.09605C3.07742 7.95091 3 7.77161 3 7.55816C3 7.34472 3.07742 7.15688 3.23227 6.99466L8 2L12.78 6.99466C12.9267 7.16542 13 7.35325 13 7.55816C13 7.76307 12.9267 7.94237 12.78 8.09605C12.6333 8.24973 12.454 8.33084 12.2421 8.33938C12.0302 8.34792 11.8549 8.26681 11.7164 8.09605L8.75795 4.9968L8.75795 13.2188C8.75795 13.4322 8.6846 13.6158 8.5379 13.7695C8.3912 13.9232 8.2119 14 8 14Z" fill="white"/>
</mask>
<g mask="url(#mask0_248_48130)">
<path d="M8 14C7.7881 14 7.61288 13.9232 7.47433 13.7695C7.33578 13.6158 7.2665 13.4322 7.2665 13.2188L7.2665 4.9968L4.28362 8.09605C4.13692 8.25827 3.95762 8.33938 3.74572 8.33938C3.53382 8.33938 3.36267 8.25827 3.23227 8.09605C3.07742 7.95091 3 7.77161 3 7.55816C3 7.34472 3.07742 7.15688 3.23227 6.99466L8 2L12.78 6.99466C12.9267 7.16542 13 7.35325 13 7.55816C13 7.76307 12.9267 7.94237 12.78 8.09605C12.6333 8.24973 12.454 8.33084 12.2421 8.33938C12.0302 8.34792 11.8549 8.26681 11.7164 8.09605L8.75795 4.9968L8.75795 13.2188C8.75795 13.4322 8.6846 13.6158 8.5379 13.7695C8.3912 13.9232 8.2119 14 8 14Z" fill="#19AF66"/>
</g>
</svg>
