<svg xmlns="http://www.w3.org/2000/svg" width="12" height="18" viewBox="0 0 12 18" fill="none">
  <path d="M4 8.30769C3.83048 8.30769 3.6903 8.36976 3.57946 8.49389C3.46862 8.61801 3.4132 8.76628 3.4132 8.93868L3.4132 15.5795L1.02689 13.0763C0.909535 12.9452 0.766097 12.8797 0.596577 12.8797C0.427057 12.8797 0.290139 12.9452 0.185819 13.0763C0.0619391 13.1935 0 13.3383 0 13.5107C0 13.6831 0.0619391 13.8348 0.185819 13.9658L4 18L7.82396 13.9658C7.94132 13.8279 8 13.6762 8 13.5107C8 13.3452 7.94132 13.2004 7.82396 13.0763C7.7066 12.9521 7.56316 12.8866 7.39364 12.8797C7.22412 12.8728 7.08395 12.9383 6.97311 13.0763L4.60636 15.5795L4.60636 8.93868C4.60636 8.76628 4.54768 8.61801 4.43032 8.49389C4.31296 8.36976 4.16952 8.30769 4 8.30769Z" fill="#FB6E00"/>
  <path d="M8 9.69229C7.83048 9.69229 7.6903 9.63023 7.57946 9.5061C7.46862 9.38197 7.4132 9.23371 7.4132 9.06131V2.42048L5.02689 4.92372C4.90953 5.05474 4.7661 5.12025 4.59658 5.12025C4.42706 5.12025 4.29014 5.05474 4.18582 4.92372C4.06194 4.80649 4 4.66167 4 4.48927C4 4.31687 4.06194 4.16516 4.18582 4.03414L8 -1.52588e-05L11.824 4.03414C11.9413 4.17206 12 4.32377 12 4.48927C12 4.65478 11.9413 4.79959 11.824 4.92372C11.7066 5.04785 11.5632 5.11336 11.3936 5.12025C11.2241 5.12715 11.0839 5.06164 10.9731 4.92372L8.60636 2.42048V9.06131C8.60636 9.23371 8.54768 9.38197 8.43032 9.5061C8.31296 9.63023 8.16952 9.69229 8 9.69229Z" fill="#FB6E00"/>
</svg>
