<svg width="710" height="412" viewBox="0 0 710 412" fill="none" xmlns="http://www.w3.org/2000/svg">
<path d="M35.5536 262.649L35.532 262.642C34.9774 262.455 34.5235 262.15 34.2635 261.683C34.0215 261.249 33.9525 260.758 34.0249 260.239L34.0309 260.195L34.0443 260.154L52.8739 201.927C53.0291 201.379 53.3569 200.956 53.8687 200.726C54.3194 200.524 54.8035 200.46 55.3085 200.524L55.3391 200.528L55.3691 200.536L58.5228 201.345C59.0705 201.485 59.5054 201.808 59.8116 202.288C60.1164 202.767 60.2014 203.298 59.9423 203.804L41.214 262.077C41.2139 262.077 41.2138 262.077 41.2138 262.078L41.2135 262.078L40.7375 261.925C40.6174 262.303 40.347 262.599 39.9265 262.815C39.506 263.031 39.1156 263.058 38.7551 262.896L35.5536 262.649ZM35.5536 262.649L35.5759 262.655L38.5974 263.372L35.5536 262.649ZM24.634 254.451L24.6509 254.466L24.6692 254.48C25.1096 254.81 25.6038 254.984 26.1401 254.984C26.6782 254.984 27.1591 254.807 27.5553 254.452L30.0784 252.187C30.5126 251.797 30.785 251.321 30.785 250.764C30.785 250.206 30.5126 249.73 30.0784 249.34L10.7583 231.998L30.0458 214.606C30.5328 214.296 30.785 213.817 30.785 213.234C30.785 212.645 30.5309 212.154 30.0628 211.796L27.5896 209.576C27.237 209.131 26.7259 208.932 26.1401 208.932C25.5424 208.932 25.0206 209.136 24.6188 209.56L1.20665 230.575C0.772441 230.965 0.5 231.441 0.5 231.999C0.5 232.557 0.774034 233.013 1.22191 233.355L24.634 254.451ZM69.4209 254.48L69.4392 254.466L69.4561 254.451L92.8654 233.357C93.3027 233.031 93.5 232.55 93.5 231.999C93.5 231.436 93.2974 230.947 92.8835 230.575L69.4554 209.545C69.0181 209.153 68.5125 208.932 67.9501 208.932C67.3876 208.932 66.882 209.153 66.4447 209.545L63.9216 211.81L63.9047 211.825L63.8892 211.842C63.5185 212.241 63.3051 212.709 63.3051 213.234C63.3051 213.764 63.5238 214.219 63.9215 214.576C63.9216 214.576 63.9216 214.576 63.9216 214.576L83.2417 231.998L63.9216 249.34L63.9047 249.355L63.8892 249.372C63.5185 249.771 63.3051 250.239 63.3051 250.764C63.3051 251.288 63.5185 251.756 63.8892 252.155L63.9047 252.172L63.9216 252.187L66.4447 254.452L66.4613 254.467L66.4792 254.48C66.9196 254.81 67.4138 254.984 67.9501 254.984C68.4863 254.984 68.9805 254.81 69.4209 254.48Z" fill="#E6E6E6" stroke="#857F87"/>
<path opacity="0.5" d="M418.472 114.809L418.489 114.794L418.507 114.78C418.795 114.563 419.124 114.445 419.483 114.445C419.844 114.445 420.172 114.566 420.441 114.809L421.895 116.124C422.176 116.378 422.371 116.708 422.371 117.105C422.371 117.503 422.176 117.832 421.895 118.086L410.935 128.002L421.864 137.934C422.197 138.155 422.371 138.496 422.371 138.897C422.371 139.303 422.195 139.646 421.88 139.891L420.474 141.164C420.224 141.472 419.867 141.604 419.483 141.604C419.088 141.604 418.731 141.467 418.457 141.179L404.976 128.982L404.976 128.982C404.695 128.728 404.5 128.398 404.5 128.001C404.5 127.603 404.695 127.283 404.991 127.053L418.472 114.809ZM424.825 110.01L424.846 110.002L424.869 109.997L426.594 109.584C426.953 109.44 427.322 109.491 427.655 109.663C427.991 109.837 428.252 110.104 428.369 110.473C428.369 110.473 428.369 110.473 428.369 110.473L439.153 144.293C439.333 144.662 439.263 145.042 439.06 145.363L438.639 145.097L439.06 145.363C438.857 145.685 438.562 145.907 438.192 146.003L436.375 146.472L436.345 146.48L436.314 146.484C435.986 146.526 435.667 146.485 435.369 146.35L435.575 145.894L435.369 146.35C435.01 146.187 434.785 145.888 434.681 145.522L423.834 111.716L423.821 111.675L423.815 111.632C423.769 111.294 423.812 110.962 423.977 110.664C424.16 110.333 424.473 110.129 424.825 110.01ZM444.545 114.78L444.563 114.794L444.58 114.809L458.059 127.051C458.367 127.287 458.5 127.631 458.5 128.001C458.5 128.381 458.362 128.723 458.076 128.982L444.579 141.193C444.295 141.45 443.954 141.604 443.569 141.604C443.184 141.604 442.843 141.45 442.559 141.193L441.105 139.878L441.088 139.863L441.073 139.846C440.83 139.582 440.681 139.262 440.681 138.897C440.681 138.526 440.835 138.207 441.105 137.962C441.105 137.962 441.105 137.962 441.105 137.962L452.065 128.002L441.105 118.086L441.088 118.071L441.073 118.054C440.83 117.79 440.681 117.47 440.681 117.105C440.681 116.74 440.83 116.42 441.073 116.156L441.088 116.139L441.105 116.124L442.559 114.809L442.575 114.794L442.593 114.78C442.881 114.563 443.21 114.445 443.569 114.445C443.928 114.445 444.257 114.563 444.545 114.78Z" fill="#E6E6E6" stroke="#857F87"/>
<path opacity="0.2" d="M143.472 5.80938L143.489 5.79403L143.507 5.78027C143.795 5.56344 144.124 5.44469 144.483 5.44469C144.844 5.44469 145.172 5.5656 145.441 5.80874L146.895 7.12375C147.176 7.37836 147.371 7.7076 147.371 8.10506C147.371 8.50252 147.176 8.83176 146.895 9.08637L135.935 19.0017L146.864 28.9341C147.197 29.155 147.371 29.4961 147.371 29.8966C147.371 30.3026 147.195 30.6456 146.88 30.8914L145.474 32.1636C145.224 32.472 144.867 32.6039 144.483 32.6039C144.088 32.6039 143.731 32.4667 143.457 32.1792L129.976 19.9822L129.976 19.9821C129.695 19.7275 129.5 19.3983 129.5 19.0008C129.5 18.6033 129.695 18.2833 129.991 18.0532L143.472 5.80938ZM149.825 1.00957L149.846 1.00217L149.869 0.996811L151.594 0.583775C151.953 0.43969 152.322 0.491001 152.655 0.663193C152.991 0.837242 153.252 1.10394 153.369 1.47319C153.369 1.47326 153.369 1.47332 153.369 1.47338L164.153 35.2935C164.333 35.6616 164.263 36.0422 164.06 36.3629L163.639 36.097L164.06 36.3629C163.857 36.6854 163.562 36.907 163.192 37.0027L161.375 37.4723L161.345 37.4801L161.314 37.4841C160.986 37.5265 160.667 37.4848 160.369 37.3499L160.575 36.8943L160.369 37.3499C160.01 37.1873 159.785 36.8878 159.681 36.5216L148.834 2.716L148.821 2.67467L148.815 2.63168C148.769 2.29395 148.812 1.96227 148.977 1.66389C149.16 1.33278 149.473 1.12887 149.825 1.00957ZM169.545 5.78027L169.563 5.79403L169.58 5.80938L183.059 18.051C183.367 18.2871 183.5 18.6315 183.5 19.0008C183.5 19.3809 183.362 19.7233 183.076 19.9822L169.579 32.1929C169.295 32.4501 168.954 32.6039 168.569 32.6039C168.184 32.6039 167.843 32.4501 167.559 32.1929L166.105 30.8779L166.088 30.8626L166.073 30.8459C165.83 30.582 165.681 30.2618 165.681 29.8966C165.681 29.5263 165.835 29.2068 166.105 28.9624C166.105 28.9624 166.105 28.9623 166.105 28.9623L177.065 19.0017L166.105 9.08637L166.088 9.07109L166.073 9.05434C165.83 8.79045 165.681 8.47025 165.681 8.10506C165.681 7.73987 165.83 7.41968 166.073 7.15578L166.088 7.13903L166.105 7.12375L167.559 5.80874L167.575 5.79374L167.593 5.78028C167.881 5.56344 168.21 5.44469 168.569 5.44469C168.928 5.44469 169.257 5.56345 169.545 5.78027Z" fill="#E6E6E6" stroke="#857F87"/>
<path opacity="0.2" d="M573.341 304.47L573.358 304.455L573.376 304.441C574.173 303.842 575.054 303.532 576.007 303.532C576.962 303.532 577.799 303.844 578.493 304.469L583.511 308.999C584.302 309.713 584.752 310.539 584.752 311.473C584.752 312.407 584.302 313.233 583.511 313.947L544.669 349.004L583.477 384.19C584.322 384.716 584.752 385.519 584.752 386.533C584.752 387.552 584.32 388.394 583.495 389.021L578.528 393.504C577.938 394.275 577.069 394.636 576.007 394.636C574.933 394.636 574.024 394.269 573.325 393.522L526.74 351.477C525.95 350.763 525.5 349.937 525.5 349.003C525.5 348.067 525.952 347.288 526.756 346.676L573.341 304.47ZM594.846 288.19L594.867 288.183L594.89 288.178L600.94 286.732C601.81 286.356 602.733 286.448 603.659 286.925C604.59 287.405 605.233 288.093 605.52 288.998L642.786 405.586C643.224 406.416 643.109 407.298 642.567 408.153C642.024 409.012 641.262 409.577 640.298 409.826L634.025 411.444L633.995 411.451L633.964 411.455C633.043 411.574 632.172 411.456 631.364 411.092C630.495 410.7 629.931 409.979 629.657 409L592.2 292.538L592.187 292.496L592.181 292.453C592.049 291.503 592.177 290.635 592.597 289.877C593.035 289.087 593.815 288.539 594.846 288.19ZM661.803 304.441L661.821 304.455L661.838 304.47L708.42 346.673C709.155 347.216 709.5 348.021 709.5 349.003C709.5 349.996 709.15 350.836 708.439 351.477L661.837 393.536C661.044 394.253 660.152 394.636 659.172 394.636C658.193 394.636 657.301 394.253 656.507 393.536L651.489 389.007L651.472 388.992L651.456 388.975C650.789 388.252 650.428 387.434 650.428 386.533C650.428 385.626 650.794 384.847 651.489 384.22L690.331 349.004L651.489 313.947L651.472 313.932L651.456 313.915C650.789 313.192 650.428 312.374 650.428 311.473C650.428 310.572 650.789 309.754 651.456 309.031L651.472 309.014L651.489 308.999L656.507 304.469L656.524 304.454L656.542 304.441C657.339 303.842 658.219 303.532 659.172 303.532C660.125 303.532 661.006 303.842 661.803 304.441Z" fill="#E6E6E6" stroke="#857F87"/>
</svg>
