<svg width="24" height="24" viewBox="0 0 24 24" fill="none" xmlns="http://www.w3.org/2000/svg">
<g clip-path="url(#clip0_1121_38155)">
<mask id="mask0_1121_38155" style="mask-type:alpha" maskUnits="userSpaceOnUse" x="6" y="3" width="12" height="17">
<path d="M17.0204 5.35714H17.6633V19.5H8.44286C7.98979 19.5 7.57653 19.3878 7.20306 19.1633C6.82959 18.9388 6.53572 18.6196 6.32143 18.2057C6.10714 17.7918 6 17.3253 6 16.8061V4.57844C6 4.14349 6.13469 3.77169 6.40408 3.46301C6.67347 3.15434 6.99796 3 7.37755 3H15.9184V15.1224H8.44286C7.95306 15.1224 7.56123 15.2663 7.26735 15.5539C6.97347 15.8415 6.82653 16.2449 6.82653 16.764V16.8061C6.82653 17.3253 6.97653 17.7462 7.27653 18.0689C7.57653 18.3916 7.9653 18.5529 8.44286 18.5529H17.0204V5.35714ZM15.9184 17.1849H8.53469C8.42449 17.1849 8.32959 17.1499 8.25 17.0797C8.17041 17.0096 8.13061 16.9184 8.13061 16.8061C8.13061 16.6939 8.17041 16.6062 8.25 16.543C8.32959 16.4799 8.42449 16.4483 8.53469 16.4483H15.9184V17.1849Z" fill="white"/>
</mask>
<g mask="url(#mask0_1121_38155)">
<path d="M17.0204 5.35714H17.6633V19.5H8.44286C7.98979 19.5 7.57653 19.3878 7.20306 19.1633C6.82959 18.9388 6.53572 18.6196 6.32143 18.2057C6.10714 17.7918 6 17.3253 6 16.8061V4.57844C6 4.14349 6.13469 3.77169 6.40408 3.46301C6.67347 3.15434 6.99796 3 7.37755 3H15.9184V15.1224H8.44286C7.95306 15.1224 7.56123 15.2663 7.26735 15.5539C6.97347 15.8415 6.82653 16.2449 6.82653 16.764V16.8061C6.82653 17.3253 6.97653 17.7462 7.27653 18.0689C7.57653 18.3916 7.9653 18.5529 8.44286 18.5529H17.0204V5.35714ZM15.9184 17.1849H8.53469C8.42449 17.1849 8.32959 17.1499 8.25 17.0797C8.17041 17.0096 8.13061 16.9184 8.13061 16.8061C8.13061 16.6939 8.17041 16.6062 8.25 16.543C8.32959 16.4799 8.42449 16.4483 8.53469 16.4483H15.9184V17.1849Z" fill="#231F20"/>
</g>
</g>
<defs>
<clipPath id="clip0_1121_38155">
<rect width="12" height="16.5" fill="white" transform="translate(6 3)"/>
</clipPath>
</defs>
</svg>
