<svg width="16" height="16" viewBox="0 0 16 16" fill="none" xmlns="http://www.w3.org/2000/svg">
<path d="M10.2698 9.60426H11.6C11.7966 9.60426 11.9539 9.75968 11.9539 9.95301V11.382C11.9539 11.5753 11.7966 11.7307 11.6 11.7307H10.2698C10.074 11.7307 9.91596 11.5753 9.91596 11.382V9.95301C9.91596 9.75984 10.074 9.60426 10.2698 9.60426ZM7.33498 9.60426H8.66518C8.86177 9.60426 9.01904 9.75968 9.01904 9.95301V11.382C9.01904 11.5753 8.86177 11.7307 8.66518 11.7307H7.33498C7.13933 11.7307 6.98111 11.5753 6.98111 11.382V9.95301C6.98111 9.75984 7.13933 9.60426 7.33498 9.60426ZM4.40013 9.60426H5.73049C5.92613 9.60426 6.08419 9.75968 6.08419 9.95301V11.382C6.08419 11.5753 5.92613 11.7307 5.73049 11.7307H4.40013C4.20354 11.7307 4.04626 11.5753 4.04626 11.382V9.95301C4.04626 9.75984 4.20354 9.60426 4.40013 9.60426ZM10.2698 6.54148H11.6C11.7966 6.54148 11.9539 6.6969 11.9539 6.89023V8.31954C11.9539 8.51254 11.7966 8.66829 11.6 8.66829H10.2698C10.074 8.66829 9.91596 8.51254 9.91596 8.31954V6.89023C9.91596 6.69707 10.074 6.54148 10.2698 6.54148ZM7.33498 6.54148H8.66518C8.86177 6.54148 9.01904 6.6969 9.01904 6.89023V8.31954C9.01904 8.51254 8.86177 8.66829 8.66518 8.66829H7.33498C7.13933 8.66829 6.98111 8.51254 6.98111 8.31954V6.89023C6.98111 6.69707 7.13933 6.54148 7.33498 6.54148ZM4.92022 2C4.62786 2 4.39195 2.24618 4.39195 2.55095V2.95894H3.28774C2.57436 2.95894 2 3.57701 2 4.34459V12.6147C2 13.3821 2.5742 14 3.28774 14H12.7124C13.4258 14 14 13.3819 14 12.6147V4.34492C14 3.57718 13.426 2.95927 12.7124 2.95927H11.6082V3.39172C11.6082 4.16045 10.9595 4.34049 10.5482 4.34049V2.55111C10.5482 2.24634 10.3123 2.00016 10.0199 2.00016H9.363C9.07063 2.00016 8.83472 2.24634 8.83472 2.55111V2.95911H7.16544V3.39156C7.16544 4.16029 6.51669 4.34033 6.10558 4.34033V2.55111C6.10558 2.24634 5.86967 2.00016 5.57731 2.00016H4.92022V2Z" fill="#857F87"/>
</svg>
