<svg width="22" height="22" viewBox="0 0 22 22" fill="none" xmlns="http://www.w3.org/2000/svg">
<path d="M8.34171 10.3583C8.42667 10.444 8.49388 10.5456 8.5395 10.6572C8.58512 10.7689 8.60824 10.8885 8.60754 11.0092C8.60653 11.2496 8.51106 11.4801 8.34171 11.6508L6.69171 13.31C6.60684 13.3955 6.50597 13.4634 6.39486 13.5099C6.28374 13.5563 6.16456 13.5805 6.04412 13.5809C5.92367 13.5813 5.80432 13.558 5.69288 13.5123C5.58144 13.4666 5.48009 13.3994 5.39462 13.3146C5.30916 13.2297 5.24124 13.1288 5.19475 13.0177C5.14827 12.9066 5.12412 12.7874 5.1237 12.667C5.12284 12.4237 5.21864 12.1901 5.39004 12.0175L5.50004 11.9167L2.75004 11.9167C2.50693 11.9167 2.27377 11.8201 2.10186 11.6482C1.92995 11.4763 1.83337 11.2431 1.83337 11C1.83337 10.7569 1.92995 10.5237 2.10186 10.3518C2.27377 10.1799 2.50693 10.0833 2.75004 10.0833L5.50004 10.0833L5.39921 9.98249C5.31329 9.89727 5.2451 9.79589 5.19856 9.68418C5.15202 9.57248 5.12806 9.45267 5.12806 9.33165C5.12806 9.21064 5.15202 9.09083 5.19856 8.97913C5.2451 8.86742 5.31329 8.76604 5.39921 8.68082C5.57096 8.51009 5.80329 8.41426 6.04546 8.41426C6.28763 8.41426 6.51996 8.51009 6.69171 8.68082L8.34171 10.3583Z" fill="black"/>
<path d="M10.3034 8.35083L8.64422 6.70083C8.55875 6.61596 8.49084 6.51509 8.44435 6.40398C8.39787 6.29286 8.37372 6.17368 8.3733 6.05324C8.37287 5.93279 8.39617 5.81344 8.44187 5.702C8.48757 5.59056 8.55477 5.48921 8.63964 5.40374C8.81104 5.23113 9.04398 5.13368 9.28723 5.13282C9.53048 5.13196 9.76411 5.22777 9.93672 5.39916L10.0834 5.49999L10.0834 2.74999C10.0834 2.50688 10.18 2.27372 10.3519 2.10181C10.5238 1.92991 10.7569 1.83333 11.0001 1.83333C11.2432 1.83333 11.4763 1.92991 11.6482 2.10181C11.8201 2.27372 11.9167 2.50688 11.9167 2.74999L11.9167 5.49999L12.0176 5.39916C12.1893 5.22843 12.4216 5.1326 12.6638 5.1326C12.906 5.1326 13.1383 5.22843 13.3101 5.39916C13.395 5.48481 13.4622 5.5864 13.5078 5.69808C13.5535 5.80976 13.5766 5.92935 13.5759 6.04999C13.5749 6.29047 13.4794 6.52092 13.3101 6.69166L11.6326 8.35999C11.5463 8.44955 11.4427 8.52062 11.3281 8.56888C11.2136 8.61715 11.0903 8.64159 10.966 8.64073C10.8417 8.63988 10.7188 8.61373 10.6049 8.5639C10.491 8.51406 10.3884 8.44156 10.3034 8.35083Z" fill="black"/>
<path d="M13.6034 11.6142C13.4326 11.4424 13.3368 11.2101 13.3368 10.9679C13.3368 10.7257 13.4326 10.4934 13.6034 10.3217L15.2534 8.66249C15.4247 8.48988 15.6577 8.39242 15.9009 8.39156C16.1442 8.3907 16.3778 8.48651 16.5504 8.6579C16.723 8.8293 16.8205 9.06225 16.8214 9.3055C16.8222 9.54875 16.7264 9.78238 16.555 9.95499L16.5 10.0833L19.25 10.0833C19.4931 10.0833 19.7263 10.1799 19.8982 10.3518C20.0701 10.5237 20.1667 10.7569 20.1667 11C20.1667 11.2431 20.0701 11.4763 19.8982 11.6482C19.7263 11.8201 19.4931 11.9167 19.25 11.9167L16.5 11.9167L16.6009 12.0175C16.6858 12.1031 16.753 12.2047 16.7986 12.3164C16.8443 12.4281 16.8674 12.5477 16.8667 12.6683C16.8662 12.7896 16.8416 12.9096 16.7944 13.0213C16.7472 13.133 16.6783 13.2343 16.5917 13.3192C16.4199 13.4899 16.1876 13.5857 15.9454 13.5857C15.7033 13.5857 15.4709 13.4899 15.2992 13.3192L13.6034 11.6142Z" fill="black"/>
<path d="M10.0834 19.25L10.0834 16.5L9.98259 16.6008C9.81085 16.7716 9.57852 16.8674 9.33634 16.8674C9.09417 16.8674 8.86184 16.7716 8.69009 16.6008C8.60418 16.5156 8.53598 16.4142 8.48944 16.3025C8.44291 16.1908 8.41895 16.071 8.41895 15.95C8.41895 15.829 8.44291 15.7092 8.48944 15.5975C8.53598 15.4858 8.60418 15.3844 8.69009 15.2992L10.3676 13.64C10.5393 13.4693 10.7717 13.3734 11.0138 13.3734C11.256 13.3734 11.4883 13.4693 11.6601 13.64L13.3193 15.2808C13.4042 15.3665 13.4714 15.4681 13.5171 15.5797C13.5627 15.6914 13.5858 15.811 13.5851 15.9317C13.5858 16.0523 13.5627 16.1719 13.5171 16.2836C13.4714 16.3953 13.4042 16.4968 13.3193 16.5825C13.1475 16.7532 12.9152 16.849 12.673 16.849C12.4308 16.849 12.1985 16.7532 12.0268 16.5825L11.9168 16.5L11.9168 19.25C11.9168 19.4931 11.8202 19.7263 11.6483 19.8982C11.4764 20.0701 11.2432 20.1667 11.0001 20.1667C10.757 20.1667 10.5238 20.0701 10.3519 19.8982C10.18 19.7263 10.0834 19.4931 10.0834 19.25Z" fill="black"/>
<path d="M11.0001 9.845C11.2285 9.845 11.4518 9.91274 11.6418 10.0397C11.8317 10.1666 11.9798 10.347 12.0672 10.558C12.1546 10.7691 12.1775 11.0013 12.1329 11.2253C12.0883 11.4494 11.9783 11.6552 11.8168 11.8167C11.6553 11.9782 11.4495 12.0882 11.2254 12.1328C11.0014 12.1774 10.7691 12.1545 10.5581 12.0671C10.347 11.9797 10.1667 11.8316 10.0397 11.6417C9.91283 11.4517 9.84509 11.2284 9.84509 11C9.84509 10.6937 9.96678 10.3999 10.1834 10.1833C10.4 9.96669 10.6938 9.845 11.0001 9.845Z" fill="black"/>
</svg>
