<svg width="24" height="24" viewBox="0 0 24 24" fill="none" xmlns="http://www.w3.org/2000/svg">
<path d="M18.7481 9.7793H17.6221V12.604C17.6221 14.1639 16.3616 15.4288 14.8071 15.4288H9.74023V16.5587C9.74023 17.8066 10.7485 18.8185 11.9922 18.8185H15.3701L17.8248 20.8692C18.0635 21.0687 18.4187 21.0365 18.6175 20.7969C18.7019 20.6952 18.7481 20.567 18.7481 20.4342V18.8185C19.9917 18.8185 21 17.8066 21 16.5587V12.0391C21 10.7911 19.9917 9.7793 18.7481 9.7793Z" fill="#646265"/>
<path d="M14.25 3H5.25C4.00744 3 3 3.97376 3 5.17479V11.6992C3 12.9002 4.00744 13.8739 5.25 13.8739V15.9563C5.25 16.2564 5.502 16.5 5.8125 16.5C5.94637 16.5 6.07631 16.4538 6.17813 16.3695L9.1875 13.8739H14.25C15.4926 13.8739 16.5 12.9002 16.5 11.6992V5.17479C16.5 3.97376 15.4926 3 14.25 3ZM7.16813 9.20358C7.11862 9.25632 7.06181 9.30199 6.99938 9.33951C6.93863 9.3792 6.87506 9.41399 6.80813 9.44281C6.73837 9.46782 6.66694 9.48794 6.59437 9.50262C6.52237 9.51784 6.44869 9.52491 6.375 9.52437C5.75344 9.52437 5.25 9.03776 5.25 8.43697C5.23819 7.83673 5.73206 7.34033 6.35306 7.32892C6.43406 7.32729 6.51506 7.33435 6.59437 7.34958C6.66694 7.36426 6.73837 7.38437 6.80813 7.40938C6.87619 7.43657 6.94031 7.47082 6.99938 7.51269C7.06069 7.5502 7.11694 7.5937 7.16813 7.64317C7.38637 7.85304 7.50619 8.13957 7.5 8.43697C7.49888 8.72513 7.37962 9.00078 7.16813 9.20358ZM10.5431 9.20358C10.3333 9.40801 10.0481 9.52328 9.75 9.52437C9.67688 9.53252 9.60375 9.53252 9.53062 9.52437C9.45806 9.50969 9.38662 9.48957 9.31687 9.46456C9.24994 9.43574 9.18638 9.40095 9.12563 9.36126C9.06263 9.32211 9.00413 9.27698 8.95125 9.22533C8.73637 9.01601 8.61881 8.73166 8.625 8.43697C8.61656 8.36629 8.61656 8.29561 8.625 8.22493C8.64019 8.15479 8.661 8.08574 8.68687 8.01832C8.715 7.95254 8.75044 7.89056 8.79375 7.83347C8.83369 7.77366 8.87925 7.71712 8.92875 7.66492C8.98275 7.61708 9.04125 7.57304 9.10313 7.53443C9.16219 7.49257 9.22631 7.45832 9.29437 7.43113C9.37087 7.39742 9.44963 7.37024 9.53062 7.34958C10.1398 7.23214 10.7321 7.6149 10.8536 8.20373C10.8694 8.28039 10.8767 8.35868 10.875 8.43697C10.875 8.72404 10.758 8.9997 10.5487 9.20358H10.5431ZM13.9181 9.20358C13.8686 9.25632 13.8118 9.30199 13.7494 9.33951C13.6886 9.3792 13.6251 9.41399 13.5581 9.44281C13.4884 9.46782 13.4169 9.48794 13.3444 9.50262C13.2724 9.51784 13.1987 9.52491 13.125 9.52437C12.5034 9.52437 12 9.03776 12 8.43697C11.9882 7.83673 12.4821 7.34033 13.1031 7.32892C13.1841 7.32729 13.2651 7.33435 13.3444 7.34958C13.4169 7.36426 13.4884 7.38437 13.5581 7.40938C13.6262 7.43657 13.6903 7.47082 13.7494 7.51269C13.8107 7.5502 13.8669 7.5937 13.9181 7.64317C14.1364 7.85304 14.2562 8.13957 14.25 8.43697C14.2489 8.72513 14.1296 9.00078 13.9181 9.20358Z" fill="#231F20"/>
</svg>
