<svg width="12" height="8" viewBox="0 0 12 8" fill="none" xmlns="http://www.w3.org/2000/svg">
<g id="chevron-down 1" clip-path="url(#clip0_1959_4289)">
<path id="Icon" d="M0 7.10404C0 7.34884 0.0881264 7.55936 0.264382 7.73562C0.440637 7.91187 0.656058 8 0.910649 8C1.16524 8 1.37087 7.91187 1.52754 7.73562L6.00734 3.28519L10.4725 7.73562C10.6487 7.91187 10.8592 8 11.104 8C11.3488 8 11.5594 7.91187 11.7356 7.73562C11.9119 7.55936 12 7.34884 12 7.10404C12 6.85924 11.9119 6.64872 11.7356 6.47246L6.00734 0.729498L0.264382 6.47246C0.0881264 6.65851 0 6.86903 0 7.10404Z" fill="#231F20"/>
</g>
<defs>
<clipPath id="clip0_1959_4289">
<rect width="12" height="8" fill="white" transform="matrix(1 0 0 -1 0 8)"/>
</clipPath>
</defs>
</svg>
