<svg width="362" height="220" viewBox="0 0 362 220" fill="none" xmlns="http://www.w3.org/2000/svg">
<rect x="2" width="360" height="220" rx="4" fill="#E6E6E6"/>
<path d="M2 4C2 1.79086 3.79086 0 6 0H358C360.209 0 362 1.79086 362 4V14H2V4Z" fill="url(#paint0_linear_1107_37967)"/>
<circle cx="9" cy="7" r="3" fill="white"/>
<rect x="2.5" y="14.5" width="46" height="205" fill="#FB6E00" fill-opacity="0.16" stroke="#FB6E00"/>
<g filter="url(#filter0_d_1107_37967)">
<circle cx="26" cy="87" r="16" fill="white"/>
</g>
<path d="M20.3304 86.1835C20.557 85.9569 20.834 85.8436 21.1613 85.8436H24.8434L24.8529 82.1521C24.8466 81.8311 24.9567 81.5573 25.1833 81.3307C25.4099 81.1041 25.6837 80.994 26.0047 81.0003C26.3257 81.0065 26.5964 81.1198 26.8167 81.3401C27.037 81.5604 27.1503 81.8311 27.1566 82.1521V85.853L30.8482 85.8436C31.1629 85.8436 31.4335 85.9569 31.6601 86.1835C31.8867 86.4101 32 86.6807 32 86.9954C32 87.3101 31.8867 87.5808 31.6601 87.8073C31.4335 88.0339 31.1629 88.1472 30.8482 88.1472L27.1566 88.1567V91.8387C27.1503 92.1597 27.0338 92.4335 26.8072 92.6601C26.5806 92.8867 26.31 93 25.9953 93C25.6806 93 25.4099 92.8867 25.1833 92.6601C24.9567 92.4335 24.8434 92.1629 24.8434 91.8482V88.1661L21.1518 88.1567C20.8371 88.1567 20.5665 88.0434 20.3399 87.8168C20.1133 87.5902 20 87.3164 20 86.9954C20 86.6744 20.1101 86.4038 20.3304 86.1835Z" fill="white"/>
<path d="M20.3304 86.1835C20.557 85.9569 20.834 85.8436 21.1613 85.8436H24.8434L24.8529 82.1521C24.8466 81.8311 24.9567 81.5573 25.1833 81.3307C25.4099 81.1041 25.6837 80.994 26.0047 81.0003C26.3257 81.0065 26.5964 81.1198 26.8167 81.3401C27.037 81.5604 27.1503 81.8311 27.1566 82.1521V85.853L30.8482 85.8436C31.1629 85.8436 31.4335 85.9569 31.6601 86.1835C31.8867 86.4101 32 86.6807 32 86.9954C32 87.3101 31.8867 87.5808 31.6601 87.8073C31.4335 88.0339 31.1629 88.1472 30.8482 88.1472L27.1566 88.1567V91.8387C27.1503 92.1597 27.0338 92.4335 26.8072 92.6601C26.5806 92.8867 26.31 93 25.9953 93C25.6806 93 25.4099 92.8867 25.1833 92.6601C24.9567 92.4335 24.8434 92.1629 24.8434 91.8482V88.1661L21.1518 88.1567C20.8371 88.1567 20.5665 88.0434 20.3399 87.8168C20.1133 87.5902 20 87.3164 20 86.9954C20 86.6744 20.1101 86.4038 20.3304 86.1835Z" fill="black"/>
<defs>
<filter id="filter0_d_1107_37967" x="0" y="63" width="52" height="52" filterUnits="userSpaceOnUse" color-interpolation-filters="sRGB">
<feFlood flood-opacity="0" result="BackgroundImageFix"/>
<feColorMatrix in="SourceAlpha" type="matrix" values="0 0 0 0 0 0 0 0 0 0 0 0 0 0 0 0 0 0 127 0" result="hardAlpha"/>
<feOffset dy="2"/>
<feGaussianBlur stdDeviation="5"/>
<feComposite in2="hardAlpha" operator="out"/>
<feColorMatrix type="matrix" values="0 0 0 0 0 0 0 0 0 0 0 0 0 0 0 0 0 0 0.1 0"/>
<feBlend mode="normal" in2="BackgroundImageFix" result="effect1_dropShadow_1107_37967"/>
<feBlend mode="normal" in="SourceGraphic" in2="effect1_dropShadow_1107_37967" result="shape"/>
</filter>
<linearGradient id="paint0_linear_1107_37967" x1="2" y1="0" x2="12.6316" y2="68.3462" gradientUnits="userSpaceOnUse">
<stop stop-color="#FFC500"/>
<stop offset="0.411458" stop-color="#DC2223"/>
<stop offset="1" stop-color="#720096"/>
</linearGradient>
</defs>
</svg>
