<svg width="32" height="32" viewBox="0 0 32 32" fill="none" xmlns="http://www.w3.org/2000/svg">
  <path d="M23.5587 21.2626C24.0464 21.7502 23.8838 22.4004 23.0711 23.2132C22.2583 24.026 21.6081 24.1885 21.1204 23.7009L16 18.5804L10.8796 23.7009C10.3919 24.1885 9.7417 24.026 8.92893 23.2132C8.11616 22.4004 7.95361 21.7502 8.44127 21.2626L13.5617 16.1421L8.44127 11.0217C7.95361 10.534 8.11616 9.88384 8.92893 9.07107C9.7417 8.2583 10.3919 8.09575 10.8796 8.58341L16 13.7038L21.1204 8.58341C21.6081 8.09575 22.2583 8.2583 23.0711 9.07107C23.8838 9.88384 24.0464 10.534 23.5587 11.0217L18.4383 16.1421L23.5587 21.2626Z" fill="#BAB8BB"/>
</svg>
