<svg width="12" height="12" viewBox="0 0 12 12" fill="none" xmlns="http://www.w3.org/2000/svg">
<rect width="12" height="12" fill="#F5F5F5"/>
<path d="M-37.5 -192C-37.5 -193.933 -35.933 -195.5 -34 -195.5H238C239.933 -195.5 241.5 -193.933 241.5 -192V572C241.5 573.933 239.933 575.5 238 575.5H-34C-35.933 575.5 -37.5 573.933 -37.5 572V-192Z" fill="white" stroke="#E6E6E6"/>
<rect x="-29.5" y="-19.5" width="263" height="39" rx="3.5" fill="#F9F9F9" stroke="#E6E6E6"/>
<path d="M1.28341 -9V-3.95384C1.28341 -3.6627 1.51495 -3.4265 1.80065 -3.4265H6.75V8.13445C6.75 8.72308 6.15186 9 5.67604 9H-6.23276C-6.51845 9 -6.75 8.76393 -6.75 8.47266V-8.47266C-6.75 -8.76393 -6.51845 -9 -6.23276 -9H1.28341ZM2.31789 -8.69115L6.44706 -4.48132H2.31789V-8.69115Z" fill="#646265"/>
<rect width="12" height="12" rx="1" fill="#231F20"/>
<path d="M0.646393 6.35378L2.64639 8.35379C2.69252 8.40154 2.74769 8.43963 2.80869 8.46584C2.86969 8.49204 2.9353 8.50583 3.00169 8.50641C3.06808 8.50699 3.13392 8.49434 3.19537 8.4692C3.25682 8.44406 3.31264 8.40693 3.35959 8.35998C3.40654 8.31304 3.44366 8.25721 3.4688 8.19576C3.49394 8.13431 3.5066 8.06847 3.50602 8.00208C3.50544 7.93569 3.49165 7.87008 3.46544 7.80908C3.43924 7.74808 3.40115 7.69291 3.35339 7.64678L1.70689 6.00028L3.35339 4.35378C3.40115 4.30766 3.43924 4.25249 3.46544 4.19149C3.49165 4.13048 3.50544 4.06488 3.50602 3.99849C3.5066 3.9321 3.49394 3.86626 3.4688 3.80481C3.44366 3.74336 3.40654 3.68753 3.35959 3.64059C3.31264 3.59364 3.25682 3.55651 3.19537 3.53137C3.13392 3.50623 3.06808 3.49358 3.00169 3.49416C2.9353 3.49474 2.86969 3.50853 2.80869 3.53473C2.74769 3.56094 2.69252 3.59903 2.64639 3.64678L0.646393 5.64678C0.552658 5.74055 0.5 5.8677 0.5 6.00028C0.5 6.13287 0.552658 6.26002 0.646393 6.35378Z" fill="white"/>
<path d="M9.35379 3.64678C9.30766 3.59903 9.25249 3.56094 9.19149 3.53473C9.13049 3.50853 9.06488 3.49474 8.99849 3.49416C8.9321 3.49358 8.86626 3.50623 8.80481 3.53137C8.74336 3.55651 8.68753 3.59364 8.64059 3.64059C8.59364 3.68753 8.55651 3.74336 8.53137 3.80481C8.50623 3.86626 8.49358 3.9321 8.49416 3.99849C8.49474 4.06488 8.50853 4.13048 8.53473 4.19149C8.56094 4.25249 8.59903 4.30766 8.64678 4.35378L10.2933 6.00028L8.64678 7.64678C8.59903 7.69291 8.56094 7.74808 8.53473 7.80908C8.50853 7.87008 8.49474 7.93569 8.49416 8.00208C8.49358 8.06847 8.50623 8.13431 8.53137 8.19576C8.55651 8.25721 8.59364 8.31304 8.64059 8.35998C8.68753 8.40693 8.74336 8.44406 8.80481 8.4692C8.86626 8.49434 8.9321 8.50699 8.99849 8.50641C9.06488 8.50583 9.13049 8.49204 9.19149 8.46584C9.25249 8.43963 9.30766 8.40154 9.35379 8.35379L11.3538 6.35378C11.4475 6.26002 11.5002 6.13287 11.5002 6.00028C11.5002 5.8677 11.4475 5.74055 11.3538 5.64678L9.35379 3.64678Z" fill="white"/>
<path d="M6.51924 2.36343L4.51924 9.36343C4.48283 9.49087 4.49851 9.62754 4.56282 9.74343C4.62714 9.85931 4.73483 9.94492 4.86224 9.98143C4.90703 9.99381 4.95327 10.0002 4.99974 10.0004C5.10839 10.0004 5.21407 9.96488 5.30077 9.89938C5.38746 9.83389 5.45047 9.74193 5.48024 9.63743L7.48024 2.63743C7.50108 2.57351 7.50882 2.50604 7.50299 2.43905C7.49716 2.37207 7.47787 2.30695 7.44629 2.24759C7.41471 2.18823 7.37149 2.13585 7.3192 2.09358C7.26691 2.05131 7.20663 2.02002 7.14197 2.00158C7.07731 1.98315 7.00959 1.97794 6.94287 1.98628C6.87616 1.99462 6.8118 2.01633 6.75367 2.05011C6.69553 2.08389 6.64481 2.12905 6.60453 2.18288C6.56425 2.23672 6.53524 2.29813 6.51924 2.36343Z" fill="white"/>
</svg>
