<svg width="24" height="24" viewBox="0 0 24 24" fill="none" xmlns="http://www.w3.org/2000/svg">
<g clip-path="url(#clip0_1098_41190)">
<mask id="mask0_1098_41190" style="mask-type:alpha" maskUnits="userSpaceOnUse" x="3" y="3" width="18" height="14">
<path d="M16.1492 3V7.47273C16.1492 7.73078 16.3546 7.94015 16.608 7.94015H20.9983V15.7636C20.9983 15.7636 20.9986 15.7674 20.999 15.7744L20.999 15.8506C20.9898 16.0454 20.9022 16.5 20.287 16.5H3.45881C3.20539 16.5 3 16.2908 3 16.0326V3.46742C3 3.20924 3.20539 3 3.45881 3H16.1492ZM7.29231 6.64379L6.64445 7.35245C6.61419 7.38546 6.59717 7.43047 6.59717 7.47716C6.59717 7.52394 6.61419 7.56887 6.64445 7.60197L8.52584 9.66017L6.64445 11.7185C6.61419 11.7516 6.59717 11.7965 6.59717 11.8433C6.59717 11.89 6.61419 11.935 6.64445 11.9681L7.29231 12.6767C7.32386 12.7112 7.36509 12.7284 7.40639 12.7284C7.4477 12.7284 7.48893 12.7112 7.52048 12.6767L10.1639 9.78488C10.1942 9.75187 10.2112 9.70712 10.2112 9.66017C10.2112 9.61339 10.1942 9.56846 10.1639 9.53536L7.52048 6.64379C7.45747 6.57485 7.35532 6.57485 7.29231 6.64379ZM16.0588 11.5012H11.5915C11.4946 11.5012 11.4158 11.5871 11.4158 11.693V12.5366C11.4158 12.6425 11.4946 12.7284 11.5915 12.7284H16.0588C16.1558 12.7284 16.2345 12.6425 16.2345 12.5366V11.693C16.2345 11.5871 16.1558 11.5012 16.0588 11.5012ZM17.0669 3.27376L20.7296 7.00519H17.0669V3.27376Z" fill="white"/>
</mask>
<g mask="url(#mask0_1098_41190)">
<path d="M16.1492 3V7.47273C16.1492 7.73078 16.3546 7.94015 16.608 7.94015H20.9983V15.7636C20.9983 15.7636 20.9986 15.7674 20.999 15.7744L20.999 15.8506C20.9898 16.0454 20.9022 16.5 20.287 16.5H3.45881C3.20539 16.5 3 16.2908 3 16.0326V3.46742C3 3.20924 3.20539 3 3.45881 3H16.1492ZM7.29231 6.64379L6.64445 7.35245C6.61419 7.38546 6.59717 7.43047 6.59717 7.47716C6.59717 7.52394 6.61419 7.56887 6.64445 7.60197L8.52584 9.66017L6.64445 11.7185C6.61419 11.7516 6.59717 11.7965 6.59717 11.8433C6.59717 11.89 6.61419 11.935 6.64445 11.9681L7.29231 12.6767C7.32386 12.7112 7.36509 12.7284 7.40639 12.7284C7.4477 12.7284 7.48893 12.7112 7.52048 12.6767L10.1639 9.78488C10.1942 9.75187 10.2112 9.70712 10.2112 9.66017C10.2112 9.61339 10.1942 9.56846 10.1639 9.53536L7.52048 6.64379C7.45747 6.57485 7.35532 6.57485 7.29231 6.64379ZM16.0588 11.5012H11.5915C11.4946 11.5012 11.4158 11.5871 11.4158 11.693V12.5366C11.4158 12.6425 11.4946 12.7284 11.5915 12.7284H16.0588C16.1558 12.7284 16.2345 12.6425 16.2345 12.5366V11.693C16.2345 11.5871 16.1558 11.5012 16.0588 11.5012ZM17.0669 3.27376L20.7296 7.00519H17.0669V3.27376Z" fill="#646265"/>
</g>
</g>
<defs>
<clipPath id="clip0_1098_41190">
<rect width="18" height="13.5" fill="white" transform="translate(3 3)"/>
</clipPath>
</defs>
</svg>
