<svg width="24" height="24" viewBox="0 0 24 24" fill="none" xmlns="http://www.w3.org/2000/svg">
<mask id="mask0_1120_38060" style="mask-type:alpha" maskUnits="userSpaceOnUse" x="2" y="4" width="20" height="14">
<path d="M8.6239 14.8352L8.13026 15.2735C8.0715 15.3257 8.00098 15.3518 7.91871 15.3518C7.83643 15.3518 7.76004 15.3257 7.68952 15.2735L3.10578 11.1876C3.03526 11.1354 3 11.0728 3 10.9997C3 10.9267 3.03526 10.8588 3.10578 10.7962L7.68952 6.72595C7.74829 6.66333 7.82468 6.63202 7.91871 6.63202C8.01273 6.63202 8.08325 6.66333 8.13026 6.72595L8.6239 7.16428C8.69442 7.21647 8.72968 7.2843 8.72968 7.3678C8.72968 7.45129 8.69442 7.51391 8.6239 7.55565L4.76298 10.9997L8.6239 14.4281C8.69442 14.4908 8.72968 14.5586 8.72968 14.6316C8.72968 14.7047 8.69442 14.7725 8.6239 14.8352ZM14.4417 5.50487L10.7747 16.792C10.7512 16.8651 10.6983 16.9225 10.6161 16.9642C10.5338 17.006 10.4574 17.0112 10.3869 16.9799L9.78746 16.839C9.69344 16.8077 9.6288 16.7607 9.59354 16.6981C9.55828 16.6355 9.54652 16.5624 9.55828 16.4789L13.2429 5.20743C13.2664 5.12393 13.3134 5.06653 13.3839 5.03522C13.4545 5.00391 13.5309 4.99348 13.6131 5.00391L14.2302 5.16046C14.3124 5.18134 14.3771 5.2283 14.4241 5.30136C14.4711 5.37441 14.477 5.44225 14.4417 5.50487ZM20.9119 11.1876L16.3281 15.2735C16.2576 15.3257 16.1812 15.3518 16.0989 15.3518C16.0167 15.3518 15.9403 15.3257 15.8697 15.2735L15.3761 14.8352C15.3173 14.7725 15.288 14.7047 15.288 14.6316C15.288 14.5586 15.3173 14.4908 15.3761 14.4281L19.237 10.9997L15.3761 7.55565C15.3173 7.50347 15.288 7.44085 15.288 7.3678C15.288 7.29474 15.3173 7.2269 15.3761 7.16428L15.8697 6.72595C15.9403 6.66333 16.0167 6.63202 16.0989 6.63202C16.1812 6.63202 16.2576 6.66333 16.3281 6.72595L20.9119 10.7962C20.9706 10.8484 21 10.9162 21 10.9997C21 11.0832 20.9706 11.1458 20.9119 11.1876Z" fill="white" stroke="black" stroke-width="0.5"/>
</mask>
<g mask="url(#mask0_1120_38060)">
<path d="M7.35682 15.6467L7.37381 15.6619L7.3921 15.6754C7.54263 15.7868 7.72204 15.8518 7.91871 15.8518C8.11708 15.8518 8.30741 15.7849 8.46226 15.6474L8.95589 15.209C9.10016 15.0809 9.22968 14.8866 9.22968 14.6316C9.22968 14.3767 9.10016 14.1824 8.95589 14.0543L5.51505 10.9989L8.92981 7.9528C9.12346 7.8162 9.22968 7.60384 9.22968 7.3678C9.22968 7.1263 9.12062 6.91976 8.94303 6.77899L8.48992 6.37663C8.33159 6.19918 8.11718 6.13202 7.91871 6.13202C7.7097 6.13202 7.50454 6.20426 7.34439 6.36374L2.77379 10.4223C2.62952 10.5504 2.5 10.7448 2.5 10.9997C2.5 11.2525 2.62733 11.4467 2.78633 11.5726L7.35682 15.6467ZM9.62949 17.3134L9.651 17.3205L9.67306 17.3257L10.2388 17.4587C10.4556 17.5353 10.6696 17.4977 10.8423 17.4101C11.0176 17.3212 11.1779 17.1706 11.2504 16.9459C11.2505 16.9457 11.2506 16.9454 11.2507 16.9452L14.9063 5.69314C15.0156 5.45063 14.9579 5.20687 14.8446 5.03078C14.7308 4.85406 14.5613 4.72862 14.3531 4.67582L13.7361 4.51927L13.7064 4.51174L13.676 4.50789C13.5103 4.48686 13.3412 4.50713 13.181 4.57824C12.961 4.67596 12.8252 4.85792 12.7651 5.0598L9.08303 16.3236L9.06931 16.3655L9.06316 16.4092C9.03886 16.5818 9.0598 16.7693 9.15786 16.9434C9.27383 17.1494 9.46258 17.2578 9.62949 17.3134ZM18.485 10.9989L15.0441 14.0543L15.0271 14.0694L15.0115 14.086C14.882 14.2239 14.788 14.4095 14.788 14.6316C14.788 14.8538 14.882 15.0394 15.0115 15.1773L15.0271 15.1939L15.0441 15.209L15.5377 15.6474L15.5544 15.6622L15.5723 15.6754C15.7229 15.7868 15.9023 15.8518 16.0989 15.8518C16.2956 15.8518 16.475 15.7868 16.6255 15.6754L16.6438 15.6619L16.6608 15.6467L21.2296 11.5742C21.422 11.4232 21.5 11.206 21.5 10.9997C21.5 10.7834 21.4168 10.5759 21.2438 10.4223L20.9119 10.7962L21.2438 10.4223L16.6601 6.35207C16.5124 6.22088 16.3214 6.13202 16.0989 6.13202C15.8764 6.13202 15.6855 6.22088 15.5377 6.35207L15.0441 6.79041L15.0271 6.80552L15.0115 6.82212C14.882 6.96009 14.788 7.14567 14.788 7.3678C14.788 7.59531 14.8874 7.79019 15.0437 7.92913C15.0438 7.92926 15.044 7.9294 15.0441 7.92953L18.485 10.9989Z" fill="#231F20" stroke="#231F20"/>
</g>
</svg>
