<svg width="18" height="18" viewBox="0 0 18 18" fill="none" xmlns="http://www.w3.org/2000/svg">
<mask id="mask0_398_8128" style="mask-type:alpha" maskUnits="userSpaceOnUse" x="0" y="0" width="18" height="18">
<path d="M16.2857 9C16.2857 10.0286 16.8571 10.9 18 11.6143C17.8286 12.1857 17.5857 12.7714 17.2714 13.3714C16.2714 13.1143 15.3 13.4286 14.3571 14.3143C13.5857 15.1429 13.3429 16.1143 13.6286 17.2286C13.0571 17.5143 12.4571 17.7714 11.8286 18C11.1714 16.8286 10.2286 16.2429 9 16.2429C7.77142 16.2429 6.82858 16.8286 6.17143 18C5.54285 17.7714 4.94286 17.5143 4.37143 17.2286C4.65714 16.0857 4.41429 15.1214 3.64286 14.3357C2.87142 13.55 1.90001 13.3 0.728571 13.5857C0.52857 13.2143 0.285716 12.6286 0 11.8286C1.17143 11.0857 1.75714 10.1429 1.75714 9C1.75714 7.97142 1.17143 7.08572 0 6.34286C0.285716 5.54285 0.52857 4.95714 0.728571 4.58571C1.78572 4.84286 2.75714 4.52858 3.64286 3.64286C4.41429 2.84285 4.65714 1.87143 4.37143 0.728571C4.97143 0.414284 5.57143 0.171429 6.17143 0C6.82858 1.14286 7.77142 1.71429 9 1.71429C10.2286 1.71429 11.1714 1.14286 11.8286 0C12.4286 0.171429 13.0286 0.414284 13.6286 0.728571C13.3429 1.84286 13.5857 2.81428 14.3571 3.64286C15.3 4.52858 16.2714 4.84286 17.2714 4.58571C17.5857 5.18572 17.8286 5.77143 18 6.34286C16.8571 7.05715 16.2857 7.94285 16.2857 9ZM9 12.9C10.0857 12.9 11.0071 12.5214 11.7643 11.7643C12.5214 11.0071 12.9 10.0857 12.9 9C12.9 7.91428 12.5214 6.98572 11.7643 6.21429C11.0071 5.44285 10.0857 5.05714 9 5.05714C7.91428 5.05714 6.99286 5.44285 6.23571 6.21429C5.47857 6.98572 5.1 7.91428 5.1 9C5.1 10.0857 5.47857 11.0071 6.23571 11.7643C6.99286 12.5214 7.91428 12.9 9 12.9Z" fill="white"/>
</mask>
<g mask="url(#mask0_398_8128)">
<path d="M16.2857 9C16.2857 10.0286 16.8571 10.9 18 11.6143C17.8286 12.1857 17.5857 12.7714 17.2714 13.3714C16.2714 13.1143 15.3 13.4286 14.3571 14.3143C13.5857 15.1429 13.3429 16.1143 13.6286 17.2286C13.0571 17.5143 12.4571 17.7714 11.8286 18C11.1714 16.8286 10.2286 16.2429 9 16.2429C7.77142 16.2429 6.82858 16.8286 6.17143 18C5.54285 17.7714 4.94286 17.5143 4.37143 17.2286C4.65714 16.0857 4.41429 15.1214 3.64286 14.3357C2.87142 13.55 1.90001 13.3 0.728571 13.5857C0.52857 13.2143 0.285716 12.6286 0 11.8286C1.17143 11.0857 1.75714 10.1429 1.75714 9C1.75714 7.97142 1.17143 7.08572 0 6.34286C0.285716 5.54285 0.52857 4.95714 0.728571 4.58571C1.78572 4.84286 2.75714 4.52858 3.64286 3.64286C4.41429 2.84285 4.65714 1.87143 4.37143 0.728571C4.97143 0.414284 5.57143 0.171429 6.17143 0C6.82858 1.14286 7.77142 1.71429 9 1.71429C10.2286 1.71429 11.1714 1.14286 11.8286 0C12.4286 0.171429 13.0286 0.414284 13.6286 0.728571C13.3429 1.84286 13.5857 2.81428 14.3571 3.64286C15.3 4.52858 16.2714 4.84286 17.2714 4.58571C17.5857 5.18572 17.8286 5.77143 18 6.34286C16.8571 7.05715 16.2857 7.94285 16.2857 9ZM9 12.9C10.0857 12.9 11.0071 12.5214 11.7643 11.7643C12.5214 11.0071 12.9 10.0857 12.9 9C12.9 7.91428 12.5214 6.98572 11.7643 6.21429C11.0071 5.44285 10.0857 5.05714 9 5.05714C7.91428 5.05714 6.99286 5.44285 6.23571 6.21429C5.47857 6.98572 5.1 7.91428 5.1 9C5.1 10.0857 5.47857 11.0071 6.23571 11.7643C6.99286 12.5214 7.91428 12.9 9 12.9Z" fill="#231F20"/>
</g>
</svg>
