<svg width="320" height="290" viewBox="0 0 320 290" fill="none" xmlns="http://www.w3.org/2000/svg">
<path opacity="0.04" d="M228.594 104.134C227.327 104.134 226.06 104.187 224.804 104.23C221.875 46.1894 172.705 0 112.471 0C50.3527 0 0 49.1175 0 109.671C0 170.224 50.3527 219.341 112.471 219.341C121.72 219.346 130.936 218.237 139.921 216.041C148.694 257.779 185.056 289.073 228.594 289.073C278.691 289.073 319.312 247.653 319.312 196.566C319.312 145.479 278.691 104.134 228.594 104.134Z" fill="url(#paint0_linear_3395_73959)"/>
<rect opacity="0.72" x="86.8169" y="43.8169" width="162.676" height="197.183" rx="4" fill="white"/>
<g filter="url(#filter0_d_3395_73959)">
<rect x="84" y="41" width="160.563" height="194.366" rx="4" fill="white"/>
<rect x="84.5" y="41.5" width="159.563" height="193.366" rx="3.5" stroke="url(#paint1_linear_3395_73959)"/>
</g>
<rect x="143" y="206" width="42" height="9" fill="#FB6E00" fill-opacity="0.08"/>
<path d="M158.795 137.464C168.351 145.833 182.882 144.871 191.251 135.315C199.62 125.759 198.658 111.228 189.103 102.859C179.547 94.4901 165.016 95.452 156.647 105.008C148.277 114.563 149.239 129.094 158.795 137.464Z" fill="#E6E6E6" stroke="#857F87"/>
<path d="M169.754 128C169.754 128 171.254 127 173.754 127C176.254 127 177.754 128 177.754 128" stroke="#BAB8BB" stroke-width="2" stroke-linecap="round"/>
<circle cx="165.254" cy="118.5" r="2.5" fill="#BAB8BB"/>
<circle cx="182.254" cy="118.5" r="2.5" fill="#BAB8BB"/>
<path d="M195.274 186.775C199.428 190.413 205.746 189.995 209.385 185.84C213.024 181.686 212.605 175.368 208.451 171.729C204.296 168.09 197.978 168.509 194.339 172.663C190.701 176.818 191.119 183.136 195.274 186.775Z" fill="#E6E6E6" stroke="#857F87"/>
<path d="M119.228 161.339C123.383 164.978 129.701 164.56 133.339 160.405C136.978 156.251 136.56 149.933 132.405 146.294C128.251 142.655 121.933 143.074 118.294 147.228C114.655 151.383 115.073 157.701 119.228 161.339Z" fill="#E6E6E6" stroke="#857F87"/>
<path d="M195.754 167L183.589 144" stroke="#E6E6E6" stroke-miterlimit="10" stroke-dasharray="6 3"/>
<path d="M137.877 147.248L154 136.074" stroke="#E6E6E6" stroke-miterlimit="10" stroke-dasharray="6 3"/>
<path opacity="0.72" fill-rule="evenodd" clip-rule="evenodd" d="M298.342 201.147C297.698 201.791 297.698 202.834 298.342 203.477L300.865 206L298.342 208.524C297.698 209.167 297.698 210.21 298.342 210.853C298.985 211.496 300.028 211.496 300.671 210.853L303.194 208.329L305.718 210.853C306.361 211.496 307.404 211.496 308.047 210.853C308.69 210.21 308.69 209.167 308.047 208.524L305.524 206L308.047 203.477C308.69 202.833 308.69 201.791 308.047 201.147C307.404 200.504 306.361 200.504 305.718 201.147L303.194 203.671L300.671 201.147C300.028 200.504 298.985 200.504 298.342 201.147Z" fill="white"/>
<mask id="path-15-inside-1_3395_73959" fill="white">
<path fill-rule="evenodd" clip-rule="evenodd" d="M297.496 201.605C297.105 201.995 297.105 202.629 297.496 203.019L300.477 206L297.496 208.981C297.105 209.371 297.105 210.005 297.496 210.395L298.411 211.31C298.801 211.701 299.435 211.701 299.825 211.31L302.806 208.329L305.787 211.31C306.177 211.701 306.811 211.701 307.201 211.31L308.116 210.395C308.507 210.005 308.507 209.371 308.116 208.981L305.135 206L308.116 203.019C308.507 202.629 308.507 201.995 308.116 201.605L307.201 200.69C306.811 200.299 306.177 200.299 305.787 200.69L302.806 203.671L299.825 200.69C299.435 200.299 298.801 200.299 298.411 200.69L297.496 201.605Z"/>
</mask>
<path fill-rule="evenodd" clip-rule="evenodd" d="M297.496 201.605C297.105 201.995 297.105 202.629 297.496 203.019L300.477 206L297.496 208.981C297.105 209.371 297.105 210.005 297.496 210.395L298.411 211.31C298.801 211.701 299.435 211.701 299.825 211.31L302.806 208.329L305.787 211.31C306.177 211.701 306.811 211.701 307.201 211.31L308.116 210.395C308.507 210.005 308.507 209.371 308.116 208.981L305.135 206L308.116 203.019C308.507 202.629 308.507 201.995 308.116 201.605L307.201 200.69C306.811 200.299 306.177 200.299 305.787 200.69L302.806 203.671L299.825 200.69C299.435 200.299 298.801 200.299 298.411 200.69L297.496 201.605Z" fill="white"/>
<path d="M297.496 203.019L296.965 203.549L297.496 203.019ZM300.477 206L301.007 206.53L301.537 206L301.007 205.47L300.477 206ZM302.806 208.329L303.336 207.799L302.806 207.269L302.276 207.799L302.806 208.329ZM305.787 211.31L305.257 211.841L305.787 211.31ZM308.116 208.981L308.647 208.451L308.116 208.981ZM305.135 206L304.605 205.47L304.075 206L304.605 206.53L305.135 206ZM302.806 203.671L302.276 204.201L302.806 204.731L303.336 204.201L302.806 203.671ZM299.825 200.69L299.295 201.22L299.825 200.69ZM298.026 202.489C297.928 202.391 297.928 202.233 298.026 202.135L296.965 201.075C296.282 201.758 296.282 202.866 296.965 203.549L298.026 202.489ZM301.007 205.47L298.026 202.489L296.965 203.549L299.946 206.53L301.007 205.47ZM298.026 209.511L301.007 206.53L299.946 205.47L296.965 208.451L298.026 209.511ZM298.026 209.865C297.928 209.767 297.928 209.609 298.026 209.511L296.965 208.451C296.282 209.134 296.282 210.242 296.965 210.925L298.026 209.865ZM298.941 210.78L298.026 209.865L296.965 210.925L297.88 211.841L298.941 210.78ZM299.295 210.78C299.197 210.878 299.039 210.878 298.941 210.78L297.88 211.841C298.564 212.524 299.672 212.524 300.355 211.841L299.295 210.78ZM302.276 207.799L299.295 210.78L300.355 211.841L303.336 208.86L302.276 207.799ZM306.317 210.78L303.336 207.799L302.276 208.86L305.257 211.841L306.317 210.78ZM306.671 210.78C306.573 210.878 306.415 210.878 306.317 210.78L305.257 211.841C305.94 212.524 307.048 212.524 307.731 211.841L306.671 210.78ZM307.586 209.865L306.671 210.78L307.731 211.841L308.647 210.925L307.586 209.865ZM307.586 209.511C307.684 209.609 307.684 209.767 307.586 209.865L308.647 210.925C309.33 210.242 309.33 209.134 308.647 208.451L307.586 209.511ZM304.605 206.53L307.586 209.511L308.647 208.451L305.666 205.47L304.605 206.53ZM307.586 202.489L304.605 205.47L305.666 206.53L308.647 203.549L307.586 202.489ZM307.586 202.135C307.684 202.233 307.684 202.391 307.586 202.489L308.647 203.549C309.33 202.866 309.33 201.758 308.647 201.075L307.586 202.135ZM306.671 201.22L307.586 202.135L308.647 201.075L307.731 200.159L306.671 201.22ZM306.317 201.22C306.415 201.122 306.573 201.122 306.671 201.22L307.731 200.159C307.048 199.476 305.94 199.476 305.257 200.159L306.317 201.22ZM303.336 204.201L306.317 201.22L305.257 200.159L302.276 203.14L303.336 204.201ZM299.295 201.22L302.276 204.201L303.336 203.14L300.355 200.159L299.295 201.22ZM298.941 201.22C299.039 201.122 299.197 201.122 299.295 201.22L300.355 200.159C299.672 199.476 298.564 199.476 297.88 200.159L298.941 201.22ZM298.026 202.135L298.941 201.22L297.88 200.159L296.965 201.075L298.026 202.135Z" fill="url(#paint2_linear_3395_73959)" mask="url(#path-15-inside-1_3395_73959)"/>
<path opacity="0.72" fill-rule="evenodd" clip-rule="evenodd" d="M23.2411 123.047C22.5979 123.69 22.5979 124.733 23.2411 125.376L25.7645 127.9L23.2411 130.423C22.5979 131.066 22.5979 132.109 23.2411 132.752C23.8843 133.395 24.9272 133.395 25.5704 132.752L28.0938 130.229L30.6172 132.752C31.2604 133.395 32.3033 133.395 32.9465 132.752C33.5897 132.109 33.5897 131.066 32.9465 130.423L30.4231 127.9L32.9465 125.376C33.5897 124.733 33.5897 123.69 32.9465 123.047C32.3033 122.404 31.2604 122.404 30.6172 123.047L28.0938 125.57L25.5704 123.047C24.9272 122.404 23.8843 122.404 23.2411 123.047Z" fill="white"/>
<mask id="path-18-inside-2_3395_73959" fill="white">
<path fill-rule="evenodd" clip-rule="evenodd" d="M22.3952 123.504C22.0046 123.895 22.0046 124.528 22.3952 124.918L25.3761 127.899L22.3951 130.88C22.0046 131.271 22.0046 131.904 22.3951 132.295L23.3102 133.21C23.7008 133.6 24.3339 133.6 24.7244 133.21L27.7054 130.229L30.6863 133.21C31.0769 133.6 31.71 133.6 32.1005 133.21L33.0156 132.295C33.4061 131.904 33.4061 131.271 33.0156 130.88L30.0347 127.899L33.0156 124.918C33.4061 124.528 33.4061 123.895 33.0156 123.504L32.1005 122.589C31.71 122.199 31.0768 122.199 30.6863 122.589L27.7054 125.57L24.7244 122.589C24.3339 122.199 23.7008 122.199 23.3102 122.589L22.3952 123.504Z"/>
</mask>
<path fill-rule="evenodd" clip-rule="evenodd" d="M22.3952 123.504C22.0046 123.895 22.0046 124.528 22.3952 124.918L25.3761 127.899L22.3951 130.88C22.0046 131.271 22.0046 131.904 22.3951 132.295L23.3102 133.21C23.7008 133.6 24.3339 133.6 24.7244 133.21L27.7054 130.229L30.6863 133.21C31.0769 133.6 31.71 133.6 32.1005 133.21L33.0156 132.295C33.4061 131.904 33.4061 131.271 33.0156 130.88L30.0347 127.899L33.0156 124.918C33.4061 124.528 33.4061 123.895 33.0156 123.504L32.1005 122.589C31.71 122.199 31.0768 122.199 30.6863 122.589L27.7054 125.57L24.7244 122.589C24.3339 122.199 23.7008 122.199 23.3102 122.589L22.3952 123.504Z" fill="white"/>
<path d="M22.3952 124.918L21.8648 125.449L22.3952 124.918ZM25.3761 127.899L25.9064 128.43L26.4368 127.899L25.9064 127.369L25.3761 127.899ZM27.7054 130.229L28.2357 129.698L27.7054 129.168L27.1751 129.698L27.7054 130.229ZM33.0156 130.88L33.546 130.35L33.0156 130.88ZM30.0347 127.899L29.5043 127.369L28.974 127.899L29.5043 128.43L30.0347 127.899ZM33.0156 123.504L33.5459 122.974L33.0156 123.504ZM32.1005 122.589L31.5702 123.12L32.1005 122.589ZM27.7054 125.57L27.1751 126.1L27.7054 126.631L28.2357 126.1L27.7054 125.57ZM24.7244 122.589L24.1941 123.12L24.7244 122.589ZM22.9255 124.388C22.8279 124.291 22.8279 124.132 22.9255 124.035L21.8648 122.974C21.1814 123.657 21.1814 124.765 21.8648 125.449L22.9255 124.388ZM25.9064 127.369L22.9255 124.388L21.8648 125.449L24.8458 128.43L25.9064 127.369ZM22.9255 131.411L25.9064 128.43L24.8458 127.369L21.8648 130.35L22.9255 131.411ZM22.9255 131.764C22.8278 131.667 22.8278 131.508 22.9255 131.411L21.8648 130.35C21.1814 131.033 21.1814 132.141 21.8648 132.825L22.9255 131.764ZM23.8406 132.679L22.9255 131.764L21.8648 132.825L22.7799 133.74L23.8406 132.679ZM24.1941 132.679C24.0965 132.777 23.9382 132.777 23.8406 132.679L22.7799 133.74C23.4633 134.423 24.5714 134.423 25.2548 133.74L24.1941 132.679ZM27.1751 129.698L24.1941 132.679L25.2548 133.74L28.2357 130.759L27.1751 129.698ZM31.2167 132.679L28.2357 129.698L27.1751 130.759L30.156 133.74L31.2167 132.679ZM31.5702 132.679C31.4726 132.777 31.3143 132.777 31.2167 132.679L30.156 133.74C30.8394 134.423 31.9475 134.423 32.6309 133.74L31.5702 132.679ZM32.4853 131.764L31.5702 132.679L32.6309 133.74L33.546 132.825L32.4853 131.764ZM32.4853 131.411C32.5829 131.508 32.5829 131.667 32.4853 131.764L33.546 132.825C34.2294 132.141 34.2294 131.033 33.546 130.35L32.4853 131.411ZM29.5043 128.43L32.4853 131.411L33.546 130.35L30.565 127.369L29.5043 128.43ZM32.4853 124.388L29.5043 127.369L30.565 128.43L33.5459 125.449L32.4853 124.388ZM32.4853 124.035C32.5829 124.132 32.5829 124.291 32.4853 124.388L33.5459 125.449C34.2294 124.765 34.2294 123.657 33.5459 122.974L32.4853 124.035ZM31.5702 123.12L32.4853 124.035L33.5459 122.974L32.6309 122.059L31.5702 123.12ZM31.2167 123.12C31.3143 123.022 31.4726 123.022 31.5702 123.12L32.6309 122.059C31.9474 121.375 30.8394 121.375 30.156 122.059L31.2167 123.12ZM28.2357 126.1L31.2167 123.12L30.156 122.059L27.1751 125.04L28.2357 126.1ZM24.1941 123.12L27.1751 126.1L28.2357 125.04L25.2548 122.059L24.1941 123.12ZM23.8406 123.12C23.9382 123.022 24.0965 123.022 24.1941 123.12L25.2548 122.059C24.5714 121.375 23.4633 121.375 22.7799 122.059L23.8406 123.12ZM22.9255 124.035L23.8406 123.12L22.7799 122.059L21.8648 122.974L22.9255 124.035Z" fill="#857F87" mask="url(#path-18-inside-2_3395_73959)"/>
<path opacity="0.72" fill-rule="evenodd" clip-rule="evenodd" d="M91.1968 33.6437C90.4158 34.4248 90.4158 35.6911 91.1968 36.4722L105.565 50.8406L91.1968 65.209C90.4158 65.99 90.4158 67.2564 91.1968 68.0374L100.644 77.4844C101.425 78.2654 102.691 78.2654 103.472 77.4844L117.841 63.116L132.209 77.4844C132.99 78.2654 134.256 78.2654 135.037 77.4844L144.484 68.0374C145.265 67.2564 145.265 65.99 144.484 65.209L130.116 50.8406L144.484 36.4722C145.265 35.6911 145.265 34.4248 144.484 33.6437L135.037 24.1968C134.256 23.4157 132.99 23.4157 132.209 24.1968L117.841 38.5652L103.472 24.1968C102.691 23.4157 101.425 23.4157 100.644 24.1968L91.1968 33.6437Z" fill="white"/>
<mask id="path-21-inside-3_3395_73959" fill="white">
<path fill-rule="evenodd" clip-rule="evenodd" d="M94.4039 34.1031C93.6228 34.8842 93.6228 36.1505 94.4039 36.9315L108.313 50.8405L94.4039 64.7494C93.6228 65.5305 93.6228 66.7968 94.4039 67.5778L101.253 74.4272C102.034 75.2082 103.301 75.2082 104.082 74.4272L117.991 60.5182L131.899 74.4271C132.681 75.2082 133.947 75.2082 134.728 74.4271L141.577 67.5778C142.358 66.7967 142.358 65.5304 141.577 64.7494L127.668 50.8405L141.577 36.9316C142.358 36.1505 142.358 34.8842 141.577 34.1031L134.728 27.2538C133.947 26.4728 132.681 26.4728 131.899 27.2538L117.991 41.1627L104.082 27.2538C103.301 26.4727 102.034 26.4727 101.253 27.2538L94.4039 34.1031Z"/>
</mask>
<path fill-rule="evenodd" clip-rule="evenodd" d="M94.4039 34.1031C93.6228 34.8842 93.6228 36.1505 94.4039 36.9315L108.313 50.8405L94.4039 64.7494C93.6228 65.5305 93.6228 66.7968 94.4039 67.5778L101.253 74.4272C102.034 75.2082 103.301 75.2082 104.082 74.4272L117.991 60.5182L131.899 74.4271C132.681 75.2082 133.947 75.2082 134.728 74.4271L141.577 67.5778C142.358 66.7967 142.358 65.5304 141.577 64.7494L127.668 50.8405L141.577 36.9316C142.358 36.1505 142.358 34.8842 141.577 34.1031L134.728 27.2538C133.947 26.4728 132.681 26.4728 131.899 27.2538L117.991 41.1627L104.082 27.2538C103.301 26.4727 102.034 26.4727 101.253 27.2538L94.4039 34.1031Z" fill="white"/>
<path d="M108.313 50.8405L109.02 51.5476L109.727 50.8405L109.02 50.1334L108.313 50.8405ZM94.4039 67.5778L93.6968 68.2849L94.4039 67.5778ZM101.253 74.4272L101.96 73.7201L101.253 74.4272ZM117.991 60.5182L118.698 59.8111L117.991 59.104L117.283 59.8111L117.991 60.5182ZM141.577 64.7494L142.284 64.0423L141.577 64.7494ZM127.668 50.8405L126.961 50.1334L126.254 50.8405L126.961 51.5476L127.668 50.8405ZM117.991 41.1627L117.283 41.8698L117.991 42.5769L118.698 41.8698L117.991 41.1627ZM95.111 36.2244C94.7204 35.8339 94.7204 35.2007 95.111 34.8102L93.6967 33.396C92.5252 34.5676 92.5252 36.4671 93.6967 37.6386L95.111 36.2244ZM109.02 50.1334L95.111 36.2244L93.6967 37.6386L107.606 51.5476L109.02 50.1334ZM95.111 65.4565L109.02 51.5476L107.606 50.1334L93.6968 64.0423L95.111 65.4565ZM95.111 66.8707C94.7205 66.4802 94.7205 65.847 95.111 65.4565L93.6968 64.0423C92.5252 65.2139 92.5252 67.1134 93.6968 68.2849L95.111 66.8707ZM101.96 73.7201L95.111 66.8707L93.6968 68.2849L100.546 75.1343L101.96 73.7201ZM103.375 73.7201C102.984 74.1106 102.351 74.1106 101.96 73.7201L100.546 75.1343C101.718 76.3058 103.617 76.3058 104.789 75.1343L103.375 73.7201ZM117.283 59.8111L103.375 73.7201L104.789 75.1343L118.698 61.2254L117.283 59.8111ZM132.607 73.72L118.698 59.8111L117.283 61.2254L131.192 75.1342L132.607 73.72ZM134.021 73.72C133.63 74.1105 132.997 74.1105 132.607 73.72L131.192 75.1342C132.364 76.3058 134.263 76.3058 135.435 75.1342L134.021 73.72ZM140.87 66.8707L134.021 73.72L135.435 75.1342L142.284 68.2849L140.87 66.8707ZM140.87 65.4565C141.261 65.847 141.261 66.4802 140.87 66.8707L142.284 68.2849C143.456 67.1133 143.456 65.2138 142.284 64.0423L140.87 65.4565ZM126.961 51.5476L140.87 65.4565L142.284 64.0423L128.375 50.1334L126.961 51.5476ZM140.87 36.2245L126.961 50.1334L128.375 51.5476L142.284 37.6387L140.87 36.2245ZM140.87 34.8102C141.261 35.2008 141.261 35.8339 140.87 36.2245L142.284 37.6387C143.456 36.4671 143.456 34.5676 142.284 33.396L140.87 34.8102ZM134.021 27.9609L140.87 34.8102L142.284 33.396L135.435 26.5467L134.021 27.9609ZM132.607 27.9609C132.997 27.5704 133.63 27.5704 134.021 27.9609L135.435 26.5467C134.263 25.3751 132.364 25.3751 131.192 26.5467L132.607 27.9609ZM118.698 41.8698L132.607 27.9609L131.192 26.5467L117.283 40.4556L118.698 41.8698ZM103.375 27.9609L117.283 41.8698L118.698 40.4556L104.789 26.5467L103.375 27.9609ZM101.96 27.9609C102.351 27.5703 102.984 27.5703 103.375 27.9609L104.789 26.5467C103.617 25.3751 101.718 25.3751 100.546 26.5467L101.96 27.9609ZM95.111 34.8102L101.96 27.9609L100.546 26.5467L93.6967 33.396L95.111 34.8102Z" fill="url(#paint3_linear_3395_73959)" mask="url(#path-21-inside-3_3395_73959)"/>
<defs>
<filter id="filter0_d_3395_73959" x="74" y="33" width="180.563" height="214.366" filterUnits="userSpaceOnUse" color-interpolation-filters="sRGB">
<feFlood flood-opacity="0" result="BackgroundImageFix"/>
<feColorMatrix in="SourceAlpha" type="matrix" values="0 0 0 0 0 0 0 0 0 0 0 0 0 0 0 0 0 0 127 0" result="hardAlpha"/>
<feOffset dy="2"/>
<feGaussianBlur stdDeviation="5"/>
<feComposite in2="hardAlpha" operator="out"/>
<feColorMatrix type="matrix" values="0 0 0 0 0 0 0 0 0 0 0 0 0 0 0 0 0 0 0.1 0"/>
<feBlend mode="normal" in2="BackgroundImageFix" result="effect1_dropShadow_3395_73959"/>
<feBlend mode="normal" in="SourceGraphic" in2="effect1_dropShadow_3395_73959" result="shape"/>
</filter>
<linearGradient id="paint0_linear_3395_73959" x1="0" y1="0" x2="370.858" y2="102.413" gradientUnits="userSpaceOnUse">
<stop stop-color="#FFC500"/>
<stop offset="0.411458" stop-color="#DC2223"/>
<stop offset="1" stop-color="#720096"/>
</linearGradient>
<linearGradient id="paint1_linear_3395_73959" x1="84" y1="41" x2="276.494" y2="80.7542" gradientUnits="userSpaceOnUse">
<stop stop-color="#FFC500"/>
<stop offset="0.411458" stop-color="#DC2223"/>
<stop offset="1" stop-color="#720096"/>
</linearGradient>
<linearGradient id="paint2_linear_3395_73959" x1="293.101" y1="206" x2="307.373" y2="197.436" gradientUnits="userSpaceOnUse">
<stop stop-color="#FFC500"/>
<stop offset="0.411458" stop-color="#DC2223"/>
<stop offset="1" stop-color="#720096"/>
</linearGradient>
<linearGradient id="paint3_linear_3395_73959" x1="77.6665" y1="50.8405" x2="136.967" y2="15.2604" gradientUnits="userSpaceOnUse">
<stop stop-color="#FFC500"/>
<stop offset="0.411458" stop-color="#DC2223"/>
<stop offset="1" stop-color="#720096"/>
</linearGradient>
</defs>
</svg>
