<svg width="24" height="24" viewBox="0 0 24 24" fill="none" xmlns="http://www.w3.org/2000/svg">
<rect width="24" height="24" fill="#E5E5E5"/>
<g clip-path="url(#clip0_914_26000)">
<rect width="1440" height="912" transform="translate(-1384 -176)" fill="#F9F9F9"/>
<g filter="url(#filter0_d_914_26000)">
<rect x="-1128" y="-24" width="1168" height="431" rx="4" fill="#231F20"/>
</g>
<circle cx="12" cy="12" r="11.5" fill="#FB6E00" fill-opacity="0.16" stroke="white"/>
<mask id="mask0_914_26000" style="mask-type:alpha" maskUnits="userSpaceOnUse" x="6" y="6" width="12" height="12">
<path d="M18 12C18 11.1875 17.8411 10.4115 17.5234 9.67188C17.2057 8.93229 16.7786 8.29427 16.2422 7.75781C15.7057 7.22135 15.0677 6.79427 14.3281 6.47656C13.5885 6.15885 12.8125 6 12 6C11.2344 6 10.4935 6.14453 9.77734 6.43359C9.0612 6.72266 8.42448 7.13021 7.86719 7.65625L6.85156 6.64844C6.69531 6.48698 6.51562 6.45052 6.3125 6.53906C6.10417 6.6276 6 6.78125 6 7V10.5C6 10.6354 6.04948 10.7526 6.14844 10.8516C6.2474 10.9505 6.36458 11 6.5 11H10C10.2187 11 10.3724 10.8958 10.4609 10.6875C10.5495 10.4844 10.513 10.3047 10.3516 10.1484L9.28125 9.07031C9.64583 8.72656 10.0625 8.46224 10.5313 8.27734C11 8.09245 11.4896 8 12 8C12.5417 8 13.0586 8.10547 13.5508 8.31641C14.043 8.52734 14.4688 8.8125 14.8281 9.17187C15.1875 9.53125 15.4727 9.95703 15.6836 10.4492C15.8945 10.9414 16 11.4583 16 12C16 12.5417 15.8945 13.0586 15.6836 13.5508C15.4727 14.043 15.1875 14.4688 14.8281 14.8281C14.4688 15.1875 14.043 15.4727 13.5508 15.6836C13.0586 15.8945 12.5417 16 12 16C11.3802 16 10.7943 15.8646 10.2422 15.5938C9.6901 15.3229 9.22396 14.9401 8.84375 14.4453C8.80729 14.3932 8.7474 14.362 8.66406 14.3516C8.58594 14.3516 8.52083 14.375 8.46875 14.4219L7.39844 15.5C7.35677 15.5417 7.33464 15.5951 7.33203 15.6602C7.32943 15.7253 7.34635 15.7839 7.38281 15.8359C7.95052 16.5234 8.63802 17.056 9.44531 17.4336C10.2526 17.8112 11.1042 18 12 18C12.8125 18 13.5885 17.8411 14.3281 17.5234C15.0677 17.2057 15.7057 16.7786 16.2422 16.2422C16.7786 15.7057 17.2057 15.0677 17.5234 14.3281C17.8411 13.5885 18 12.8125 18 12Z" fill="white"/>
</mask>
<g mask="url(#mask0_914_26000)">
<path d="M18 12C18 11.1875 17.8411 10.4115 17.5234 9.67188C17.2057 8.93229 16.7786 8.29427 16.2422 7.75781C15.7057 7.22135 15.0677 6.79427 14.3281 6.47656C13.5885 6.15885 12.8125 6 12 6C11.2344 6 10.4935 6.14453 9.77734 6.43359C9.0612 6.72266 8.42448 7.13021 7.86719 7.65625L6.85156 6.64844C6.69531 6.48698 6.51562 6.45052 6.3125 6.53906C6.10417 6.6276 6 6.78125 6 7V10.5C6 10.6354 6.04948 10.7526 6.14844 10.8516C6.2474 10.9505 6.36458 11 6.5 11H10C10.2187 11 10.3724 10.8958 10.4609 10.6875C10.5495 10.4844 10.513 10.3047 10.3516 10.1484L9.28125 9.07031C9.64583 8.72656 10.0625 8.46224 10.5313 8.27734C11 8.09245 11.4896 8 12 8C12.5417 8 13.0586 8.10547 13.5508 8.31641C14.043 8.52734 14.4688 8.8125 14.8281 9.17187C15.1875 9.53125 15.4727 9.95703 15.6836 10.4492C15.8945 10.9414 16 11.4583 16 12C16 12.5417 15.8945 13.0586 15.6836 13.5508C15.4727 14.043 15.1875 14.4688 14.8281 14.8281C14.4688 15.1875 14.043 15.4727 13.5508 15.6836C13.0586 15.8945 12.5417 16 12 16C11.3802 16 10.7943 15.8646 10.2422 15.5938C9.6901 15.3229 9.22396 14.9401 8.84375 14.4453C8.80729 14.3932 8.7474 14.362 8.66406 14.3516C8.58594 14.3516 8.52083 14.375 8.46875 14.4219L7.39844 15.5C7.35677 15.5417 7.33464 15.5951 7.33203 15.6602C7.32943 15.7253 7.34635 15.7839 7.38281 15.8359C7.95052 16.5234 8.63802 17.056 9.44531 17.4336C10.2526 17.8112 11.1042 18 12 18C12.8125 18 13.5885 17.8411 14.3281 17.5234C15.0677 17.2057 15.7057 16.7786 16.2422 16.2422C16.7786 15.7057 17.2057 15.0677 17.5234 14.3281C17.8411 13.5885 18 12.8125 18 12Z" fill="#FB6E00"/>
</g>
</g>
<defs>
<filter id="filter0_d_914_26000" x="-1138" y="-32" width="1188" height="451" filterUnits="userSpaceOnUse" color-interpolation-filters="sRGB">
<feFlood flood-opacity="0" result="BackgroundImageFix"/>
<feColorMatrix in="SourceAlpha" type="matrix" values="0 0 0 0 0 0 0 0 0 0 0 0 0 0 0 0 0 0 127 0" result="hardAlpha"/>
<feOffset dy="2"/>
<feGaussianBlur stdDeviation="5"/>
<feComposite in2="hardAlpha" operator="out"/>
<feColorMatrix type="matrix" values="0 0 0 0 0 0 0 0 0 0 0 0 0 0 0 0 0 0 0.1 0"/>
<feBlend mode="normal" in2="BackgroundImageFix" result="effect1_dropShadow_914_26000"/>
<feBlend mode="normal" in="SourceGraphic" in2="effect1_dropShadow_914_26000" result="shape"/>
</filter>
<clipPath id="clip0_914_26000">
<rect width="1440" height="912" fill="white" transform="translate(-1384 -176)"/>
</clipPath>
</defs>
</svg>
