<svg width="24" height="24" viewBox="0 0 24 24" fill="none" xmlns="http://www.w3.org/2000/svg">
<path d="M16.8342 18.7526C16.8342 18.5426 16.7696 18.3676 16.6405 18.2275C16.5113 18.0875 16.3498 18.0105 16.1561 17.9965C15.9623 17.9825 15.8009 18.0595 15.6717 18.2275C15.5425 18.3956 15.4715 18.5706 15.4586 18.7526C15.4456 18.9347 15.5167 19.1097 15.6717 19.2777C15.8267 19.4457 15.9882 19.5228 16.1561 19.5088C16.324 19.4947 16.4855 19.4177 16.6405 19.2777C16.7955 19.1377 16.8601 18.9627 16.8342 18.7526ZM19.6049 18.7526C19.6049 18.5426 19.5404 18.3676 19.4112 18.2275C19.282 18.0875 19.1141 18.0105 18.9074 17.9965C18.7008 17.9825 18.5393 18.0595 18.423 18.2275C18.3068 18.3956 18.2422 18.5706 18.2293 18.7526C18.2164 18.9347 18.2809 19.1097 18.423 19.2777C18.5651 19.4457 18.7266 19.5228 18.9074 19.5088C19.0883 19.4947 19.2562 19.4177 19.4112 19.2777C19.5662 19.1377 19.6308 18.9627 19.6049 18.7526ZM21 16.1272V19.8868C21 20.1949 20.8967 20.4539 20.69 20.6639C20.4833 20.874 20.2379 20.986 19.9537 21H4.04629C3.74919 21 3.50377 20.888 3.31001 20.6639C3.11625 20.4399 3.01292 20.1809 3 19.8868V16.1272C3 15.8191 3.10334 15.5531 3.31001 15.3291C3.51669 15.105 3.76211 14.993 4.04629 14.993H9.06459L10.5178 16.5893C10.944 17.0373 11.4349 17.2614 11.9903 17.2614C12.5458 17.2614 13.0366 17.0373 13.4629 16.5893L14.9354 14.993H19.9537C20.2379 14.993 20.4833 15.105 20.69 15.3291C20.8967 15.5531 21 15.8191 21 16.1272ZM17.4736 9.44807C17.6028 9.77013 17.5511 10.0432 17.3186 10.2672L12.4747 15.5181C12.3455 15.6721 12.1841 15.7491 11.9903 15.7491C11.7966 15.7491 11.6351 15.6721 11.5059 15.5181L6.662 10.2672C6.44241 10.0432 6.39074 9.77013 6.507 9.44807C6.63617 9.15402 6.8493 9.007 7.14639 9.007H9.91712V3.75613C9.91712 3.54609 9.98816 3.37106 10.1302 3.23104C10.2723 3.09101 10.4338 3.014 10.6146 3H13.3854C13.5662 3 13.7277 3.07701 13.8698 3.23104C14.0118 3.38506 14.0764 3.56009 14.0635 3.75613V9.007H16.8342C17.1442 9.007 17.3574 9.15402 17.4736 9.44807Z" fill="#646265"/>
</svg>
