<svg width="7" height="12" viewBox="0 0 7 12" fill="none" xmlns="http://www.w3.org/2000/svg">
<path d="M0 1.2C0 0.962663 0.0684239 0.730655 0.196619 0.533316C0.324814 0.335977 0.507022 0.18217 0.720203 0.0913451C0.933383 0.000519939 1.16796 -0.0232441 1.39427 0.0230582C1.62058 0.0693605 1.82846 0.183649 1.99162 0.351472C2.15479 0.519295 2.2659 0.733115 2.31092 0.965892C2.35593 1.19867 2.33283 1.43995 2.24453 1.65922C2.15622 1.87849 2.00669 2.06591 1.81483 2.19776C1.62297 2.32962 1.39741 2.4 1.16667 2.4C0.857247 2.4 0.560501 2.27357 0.341709 2.04853C0.122916 1.82349 0 1.51826 0 1.2ZM1.16667 7.2C1.39741 7.2 1.62297 7.12962 1.81483 6.99776C2.00669 6.86591 2.15622 6.67849 2.24453 6.45922C2.33283 6.23995 2.35593 5.99867 2.31092 5.76589C2.2659 5.53312 2.15479 5.3193 1.99162 5.15147C1.82846 4.98365 1.62058 4.86936 1.39427 4.82306C1.16796 4.77676 0.933383 4.80052 0.720203 4.89135C0.507022 4.98217 0.324814 5.13598 0.196619 5.33332C0.0684239 5.53066 0 5.76266 0 6C0 6.31826 0.122916 6.62349 0.341709 6.84853C0.560501 7.07357 0.857247 7.2 1.16667 7.2ZM1.16667 12C1.39741 12 1.62297 11.9296 1.81483 11.7978C2.00669 11.6659 2.15622 11.4785 2.24453 11.2592C2.33283 11.0399 2.35593 10.7987 2.31092 10.5659C2.2659 10.3331 2.15479 10.1193 1.99162 9.95147C1.82846 9.78365 1.62058 9.66936 1.39427 9.62306C1.16796 9.57676 0.933383 9.60052 0.720203 9.69135C0.507022 9.78217 0.324814 9.93598 0.196619 10.1333C0.0684239 10.3307 0 10.5627 0 10.8C0 11.1183 0.122916 11.4235 0.341709 11.6485C0.560501 11.8736 0.857247 12 1.16667 12ZM5.83333 2.4C6.06408 2.4 6.28964 2.32962 6.4815 2.19776C6.67336 2.06591 6.82289 1.87849 6.91119 1.65922C6.9995 1.43995 7.0226 1.19867 6.97758 0.965892C6.93257 0.733115 6.82145 0.519295 6.65829 0.351472C6.49513 0.183649 6.28725 0.0693605 6.06094 0.0230582C5.83463 -0.0232441 5.60005 0.000519939 5.38687 0.0913451C5.17369 0.18217 4.99148 0.335977 4.86329 0.533316C4.73509 0.730655 4.66667 0.962663 4.66667 1.2C4.66667 1.51826 4.78958 1.82349 5.00838 2.04853C5.22717 2.27357 5.52391 2.4 5.83333 2.4ZM5.83333 7.2C6.06408 7.2 6.28964 7.12962 6.4815 6.99776C6.67336 6.86591 6.82289 6.67849 6.91119 6.45922C6.9995 6.23995 7.0226 5.99867 6.97758 5.76589C6.93257 5.53312 6.82145 5.3193 6.65829 5.15147C6.49513 4.98365 6.28725 4.86936 6.06094 4.82306C5.83463 4.77676 5.60005 4.80052 5.38687 4.89135C5.17369 4.98217 4.99148 5.13598 4.86329 5.33332C4.73509 5.53066 4.66667 5.76266 4.66667 6C4.66667 6.31826 4.78958 6.62349 5.00838 6.84853C5.22717 7.07357 5.52391 7.2 5.83333 7.2ZM5.83333 12C6.06408 12 6.28964 11.9296 6.4815 11.7978C6.67336 11.6659 6.82289 11.4785 6.91119 11.2592C6.9995 11.0399 7.0226 10.7987 6.97758 10.5659C6.93257 10.3331 6.82145 10.1193 6.65829 9.95147C6.49513 9.78365 6.28725 9.66936 6.06094 9.62306C5.83463 9.57676 5.60005 9.60052 5.38687 9.69135C5.17369 9.78217 4.99148 9.93598 4.86329 10.1333C4.73509 10.3307 4.66667 10.5627 4.66667 10.8C4.66667 11.1183 4.78958 11.4235 5.00838 11.6485C5.22717 11.8736 5.52391 12 5.83333 12Z" fill="#000000"/>
</svg>
