<svg width="18" height="18" viewBox="0 0 18 18" fill="none" xmlns="http://www.w3.org/2000/svg">
<rect width="18" height="18" fill="#F5F5F5"/>
<g clip-path="url(#clip0_4_15)">
<rect width="1440" height="2114" transform="translate(-533 -1295)" fill="#F9F9F9"/>
<g filter="url(#filter0_d_4_15)">
<rect x="-24" y="-23" width="724" height="652" rx="4" fill="white"/>
</g>
<circle cx="9" cy="9" r="9" fill="#8C0082"/>
<path d="M9 14.582C8.7881 14.582 8.61288 14.5052 8.47433 14.3515C8.33578 14.1978 8.2665 14.0143 8.2665 13.8008L8.2665 5.57883L5.28362 8.67808C5.13692 8.8403 4.95762 8.92141 4.74572 8.92141C4.53382 8.92141 4.36267 8.8403 4.23227 8.67808C4.07742 8.53294 4 8.35364 4 8.1402C4 7.92675 4.07742 7.73892 4.23227 7.5767L9 2.58203L13.78 7.5767C13.9267 7.74745 14 7.93529 14 8.1402C14 8.34511 13.9267 8.5244 13.78 8.67808C13.6333 8.83176 13.454 8.91287 13.2421 8.92141C13.0302 8.92995 12.8549 8.84884 12.7164 8.67808L9.75795 5.57883L9.75795 13.8008C9.75795 14.0143 9.6846 14.1978 9.5379 14.3515C9.3912 14.5052 9.2119 14.582 9 14.582Z" fill="white"/>
</g>
<defs>
<filter id="filter0_d_4_15" x="-34" y="-31" width="744" height="672" filterUnits="userSpaceOnUse" color-interpolation-filters="sRGB">
<feFlood flood-opacity="0" result="BackgroundImageFix"/>
<feColorMatrix in="SourceAlpha" type="matrix" values="0 0 0 0 0 0 0 0 0 0 0 0 0 0 0 0 0 0 127 0" result="hardAlpha"/>
<feOffset dy="2"/>
<feGaussianBlur stdDeviation="5"/>
<feComposite in2="hardAlpha" operator="out"/>
<feColorMatrix type="matrix" values="0 0 0 0 0 0 0 0 0 0 0 0 0 0 0 0 0 0 0.1 0"/>
<feBlend mode="normal" in2="BackgroundImageFix" result="effect1_dropShadow_4_15"/>
<feBlend mode="normal" in="SourceGraphic" in2="effect1_dropShadow_4_15" result="shape"/>
</filter>
<clipPath id="clip0_4_15">
<rect width="1440" height="2114" fill="white" transform="translate(-533 -1295)"/>
</clipPath>
</defs>
</svg>
