<svg width="383" height="201" viewBox="0 0 383 201" fill="none" xmlns="http://www.w3.org/2000/svg">
<path opacity="0.04" d="M235.155 72.4071C234.27 72.4071 233.385 72.4441 232.508 72.4737C230.463 32.1168 196.123 0 154.058 0C110.676 0 75.5105 34.1528 75.5105 76.257C75.5105 118.361 110.676 152.514 154.058 152.514C160.517 152.517 166.953 151.746 173.228 150.219C179.355 179.241 204.749 201 235.155 201C270.142 201 298.51 172.2 298.51 136.678C298.51 101.155 270.142 72.4071 235.155 72.4071Z" fill="url(#paint0_linear_4461_90515)"/>
<path d="M174.266 71.9248C185.187 71.9248 194.041 63.0713 194.041 52.1499C194.041 41.2285 185.187 32.375 174.266 32.375C163.345 32.375 154.491 41.2285 154.491 52.1499C154.491 63.0713 163.345 71.9248 174.266 71.9248Z" fill="#E6E6E6"/>
<path d="M112.47 121.362C123.391 121.362 132.245 112.508 132.245 101.587C132.245 90.6655 123.391 81.812 112.47 81.812C101.548 81.812 92.6948 90.6655 92.6948 101.587C92.6948 112.508 101.548 121.362 112.47 121.362Z" fill="#E6E6E6"/>
<path d="M19.7749 178.832C30.6963 178.832 39.5498 169.979 39.5498 159.058C39.5498 148.136 30.6963 139.283 19.7749 139.283C8.85352 139.283 0 148.136 0 159.058C0 169.979 8.85352 178.832 19.7749 178.832Z" fill="#9D989F"/>
<path d="M265.725 81.812C271.186 81.812 275.613 77.3852 275.613 71.9246C275.613 66.4639 271.186 62.0371 265.725 62.0371C260.264 62.0371 255.838 66.4639 255.838 71.9246C255.838 77.3852 260.264 81.812 265.725 81.812Z" fill="#9D989F"/>
<path d="M25.3363 48.4419C30.797 48.4419 35.2237 44.0151 35.2237 38.5544C35.2237 33.0938 30.797 28.667 25.3363 28.667C19.8756 28.667 15.4489 33.0938 15.4489 38.5544C15.4489 44.0151 19.8756 48.4419 25.3363 48.4419Z" fill="#9D989F"/>
<path d="M372.633 176.052C378.094 176.052 382.521 171.625 382.521 166.164C382.521 160.704 378.094 156.277 372.633 156.277C367.173 156.277 362.746 160.704 362.746 166.164C362.746 171.625 367.173 176.052 372.633 176.052Z" fill="#E6E6E6"/>
<path d="M236.062 170.799C246.984 170.799 255.837 161.945 255.837 151.024C255.837 140.103 246.984 131.249 236.062 131.249C225.141 131.249 216.288 140.103 216.288 151.024C216.288 161.945 225.141 170.799 236.062 170.799Z" fill="#E6E6E6"/>
<path d="M171.794 67.599C182.374 67.599 190.951 59.0222 190.951 48.4421C190.951 37.862 182.374 29.2852 171.794 29.2852C161.214 29.2852 152.637 37.862 152.637 48.4421C152.637 59.0222 161.214 67.599 171.794 67.599Z" stroke="url(#paint1_linear_4461_90515)"/>
<path d="M199.385 54.4585L242.639 65.3568L249.923 67.192L243.405 61.007L244.256 60.1105L252.485 67.9193L253.282 68.6756L252.222 68.9639L241.275 71.9413L240.95 70.7487L249.62 68.3896L242.337 66.5553L199.083 55.657L199.385 54.4585Z" fill="#BAB8BB"/>
<path d="M24.7202 52.1045L25.9528 52.1954L21.0683 118.407L20.5188 125.852L25.4885 118.365L26.5182 119.048L20.2442 128.5L19.6366 129.415L19.1699 128.421L14.3507 118.151L15.4696 117.626L19.2866 125.76L19.8357 118.316L24.7202 52.1045Z" fill="#BAB8BB"/>
<path d="M260.845 155.662L346.867 164.599L354.279 165.368L346.946 160.178L347.66 159.169L356.92 165.723L357.816 166.358L356.808 166.795L346.399 171.305L345.908 170.171L354.15 166.598L346.74 165.828L260.717 156.891L260.845 155.662Z" fill="#BAB8BB"/>
<path d="M219.863 125.548L220.519 126.595L219.472 127.252L218.816 126.204L219.863 125.548ZM217.239 121.359L217.895 122.406L216.847 123.062L216.191 122.015L217.239 121.359ZM214.614 117.169L215.27 118.217L214.223 118.873L213.566 117.825L214.614 117.169ZM211.989 112.98L212.645 114.027L211.598 114.683L210.942 113.636L211.989 112.98ZM209.364 108.79L210.021 109.838L208.973 110.494L208.317 109.447L209.364 108.79ZM206.74 104.601L207.396 105.648L206.349 106.304L205.692 105.257L206.74 104.601ZM204.115 100.411L204.771 101.459L203.724 102.115L203.068 101.068L204.115 100.411ZM201.49 96.222L202.147 97.2694L201.099 97.9256L200.443 96.8782L201.49 96.222ZM198.866 92.0326L199.522 93.08L198.474 93.7361L197.818 92.6888L198.866 92.0326ZM196.241 87.8432L196.897 88.8905L195.85 89.5467L195.194 88.4994L196.241 87.8432ZM186.864 74.0405L187.829 74.566L197.792 79.9921L197.2 81.0775L188.765 76.4827L188.232 76.8176L188.687 86.4111L187.452 86.4696L186.916 75.1379L186.864 74.0405ZM193.616 83.6537L194.272 84.7011L193.225 85.3573L192.569 84.3099L193.616 83.6537ZM190.992 79.4643L191.648 80.5117L190.6 81.1679L189.944 80.1205L190.992 79.4643Z" fill="#BAB8BB"/>
<path d="M151.57 64.7036L152.47 65.5507L139.026 79.8352L133.889 85.2914L142.463 82.61L142.833 83.7895L132.006 87.1777L130.958 87.5059L131.222 86.4394L133.948 75.4276L135.148 75.7247L132.988 84.446L138.126 78.9881L151.57 64.7036Z" fill="url(#paint2_linear_4461_90515)"/>
<path d="M202.798 147.696L212.865 152.927L213.839 153.433L212.9 154.003L203.203 159.89L202.562 158.834L210.242 154.17L202.753 154.42L44.5139 159.675L44.4729 158.44L202.712 153.184L210.2 152.936L202.228 148.793L202.798 147.696Z" fill="#BAB8BB"/>
<path d="M79.4184 112.395L90.7627 112.408L91.8613 112.409L91.2897 113.347L85.3875 123.035L84.3321 122.392L89.0081 114.717L82.4536 118.395L47.924 137.765L41.3704 141.44L50.356 141.452L50.3546 142.688L39.0102 142.675L37.9116 142.673L38.4832 141.735L44.3854 132.047L45.4409 132.69L40.7636 140.364L47.3193 136.687L81.8489 117.317L88.4013 113.641L79.417 113.63L79.4184 112.395Z" fill="#BAB8BB"/>
<path d="M261.4 84.3643L261.593 85.4457L263.591 96.6127L262.375 96.8304L260.792 87.9846L258.336 95.0341L250.181 118.435L247.725 125.481L254.462 119.537L255.279 120.464L246.774 127.971L245.95 128.698L245.757 127.616L243.758 116.449L244.975 116.232L246.556 125.076L249.014 118.028L257.169 94.6273L259.623 87.5792L252.888 93.5244L252.07 92.5977L260.576 85.0912L261.4 84.3643Z" fill="#BAB8BB"/>
<defs>
<linearGradient id="paint0_linear_4461_90515" x1="75.5105" y1="0" x2="334.348" y2="71.792" gradientUnits="userSpaceOnUse">
<stop stop-color="#FFC500"/>
<stop offset="0.411458" stop-color="#DC2223"/>
<stop offset="1" stop-color="#720096"/>
</linearGradient>
<linearGradient id="paint1_linear_4461_90515" x1="152.637" y1="29.2852" x2="197.712" y2="40.5539" gradientUnits="userSpaceOnUse">
<stop stop-color="#FFC500"/>
<stop offset="0.411458" stop-color="#DC2223"/>
<stop offset="1" stop-color="#720096"/>
</linearGradient>
<linearGradient id="paint2_linear_4461_90515" x1="130.958" y1="64.7036" x2="156.431" y2="70.7117" gradientUnits="userSpaceOnUse">
<stop stop-color="#FFC500"/>
<stop offset="0.411458" stop-color="#DC2223"/>
<stop offset="1" stop-color="#720096"/>
</linearGradient>
</defs>
</svg>
