<svg width="472" height="247" viewBox="0 0 472 247" fill="none" xmlns="http://www.w3.org/2000/svg">
<rect x="0.5" y="26.5" width="140" height="49" rx="3.5" fill="url(#paint0_linear_2502_36253)" fill-opacity="0.1"/>
<rect x="0.5" y="26.5" width="140" height="49" rx="3.5" stroke="#646265"/>
<rect x="163.5" y="26.5" width="140" height="49" rx="3.5" fill="url(#paint1_linear_2502_36253)" fill-opacity="0.1"/>
<rect x="163.5" y="26.5" width="140" height="49" rx="3.5" stroke="#646265"/>
<rect x="326.5" y="26.5" width="140" height="49" rx="3.5" fill="url(#paint2_linear_2502_36253)" fill-opacity="0.1"/>
<rect x="326.5" y="26.5" width="140" height="49" rx="3.5" stroke="#646265"/>
<rect x="163.5" y="133.5" width="140" height="49" rx="3.5" fill="url(#paint3_linear_2502_36253)" fill-opacity="0.1"/>
<rect x="163.5" y="133.5" width="140" height="49" rx="3.5" stroke="#646265"/>
<path opacity="0.04" d="M297.871 88.9779C296.78 88.9779 295.689 89.0234 294.607 89.0598C292.085 39.4669 249.738 0 197.863 0C144.365 0 101 41.9688 101 93.7088C101 145.449 144.365 187.418 197.863 187.418C205.829 187.421 213.766 186.474 221.503 184.597C229.059 220.261 260.375 247 297.871 247C341.016 247 376 211.609 376 167.957C376 124.305 341.016 88.9779 297.871 88.9779Z" fill="url(#paint4_linear_2502_36253)"/>
<path d="M74.5 105H401.5" stroke="#BAB8BB"/>
<g clip-path="url(#clip0_2502_36253)">
<rect x="4" y="30" width="142" height="52" rx="4" fill="#F9F9F9"/>
<path d="M-34.5 34C-34.5 32.067 -32.933 30.5 -31 30.5H181C182.933 30.5 184.5 32.067 184.5 34V53.5H-34.5V34Z" fill="white" stroke="#BAB8BB"/>
</g>
<rect x="4.5" y="30.5" width="141" height="51" rx="3.5" stroke="#BAB8BB"/>
<g clip-path="url(#clip1_2502_36253)">
<rect x="167" y="137" width="142" height="52" rx="4" fill="#F9F9F9"/>
<path d="M128.5 141C128.5 139.067 130.067 137.5 132 137.5H344C345.933 137.5 347.5 139.067 347.5 141V160.5H128.5V141Z" fill="white" stroke="#BAB8BB"/>
</g>
<rect x="167.5" y="137.5" width="141" height="51" rx="3.5" stroke="#BAB8BB"/>
<g clip-path="url(#clip2_2502_36253)">
<rect x="167" y="30" width="142" height="52" rx="4" fill="#F9F9F9"/>
<path d="M128.5 34C128.5 32.067 130.067 30.5 132 30.5H344C345.933 30.5 347.5 32.067 347.5 34V53.5H128.5V34Z" fill="white" stroke="#BAB8BB"/>
</g>
<rect x="167.5" y="30.5" width="141" height="51" rx="3.5" stroke="#BAB8BB"/>
<g clip-path="url(#clip3_2502_36253)">
<rect x="330" y="30" width="142" height="52" rx="4" fill="#F9F9F9"/>
<path d="M291.5 34C291.5 32.067 293.067 30.5 295 30.5H507C508.933 30.5 510.5 32.067 510.5 34V53.5H291.5V34Z" fill="white" stroke="#BAB8BB"/>
</g>
<rect x="330.5" y="30.5" width="141" height="51" rx="3.5" stroke="#BAB8BB"/>
<path d="M75 82L75 105" stroke="#BAB8BB"/>
<path d="M401 82L401 105" stroke="#BAB8BB"/>
<path d="M238 82L238 137" stroke="url(#paint5_linear_2502_36253)"/>
<defs>
<linearGradient id="paint0_linear_2502_36253" x1="0" y1="26" x2="117.734" y2="109.002" gradientUnits="userSpaceOnUse">
<stop stop-color="#FFC500"/>
<stop offset="0.411458" stop-color="#DC2223"/>
<stop offset="1" stop-color="#720096"/>
</linearGradient>
<linearGradient id="paint1_linear_2502_36253" x1="163" y1="26" x2="280.734" y2="109.002" gradientUnits="userSpaceOnUse">
<stop stop-color="#FFC500"/>
<stop offset="0.411458" stop-color="#DC2223"/>
<stop offset="1" stop-color="#720096"/>
</linearGradient>
<linearGradient id="paint2_linear_2502_36253" x1="326" y1="26" x2="443.734" y2="109.002" gradientUnits="userSpaceOnUse">
<stop stop-color="#FFC500"/>
<stop offset="0.411458" stop-color="#DC2223"/>
<stop offset="1" stop-color="#720096"/>
</linearGradient>
<linearGradient id="paint3_linear_2502_36253" x1="163" y1="133" x2="280.734" y2="216.002" gradientUnits="userSpaceOnUse">
<stop stop-color="#FFC500"/>
<stop offset="0.411458" stop-color="#DC2223"/>
<stop offset="1" stop-color="#720096"/>
</linearGradient>
<linearGradient id="paint4_linear_2502_36253" x1="101" y1="0" x2="420.033" y2="88.7998" gradientUnits="userSpaceOnUse">
<stop stop-color="#FFC500"/>
<stop offset="0.411458" stop-color="#DC2223"/>
<stop offset="1" stop-color="#720096"/>
</linearGradient>
<linearGradient id="paint5_linear_2502_36253" x1="239" y1="137" x2="236.398" y2="136.924" gradientUnits="userSpaceOnUse">
<stop stop-color="#FB6E00"/>
<stop offset="1" stop-color="#FFC500"/>
</linearGradient>
<clipPath id="clip0_2502_36253">
<rect x="4" y="30" width="142" height="52" rx="4" fill="white"/>
</clipPath>
<clipPath id="clip1_2502_36253">
<rect x="167" y="137" width="142" height="52" rx="4" fill="white"/>
</clipPath>
<clipPath id="clip2_2502_36253">
<rect x="167" y="30" width="142" height="52" rx="4" fill="white"/>
</clipPath>
<clipPath id="clip3_2502_36253">
<rect x="330" y="30" width="142" height="52" rx="4" fill="white"/>
</clipPath>
</defs>
</svg>
