<svg width="175" height="159" viewBox="0 0 175 159" fill="none" xmlns="http://www.w3.org/2000/svg">
<path opacity="0.04" d="M125.491 57.5459C124.8 57.5459 124.108 57.5751 123.422 57.5985C121.824 25.7586 94.9895 0.419922 62.1171 0.419922C28.2162 0.419922 0.736328 27.3649 0.736328 60.5833C0.736328 93.8016 28.2162 120.747 62.1171 120.747C67.1648 120.749 72.1944 120.141 77.0977 118.936C81.8859 141.833 101.73 159 125.491 159C152.831 159 175 136.278 175 108.253C175 80.2269 152.831 57.5459 125.491 57.5459Z" fill="url(#paint0_linear_4172_82293)"/>
<path d="M32.1038 135.988V62.3403C32.1038 60.7212 32.9316 59.2154 34.2963 58.3522L87.5425 24.6714C89.0726 23.7036 91.0204 23.7036 92.5504 24.6714L145.797 58.3522C147.161 59.2154 147.989 60.7212 147.989 62.3403V135.988C147.989 138.592 145.886 140.702 143.293 140.702H36.8002C34.2064 140.702 32.1038 138.592 32.1038 135.988Z" fill="white"/>
<path d="M30.3613 134.246V60.5976C30.3613 58.9785 31.1892 57.4727 32.5539 56.6095L85.8001 22.9288C87.3301 21.9609 89.2779 21.9609 90.808 22.9288L144.054 56.6095C145.419 57.4727 146.247 58.9785 146.247 60.5976V134.246C146.247 136.849 144.144 138.96 141.55 138.96H35.0578C32.464 138.96 30.3613 136.849 30.3613 134.246Z" fill="white"/>
<path fill-rule="evenodd" clip-rule="evenodd" d="M85.2301 22.0963C86.8422 21.0766 88.8945 21.0766 90.5066 22.0963L143.937 55.892C145.375 56.8014 146.247 58.3879 146.247 60.0938V133.993C146.247 136.736 144.031 138.96 141.298 138.96H34.4383C31.7054 138.96 29.49 136.736 29.49 133.993V60.0938C29.49 58.3879 30.3622 56.8014 31.8001 55.892L85.2301 22.0963ZM90.2553 22.4965C88.7967 21.5739 86.94 21.5739 85.4814 22.4965L32.0514 56.2921C30.7504 57.115 29.9613 58.5504 29.9613 60.0938V133.993C29.9613 136.475 31.9657 138.487 34.4383 138.487H141.298C143.771 138.487 145.775 136.475 145.775 133.993V60.0938C145.775 58.5504 144.986 57.115 143.685 56.2921L90.2553 22.4965Z" fill="url(#paint1_linear_4172_82293)"/>
<path fill-rule="evenodd" clip-rule="evenodd" d="M90.7708 92.543C89.1159 91.1674 86.7172 91.1637 85.058 92.5343L30.9705 137.217L30.6704 136.853L84.7579 92.1706C86.5917 90.6557 89.2429 90.6597 91.072 92.1802L144.813 136.854L144.512 137.217L90.7708 92.543Z" fill="url(#paint2_linear_4172_82293)"/>
<path fill-rule="evenodd" clip-rule="evenodd" d="M82.1582 94.8315L31.2327 57.7543L31.5045 57.3647L82.43 94.4419L82.1582 94.8315ZM144.504 57.7539L93.8943 94.8311L93.6213 94.4423L144.231 57.3652L144.504 57.7539Z" fill="url(#paint3_linear_4172_82293)"/>
<defs>
<linearGradient id="paint0_linear_4172_82293" x1="0.736328" y1="0.419922" x2="203.279" y2="56.0636" gradientUnits="userSpaceOnUse">
<stop stop-color="#FFC500"/>
<stop offset="0.411458" stop-color="#DC2223"/>
<stop offset="1" stop-color="#720096"/>
</linearGradient>
<linearGradient id="paint1_linear_4172_82293" x1="29.49" y1="21.3315" x2="166.97" y2="55.447" gradientUnits="userSpaceOnUse">
<stop stop-color="#FFC500"/>
<stop offset="0.411458" stop-color="#DC2223"/>
<stop offset="1" stop-color="#720096"/>
</linearGradient>
<linearGradient id="paint2_linear_4172_82293" x1="30.6704" y1="91.0371" x2="133.924" y2="154.84" gradientUnits="userSpaceOnUse">
<stop stop-color="#FFC500"/>
<stop offset="0.411458" stop-color="#DC2223"/>
<stop offset="1" stop-color="#720096"/>
</linearGradient>
<linearGradient id="paint3_linear_4172_82293" x1="31.2327" y1="57.3647" x2="121.345" y2="125.473" gradientUnits="userSpaceOnUse">
<stop stop-color="#FFC500"/>
<stop offset="0.411458" stop-color="#DC2223"/>
<stop offset="1" stop-color="#720096"/>
</linearGradient>
</defs>
</svg>
