<svg width="363" height="234" viewBox="0 0 363 234" fill="none" xmlns="http://www.w3.org/2000/svg">
<path opacity="0.08" d="M235.042 84.2948C234.011 84.2948 232.979 84.3379 231.957 84.3724C229.574 37.3897 189.563 0 140.55 0C90.0036 0 49.0308 39.7599 49.0308 88.7768C49.0308 137.794 90.0036 177.554 140.55 177.554C148.076 177.557 155.576 176.66 162.886 174.882C170.026 208.668 199.614 234 235.042 234C275.806 234 308.86 200.472 308.86 159.117C308.86 117.763 275.806 84.2948 235.042 84.2948Z" fill="url(#paint0_linear_4394_9337)"/>
<g clip-path="url(#clip0_4394_9337)">
<rect y="70.0386" width="342" height="83.9102" rx="11.2748" fill="url(#paint1_linear_4394_9337)" fill-opacity="0.1"/>
<line x1="21.7446" y1="70.0386" x2="21.7446" y2="248.039" stroke="url(#paint2_linear_4394_9337)"/>
<line x1="63.7446" y1="70.0386" x2="63.7446" y2="248.039" stroke="url(#paint3_linear_4394_9337)"/>
<line x1="105.745" y1="70.0386" x2="105.745" y2="248.039" stroke="url(#paint4_linear_4394_9337)"/>
<line x1="147.745" y1="70.0386" x2="147.745" y2="248.039" stroke="url(#paint5_linear_4394_9337)"/>
<line x1="189.745" y1="70.0386" x2="189.745" y2="248.039" stroke="url(#paint6_linear_4394_9337)"/>
<line x1="231.745" y1="70.0386" x2="231.745" y2="248.039" stroke="url(#paint7_linear_4394_9337)"/>
<line x1="273.745" y1="70.0386" x2="273.745" y2="248.039" stroke="url(#paint8_linear_4394_9337)"/>
<line x1="315.745" y1="70.0386" x2="315.745" y2="248.039" stroke="url(#paint9_linear_4394_9337)"/>
<line y1="96.5386" x2="286" y2="96.5386" stroke="url(#paint10_linear_4394_9337)"/>
<line y1="138.539" x2="286" y2="138.539" stroke="url(#paint11_linear_4394_9337)"/>
</g>
<rect x="0.5" y="70.5386" width="341" height="82.9102" rx="10.7748" stroke="#646265"/>
<rect opacity="0.72" x="20" y="92.0151" width="343" height="71.9231" rx="4" fill="white"/>
<rect x="17.5" y="82.5259" width="341" height="76.9166" rx="3.5" fill="#231F20" stroke="#646265"/>
<rect x="45" y="117.987" width="286" height="15.9829" rx="2" fill="#FFF4EB"/>
<rect opacity="0.8" x="45" y="102.228" width="67" height="11.9872" rx="2" fill="#FFF4EB"/>
<rect opacity="0.8" x="45" y="138.189" width="216" height="11.9872" rx="2" fill="#FFF4EB"/>
<path d="M17.25 85.8521C17.25 83.9191 18.817 82.3521 20.75 82.3521H354.929C356.862 82.3521 358.429 83.9191 358.429 85.8521V93.3147H17.25V85.8521Z" fill="white" stroke="#646265"/>
<ellipse cx="331.496" cy="87.8334" rx="2.39286" ry="2.39253" fill="#BAB8BB"/>
<ellipse cx="341.067" cy="87.833" rx="2.39286" ry="2.39253" fill="#BAB8BB"/>
<ellipse cx="350.639" cy="87.833" rx="2.39286" ry="2.39253" fill="#BAB8BB"/>
<path d="M222.613 126.311V126.102C222.613 125.765 222.719 125.49 222.93 125.275C223.145 125.06 223.436 124.953 223.801 124.953C224.17 124.953 224.463 125.06 224.678 125.275C224.893 125.49 225 125.765 225 126.102V126.311C225 126.644 224.893 126.918 224.678 127.133C224.466 127.344 224.176 127.45 223.807 127.45C223.441 127.45 223.151 127.344 222.936 127.133C222.721 126.918 222.613 126.644 222.613 126.311Z" fill="#231F20"/>
<path d="M218.764 126.311V126.102C218.764 125.765 218.87 125.49 219.081 125.275C219.296 125.06 219.587 124.953 219.952 124.953C220.321 124.953 220.613 125.06 220.828 125.275C221.043 125.49 221.151 125.765 221.151 126.102V126.311C221.151 126.644 221.043 126.918 220.828 127.133C220.617 127.344 220.327 127.45 219.958 127.45C219.592 127.45 219.302 127.344 219.087 127.133C218.872 126.918 218.764 126.644 218.764 126.311Z" fill="#231F20"/>
<path d="M214.915 126.311V126.102C214.915 125.765 215.021 125.49 215.232 125.275C215.447 125.06 215.738 124.953 216.103 124.953C216.472 124.953 216.765 125.06 216.98 125.275C217.195 125.49 217.302 125.765 217.302 126.102V126.311C217.302 126.644 217.195 126.918 216.98 127.133C216.768 127.344 216.478 127.45 216.109 127.45C215.743 127.45 215.453 127.344 215.238 127.133C215.023 126.918 214.915 126.644 214.915 126.311Z" fill="#231F20"/>
<path d="M211.066 126.311V126.102C211.066 125.765 211.172 125.49 211.384 125.275C211.599 125.06 211.889 124.953 212.254 124.953C212.624 124.953 212.916 125.06 213.131 125.275C213.346 125.49 213.453 125.765 213.453 126.102V126.311C213.453 126.644 213.346 126.918 213.131 127.133C212.919 127.344 212.629 127.45 212.26 127.45C211.894 127.45 211.604 127.344 211.389 127.133C211.174 126.918 211.066 126.644 211.066 126.311Z" fill="#231F20"/>
<path d="M207.217 126.311V126.102C207.217 125.765 207.323 125.49 207.534 125.275C207.749 125.06 208.04 124.953 208.405 124.953C208.774 124.953 209.067 125.06 209.282 125.275C209.497 125.49 209.604 125.765 209.604 126.102V126.311C209.604 126.644 209.497 126.918 209.282 127.133C209.07 127.344 208.78 127.45 208.411 127.45C208.045 127.45 207.755 127.344 207.54 127.133C207.325 126.918 207.217 126.644 207.217 126.311Z" fill="#231F20"/>
<path d="M203.368 126.311V126.102C203.368 125.765 203.474 125.49 203.685 125.275C203.9 125.06 204.191 124.953 204.556 124.953C204.925 124.953 205.217 125.06 205.432 125.275C205.647 125.49 205.755 125.765 205.755 126.102V126.311C205.755 126.644 205.647 126.918 205.432 127.133C205.221 127.344 204.931 127.45 204.562 127.45C204.196 127.45 203.906 127.344 203.691 127.133C203.476 126.918 203.368 126.644 203.368 126.311Z" fill="#231F20"/>
<path d="M199.519 126.311V126.102C199.519 125.765 199.625 125.49 199.836 125.275C200.051 125.06 200.342 124.953 200.707 124.953C201.076 124.953 201.369 125.06 201.584 125.275C201.799 125.49 201.906 125.765 201.906 126.102V126.311C201.906 126.644 201.799 126.918 201.584 127.133C201.372 127.344 201.082 127.45 200.713 127.45C200.347 127.45 200.057 127.344 199.842 127.133C199.627 126.918 199.519 126.644 199.519 126.311Z" fill="#231F20"/>
<path d="M195.67 126.311V126.102C195.67 125.765 195.776 125.49 195.988 125.275C196.203 125.06 196.493 124.953 196.858 124.953C197.228 124.953 197.52 125.06 197.735 125.275C197.95 125.49 198.057 125.765 198.057 126.102V126.311C198.057 126.644 197.95 126.918 197.735 127.133C197.523 127.344 197.233 127.45 196.864 127.45C196.498 127.45 196.208 127.344 195.993 127.133C195.778 126.918 195.67 126.644 195.67 126.311Z" fill="#231F20"/>
<path d="M191.821 126.311V126.102C191.821 125.765 191.927 125.49 192.138 125.275C192.353 125.06 192.644 124.953 193.009 124.953C193.378 124.953 193.671 125.06 193.886 125.275C194.101 125.49 194.208 125.765 194.208 126.102V126.311C194.208 126.644 194.101 126.918 193.886 127.133C193.674 127.344 193.384 127.45 193.015 127.45C192.649 127.45 192.359 127.344 192.144 127.133C191.929 126.918 191.821 126.644 191.821 126.311Z" fill="#231F20"/>
<path d="M187.972 126.311V126.102C187.972 125.765 188.078 125.49 188.29 125.275C188.505 125.06 188.795 124.953 189.16 124.953C189.53 124.953 189.822 125.06 190.037 125.275C190.252 125.49 190.359 125.765 190.359 126.102V126.311C190.359 126.644 190.252 126.918 190.037 127.133C189.825 127.344 189.535 127.45 189.166 127.45C188.8 127.45 188.51 127.344 188.295 127.133C188.08 126.918 187.972 126.644 187.972 126.311Z" fill="#231F20"/>
<path d="M184.123 126.311V126.102C184.123 125.765 184.229 125.49 184.44 125.275C184.655 125.06 184.946 124.953 185.311 124.953C185.68 124.953 185.973 125.06 186.188 125.275C186.403 125.49 186.51 125.765 186.51 126.102V126.311C186.51 126.644 186.403 126.918 186.188 127.133C185.976 127.344 185.686 127.45 185.317 127.45C184.951 127.45 184.661 127.344 184.446 127.133C184.231 126.918 184.123 126.644 184.123 126.311Z" fill="#231F20"/>
<path d="M180.274 126.311V126.102C180.274 125.765 180.38 125.49 180.592 125.275C180.807 125.06 181.097 124.953 181.462 124.953C181.832 124.953 182.124 125.06 182.339 125.275C182.554 125.49 182.661 125.765 182.661 126.102V126.311C182.661 126.644 182.554 126.918 182.339 127.133C182.127 127.344 181.837 127.45 181.468 127.45C181.102 127.45 180.812 127.344 180.597 127.133C180.382 126.918 180.274 126.644 180.274 126.311Z" fill="#231F20"/>
<path d="M176.425 126.311V126.102C176.425 125.765 176.531 125.49 176.742 125.275C176.957 125.06 177.248 124.953 177.613 124.953C177.982 124.953 178.275 125.06 178.49 125.275C178.705 125.49 178.812 125.765 178.812 126.102V126.311C178.812 126.644 178.705 126.918 178.49 127.133C178.278 127.344 177.988 127.45 177.619 127.45C177.253 127.45 176.963 127.344 176.748 127.133C176.533 126.918 176.425 126.644 176.425 126.311Z" fill="#231F20"/>
<path d="M172.576 126.311V126.102C172.576 125.765 172.682 125.49 172.894 125.275C173.109 125.06 173.399 124.953 173.764 124.953C174.134 124.953 174.426 125.06 174.641 125.275C174.856 125.49 174.963 125.765 174.963 126.102V126.311C174.963 126.644 174.856 126.918 174.641 127.133C174.429 127.344 174.139 127.45 173.77 127.45C173.404 127.45 173.114 127.344 172.899 127.133C172.684 126.918 172.576 126.644 172.576 126.311Z" fill="#231F20"/>
<path d="M168.728 126.311V126.102C168.728 125.765 168.833 125.49 169.045 125.275C169.26 125.06 169.55 124.953 169.916 124.953C170.285 124.953 170.577 125.06 170.792 125.275C171.007 125.49 171.114 125.765 171.114 126.102V126.311C171.114 126.644 171.007 126.918 170.792 127.133C170.58 127.344 170.29 127.45 169.921 127.45C169.555 127.45 169.265 127.344 169.05 127.133C168.835 126.918 168.728 126.644 168.728 126.311Z" fill="#231F20"/>
<path d="M164.878 126.311V126.102C164.878 125.765 164.984 125.49 165.196 125.275C165.411 125.06 165.701 124.953 166.066 124.953C166.436 124.953 166.728 125.06 166.943 125.275C167.158 125.49 167.265 125.765 167.265 126.102V126.311C167.265 126.644 167.158 126.918 166.943 127.133C166.731 127.344 166.441 127.45 166.072 127.45C165.706 127.45 165.416 127.344 165.201 127.133C164.986 126.918 164.878 126.644 164.878 126.311Z" fill="#231F20"/>
<path d="M161.03 126.311V126.102C161.03 125.765 161.135 125.49 161.347 125.275C161.562 125.06 161.852 124.953 162.218 124.953C162.587 124.953 162.879 125.06 163.094 125.275C163.309 125.49 163.416 125.765 163.416 126.102V126.311C163.416 126.644 163.309 126.918 163.094 127.133C162.882 127.344 162.592 127.45 162.223 127.45C161.857 127.45 161.567 127.344 161.352 127.133C161.137 126.918 161.03 126.644 161.03 126.311Z" fill="#231F20"/>
<path d="M157.18 126.311V126.102C157.18 125.765 157.286 125.49 157.498 125.275C157.713 125.06 158.003 124.953 158.368 124.953C158.738 124.953 159.03 125.06 159.245 125.275C159.46 125.49 159.567 125.765 159.567 126.102V126.311C159.567 126.644 159.46 126.918 159.245 127.133C159.033 127.344 158.743 127.45 158.374 127.45C158.008 127.45 157.718 127.344 157.503 127.133C157.288 126.918 157.18 126.644 157.18 126.311Z" fill="#231F20"/>
<path d="M153.332 126.311V126.102C153.332 125.765 153.437 125.49 153.649 125.275C153.864 125.06 154.154 124.953 154.52 124.953C154.889 124.953 155.181 125.06 155.396 125.275C155.611 125.49 155.718 125.765 155.718 126.102V126.311C155.718 126.644 155.611 126.918 155.396 127.133C155.184 127.344 154.894 127.45 154.525 127.45C154.159 127.45 153.869 127.344 153.654 127.133C153.439 126.918 153.332 126.644 153.332 126.311Z" fill="#231F20"/>
<path d="M149.482 126.311V126.102C149.482 125.765 149.588 125.49 149.8 125.275C150.015 125.06 150.305 124.953 150.67 124.953C151.04 124.953 151.332 125.06 151.547 125.275C151.762 125.49 151.869 125.765 151.869 126.102V126.311C151.869 126.644 151.762 126.918 151.547 127.133C151.335 127.344 151.045 127.45 150.676 127.45C150.31 127.45 150.02 127.344 149.805 127.133C149.59 126.918 149.482 126.644 149.482 126.311Z" fill="#231F20"/>
<path d="M145.634 126.311V126.102C145.634 125.765 145.739 125.49 145.951 125.275C146.166 125.06 146.456 124.953 146.822 124.953C147.191 124.953 147.483 125.06 147.698 125.275C147.913 125.49 148.02 125.765 148.02 126.102V126.311C148.02 126.644 147.913 126.918 147.698 127.133C147.486 127.344 147.196 127.45 146.827 127.45C146.461 127.45 146.171 127.344 145.956 127.133C145.741 126.918 145.634 126.644 145.634 126.311Z" fill="#231F20"/>
<path d="M141.785 126.311V126.102C141.785 125.765 141.89 125.49 142.102 125.275C142.317 125.06 142.607 124.953 142.973 124.953C143.342 124.953 143.634 125.06 143.849 125.275C144.064 125.49 144.171 125.765 144.171 126.102V126.311C144.171 126.644 144.064 126.918 143.849 127.133C143.637 127.344 143.347 127.45 142.978 127.45C142.613 127.45 142.322 127.344 142.107 127.133C141.892 126.918 141.785 126.644 141.785 126.311Z" fill="#231F20"/>
<path d="M137.936 126.311V126.102C137.936 125.765 138.041 125.49 138.253 125.275C138.468 125.06 138.758 124.953 139.124 124.953C139.493 124.953 139.785 125.06 140 125.275C140.215 125.49 140.322 125.765 140.322 126.102V126.311C140.322 126.644 140.215 126.918 140 127.133C139.788 127.344 139.498 127.45 139.129 127.45C138.763 127.45 138.473 127.344 138.258 127.133C138.043 126.918 137.936 126.644 137.936 126.311Z" fill="#231F20"/>
<path d="M134.086 126.311V126.102C134.086 125.765 134.192 125.49 134.404 125.275C134.619 125.06 134.909 124.953 135.274 124.953C135.644 124.953 135.936 125.06 136.151 125.275C136.366 125.49 136.473 125.765 136.473 126.102V126.311C136.473 126.644 136.366 126.918 136.151 127.133C135.939 127.344 135.649 127.45 135.28 127.45C134.914 127.45 134.624 127.344 134.409 127.133C134.194 126.918 134.086 126.644 134.086 126.311Z" fill="#231F20"/>
<path d="M130.238 126.311V126.102C130.238 125.765 130.343 125.49 130.555 125.275C130.77 125.06 131.06 124.953 131.426 124.953C131.795 124.953 132.087 125.06 132.302 125.275C132.517 125.49 132.624 125.765 132.624 126.102V126.311C132.624 126.644 132.517 126.918 132.302 127.133C132.09 127.344 131.8 127.45 131.431 127.45C131.065 127.45 130.775 127.344 130.56 127.133C130.345 126.918 130.238 126.644 130.238 126.311Z" fill="#231F20"/>
<path d="M126.389 126.311V126.102C126.389 125.765 126.494 125.49 126.706 125.275C126.921 125.06 127.211 124.953 127.577 124.953C127.946 124.953 128.238 125.06 128.453 125.275C128.668 125.49 128.775 125.765 128.775 126.102V126.311C128.775 126.644 128.668 126.918 128.453 127.133C128.241 127.344 127.951 127.45 127.582 127.45C127.217 127.45 126.926 127.344 126.711 127.133C126.496 126.918 126.389 126.644 126.389 126.311Z" fill="#231F20"/>
<path d="M122.54 126.311V126.102C122.54 125.765 122.645 125.49 122.857 125.275C123.072 125.06 123.362 124.953 123.728 124.953C124.097 124.953 124.389 125.06 124.604 125.275C124.819 125.49 124.926 125.765 124.926 126.102V126.311C124.926 126.644 124.819 126.918 124.604 127.133C124.392 127.344 124.102 127.45 123.733 127.45C123.367 127.45 123.077 127.344 122.862 127.133C122.647 126.918 122.54 126.644 122.54 126.311Z" fill="#231F20"/>
<path d="M118.691 126.311V126.102C118.691 125.765 118.796 125.49 119.008 125.275C119.223 125.06 119.513 124.953 119.879 124.953C120.248 124.953 120.54 125.06 120.755 125.275C120.97 125.49 121.077 125.765 121.077 126.102V126.311C121.077 126.644 120.97 126.918 120.755 127.133C120.543 127.344 120.253 127.45 119.884 127.45C119.519 127.45 119.228 127.344 119.013 127.133C118.798 126.918 118.691 126.644 118.691 126.311Z" fill="#231F20"/>
<path d="M114.842 126.311V126.102C114.842 125.765 114.948 125.49 115.159 125.275C115.374 125.06 115.664 124.953 116.03 124.953C116.399 124.953 116.691 125.06 116.906 125.275C117.121 125.49 117.229 125.765 117.229 126.102V126.311C117.229 126.644 117.121 126.918 116.906 127.133C116.695 127.344 116.404 127.45 116.035 127.45C115.67 127.45 115.379 127.344 115.164 127.133C114.949 126.918 114.842 126.644 114.842 126.311Z" fill="#231F20"/>
<path d="M110.993 126.311V126.102C110.993 125.765 111.098 125.49 111.31 125.275C111.525 125.06 111.815 124.953 112.181 124.953C112.55 124.953 112.842 125.06 113.057 125.275C113.272 125.49 113.379 125.765 113.379 126.102V126.311C113.379 126.644 113.272 126.918 113.057 127.133C112.845 127.344 112.555 127.45 112.186 127.45C111.821 127.45 111.53 127.344 111.315 127.133C111.1 126.918 110.993 126.644 110.993 126.311Z" fill="#231F20"/>
<path d="M107.144 126.311V126.102C107.144 125.765 107.249 125.49 107.461 125.275C107.676 125.06 107.966 124.953 108.332 124.953C108.701 124.953 108.993 125.06 109.208 125.275C109.423 125.49 109.53 125.765 109.53 126.102V126.311C109.53 126.644 109.423 126.918 109.208 127.133C108.996 127.344 108.706 127.45 108.337 127.45C107.971 127.45 107.681 127.344 107.466 127.133C107.251 126.918 107.144 126.644 107.144 126.311Z" fill="#231F20"/>
<path d="M103.295 126.311V126.102C103.295 125.765 103.4 125.49 103.612 125.275C103.827 125.06 104.117 124.953 104.483 124.953C104.852 124.953 105.144 125.06 105.359 125.275C105.574 125.49 105.681 125.765 105.681 126.102V126.311C105.681 126.644 105.574 126.918 105.359 127.133C105.147 127.344 104.857 127.45 104.488 127.45C104.123 127.45 103.832 127.344 103.617 127.133C103.402 126.918 103.295 126.644 103.295 126.311Z" fill="#231F20"/>
<path d="M99.4458 126.311V126.102C99.4458 125.765 99.5515 125.49 99.763 125.275C99.978 125.06 100.268 124.953 100.634 124.953C101.003 124.953 101.295 125.06 101.51 125.275C101.725 125.49 101.833 125.765 101.833 126.102V126.311C101.833 126.644 101.725 126.918 101.51 127.133C101.299 127.344 101.008 127.45 100.639 127.45C100.274 127.45 99.9834 127.344 99.7683 127.133C99.5533 126.918 99.4458 126.644 99.4458 126.311Z" fill="#231F20"/>
<path d="M95.5967 126.311V126.102C95.5967 125.765 95.7024 125.49 95.9138 125.275C96.1289 125.06 96.4192 124.953 96.7847 124.953C97.1538 124.953 97.4459 125.06 97.6609 125.275C97.876 125.49 97.9835 125.765 97.9835 126.102V126.311C97.9835 126.644 97.876 126.918 97.6609 127.133C97.4495 127.344 97.1592 127.45 96.7901 127.45C96.4245 127.45 96.1342 127.344 95.9192 127.133C95.7042 126.918 95.5967 126.644 95.5967 126.311Z" fill="#231F20"/>
<path d="M91.7478 126.311V126.102C91.7478 125.765 91.8535 125.49 92.065 125.275C92.28 125.06 92.5703 124.953 92.9358 124.953C93.305 124.953 93.597 125.06 93.8121 125.275C94.0271 125.49 94.1346 125.765 94.1346 126.102V126.311C94.1346 126.644 94.0271 126.918 93.8121 127.133C93.6006 127.344 93.3103 127.45 92.9412 127.45C92.5757 127.45 92.2854 127.344 92.0703 127.133C91.8553 126.918 91.7478 126.644 91.7478 126.311Z" fill="#231F20"/>
<path d="M87.8987 126.311V126.102C87.8987 125.765 88.0044 125.49 88.2158 125.275C88.4309 125.06 88.7212 124.953 89.0867 124.953C89.4558 124.953 89.7479 125.06 89.9629 125.275C90.178 125.49 90.2855 125.765 90.2855 126.102V126.311C90.2855 126.644 90.178 126.918 89.9629 127.133C89.7515 127.344 89.4612 127.45 89.0921 127.45C88.7265 127.45 88.4362 127.344 88.2212 127.133C88.0062 126.918 87.8987 126.644 87.8987 126.311Z" fill="#231F20"/>
<path d="M84.0498 126.311V126.102C84.0498 125.765 84.1555 125.49 84.367 125.275C84.582 125.06 84.8723 124.953 85.2378 124.953C85.607 124.953 85.899 125.06 86.1141 125.275C86.3291 125.49 86.4366 125.765 86.4366 126.102V126.311C86.4366 126.644 86.3291 126.918 86.1141 127.133C85.9026 127.344 85.6123 127.45 85.2432 127.45C84.8777 127.45 84.5874 127.344 84.3723 127.133C84.1573 126.918 84.0498 126.644 84.0498 126.311Z" fill="#231F20"/>
<path d="M80.2007 126.311V126.102C80.2007 125.765 80.3064 125.49 80.5178 125.275C80.7329 125.06 81.0232 124.953 81.3887 124.953C81.7578 124.953 82.0499 125.06 82.2649 125.275C82.48 125.49 82.5875 125.765 82.5875 126.102V126.311C82.5875 126.644 82.48 126.918 82.2649 127.133C82.0535 127.344 81.7632 127.45 81.3941 127.45C81.0285 127.45 80.7383 127.344 80.5232 127.133C80.3082 126.918 80.2007 126.644 80.2007 126.311Z" fill="#231F20"/>
<path d="M78.9912 126.375V127.407H76.1475V126.375H78.9912Z" fill="#231F20"/>
<path d="M71.9491 121.983V130.231H70.6482V121.983H71.9491ZM75.5616 124.421L73.0296 127.224L71.6427 128.642L71.304 127.546L72.3523 126.252L73.9972 124.421H75.5616ZM74.2768 130.231L72.3899 127.503L73.207 126.596L75.7766 130.231H74.2768Z" fill="#231F20"/>
<path d="M69.2238 121.983V130.231H67.9229V121.983H69.2238Z" fill="#231F20"/>
<path d="M65.3156 124.421H66.4929V130.07C66.4929 130.593 66.3818 131.037 66.1596 131.402C65.9374 131.767 65.6274 132.044 65.2296 132.234C64.8318 132.427 64.3713 132.524 63.8481 132.524C63.6259 132.524 63.3786 132.492 63.1062 132.427C62.8374 132.363 62.5758 132.259 62.3214 132.116C62.0705 131.976 61.8609 131.792 61.6924 131.563L62.2999 130.8C62.5077 131.047 62.7371 131.228 62.988 131.343C63.2388 131.457 63.5022 131.515 63.7782 131.515C64.0756 131.515 64.3283 131.459 64.5362 131.348C64.7476 131.241 64.9107 131.081 65.0253 130.87C65.14 130.659 65.1974 130.401 65.1974 130.097V125.737L65.3156 124.421ZM61.3645 127.39V127.278C61.3645 126.837 61.4183 126.436 61.5258 126.075C61.6333 125.71 61.7874 125.396 61.9881 125.135C62.1888 124.87 62.4325 124.668 62.7192 124.528C63.0059 124.385 63.3302 124.313 63.6922 124.313C64.0685 124.313 64.3892 124.381 64.6544 124.518C64.9232 124.654 65.1472 124.849 65.3264 125.103C65.5056 125.353 65.6453 125.654 65.7457 126.005C65.8496 126.352 65.9267 126.739 65.9768 127.165V127.525C65.9302 127.94 65.8514 128.319 65.7403 128.663C65.6292 129.007 65.4823 129.304 65.2995 129.555C65.1167 129.805 64.8909 129.998 64.6222 130.134C64.357 130.271 64.0434 130.339 63.6814 130.339C63.3266 130.339 63.0059 130.265 62.7192 130.118C62.4361 129.972 62.1924 129.766 61.9881 129.501C61.7874 129.236 61.6333 128.924 61.5258 128.566C61.4183 128.205 61.3645 127.813 61.3645 127.39ZM62.66 127.278V127.39C62.66 127.655 62.6851 127.902 62.7353 128.131C62.7891 128.361 62.8697 128.563 62.9772 128.738C63.0883 128.91 63.2281 129.046 63.3965 129.146C63.5685 129.243 63.771 129.291 64.004 129.291C64.3086 129.291 64.5577 129.227 64.7512 129.098C64.9483 128.969 65.0988 128.796 65.2027 128.577C65.3102 128.355 65.3855 128.108 65.4285 127.836V126.864C65.407 126.653 65.3622 126.456 65.2941 126.274C65.2296 126.091 65.1418 125.932 65.0307 125.796C64.9196 125.656 64.7798 125.549 64.6114 125.473C64.443 125.395 64.2441 125.355 64.0147 125.355C63.7818 125.355 63.5793 125.405 63.4073 125.506C63.2352 125.606 63.0937 125.744 62.9826 125.919C62.8751 126.095 62.7944 126.299 62.7407 126.531C62.6869 126.764 62.66 127.013 62.66 127.278Z" fill="#231F20"/>
<path d="M53.2955 125.602V130.231H52V124.421H53.2203L53.2955 125.602ZM53.0859 127.111L52.6451 127.106C52.6451 126.705 52.6953 126.334 52.7956 125.994C52.8959 125.654 53.0429 125.359 53.2364 125.108C53.4299 124.854 53.67 124.659 53.9567 124.523C54.247 124.383 54.5821 124.313 54.962 124.313C55.2272 124.313 55.4691 124.353 55.6877 124.432C55.9099 124.507 56.1016 124.627 56.2629 124.791C56.4278 124.956 56.5532 125.167 56.6392 125.425C56.7288 125.683 56.7736 125.994 56.7736 126.359V130.231H55.4781V126.472C55.4781 126.189 55.4351 125.967 55.349 125.806C55.2666 125.645 55.1466 125.531 54.9889 125.463C54.8348 125.391 54.6502 125.355 54.4352 125.355C54.1915 125.355 53.9836 125.402 53.8116 125.495C53.6432 125.588 53.5052 125.715 53.3977 125.876C53.2902 126.037 53.2113 126.223 53.1611 126.435C53.111 126.646 53.0859 126.871 53.0859 127.111ZM56.693 126.768L56.0855 126.902C56.0855 126.551 56.1339 126.22 56.2307 125.908C56.331 125.593 56.4761 125.318 56.6661 125.081C56.8596 124.842 57.0979 124.654 57.3811 124.518C57.6642 124.381 57.9885 124.313 58.354 124.313C58.6515 124.313 58.9167 124.355 59.1496 124.437C59.3862 124.516 59.5869 124.641 59.7517 124.813C59.9166 124.985 60.042 125.208 60.128 125.484C60.214 125.756 60.257 126.086 60.257 126.472V130.231H58.9561V126.467C58.9561 126.173 58.9131 125.946 58.8271 125.785C58.7447 125.624 58.6264 125.513 58.4723 125.452C58.3182 125.387 58.1336 125.355 57.9186 125.355C57.7179 125.355 57.5405 125.393 57.3864 125.468C57.2359 125.54 57.1087 125.642 57.0048 125.774C56.9008 125.903 56.822 126.052 56.7682 126.22C56.7181 126.388 56.693 126.571 56.693 126.768Z" fill="#231F20"/>
<path d="M333.522 145.658V146.158H334.022H336.95C338.37 146.158 339.5 147.273 339.5 148.616V177.962C339.5 179.305 338.37 180.42 336.95 180.42H298.05C296.627 180.42 295.5 179.305 295.5 177.962V148.616C295.5 147.273 296.627 146.158 298.05 146.158H300.977H301.477V145.658V137.01C301.477 128.464 308.649 121.484 317.5 121.484C326.349 121.484 333.522 128.465 333.522 137.01V145.658ZM327.924 146.158H328.424V145.658V137.01C328.424 131.144 323.51 126.399 317.5 126.399C311.489 126.399 306.575 131.144 306.575 137.01V145.658V146.158H307.075H327.924Z" fill="#E6E6E6" stroke="#BAB8BB"/>
<defs>
<linearGradient id="paint0_linear_4394_9337" x1="49.0308" y1="0" x2="350.58" y2="83.7088" gradientUnits="userSpaceOnUse">
<stop stop-color="#FFC500"/>
<stop offset="0.411458" stop-color="#DC2223"/>
<stop offset="1" stop-color="#720096"/>
</linearGradient>
<linearGradient id="paint1_linear_4394_9337" x1="0" y1="70.0386" x2="209.739" y2="283.751" gradientUnits="userSpaceOnUse">
<stop stop-color="#FFC500"/>
<stop offset="0.411458" stop-color="#DC2223"/>
<stop offset="1" stop-color="#720096"/>
</linearGradient>
<linearGradient id="paint2_linear_4394_9337" x1="21.2446" y1="-20.8962" x2="10.8446" y2="-20.5322" gradientUnits="userSpaceOnUse">
<stop stop-color="#FFC500"/>
<stop offset="0.411458" stop-color="#DC2223"/>
<stop offset="1" stop-color="#720096"/>
</linearGradient>
<linearGradient id="paint3_linear_4394_9337" x1="63.2446" y1="-20.8962" x2="52.8446" y2="-20.5322" gradientUnits="userSpaceOnUse">
<stop stop-color="#FFC500"/>
<stop offset="0.411458" stop-color="#DC2223"/>
<stop offset="1" stop-color="#720096"/>
</linearGradient>
<linearGradient id="paint4_linear_4394_9337" x1="105.245" y1="-20.8962" x2="94.8446" y2="-20.5322" gradientUnits="userSpaceOnUse">
<stop stop-color="#FFC500"/>
<stop offset="0.411458" stop-color="#DC2223"/>
<stop offset="1" stop-color="#720096"/>
</linearGradient>
<linearGradient id="paint5_linear_4394_9337" x1="147.245" y1="-20.8962" x2="136.845" y2="-20.5322" gradientUnits="userSpaceOnUse">
<stop stop-color="#FFC500"/>
<stop offset="0.411458" stop-color="#DC2223"/>
<stop offset="1" stop-color="#720096"/>
</linearGradient>
<linearGradient id="paint6_linear_4394_9337" x1="189.245" y1="-20.8962" x2="178.845" y2="-20.5322" gradientUnits="userSpaceOnUse">
<stop stop-color="#FFC500"/>
<stop offset="0.411458" stop-color="#DC2223"/>
<stop offset="1" stop-color="#720096"/>
</linearGradient>
<linearGradient id="paint7_linear_4394_9337" x1="231.245" y1="-20.8962" x2="220.845" y2="-20.5322" gradientUnits="userSpaceOnUse">
<stop stop-color="#FFC500"/>
<stop offset="0.411458" stop-color="#DC2223"/>
<stop offset="1" stop-color="#720096"/>
</linearGradient>
<linearGradient id="paint8_linear_4394_9337" x1="273.245" y1="-20.8962" x2="262.845" y2="-20.5322" gradientUnits="userSpaceOnUse">
<stop stop-color="#FFC500"/>
<stop offset="0.411458" stop-color="#DC2223"/>
<stop offset="1" stop-color="#720096"/>
</linearGradient>
<linearGradient id="paint9_linear_4394_9337" x1="315.245" y1="-20.8962" x2="304.845" y2="-20.5322" gradientUnits="userSpaceOnUse">
<stop stop-color="#FFC500"/>
<stop offset="0.411458" stop-color="#DC2223"/>
<stop offset="1" stop-color="#720096"/>
</linearGradient>
<linearGradient id="paint10_linear_4394_9337" x1="-146.109" y1="97.0386" x2="-145.882" y2="107.446" gradientUnits="userSpaceOnUse">
<stop stop-color="#FFC500"/>
<stop offset="0.411458" stop-color="#DC2223"/>
<stop offset="1" stop-color="#720096"/>
</linearGradient>
<linearGradient id="paint11_linear_4394_9337" x1="-146.109" y1="139.039" x2="-145.882" y2="149.446" gradientUnits="userSpaceOnUse">
<stop stop-color="#FFC500"/>
<stop offset="0.411458" stop-color="#DC2223"/>
<stop offset="1" stop-color="#720096"/>
</linearGradient>
<clipPath id="clip0_4394_9337">
<rect y="70.0386" width="342" height="83.9102" rx="11.2748" fill="white"/>
</clipPath>
</defs>
</svg>
