<svg width="16" height="16" viewBox="0 0 16 16" fill="none" xmlns="http://www.w3.org/2000/svg">
<g clip-path="url(#clip0_1110_41201)">
<mask id="mask0_1110_41201" style="mask-type:alpha" maskUnits="userSpaceOnUse" x="4" y="2" width="7" height="12">
<path d="M4.78397 14C4.56977 14 4.38556 13.9119 4.23133 13.7356C4.07711 13.5594 4 13.3439 4 13.0894C4 12.8348 4.07711 12.6291 4.23133 12.4725L8.12546 7.99266L4.23133 3.52754C4.07711 3.35128 4 3.14076 4 2.89596C4 2.65116 4.07711 2.44064 4.23133 2.26438C4.38556 2.08813 4.56977 2 4.78397 2C4.99817 2 5.18237 2.08813 5.3366 2.26438L10.3617 7.99266L5.3366 13.7356C5.17381 13.9119 4.9896 14 4.78397 14Z" fill="white"/>
</mask>
<g mask="url(#mask0_1110_41201)">
<path d="M4.78397 14C4.56977 14 4.38556 13.9119 4.23133 13.7356C4.07711 13.5594 4 13.3439 4 13.0894C4 12.8348 4.07711 12.6291 4.23133 12.4725L8.12546 7.99266L4.23133 3.52754C4.07711 3.35128 4 3.14076 4 2.89596C4 2.65116 4.07711 2.44064 4.23133 2.26438C4.38556 2.08813 4.56977 2 4.78397 2C4.99817 2 5.18237 2.08813 5.3366 2.26438L10.3617 7.99266L5.3366 13.7356C5.17381 13.9119 4.9896 14 4.78397 14Z" fill="#857F87"/>
</g>
</g>
<rect width="1.5" height="8" rx="0.75" transform="matrix(-1 0 0 1 13 4)" fill="#857F87"/>
<defs>
<clipPath id="clip0_1110_41201">
<rect width="12" height="7" fill="white" transform="translate(4 14) rotate(-90)"/>
</clipPath>
</defs>
</svg>
