<svg width="24" height="24" viewBox="0 0 24 24" fill="none" xmlns="http://www.w3.org/2000/svg">
<mask id="mask0_1017_31465" style="mask-type:alpha" maskUnits="userSpaceOnUse" x="3" y="5" width="18" height="12">
<path d="M19.722 11.0462C18.702 9.46222 17.424 8.28023 15.888 7.50023C16.296 8.19623 16.5 8.94622 16.5 9.75023C16.5 10.9862 16.062 12.0482 15.186 12.9362C14.31 13.8242 13.248 14.2622 12 14.2502C10.752 14.2382 9.69 13.8002 8.814 12.9362C7.938 12.0722 7.5 11.0102 7.5 9.75023C7.5 8.94622 7.704 8.19623 8.112 7.50023C6.57599 8.28023 5.29801 9.46222 4.278 11.0462C5.178 12.4142 6.29999 13.5062 7.644 14.3222C8.98801 15.1382 10.44 15.5462 12 15.5462C13.56 15.5462 15.018 15.1382 16.374 14.3222C17.73 13.5062 18.846 12.4142 19.722 11.0462ZM12.486 7.17622C12.486 7.04422 12.438 6.93023 12.342 6.83422C12.246 6.73822 12.132 6.69622 12 6.70822C11.16 6.70822 10.44 7.00822 9.84 7.60822C9.24 8.20823 8.94 8.92222 8.94 9.75023C8.94 9.88223 8.988 9.99622 9.084 10.0922C9.18 10.1882 9.294 10.2362 9.426 10.2362C9.558 10.2362 9.672 10.1882 9.768 10.0922C9.864 9.99622 9.912 9.88223 9.912 9.75023C9.912 9.17422 10.116 8.68223 10.524 8.27422C10.932 7.86622 11.424 7.66222 12 7.66222C12.132 7.66222 12.246 7.61422 12.342 7.51822C12.438 7.42222 12.486 7.30823 12.486 7.17622ZM21 11.0462C21 11.2742 20.934 11.5022 20.802 11.7302C19.866 13.2782 18.606 14.5142 17.022 15.4382C15.438 16.3622 13.764 16.8242 12 16.8242C10.236 16.8242 8.56201 16.3622 6.978 15.4382C5.39399 14.5142 4.134 13.2782 3.198 11.7302C3.066 11.5022 3 11.2742 3 11.0462C3 10.8182 3.066 10.5842 3.198 10.3442C4.134 8.80822 5.39399 7.57823 6.978 6.65422C8.56201 5.73022 10.236 5.26223 12 5.25023C13.764 5.23822 15.438 5.70622 17.022 6.65422C18.606 7.60223 19.866 8.83222 20.802 10.3442C20.934 10.5842 21 10.8182 21 11.0462Z" fill="white"/>
</mask>
<g mask="url(#mask0_1017_31465)">
<path d="M19.722 11.0462C18.702 9.46222 17.424 8.28023 15.888 7.50023C16.296 8.19623 16.5 8.94622 16.5 9.75023C16.5 10.9862 16.062 12.0482 15.186 12.9362C14.31 13.8242 13.248 14.2622 12 14.2502C10.752 14.2382 9.69 13.8002 8.814 12.9362C7.938 12.0722 7.5 11.0102 7.5 9.75023C7.5 8.94622 7.704 8.19623 8.112 7.50023C6.57599 8.28023 5.29801 9.46222 4.278 11.0462C5.178 12.4142 6.29999 13.5062 7.644 14.3222C8.98801 15.1382 10.44 15.5462 12 15.5462C13.56 15.5462 15.018 15.1382 16.374 14.3222C17.73 13.5062 18.846 12.4142 19.722 11.0462ZM12.486 7.17622C12.486 7.04422 12.438 6.93023 12.342 6.83422C12.246 6.73822 12.132 6.69622 12 6.70822C11.16 6.70822 10.44 7.00822 9.84 7.60822C9.24 8.20823 8.94 8.92222 8.94 9.75023C8.94 9.88223 8.988 9.99622 9.084 10.0922C9.18 10.1882 9.294 10.2362 9.426 10.2362C9.558 10.2362 9.672 10.1882 9.768 10.0922C9.864 9.99622 9.912 9.88223 9.912 9.75023C9.912 9.17422 10.116 8.68223 10.524 8.27422C10.932 7.86622 11.424 7.66222 12 7.66222C12.132 7.66222 12.246 7.61422 12.342 7.51822C12.438 7.42222 12.486 7.30823 12.486 7.17622ZM21 11.0462C21 11.2742 20.934 11.5022 20.802 11.7302C19.866 13.2782 18.606 14.5142 17.022 15.4382C15.438 16.3622 13.764 16.8242 12 16.8242C10.236 16.8242 8.56201 16.3622 6.978 15.4382C5.39399 14.5142 4.134 13.2782 3.198 11.7302C3.066 11.5022 3 11.2742 3 11.0462C3 10.8182 3.066 10.5842 3.198 10.3442C4.134 8.80822 5.39399 7.57823 6.978 6.65422C8.56201 5.73022 10.236 5.26223 12 5.25023C13.764 5.23822 15.438 5.70622 17.022 6.65422C18.606 7.60223 19.866 8.83222 20.802 10.3442C20.934 10.5842 21 10.8182 21 11.0462Z" fill="#231F20"/>
</g>
</svg>
