<svg width="24" height="24" viewBox="0 0 24 24" fill="none" xmlns="http://www.w3.org/2000/svg">
<g clip-path="url(#clip0_1026_29651)">
<mask id="mask0_1026_29651" style="mask-type:alpha" maskUnits="userSpaceOnUse" x="3" y="3" width="18" height="15">
<path d="M20.1655 7.9964C20.5492 7.9964 20.789 8.06834 20.8849 8.21223C20.9808 8.35612 21.0168 8.57194 20.9928 8.85971L20.2374 16.9892C20.2134 17.277 20.1415 17.4988 20.0216 17.6547C19.9017 17.8106 19.6499 17.8885 19.2662 17.8885H4.76978C4.14628 17.8885 3.81055 17.5887 3.76259 16.9892L3.00719 8.85971C2.98321 8.57194 3.01918 8.35612 3.11511 8.21223C3.21103 8.06834 3.45084 7.9964 3.83453 7.9964H20.1655ZM19.554 6.01799L19.7338 6.73741H4.51799L4.76978 4.36331C4.81775 4.1235 4.93765 3.91967 5.1295 3.7518C5.32134 3.58393 5.53717 3.5 5.77698 3.5H8.72662C9.35012 3.5 9.86571 3.70383 10.2734 4.11151L10.8129 4.65108C11.1966 5.08274 11.7122 5.29856 12.3597 5.29856H18.4748C18.7146 5.29856 18.9424 5.3705 19.1583 5.51439C19.3741 5.65827 19.506 5.82614 19.554 6.01799Z" fill="white"/>
</mask>
<g mask="url(#mask0_1026_29651)">
<path d="M20.1655 7.9964C20.5492 7.9964 20.789 8.06834 20.8849 8.21223C20.9808 8.35612 21.0168 8.57194 20.9928 8.85971L20.2374 16.9892C20.2134 17.277 20.1415 17.4988 20.0216 17.6547C19.9017 17.8106 19.6499 17.8885 19.2662 17.8885H4.76978C4.14628 17.8885 3.81055 17.5887 3.76259 16.9892L3.00719 8.85971C2.98321 8.57194 3.01918 8.35612 3.11511 8.21223C3.21103 8.06834 3.45084 7.9964 3.83453 7.9964H20.1655ZM19.554 6.01799L19.7338 6.73741H4.51799L4.76978 4.36331C4.81775 4.1235 4.93765 3.91967 5.1295 3.7518C5.32134 3.58393 5.53717 3.5 5.77698 3.5H8.72662C9.35012 3.5 9.86571 3.70383 10.2734 4.11151L10.8129 4.65108C11.1966 5.08274 11.7122 5.29856 12.3597 5.29856H18.4748C18.7146 5.29856 18.9424 5.3705 19.1583 5.51439C19.3741 5.65827 19.506 5.82614 19.554 6.01799Z" fill="#646265"/>
</g>
</g>
<defs>
<clipPath id="clip0_1026_29651">
<rect width="18" height="15" fill="white" transform="translate(3 3.5)"/>
</clipPath>
</defs>
</svg>
