<svg width="36" height="48" viewBox="0 0 36 48" fill="none" xmlns="http://www.w3.org/2000/svg">
<g id="file">
<path id="Vector 1" d="M0.5 46V2C0.5 1.17157 1.17157 0.5 2 0.5H24.7669C25.1285 0.5 25.4779 0.630647 25.7509 0.867886L34.984 8.89332C35.3118 9.17821 35.5 9.59117 35.5 10.0254V46C35.5 46.8284 34.8284 47.5 34 47.5H2C1.17157 47.5 0.5 46.8284 0.5 46Z" stroke="black" stroke-linejoin="round"/>
<path id="Vector 2" d="M2.48193 43.5379V4.46094C2.48193 3.35637 3.37736 2.46094 4.48193 2.46094H23.7086C24.2045 2.46094 24.6828 2.64517 25.0505 2.97788L32.8609 10.0446C33.28 10.4238 33.5191 10.9625 33.5191 11.5277V43.5379C33.5191 44.6425 32.6236 45.5379 31.5191 45.5379H4.48193C3.37736 45.5379 2.48193 44.6425 2.48193 43.5379Z" fill="#FB6E00" fill-opacity="0.08"/>
<path id="Union" fill-rule="evenodd" clip-rule="evenodd" d="M17.0001 1H18.0001V2.0949H17.0001V1ZM18.0001 3.19141H17.0001V4.28631H18.0001V3.19141ZM18.0001 5.37891H17.0001V6.47381H18.0001V5.37891ZM17.0001 9.75781H18.0001V10.8527H17.0001V9.75781ZM17.8334 24.0031C17.348 24.0031 16.9664 23.4331 17.0023 22.7607L17.1142 20.7103C17.1262 20.5083 17.2481 20.3534 17.3939 20.3534H18.0001V19.6133H19V20.7082H18.5525L18.5527 20.7103L18.6645 22.7607C18.6665 22.7911 18.6665 22.8188 18.6665 22.8492C18.6665 23.4829 18.2969 24.0031 17.8334 24.0031ZM17.4573 23.3343C17.3588 23.1874 17.3104 22.9956 17.3211 22.7948L18.3462 22.8006C18.3471 22.8141 18.347 22.8267 18.347 22.8398L18.3469 22.8499C18.3469 23.242 18.1165 23.561 17.8334 23.561C17.6889 23.561 17.5552 23.4805 17.4573 23.3343ZM17.0001 7.57031H18.0001V8.66522H17.0001V7.57031ZM19 10.8555H18.0001V11.9504H19V10.8555ZM18.0001 6.47266H19V7.56756H18.0001V6.47266ZM19 8.66406H18.0001V9.75897H19V8.66406ZM18.0001 4.28516H19V5.38006H18.0001V4.28516ZM19 2.09375H18.0001V3.18865H19V2.09375ZM17.0001 11.9491H18.0001V13.044H17.0001V11.9491ZM19 13.043H18.0001V14.1379H19V13.043ZM17.0001 14.1406H18.0001V15.2355H17.0001V14.1406ZM19 15.2344H18.0001V16.3293H19V15.2344ZM17.0001 16.3283H18.0001V17.4232H17.0001V16.3283ZM19 17.4219H18.0001V18.5168H19V17.4219ZM18.0001 18.5195H17.0001V19.6144H18.0001V18.5195Z" fill="#3E323F"/>
</g>
</svg>
