<svg width="70" height="78" viewBox="0 0 70 78" fill="none" xmlns="http://www.w3.org/2000/svg">
<path d="M0.5 75.9999V2C0.5 1.17157 1.17157 0.5 2 0.5H41.1839C41.5427 0.5 41.8896 0.628605 42.1617 0.862483L58.1327 14.5908C58.4642 14.8757 58.6549 15.2911 58.6549 15.7283V75.9999C58.6549 76.8283 57.9834 77.4999 57.1549 77.4999H2C1.17157 77.4999 0.5 76.8283 0.5 75.9999Z" stroke="black" stroke-linejoin="round"/>
<path d="M3.9436 72.0504V5.94922C3.9436 4.84465 4.83903 3.94922 5.9436 3.94922H39.5169C40.0077 3.94922 40.4813 4.12968 40.8477 4.45625L54.542 16.6631C54.9677 17.0425 55.2112 17.5857 55.2112 18.156V72.0504C55.2112 73.1549 54.3158 74.0504 53.2112 74.0504H5.9436C4.83903 74.0504 3.9436 73.1549 3.9436 72.0504Z" fill="#FB6E00" fill-opacity="0.08"/>
<path d="M69.5 66.1518C69.5 72.4198 64.4262 77.4999 58.169 77.4999C51.9117 77.4999 46.838 72.4198 46.838 66.1518C46.838 59.8837 51.9117 54.8037 58.169 54.8037C64.4262 54.8037 69.5 59.8837 69.5 66.1518Z" fill="white" stroke="black"/>
<g clip-path="url(#clip0_977_27326)">
<mask id="mask0_977_27326" style="mask-type:alpha" maskUnits="userSpaceOnUse" x="53" y="60" width="11" height="13">
<path d="M53.338 65.7153C53.338 65.4962 53.4138 65.3107 53.5653 65.159L58.5022 60.2275L63.4265 65.159C63.5781 65.3107 63.6538 65.4962 63.6538 65.7153C63.6538 65.9345 63.5781 66.1179 63.4265 66.2654C63.275 66.4129 63.0941 66.4867 62.8836 66.4867C62.6732 66.4867 62.4922 66.4108 62.3407 66.2591L59.2724 63.1864V71.3043C59.2724 71.515 59.1967 71.6963 59.0452 71.848C58.8937 71.9998 58.7106 72.0756 58.4959 72.0756C58.2813 72.0756 58.0982 71.9998 57.9467 71.848C57.7951 71.6963 57.7236 71.515 57.732 71.3043V63.1864L54.6512 66.2591C54.4996 66.4108 54.3187 66.4867 54.1082 66.4867C53.8978 66.4867 53.7168 66.4129 53.5653 66.2654C53.4138 66.1179 53.338 65.9345 53.338 65.7153Z" fill="white"/>
</mask>
<g mask="url(#mask0_977_27326)">
<path d="M53.338 65.7153C53.338 65.4962 53.4138 65.3107 53.5653 65.159L58.5022 60.2275L63.4265 65.159C63.5781 65.3107 63.6538 65.4962 63.6538 65.7153C63.6538 65.9345 63.5781 66.1179 63.4265 66.2654C63.275 66.4129 63.0941 66.4867 62.8836 66.4867C62.6732 66.4867 62.4922 66.4108 62.3407 66.2591L59.2724 63.1864V71.3043C59.2724 71.515 59.1967 71.6963 59.0452 71.848C58.8937 71.9998 58.7106 72.0756 58.4959 72.0756C58.2813 72.0756 58.0982 71.9998 57.9467 71.848C57.7951 71.6963 57.7236 71.515 57.732 71.3043V63.1864L54.6512 66.2591C54.4996 66.4108 54.3187 66.4867 54.1082 66.4867C53.8978 66.4867 53.7168 66.4129 53.5653 66.2654C53.4138 66.1179 53.338 65.9345 53.338 65.7153Z" fill="#19AF66"/>
</g>
</g>
<defs>
<clipPath id="clip0_977_27326">
<rect width="11.831" height="11.8481" fill="white" transform="translate(52.7465 60.2275)"/>
</clipPath>
</defs>
</svg>
