<svg width="36" height="48" viewBox="0 0 36 48" fill="none" xmlns="http://www.w3.org/2000/svg">
<path id="Vector 1" d="M0.5 46V2C0.5 1.17157 1.17157 0.5 2 0.5H24.7669C25.1285 0.5 25.4779 0.630647 25.7509 0.867886L34.984 8.89332C35.3118 9.17821 35.5 9.59117 35.5 10.0254V46C35.5 46.8284 34.8284 47.5 34 47.5H2C1.17157 47.5 0.5 46.8284 0.5 46Z" stroke="black" stroke-linejoin="round"/>
<path id="Vector 2" d="M3 44.077V5C3 3.89543 3.89543 3 5 3H24.2267C24.7226 3 25.2008 3.18423 25.5685 3.51694L33.379 10.5837C33.7981 10.9628 34.0371 11.5016 34.0371 12.0667V44.077C34.0371 45.1816 33.1417 46.077 32.0371 46.077H5C3.89543 46.077 3 45.1816 3 44.077Z" fill="#FB6E00" fill-opacity="0.08"/>
<path id="Icon" opacity="0.65" d="M14.1775 30.1356L13.5475 30.7656C13.4725 30.8406 13.3825 30.8781 13.2775 30.8781C13.1725 30.8781 13.075 30.8406 12.985 30.7656L7.135 24.8931C7.045 24.8181 7 24.7281 7 24.6231C7 24.5181 7.045 24.4206 7.135 24.3306L12.985 18.4806C13.06 18.3906 13.1575 18.3456 13.2775 18.3456C13.3975 18.3456 13.4875 18.3906 13.5475 18.4806L14.1775 19.1106C14.2675 19.1856 14.3125 19.2831 14.3125 19.4031C14.3125 19.5231 14.2675 19.6131 14.1775 19.6731L9.25 24.6231L14.1775 29.5506C14.2675 29.6406 14.3125 29.7381 14.3125 29.8431C14.3125 29.9481 14.2675 30.0456 14.1775 30.1356ZM21.6025 16.7256L16.9225 32.9481C16.8925 33.0531 16.825 33.1356 16.72 33.1956C16.615 33.2556 16.5175 33.2631 16.4275 33.2181L15.6625 33.0156C15.5425 32.9706 15.46 32.9031 15.415 32.8131C15.37 32.7231 15.355 32.6181 15.37 32.4981L20.0725 16.2981C20.1025 16.1781 20.1625 16.0956 20.2525 16.0506C20.3425 16.0056 20.44 15.9906 20.545 16.0056L21.3325 16.2306C21.4375 16.2606 21.52 16.3281 21.58 16.4331C21.64 16.5381 21.6475 16.6356 21.6025 16.7256ZM29.86 24.8931L24.01 30.7656C23.92 30.8406 23.8225 30.8781 23.7175 30.8781C23.6125 30.8781 23.515 30.8406 23.425 30.7656L22.795 30.1356C22.72 30.0456 22.6825 29.9481 22.6825 29.8431C22.6825 29.7381 22.72 29.6406 22.795 29.5506L27.7225 24.6231L22.795 19.6731C22.72 19.5981 22.6825 19.5081 22.6825 19.4031C22.6825 19.2981 22.72 19.2006 22.795 19.1106L23.425 18.4806C23.515 18.3906 23.6125 18.3456 23.7175 18.3456C23.8225 18.3456 23.92 18.3906 24.01 18.4806L29.86 24.3306C29.935 24.4056 29.9725 24.5031 29.9725 24.6231C29.9725 24.7431 29.935 24.8331 29.86 24.8931Z" fill="#231F20"/>
</svg>
