<svg width="36" height="48" viewBox="0 0 36 48" fill="none" xmlns="http://www.w3.org/2000/svg">
<g id="file">
<path id="Vector 1" d="M0.5 46V2C0.5 1.17157 1.17157 0.5 2 0.5H24.7669C25.1285 0.5 25.4779 0.630647 25.7509 0.867886L34.984 8.89332C35.3118 9.17821 35.5 9.59117 35.5 10.0254V46C35.5 46.8284 34.8284 47.5 34 47.5H2C1.17157 47.5 0.5 46.8284 0.5 46Z" stroke="black" stroke-linejoin="round"/>
<path id="Vector 2" d="M2.48193 43.5379V4.46094C2.48193 3.35637 3.37736 2.46094 4.48193 2.46094H23.7086C24.2045 2.46094 24.6828 2.64517 25.0505 2.97788L32.8609 10.0446C33.28 10.4238 33.5191 10.9625 33.5191 11.5277V43.5379C33.5191 44.6425 32.6236 45.5379 31.5191 45.5379H4.48193C3.37736 45.5379 2.48193 44.6425 2.48193 43.5379Z" fill="#FB6E00" fill-opacity="0.08"/>
<g id=".CSV">
<path d="M7.73389 29.6836C7.73389 29.533 7.78076 29.4064 7.87451 29.3038C7.97149 29.198 8.1105 29.1451 8.29154 29.1451C8.47257 29.1451 8.60996 29.198 8.70371 29.3038C8.8007 29.4064 8.84919 29.533 8.84919 29.6836C8.84919 29.831 8.8007 29.956 8.70371 30.0586C8.60996 30.1612 8.47257 30.2125 8.29154 30.2125C8.1105 30.2125 7.97149 30.1612 7.87451 30.0586C7.78076 29.956 7.73389 29.831 7.73389 29.6836Z" fill="#231F20"/>
<path d="M14.736 27.9288H15.6671C15.6186 28.3711 15.4909 28.7669 15.284 29.1163C15.0771 29.4657 14.7845 29.7429 14.4063 29.948C14.0281 30.15 13.5561 30.2509 12.9904 30.2509C12.5766 30.2509 12.1999 30.174 11.8605 30.0201C11.5243 29.8663 11.235 29.6483 10.9925 29.3663C10.7501 29.081 10.5626 28.7397 10.43 28.3423C10.3007 27.9416 10.236 27.4961 10.236 27.0057V26.3086C10.236 25.8182 10.3007 25.3743 10.43 24.9769C10.5626 24.5762 10.7517 24.2333 10.9974 23.948C11.2463 23.6628 11.5453 23.4432 11.8944 23.2894C12.2436 23.1355 12.6364 23.0586 13.0728 23.0586C13.6062 23.0586 14.0572 23.158 14.4257 23.3567C14.7942 23.5554 15.0803 23.831 15.284 24.1836C15.4909 24.533 15.6186 24.9384 15.6671 25.3999H14.736C14.6908 25.073 14.6067 24.7926 14.4839 24.5586C14.361 24.3214 14.1865 24.1387 13.9602 24.0105C13.7339 23.8823 13.4381 23.8182 13.0728 23.8182C12.7592 23.8182 12.4828 23.8775 12.2436 23.9961C12.0076 24.1147 11.8088 24.283 11.6471 24.5009C11.4887 24.7189 11.3691 24.9801 11.2883 25.2846C11.2075 25.589 11.1671 25.9272 11.1671 26.299V27.0057C11.1671 27.3487 11.2026 27.6708 11.2738 27.9721C11.3481 28.2733 11.4596 28.5378 11.6083 28.7653C11.7571 28.9929 11.9462 29.1724 12.1757 29.3038C12.4052 29.432 12.6768 29.4961 12.9904 29.4961C13.388 29.4961 13.7048 29.4336 13.9408 29.3086C14.1768 29.1836 14.3546 29.0041 14.4742 28.7701C14.597 28.5362 14.6843 28.2557 14.736 27.9288Z" fill="#231F20"/>
<path d="M20.7053 28.3855C20.7053 28.2221 20.6795 28.0778 20.6277 27.9528C20.5793 27.8246 20.492 27.7092 20.3659 27.6067C20.243 27.5041 20.0717 27.4064 19.8519 27.3134C19.6353 27.2205 19.3605 27.1259 19.0275 27.0298C18.6784 26.9272 18.3632 26.8134 18.0819 26.6884C17.8007 26.5602 17.5599 26.4144 17.3594 26.2509C17.159 26.0874 17.0054 25.8999 16.8988 25.6884C16.7921 25.4769 16.7387 25.2349 16.7387 24.9624C16.7387 24.69 16.7953 24.4384 16.9085 24.2076C17.0216 23.9769 17.1832 23.7765 17.3934 23.6067C17.6067 23.4336 17.8605 23.299 18.1547 23.2028C18.4489 23.1067 18.777 23.0586 19.1391 23.0586C19.6692 23.0586 20.1186 23.1596 20.4871 23.3615C20.8589 23.5602 21.1418 23.8214 21.3357 24.1451C21.5297 24.4656 21.6267 24.8086 21.6267 25.174H20.6956C20.6956 24.9112 20.6391 24.6788 20.5259 24.4769C20.4128 24.2717 20.2414 24.1115 20.0119 23.9961C19.7824 23.8775 19.4914 23.8182 19.1391 23.8182C18.8061 23.8182 18.5313 23.8679 18.3147 23.9672C18.0981 24.0666 17.9365 24.2012 17.8298 24.3711C17.7263 24.541 17.6746 24.7349 17.6746 24.9528C17.6746 25.1003 17.7053 25.2349 17.7668 25.3567C17.8314 25.4753 17.93 25.5858 18.0626 25.6884C18.1983 25.791 18.3697 25.8855 18.5766 25.9721C18.7867 26.0586 19.0372 26.1419 19.3282 26.2221C19.729 26.3342 20.0749 26.4592 20.3659 26.5971C20.6568 26.7349 20.8961 26.8903 21.0836 27.0634C21.2743 27.2333 21.4149 27.4272 21.5054 27.6451C21.5992 27.8599 21.6461 28.1035 21.6461 28.3759C21.6461 28.6612 21.5879 28.9192 21.4715 29.1499C21.3551 29.3807 21.1886 29.5778 20.972 29.7413C20.7554 29.9048 20.4952 30.0314 20.1913 30.1211C19.8907 30.2076 19.5545 30.2509 19.1827 30.2509C18.8562 30.2509 18.5345 30.206 18.2177 30.1163C17.9041 30.0266 17.618 29.8919 17.3594 29.7125C17.104 29.533 16.8988 29.3118 16.7436 29.049C16.5916 28.783 16.5157 28.4753 16.5157 28.1259H17.4467C17.4467 28.3663 17.4936 28.573 17.5873 28.7461C17.6811 28.916 17.8088 29.057 17.9704 29.1692C18.1353 29.2814 18.3212 29.3647 18.5281 29.4192C18.7382 29.4705 18.9564 29.4961 19.1827 29.4961C19.5092 29.4961 19.7856 29.4512 20.0119 29.3615C20.2382 29.2717 20.4095 29.1435 20.5259 28.9769C20.6455 28.8102 20.7053 28.6131 20.7053 28.3855Z" fill="#231F20"/>
<path d="M25.118 29.0923L27.1983 23.1547H28.2118L25.5981 30.1548H24.8756L25.118 29.0923ZM23.1735 23.1547L25.2344 29.0923L25.4914 30.1548H24.7689L22.1601 23.1547H23.1735Z" fill="#231F20"/>
</g>
</g>
</svg>
