<svg width="24" height="24" viewBox="0 0 24 24" fill="none" xmlns="http://www.w3.org/2000/svg">
<g id="folder">
<circle id="Ellipse 36" cx="12" cy="12" r="12" fill="white" fill-opacity="0.08"/>
<g id="folder_2">
<g id="Open_Folder-2">
<path id="Vector" d="M17.908 10.5628C17.776 10.3122 17.5247 10.1567 17.2523 10.1577H10.1442C9.65191 10.1577 9.21868 10.4997 9.08084 10.997L7.67404 16.0735C7.52189 16.6224 7.04366 16.9999 6.50049 16.9999H15.4395C15.9829 16.9999 16.4611 16.6224 16.6132 16.0732L17.9638 11.2001C18.0273 10.9884 18.0072 10.7587 17.908 10.5628Z" fill="white"/>
<path id="Vector_2" d="M7.19277 15.9263L8.60051 10.8501C8.80188 10.1295 9.42945 9.63384 10.1433 9.63162H16.5024V9.36838C16.5024 8.78714 16.0546 8.31569 15.5021 8.31569H11.6903C11.5393 8.31569 11.3965 8.24414 11.3014 8.12103L10.8098 7.48502C10.5725 7.17812 10.2169 7 9.84087 7H7.0003C6.44776 7 6 7.47146 6 8.0527V15.9473C6 16.2379 6.22388 16.4735 6.50004 16.4735C6.82073 16.4728 7.10252 16.25 7.19277 15.9263Z" fill="white"/>
</g>
</g>
</g>
</svg>
