<svg width="24" height="24" viewBox="0 0 24 24" fill="none" xmlns="http://www.w3.org/2000/svg">
<path fill-rule="evenodd" clip-rule="evenodd" d="M4.15191 7.89642C4.15191 8.21465 3.89418 8.47238 3.57595 8.47238C3.25801 8.47238 3 8.21465 3 7.89639V5.07595C3 4.75804 3.25801 4.50004 3.57595 4.5H6.39702C6.71525 4.5 6.97297 4.75801 6.97297 5.07595C6.97297 5.3939 6.71493 5.65191 6.39702 5.65191H4.15191V7.89642ZM18.8346 7.44116C18.8407 7.40777 18.8438 7.37338 18.8438 7.33826C18.8438 7.02031 18.5858 6.7623 18.2675 6.7623H5.73216C5.41424 6.7623 5.1562 7.02003 5.1562 7.33826V16.9683C5.1562 17.2866 5.41393 17.5446 5.73216 17.5446H18.2678C18.5858 17.5446 18.8438 17.2863 18.8441 16.9683V7.5458C18.8441 7.51007 18.8409 7.4751 18.8346 7.44116ZM20.4237 15.8342C20.1055 15.8342 19.8478 16.0919 19.8478 16.4102V18.6544H17.6033C17.2851 18.6544 17.027 18.9121 17.027 19.2303C17.027 19.5485 17.285 19.8066 17.6033 19.8066H20.4237C20.7416 19.8066 20.9997 19.5483 21 19.2303V16.4102C21 16.0919 20.742 15.8342 20.4237 15.8342ZM17.6033 4.50004H20.4237C20.742 4.50004 21 4.75804 21 5.07595V7.89646C20.9997 8.21469 20.7417 8.47241 20.4238 8.47241C20.1055 8.47241 19.8478 8.21437 19.8478 7.89646V5.65194H17.6033C17.285 5.65194 17.027 5.39394 17.027 5.07599C17.027 4.75804 17.2851 4.50004 17.6033 4.50004ZM6.39702 18.6544H4.15187V16.4102C4.15187 16.0919 3.89387 15.8342 3.57592 15.8342C3.25801 15.8342 3 16.0919 3 16.4102V19.2303C3 19.5482 3.25801 19.8066 3.57595 19.8066H6.39702C6.71525 19.8066 6.97297 19.5486 6.97297 19.2303C6.97297 18.9121 6.71525 18.6544 6.39702 18.6544Z" fill="#231F20"/>
</svg>
