<svg width="448" height="544" viewBox="0 0 448 544" fill="none" xmlns="http://www.w3.org/2000/svg">
<g opacity="0.2">
<ellipse cx="101.005" cy="24.9752" rx="24.8333" ry="24.2311" fill="#C4C4C4"/>
<ellipse cx="338.599" cy="91.7741" rx="24.8333" ry="24.2311" fill="#C4C4C4"/>
<ellipse cx="212.419" cy="178.221" rx="24.8333" ry="24.2311" fill="#C4C4C4"/>
<ellipse cx="423.167" cy="305.27" rx="24.8333" ry="24.2311" fill="#C4C4C4"/>
<ellipse cx="186.914" cy="412.673" rx="24.8333" ry="24.2311" fill="#C4C4C4"/>
<path d="M50.6667 518.767C50.6667 532.149 39.5484 542.998 25.8333 542.998C12.1183 542.998 1 532.149 1 518.767C1 505.384 12.1183 494.535 25.8333 494.535C32.3022 494.535 38.1933 496.949 42.6126 500.903C47.5631 505.333 50.6667 511.696 50.6667 518.767Z" fill="#C4C4C4"/>
<path d="M167.45 427.736L161.677 427.774L164.596 432.755L167.45 427.736ZM211.748 203.107L208.327 207.758L214.065 208.396L211.748 203.107ZM190.941 390.407L194.363 385.757L188.624 385.119L190.941 390.407ZM235.239 187.39L237.914 192.507L241.007 187.632L235.239 187.39ZM400.347 292.173L397.672 287.057L394.578 291.931L400.347 292.173ZM231.212 163.159L236.981 162.943L233.91 158.054L231.212 163.159ZM319.806 107.493L314.037 107.709L317.108 112.597L319.806 107.493ZM319.806 74.7481L315.63 70.762L314.266 76.3721L319.806 74.7481ZM125.838 27.5957L130.014 31.5818L131.378 25.9717L125.838 27.5957ZM113.086 43.3132L113.537 49.069L118.296 45.7998L113.086 43.3132ZM194.968 162.504L194.517 156.748L189.758 160.017L194.968 162.504ZM50.1667 518.767C50.1667 531.861 39.2839 542.498 25.8333 542.498V543.498C39.8129 543.498 51.1667 532.437 51.1667 518.767H50.1667ZM25.8333 542.498C12.3828 542.498 1.5 531.861 1.5 518.767H0.5C0.5 532.437 11.8538 543.498 25.8333 543.498V542.498ZM1.5 518.767C1.5 505.672 12.3828 495.035 25.8333 495.035V494.035C11.8538 494.035 0.5 505.096 0.5 518.767H1.5ZM25.8333 495.035C32.1759 495.035 37.9491 497.401 42.2792 501.276L42.946 500.531C38.4375 496.496 32.4284 494.035 25.8333 494.035V495.035ZM42.2792 501.276C47.1298 505.616 50.1667 511.846 50.1667 518.767H51.1667C51.1667 511.546 47.9963 505.05 42.946 500.531L42.2792 501.276ZM42.8654 501.335L163.821 430.443L163.315 429.58L42.3598 500.472L42.8654 501.335ZM210.754 207.525L190.941 385.88L191.935 385.99L211.748 207.635L210.754 207.525ZM238.77 190.223L396.279 290.184L396.815 289.34L239.306 189.379L238.77 190.223ZM235.288 161.188L316.262 110.31L315.73 109.464L234.756 160.341L235.288 161.188ZM315.552 73.1993L130.329 28.1728L130.092 29.1445L315.316 74.171L315.552 73.1993ZM115.222 47.3054L192.008 159.078L192.832 158.512L116.046 46.7391L115.222 47.3054Z" fill="#857F87"/>
</g>
</svg>
