<?xml version="1.0" encoding="UTF-8"?>
<svg width="380px" height="188px" viewBox="0 0 380 188" version="1.1" xmlns="http://www.w3.org/2000/svg" xmlns:xlink="http://www.w3.org/1999/xlink">
    <title>D037A8F4-3D60-4BEC-89C7-B2CE3F195861</title>
    <g id="Playground-Hybrid" stroke="none" stroke-width="1" fill="none" fill-rule="evenodd">
        <g id="Playground_LessonStep1_EmptyState2" transform="translate(-915.000000, -383.000000)">
            <g id="GraphView" transform="translate(915.000000, 385.000000)">
                <g id="DataView-Copy" fill="#DD2222" fill-rule="nonzero">
                    <g id="Group">
                        <path d="M32,-1.25 C34.8270076,-1.25 37.1321316,0.984448876 37.245621,3.78359538 L37.25,4 L37.25,36 L34.75,36 L34.75,4 C34.75,2.53746816 33.6082954,1.34159572 32.1675223,1.25501879 L32,1.25 L0,1.25 L0,-1.25 L32,-1.25 Z" id="Rectangle" transform="translate(18.625000, 17.375000) scale(-1, 1) translate(-18.625000, -17.375000) "></path>
                        <path d="M374,-1.25 C376.827008,-1.25 379.132132,0.984448876 379.245621,3.78359538 L379.25,4 L379.25,36 L376.75,36 L376.75,4 C376.75,2.53746816 375.608295,1.34159572 374.167522,1.25501879 L374,1.25 L342,1.25 L342,-1.25 L374,-1.25 Z" id="Rectangle"></path>
                        <path d="M32,148.75 C34.8270076,148.75 37.1321316,150.984449 37.245621,153.783595 L37.25,154 L37.25,186 L34.75,186 L34.75,154 C34.75,152.537468 33.6082954,151.341596 32.1675223,151.255019 L32,151.25 L0,151.25 L0,148.75 L32,148.75 Z" id="Rectangle" transform="translate(18.625000, 167.375000) scale(-1, -1) translate(-18.625000, -167.375000) "></path>
                        <path d="M374,148.75 C376.827008,148.75 379.132132,150.984449 379.245621,153.783595 L379.25,154 L379.25,186 L376.75,186 L376.75,154 C376.75,152.537468 375.608295,151.341596 374.167522,151.255019 L374,151.25 L342,151.25 L342,148.75 L374,148.75 Z" id="Rectangle" transform="translate(360.625000, 167.375000) scale(1, -1) translate(-360.625000, -167.375000) "></path>
                    </g>
                </g>
                <g id="Graph" transform="translate(45.000000, 34.000000)">
                    <circle id="Oval" fill="#E6E6E6" cx="141" cy="19" r="16"></circle>
                    <circle id="Oval-Copy" fill="#E6E6E6" cx="91" cy="59" r="16"></circle>
                    <circle id="Oval-Copy-3" fill="#9D989F" cx="16" cy="105.5" r="16"></circle>
                    <circle id="Oval-Copy-4" fill="#9D989F" cx="215" cy="35" r="8"></circle>
                    <circle id="Oval-Copy-5" fill="#9D989F" cx="20.5" cy="8" r="8"></circle>
                    <circle id="Oval-Copy-6" fill="#E6E6E6" cx="301.5" cy="111.25" r="8"></circle>
                    <circle id="Oval-Copy-2" fill="#E6E6E6" cx="191" cy="99" r="16"></circle>
                    <circle id="Oval" stroke="#DD2222" cx="139" cy="16" r="15.5"></circle>
                    <polygon id="Path-2" fill="#BAB8BB" fill-rule="nonzero" points="161.323246 20.86821 196.32063 29.6861286 202.214 31.171 196.94025 26.1666417 197.6286 25.4412626 204.286695 31.7594722 204.931476 32.3713385 204.073748 32.6046336 195.216743 35.0136682 194.954286 34.0487245 201.969 32.14 196.076307 30.6558224 161.078923 21.8379038"></polygon>
                    <polygon id="Path-2" fill="#BAB8BB" fill-rule="nonzero" points="20.001355 18.9632147 20.998645 19.0367853 17.0466019 72.6089252 16.602 78.633 20.623012 72.574865 21.4561568 73.12792 16.3797871 80.7751725 15.8881827 81.5157456 15.5105735 80.7110502 11.6113331 72.4016625 12.5166154 71.9768522 15.605 78.558 16.0493119 72.5353546"></polygon>
                    <polygon id="Path-2-Copy-5" fill="#BAB8BB" fill-rule="nonzero" points="211.05167 102.752677 280.652872 109.983971 286.65 110.606 280.716331 106.407166 281.294036 105.590921 288.786176 110.893547 289.511727 111.407063 288.696107 111.760456 280.273909 115.409645 279.876341 114.492072 286.545 111.601 280.549532 110.978617 210.94833 103.747323"></polygon>
                    <path d="M177.892796,78.3871176 L178.423712,79.2345418 L177.576288,79.7654582 L177.045372,78.918034 L177.892796,78.3871176 Z M175.76913,74.9974207 L176.300047,75.8448449 L175.452622,76.3757613 L174.921706,75.5283371 L175.76913,74.9974207 Z M173.645465,71.6077239 L174.176381,72.4551481 L173.328957,72.9860645 L172.798041,72.1386402 L173.645465,71.6077239 Z M171.521799,68.218027 L172.052716,69.0654512 L171.205291,69.5963676 L170.674375,68.7489434 L171.521799,68.218027 Z M169.398134,64.8283301 L169.92905,65.6757544 L169.081626,66.2066707 L168.550709,65.3592465 L169.398134,64.8283301 Z M167.274468,61.4386333 L167.805385,62.2860575 L166.95796,62.8169739 L166.427044,61.9695497 L167.274468,61.4386333 Z M165.150803,58.0489364 L165.681719,58.8963606 L164.834295,59.427277 L164.303378,58.5798528 L165.150803,58.0489364 Z M163.027137,54.6592396 L163.558054,55.5066638 L162.710629,56.0375801 L162.179713,55.1901559 L163.027137,54.6592396 Z M160.903472,51.2695427 L161.434388,52.1169669 L160.586964,52.6478833 L160.056047,51.8004591 L160.903472,51.2695427 Z M158.779806,47.8798458 L159.310723,48.72727 L158.463298,49.2581864 L157.932382,48.4107622 L158.779806,47.8798458 Z M151.193079,36.7120301 L151.973695,37.1371914 L160.034435,41.5274614 L159.556129,42.4056544 L152.731,38.688 L152.3,38.959 L152.667905,46.7211681 L151.669023,46.7684426 L151.235101,37.5999251 L151.193079,36.7120301 Z M156.656141,44.490149 L157.187057,45.3375732 L156.339633,45.8684896 L155.808716,45.0210653 L156.656141,44.490149 Z M154.532475,41.1004521 L155.063392,41.9478763 L154.215967,42.4787927 L153.685051,41.6313685 L154.532475,41.1004521 Z" id="Path-2-Copy-4" fill="#BAB8BB" fill-rule="nonzero"></path>
                    <polygon id="Path-2-Copy-3" fill="#DD2222" fill-rule="nonzero" points="122.6359 29.1573177 123.3641 29.8426823 112.48626 41.4003873 108.33 45.815 115.267798 43.6454635 115.566472 44.5998189 106.806654 47.3412777 105.958339 47.6067653 106.171973 46.7439306 108.377991 37.8341895 109.34868 38.0745283 107.601 45.131 111.75806 40.7150226"></polygon>
                    <polygon id="Path-2-Copy-2" fill="#BAB8BB" fill-rule="nonzero" points="164.085299 96.3077358 172.230255 100.53972 173.019027 100.949553 172.259185 101.410815 164.412957 106.173872 163.894036 105.319049 170.108 101.546 164.049245 101.747718 36.016596 105.999724 35.983404 105.000276 164.016053 100.748269 170.074 100.547 163.624238 97.1951038"></polygon>
                    <polygon id="Path-2-Copy-2" fill="#BAB8BB" fill-rule="nonzero" points="64.2578772 67.744739 73.4366509 67.7553748 74.3255392 67.7564048 73.8630701 68.5155134 69.0875551 76.3541649 68.233558 75.8338871 72.017 69.624 66.7136871 72.5997686 38.7755638 88.2723744 33.473 91.246 40.7432816 91.2552617 40.7421228 92.255261 31.5633491 92.2446252 30.6744608 92.2435952 31.1369299 91.4844866 35.9124449 83.6458351 36.766442 84.1661129 32.982 90.375 38.2863129 87.4002314 66.2244362 71.7276256 71.526 68.753 64.2567184 68.7447383"></polygon>
                    <polygon id="Path-2-Copy" fill="#BAB8BB" fill-rule="nonzero" points="211.50015 45.0647865 211.65672 45.9397775 213.273482 54.9750462 212.289118 55.1511875 211.009 47.994 209.021167 53.6977981 202.423136 72.6312774 200.436 78.333 205.886583 73.5236778 206.548282 74.2734475 199.666312 80.3470366 198.99985 80.9352135 198.84328 80.0602225 197.226518 71.0249538 198.210882 70.8488125 199.49 78.005 201.478833 72.3022019 208.076864 53.3687226 210.063 47.666 204.613417 52.4763222 203.951718 51.7265525 210.833688 45.6529634"></polygon>
                </g>
            </g>
        </g>
    </g>
</svg>