<svg width="55" height="50" viewBox="0 0 55 50" fill="none" xmlns="http://www.w3.org/2000/svg">
<path opacity="0.65" d="M38.6078 35.3886C45.8945 35.3886 51.8015 29.5196 51.8015 22.2798C51.8015 15.04 45.8945 9.17096 38.6078 9.17096C31.3211 9.17096 25.4141 15.04 25.4141 22.2798C25.4141 29.5196 31.3211 35.3886 38.6078 35.3886Z" fill="#F26F21"/>
<path opacity="0.65" d="M40.3153 34.2315C40.3153 42.6705 33.4289 49.5173 24.9272 49.5173C16.4255 49.5173 9.53906 42.6705 9.53906 34.2315C9.53906 25.7924 16.4255 18.9456 24.9272 18.9456C33.4289 18.9456 40.3153 25.7924 40.3153 34.2315Z" fill="white" stroke="black"/>
<path d="M40.4678 17.2366C40.4678 17.2366 39.3727 3.79963 53.7832 3.24695" stroke="#231F20" stroke-miterlimit="10"/>
<path d="M51.1933 7.04663L50.5675 6.45941L53.4531 3.31606L50.0981 0.673575L50.637 0L54.7394 3.22971L51.1933 7.04663Z" fill="#231F20"/>
<path d="M0.643066 27.6512C2.92025 25.4923 10.8643 19.3092 20.0426 28.4284" stroke="#231F20" stroke-miterlimit="10"/>
<path d="M5.21492 28.4974L5.24968 27.6339L0.973451 27.4784L1.42541 23.247L0.573641 23.1606L0 28.3074L5.21492 28.4974Z" fill="#231F20"/>
<path d="M42.936 42.9188L44.6917 48.3247" stroke="#F26F21" stroke-miterlimit="10"/>
<path d="M25.188 4.74957L26.4222 10.2936" stroke="#F26F21" stroke-miterlimit="10"/>
<path d="M12.8286 14.0069L18.1131 16.1658" stroke="#F26F21" stroke-miterlimit="10"/>
<path d="M49.3677 37.0121L54.6869 39.0674" stroke="#F26F21" stroke-miterlimit="10"/>
</svg>
