<svg width="59" height="45" viewBox="0 0 59 45" fill="none" xmlns="http://www.w3.org/2000/svg">
  <path fill-rule="evenodd" clip-rule="evenodd" d="M45.6251 33.3353L15.1698 15.6661L16.6753 13.0712L47.1306 30.7404L45.6251 33.3353Z" fill="#F26F21"/>
  <path fill-rule="evenodd" clip-rule="evenodd" d="M40.1939 19.9772L29.3188 13.6984L29.8188 12.8324L40.6939 19.1111L40.1939 19.9772Z" fill="#231F20"/>
  <path d="M29.5026 17.3195L30.1632 16.9778L29.7661 13.3793L33.0744 11.9354L33.04 11.1925L29.0159 12.9462L29.5026 17.3195Z" fill="#231F20"/>
  <path d="M36.9736 21.6331L36.9393 20.8902L40.2462 19.4302L39.8505 15.8478L40.5111 15.5061L41.0044 19.868L36.9736 21.6331Z" fill="#231F20"/>
  <path opacity="0.65" d="M53.9401 36.6221C51.5459 40.7691 46.2431 42.1899 42.0961 39.7957C37.9491 37.4014 36.5282 32.0986 38.9225 27.9516C41.3168 23.8046 46.6195 22.3838 50.7665 24.778C54.9135 27.1723 56.3344 32.4751 53.9401 36.6221Z" fill="white" stroke="black"/>
  <path opacity="0.65" d="M9.8609 24.0209C14.9455 26.9565 21.4472 25.2144 24.3828 20.1298C27.3185 15.0451 25.5763 8.54343 20.4917 5.60782C15.4071 2.67221 8.90537 4.41433 5.96976 9.49896C3.03414 14.5836 4.77627 21.0853 9.8609 24.0209Z" fill="#F26F21"/>
</svg>
