<svg width="55" height="55" viewBox="0 0 55 55" fill="none" xmlns="http://www.w3.org/2000/svg">
<path opacity="0.65" d="M15.417 55C22.6201 55 28.4594 49.1628 28.4594 41.9622C28.4594 34.7617 22.6201 28.9245 15.417 28.9245C8.21382 28.9245 2.37451 34.7617 2.37451 41.9622C2.37451 49.1628 8.21382 55 15.417 55Z" fill="#FB6E00"/>
<path d="M0.870605 33.8507C5.26427 25.6996 15.437 22.6331 23.591 27.0252C31.745 31.4173 34.8127 41.5863 30.419 49.7374" stroke="#231F20" stroke-miterlimit="10"/>
<path d="M54.1287 18.0234C49.7351 26.1745 39.5624 29.241 31.4083 24.849C23.2543 20.4569 20.2065 10.2878 24.6001 2.13672" stroke="#231F20" stroke-miterlimit="10"/>
<path opacity="0.65" d="M38.6524 22.5144C44.8718 22.5144 49.9136 17.4744 49.9136 11.2572C49.9136 5.04002 44.8718 0 38.6524 0C32.4329 0 27.3911 5.04002 27.3911 11.2572C27.3911 17.4744 32.4329 22.5144 38.6524 22.5144Z" fill="#F26F21"/>
<path opacity="0.4" d="M5.20508 11.2572L8.49043 13.473" stroke="#231F20" stroke-miterlimit="10"/>
<path d="M14.0913 17.2122L44.9261 37.8867" stroke="#231F20" stroke-miterlimit="10" stroke-dasharray="3.41 3.41"/>
<path opacity="0.4" d="M47.7363 39.7662L51.0217 41.9622" stroke="#231F20" stroke-miterlimit="10"/>
</svg>
