<svg width="24" height="24" viewBox="0 0 24 24" fill="none" xmlns="http://www.w3.org/2000/svg">
<rect x="3" y="3" width="18" height="18" rx="9" fill="#19AF66"/>
<path d="M8 12.0571C8 12.2667 8.06969 12.4476 8.20906 12.6L10.3415 14.7857C10.4715 14.9286 10.6434 15 10.8571 15C11.0708 15 11.2474 14.9286 11.3868 14.7857L15.777 10.2857C15.9257 10.1333 16 9.95238 16 9.74286C16 9.53333 15.9257 9.35714 15.777 9.21429C15.6283 9.07143 15.4518 9 15.2474 9C15.043 9 14.8711 9.07143 14.7317 9.21429L10.8711 13.1857L9.25436 11.5286C9.11498 11.3857 8.94309 11.3143 8.73868 11.3143C8.53426 11.3143 8.36005 11.3881 8.21603 11.5357C8.07201 11.6833 8 11.8571 8 12.0571Z" fill="white"/>
</svg>
