<svg width="32" height="28" viewBox="0 0 32 28" fill="none" xmlns="http://www.w3.org/2000/svg">
<path d="M15.4138 0C16.0174 0 16.5068 0.475361 16.5068 1.06172C16.5068 1.64808 16.0174 2.12344 15.4138 2.12344H6.95282C4.78423 2.12344 3.01954 3.8376 3.01954 5.94409V18.4755C3.01954 20.582 4.78423 22.2962 6.95282 22.2962H12.3962C12.8347 22.2962 13.2262 22.5496 13.3986 22.934L13.3745 22.8864L14.9089 24.3768L14.9098 23.3571C14.9102 22.7965 15.3578 22.3377 15.9248 22.2988L16.0028 22.2962H25.0475C27.2161 22.2962 28.9808 20.582 28.9808 18.4755V12.8608C28.9808 12.2744 29.4702 11.7991 30.0738 11.7991C30.6774 11.7991 31.1668 12.2744 31.1668 12.8608V18.4755C31.1668 21.7533 28.4219 24.4196 25.0475 24.4196L17.0948 24.4195L17.0932 26.939C17.0929 27.3397 16.8608 27.7034 16.4978 27.8836L16.418 27.9193C16.2848 27.9728 16.143 28 16.0003 28C15.7117 28 15.4334 27.8893 15.2273 27.689L11.8616 24.4195L6.95282 24.4196C3.63031 24.4196 0.918104 21.8347 0.835437 18.6263L0.833496 18.4755V5.94409C0.833496 2.6663 3.5784 0 6.95282 0H15.4138Z" fill="url(#paint0_linear_3134_65192)"/>
<g clip-path="url(#clip0_3134_65192)">
<path d="M9.81063 11.3333C10.4143 9.2592 11.0951 8.18753 11.1061 8.1683C11.1449 8.12093 12.1069 6.96969 14.4255 6.11816L14.7319 6.95233C13.6289 7.35745 12.8463 7.85167 12.4159 8.171C13.7008 7.7873 15.2294 7.5523 16.5832 7.5523C17.937 7.5523 19.4655 7.7873 20.7504 8.171C20.3201 7.8517 19.5375 7.35745 18.4345 6.95233L18.7408 6.11816C21.0594 6.96969 22.0214 8.12093 22.0602 8.1683C22.0712 8.18753 22.752 9.2592 23.3557 11.3333C23.9375 13.3321 24.1585 16.1518 24.1665 16.2649C24.1147 16.3459 22.9224 18.3816 19.673 18.3816L18.8494 17.1889C19.7721 16.9439 20.652 16.5488 21.4574 16.0127L20.965 15.2729C19.6656 16.1378 18.1504 16.595 16.5832 16.595C15.0159 16.595 13.5007 16.1378 12.2013 15.2729L11.7089 16.0127C12.5143 16.5488 13.3942 16.9439 14.317 17.1889L13.4933 18.3816C10.244 18.3816 9.05168 16.3459 8.99984 16.2649C9.00786 16.1518 9.22888 13.3321 9.81063 11.3333ZM18.6377 13.6581H19.5264V12.177H18.6377V13.6581ZM13.6399 13.6581H14.5286V12.177H13.6399V13.6581Z" fill="#857F87"/>
</g>
<defs>
<linearGradient id="paint0_linear_3134_65192" x1="31.1668" y1="28" x2="11.5204" y2="-6.14843" gradientUnits="userSpaceOnUse">
<stop stop-color="#FB6E00"/>
<stop offset="1" stop-color="#FFC500"/>
</linearGradient>
<clipPath id="clip0_3134_65192">
<rect width="15.1667" height="15.1667" fill="white" transform="matrix(-1 0 0 1 24.1665 4.6665)"/>
</clipPath>
</defs>
</svg>
