<svg width="35" height="33" viewBox="0 0 35 33" fill="none" xmlns="http://www.w3.org/2000/svg">
<path opacity="0.08" d="M24.8692 12.5275C24.7313 12.5275 24.5935 12.5334 24.4568 12.5381C24.1382 6.11312 18.7889 1 12.2359 1C5.47796 1 0 6.43725 0 13.1404C0 19.8436 5.47796 25.2808 12.2359 25.2808C13.2422 25.2813 14.2448 25.1586 15.2222 24.9154C16.1767 29.5359 20.1326 33 24.8692 33C30.3193 33 34.7385 28.4149 34.7385 22.7596C34.7385 17.1043 30.3193 12.5275 24.8692 12.5275Z" fill="#FB6E00"/>
<path d="M12.1392 8.00321C11.4907 8.00321 10.8486 8.12914 10.2483 8.37386C8.01785 9.27868 6.74059 11.6367 7.20145 13.9992C7.66231 16.3617 9.73196 18.0668 12.1392 18.067C12.3039 18.067 12.4375 18.2004 12.4375 18.3653C12.4375 18.5298 12.3041 18.6634 12.1396 18.6636C9.05511 18.6299 6.57217 16.12 6.57217 13.0351C6.57217 9.95024 9.05514 7.44032 12.1397 7.40664C12.3041 7.40691 12.4375 7.54044 12.4375 7.70493C12.4375 7.8698 12.3039 8.00321 12.1392 8.00321Z" fill="black" stroke="white" stroke-width="0.2"/>
<path d="M1.35596 15.0538L1.35599 15.0538L2.78967 15.5392L2.83938 15.556L2.85377 15.6065C3.09636 16.4575 3.45165 17.2723 3.91039 18.0288L3.93759 18.0737L3.91614 18.1215L3.29148 19.5156L3.29145 19.5156C3.24023 19.6297 3.26579 19.7637 3.35537 19.8512C3.35537 19.8512 3.35538 19.8512 3.35539 19.8512L5.5978 22.0389L5.59783 22.0389C5.68824 22.1272 5.82456 22.1488 5.93835 22.0928L7.31097 21.4148L7.35901 21.3911L7.40537 21.4179C8.17155 21.8615 8.99952 22.1882 9.8621 22.3872L9.91457 22.3993L9.93335 22.4498L10.4654 23.8798C10.509 23.9968 10.6204 24.0742 10.7451 24.0742H10.7507H10.7516L12.1439 24.0501L12.1439 24.0501C12.3088 24.0474 12.4401 23.9115 12.4371 23.7469C12.4342 23.5819 12.2985 23.4508 12.1335 23.4535L11.0212 23.4727L10.9504 23.4739L10.9257 23.4076L10.4167 22.038C10.3807 21.9413 10.2978 21.8704 10.1974 21.8498L10.1973 21.8498C9.25328 21.6561 8.35015 21.3 7.52838 20.7968M1.35596 15.0538L7.58059 20.7115M1.35596 15.0538C1.23642 15.0133 1.15533 14.9024 1.1532 14.7765L1.05322 14.7782L1.1532 14.7765L1.10004 11.646C1.10004 11.646 1.10004 11.646 1.10004 11.646C1.09791 11.5192 1.17585 11.4051 1.29431 11.3613L1.29447 11.3613L2.72425 10.8297L2.77472 10.8109L2.78684 10.7585C2.98608 9.89559 3.31276 9.06735 3.75637 8.30092L3.7832 8.25455L3.75947 8.20652L3.0812 6.83392C3.08119 6.83389 3.08118 6.83386 3.08116 6.83383C3.02522 6.7201 3.04683 6.58382 3.13538 6.49313L3.1354 6.49311L5.32311 4.25121C5.4105 4.16168 5.54452 4.13625 5.65848 4.1873L7.05246 4.81221L7.10034 4.83367L7.14521 4.80648C7.90201 4.34772 8.71655 3.99218 9.56752 3.74985L9.61801 3.73548L9.63485 3.68576L10.1205 2.25183C10.1609 2.13261 10.272 2.05142 10.398 2.04928L10.398 2.04928L12.1345 2.01972C12.1345 2.01972 12.1345 2.01972 12.1346 2.01972C12.1346 2.01972 12.1346 2.01972 12.1346 2.01972C12.2996 2.01703 12.4352 2.14835 12.4379 2.31293C12.4406 2.47788 12.3094 2.6136 12.1445 2.61632L12.1444 2.61632L10.6887 2.64069L10.6183 2.64187L10.5957 2.70861L10.1323 4.07718C10.1001 4.17236 10.0222 4.24475 9.92518 4.26997L9.92501 4.27002C8.99031 4.51483 8.09913 4.90354 7.2837 5.42227L7.28366 5.42229C7.19935 5.47598 7.09333 5.48363 7.00175 5.44261L5.66843 4.84518L5.60473 4.81664L5.55597 4.8666L3.75902 6.70789L3.70958 6.75855L3.74092 6.82202L4.38995 8.13615L4.38998 8.13621C4.43543 8.22807 4.43058 8.33657 4.37721 8.42395M1.35596 15.0538L4.47962 8.09187C4.54029 8.21452 4.53381 8.35947 4.4625 8.47615M7.52838 20.7968L7.58059 20.7115M7.52838 20.7968C7.5284 20.7968 7.52843 20.7968 7.52845 20.7969L7.58059 20.7115M7.52838 20.7968C7.44099 20.7434 7.33244 20.7386 7.2405 20.7839M7.58059 20.7115C7.46391 20.6402 7.31896 20.6337 7.19631 20.6942M7.2405 20.7839L7.2406 20.7838L7.19631 20.6942M7.2405 20.7839L5.92672 21.4328L5.86327 21.4642L5.81261 21.4148L3.97105 19.6186L3.92107 19.5698L3.94962 19.5061L4.54705 18.1725C4.58799 18.0811 4.58028 17.9753 4.52642 17.8905M7.2405 20.7839L7.19631 20.6942M7.19631 20.6942L4.52642 17.8905M4.52642 17.8905C4.52643 17.8906 4.52644 17.8906 4.52645 17.8906L4.61082 17.8369M4.52642 17.8905L4.04088 19.547L4.63831 18.2134C4.69302 18.0913 4.68265 17.95 4.61082 17.8369M4.52642 17.8905L4.61082 17.8369M4.52642 17.8905C4.00772 17.0751 3.61901 16.1842 3.37446 15.2493M4.61082 17.8369C4.09767 17.0302 3.71312 16.1489 3.47119 15.2239M4.4625 8.47615L4.37721 8.42395M4.4625 8.47615L4.37717 8.42401C4.37719 8.42399 4.3772 8.42397 4.37721 8.42395M4.4625 8.47615C3.96542 9.28828 3.61355 10.1808 3.42219 11.1138M4.37721 8.42395L3.32425 11.0936M3.42219 11.1138L3.32425 11.0936M3.42219 11.1138L3.32423 11.0937C3.32423 11.0936 3.32424 11.0936 3.32425 11.0936M3.42219 11.1138C3.39444 11.2483 3.29954 11.3591 3.17066 11.4068L1.8013 11.916L1.84486 14.4844L3.21345 14.9475M3.32425 11.0936C3.30345 11.1944 3.23237 11.2773 3.13595 11.313L3.13581 11.313L1.76644 11.8223L1.70011 11.847L1.70131 11.9177L1.74487 14.4861L1.74607 14.5566L1.81281 14.5791L3.18136 15.0422L3.21345 14.9475M3.21345 14.9475L3.1814 15.0422C3.27664 15.0745 3.34902 15.1522 3.37446 15.2493M3.21345 14.9475C3.34051 14.9906 3.43723 15.0943 3.47119 15.2239M3.47119 15.2239L3.37445 15.2492C3.37445 15.2493 3.37446 15.2493 3.37446 15.2493M3.47119 15.2239L3.37446 15.2493" fill="black" stroke="white" stroke-width="0.2"/>
<path d="M28.9299 13.4142L28.9143 13.3332H28.8317H13.0399V12.7366H28.8317H28.9143L28.9299 12.6556C29.1255 11.6417 30.0596 10.9426 31.0872 11.0408C32.1151 11.1391 32.9 12.0023 32.9 13.0349C32.9 14.0675 32.1151 14.9306 31.0872 15.0289C30.0596 15.1272 29.1255 14.4281 28.9299 13.4142ZM29.9011 12.0416L29.9011 12.0417C29.3534 12.5905 29.3534 13.479 29.9011 14.0279L29.9011 14.0279C30.4497 14.5765 31.3392 14.5765 31.8878 14.0279L31.8878 14.0279C32.4361 13.4793 32.4361 12.5899 31.8878 12.0414L31.8877 12.0413C31.3392 11.493 30.4497 11.493 29.9011 12.0416Z" fill="black" stroke="white" stroke-width="0.2"/>
<path d="M23.3851 7.08066H23.4676L23.4833 6.99967C23.6655 6.0582 24.4897 5.37783 25.4486 5.37783C26.5046 5.37783 27.3789 6.19824 27.4458 7.252C27.5127 8.30605 26.7496 9.23042 25.702 9.36427L25.7147 9.46347L25.702 9.36427C24.6546 9.49812 23.6833 8.79503 23.4833 7.75829L23.4676 7.67723H23.3851L20.0292 7.67723L20.0291 7.67723C19.2363 7.67807 18.5939 8.32072 18.593 9.1133C18.5918 10.2357 17.6823 11.1452 16.5602 11.1464H13.0399V10.5498H16.5603H16.5604C17.353 10.5487 17.9956 9.90639 17.9965 9.11352C17.9977 7.99147 18.9072 7.08196 20.0292 7.08066C20.0293 7.08066 20.0293 7.08066 20.0293 7.08066L23.3851 7.08066ZM26.4419 8.37229L26.442 8.3722C26.99 7.82336 26.9899 6.93453 26.442 6.38546L26.4419 6.38535C25.8935 5.83757 25.0046 5.83786 24.4566 6.38618C23.9086 6.9345 23.9086 7.82314 24.4566 8.37145C25.0046 8.91978 25.8935 8.92006 26.4419 8.37229Z" fill="black" stroke="white" stroke-width="0.2"/>
<path d="M23.4676 18.3929H23.3851H20.0292H20.0291C19.2363 18.3921 18.5939 17.7494 18.593 16.9568C18.5918 15.8345 17.6823 14.9252 16.5602 14.9237H13.0399V15.5203H16.5603H16.5604C17.353 15.5214 17.9956 16.1638 17.9965 16.9566C17.9977 18.0787 18.9073 18.9883 20.0293 18.9895H23.3851H23.4676L23.4833 19.0705C23.6655 20.0122 24.4897 20.6923 25.4486 20.6923L23.4676 18.3929ZM23.4676 18.3929L23.4833 18.3119M23.4676 18.3929L23.4833 18.3119M23.4833 18.3119C23.6836 17.2754 24.6546 16.5728 25.7017 16.7067C26.7488 16.8405 27.5119 17.7649 27.445 18.8181C27.3781 19.8717 26.5043 20.6921 25.4486 20.6923L23.4833 18.3119ZM24.0423 18.6911V18.6912C24.0423 19.0639 24.191 19.4215 24.4553 19.6845C25.0039 20.2331 25.8931 20.2331 26.4417 19.6845C26.9902 19.1359 26.9902 18.2465 26.4417 17.6979C25.8931 17.1493 25.0039 17.1493 24.4553 17.6979C24.191 17.9609 24.0425 18.3182 24.0423 18.6911Z" fill="black" stroke="white" stroke-width="0.2"/>
<path d="M14.0407 17.8472H13.0399V17.2506H14.0405C15.0783 17.2537 16.0055 17.899 16.3688 18.8709C16.3688 18.871 16.3688 18.871 16.3689 18.8711L17.497 21.9168L17.4971 21.9171C17.7728 22.6554 18.4771 23.1457 19.265 23.1479H19.2653H19.7168H19.8078L19.8163 23.0573C19.859 22.6059 20.0546 22.1829 20.3703 21.8585L20.3935 21.8354C21.0311 21.1979 22.016 21.0653 22.7994 21.5113L22.7994 21.5113C23.583 21.9573 23.9715 22.8721 23.7487 23.7456C23.526 24.6194 22.7468 25.2363 21.8454 25.2526H21.8453C20.9439 25.2691 20.1428 24.6811 19.8884 23.8163L19.8673 23.7445H19.7925L19.2659 23.7445C19.2658 23.7445 19.2658 23.7445 19.2657 23.7445C18.2282 23.7414 17.301 23.0961 16.9377 22.1239C16.9377 22.1239 16.9377 22.1238 16.9377 22.1238L15.8093 19.078L15.8092 19.0778C15.5335 18.3397 14.8291 17.8494 14.041 17.8472H14.0407ZM20.5125 23.787L20.5125 23.7871L23.1131 23.2504L23.2131 23.2507C23.2131 23.2506 23.2131 23.2506 23.2131 23.2505C23.2141 22.8775 23.0659 22.5198 22.8016 22.2568C22.3281 21.7836 21.586 21.7107 21.0295 22.0829C20.4728 22.4551 20.2565 23.1684 20.5125 23.787Z" fill="black" stroke="white" stroke-width="0.2"/>
<path d="M13.0399 8.81928L14.0404 8.81928L14.0407 8.81928M13.0399 8.81928L14.0407 8.91928V8.81928M13.0399 8.81928V8.2227L14.0407 8.22271L14.041 8.2227C14.8291 8.22024 15.5332 7.73023 15.8089 6.99214L15.809 6.99189L16.9374 3.94612C16.9374 3.94608 16.9374 3.94604 16.9374 3.94601C17.3004 2.97387 18.228 2.32849 19.2655 2.32543H19.7922H19.867L19.8882 2.25367C20.1785 1.26745 21.1709 0.66296 22.1806 0.85753C23.1906 1.05237 23.8872 1.98207 23.7901 3.00582L23.7901 3.00584C23.6933 4.02962 22.8345 4.81238 21.8063 4.81386H21.8063C20.7778 4.81559 19.9165 4.03578 19.8163 3.01225L19.8075 2.922H19.7168L19.2653 2.922L19.265 2.922C18.4769 2.92419 17.7728 3.41451 17.4971 4.15284L17.497 4.15308L16.3689 7.19882C16.3688 7.19888 16.3688 7.19894 16.3688 7.199C16.0056 8.17083 15.0783 8.81617 14.0407 8.81928M13.0399 8.81928H14.0407M20.786 1.85549V1.85653L20.886 1.89715C20.6409 2.14141 20.5032 2.47332 20.5037 2.81948H20.4037C20.4037 2.81953 20.4037 2.81958 20.4037 2.81963C20.4038 3.48961 20.8773 4.06631 21.5344 4.19696C22.1916 4.32761 22.8496 3.97585 23.1059 3.35662C23.3625 2.73765 23.1458 2.02382 22.5886 1.65143L22.5886 1.65142C22.0316 1.27929 21.289 1.35213 20.8152 1.8262L20.786 1.85549Z" fill="black" stroke="white" stroke-width="0.2"/>
<path d="M33.01 23C33.01 27.4183 29.4261 31 25.005 31C20.584 31 17 27.4183 17 23C17 18.5817 20.584 15 25.005 15C29.4261 15 33.01 18.5817 33.01 23Z" fill="white"/>
<path fill-rule="evenodd" clip-rule="evenodd" d="M25.005 30.3248C29.0515 30.3248 32.3334 27.0463 32.3334 23C32.3334 18.9537 29.0515 15.6752 25.005 15.6752C20.9586 15.6752 17.6766 18.9537 17.6766 23C17.6766 27.0463 20.9586 30.3248 25.005 30.3248ZM25.005 31C29.4261 31 33.01 27.4183 33.01 23C33.01 18.5817 29.4261 15 25.005 15C20.584 15 17 18.5817 17 23C17 27.4183 20.584 31 25.005 31Z" fill="black"/>
<path d="M25.382 24.8938H24.164C24.1684 24.5126 24.2055 24.2009 24.2754 23.9587C24.3496 23.7126 24.4696 23.4882 24.6355 23.2857C24.8014 23.0832 25.0219 22.8529 25.2969 22.5948C25.4977 22.4082 25.6811 22.2335 25.847 22.0707C26.0172 21.904 26.1548 21.7253 26.2595 21.5347C26.3643 21.3402 26.4167 21.1079 26.4167 20.8379C26.4167 20.5639 26.3621 20.3277 26.253 20.1292C26.1482 19.9306 25.991 19.7778 25.7815 19.6706C25.5763 19.5634 25.3209 19.5098 25.0153 19.5098C24.7621 19.5098 24.522 19.5514 24.295 19.6348C24.068 19.7182 23.8846 19.8473 23.7449 20.022C23.6052 20.1927 23.5332 20.417 23.5288 20.695H22.3174C22.3261 20.2463 22.4484 19.8611 22.6841 19.5395C22.9242 19.2179 23.2473 18.9718 23.6533 18.801C24.0593 18.6303 24.5133 18.5449 25.0153 18.5449C25.5698 18.5449 26.0413 18.6362 26.4298 18.8189C26.8227 19.0015 27.1217 19.2636 27.3269 19.605C27.5321 19.9425 27.6347 20.3436 27.6347 20.8081C27.6347 21.1655 27.5539 21.495 27.3924 21.7968C27.2352 22.0946 27.0322 22.3745 26.7834 22.6365C26.5346 22.8986 26.2704 23.1487 25.991 23.387C25.7509 23.5895 25.5894 23.8178 25.5065 24.0719C25.4235 24.326 25.382 24.6 25.382 24.8938ZM24.1116 26.7818C24.1116 26.6031 24.1728 26.4522 24.295 26.3291C24.4172 26.206 24.594 26.1445 24.8254 26.1445C25.0612 26.1445 25.2402 26.206 25.3624 26.3291C25.4846 26.4522 25.5458 26.6031 25.5458 26.7818C25.5458 26.9525 25.4846 27.0994 25.3624 27.2225C25.2402 27.3456 25.0612 27.4071 24.8254 27.4071C24.594 27.4071 24.4172 27.3456 24.295 27.2225C24.1728 27.0994 24.1116 26.9525 24.1116 26.7818Z" fill="#19AF66"/>
</svg>
