<svg width="25" height="28" viewBox="0 0 25 28" fill="none" xmlns="http://www.w3.org/2000/svg">
<path d="M0 17.2426V26.7023C0 27.2103 0.417264 27.6227 0.931393 27.6227H23.9058C24.4199 27.6227 24.8371 27.2103 24.8371 26.7023V17.2426C24.8371 16.0252 22.9744 16.024 22.9744 17.2426V25.7818H1.86279V17.2426C1.86279 16.0252 0 16.0252 0 17.2426Z" fill="url(#paint0_linear_3134_65197)"/>
<path d="M5.76865 22.8926H17.8606C19.0925 22.8926 19.0938 21.0518 17.8606 21.0518H5.76865C4.53672 21.0518 4.53548 22.8926 5.76865 22.8926Z" fill="#857F87"/>
<path d="M5.76326 17.2144C18.3718 19.7659 17.6081 19.6358 17.7919 19.6358C18.9058 19.6358 19.071 18.0355 17.9782 17.8133L6.1383 15.4104C4.93122 15.1662 4.55494 16.969 5.76326 17.2144Z" fill="#857F87"/>
<path d="M7.26962 10.8409C18.5966 16.393 18.0638 16.2666 18.4786 16.2666C19.4597 16.2666 19.7702 14.9547 18.8946 14.5227L8.10166 9.19398C7.00262 8.64909 6.16685 10.2961 7.26962 10.8409Z" fill="#857F87"/>
<path d="M10.0243 6.04765L19.4823 13.2406C20.4435 13.9732 21.6084 12.5349 20.6186 11.7826L11.1606 4.58968C10.1845 3.84475 9.04698 5.30517 10.0243 6.04765Z" fill="#857F87"/>
<path d="M23.219 9.59302L16.1131 0.37271C15.368 -0.595588 13.884 0.518752 14.6316 1.48828L21.7375 10.7086C22.4777 11.6707 23.9716 10.5699 23.219 9.59302Z" fill="#857F87"/>
<defs>
<linearGradient id="paint0_linear_3134_65197" x1="25.1241" y1="20.4704" x2="6.31289" y2="31.138" gradientUnits="userSpaceOnUse">
<stop stop-color="#FB6E00"/>
<stop offset="1" stop-color="#FFC500"/>
</linearGradient>
</defs>
</svg>
