<svg width="48" height="32" viewBox="0 0 48 32" fill="none" xmlns="http://www.w3.org/2000/svg">
<path opacity="0.08" d="M31.5955 11.5275C31.4577 11.5275 31.3198 11.5334 31.1831 11.5381C30.8646 5.11312 25.5152 0 18.9622 0C12.2043 0 6.72632 5.43725 6.72632 12.1404C6.72632 18.8436 12.2043 24.2808 18.9622 24.2808C19.9685 24.2813 20.9711 24.1586 21.9485 23.9154C22.903 28.5359 26.8589 32 31.5955 32C37.0457 32 41.4649 27.4149 41.4649 21.7596C41.4649 16.1043 37.0457 11.5275 31.5955 11.5275Z" fill="#FB6E00"/>
<path d="M47.0683 17.0992C47.2636 16.904 47.2636 16.5874 47.0683 16.3921L43.8863 13.2101C43.6911 13.0149 43.3745 13.0149 43.1792 13.2101C42.984 13.4054 42.984 13.722 43.1792 13.9173L46.0076 16.7457L43.1792 19.5741C42.984 19.7694 42.984 20.086 43.1792 20.2812C43.3745 20.4765 43.6911 20.4765 43.8863 20.2812L47.0683 17.0992ZM1.09497 17.3774C3.4519 17.3774 5.14683 16.9456 6.44763 16.2717C7.74794 15.5981 8.61679 14.7015 9.34131 13.8405C10.0855 12.9561 10.6244 12.1865 11.3438 11.5957C12.0239 11.0372 12.8519 10.6597 14.1292 10.6597V9.65967C12.6135 9.65967 11.5627 10.1219 10.7092 10.8229C9.89488 11.4917 9.24516 12.4015 8.57615 13.1966C7.88752 14.015 7.11878 14.7978 5.98765 15.3838C4.85699 15.9695 3.32662 16.3774 1.09497 16.3774V17.3774ZM14.1292 10.6597C15.3066 10.6597 16.4773 11.4205 17.6792 12.738C18.8702 14.0434 20.0034 15.796 21.1198 17.5865C22.2239 19.3573 23.3163 21.1736 24.3994 22.5302C24.9425 23.2105 25.5021 23.7998 26.0819 24.2177C26.6628 24.6362 27.2974 24.9062 27.9769 24.8852L27.946 23.8857C27.5614 23.8976 27.1404 23.7478 26.6665 23.4063C26.1917 23.0642 25.6977 22.5535 25.1809 21.9063C24.1443 20.6079 23.092 18.8595 21.9684 17.0574C20.857 15.275 19.6793 13.4465 18.418 12.064C17.1677 10.6935 15.7448 9.65967 14.1292 9.65967V10.6597ZM27.9769 24.8852C29.247 24.8459 30.339 24.0451 31.2872 23.0235C32.2433 21.9935 33.139 20.6435 33.998 19.3428C34.8697 18.023 35.703 16.7551 36.5608 15.8123C37.4295 14.8574 38.2254 14.3478 39.0006 14.3478V13.3478C37.7808 13.3478 36.7313 14.139 35.8211 15.1393C34.9 16.1518 34.0209 17.4935 33.1636 18.7917C32.2936 20.1089 31.4436 21.3851 30.5543 22.3432C29.6571 23.3098 28.8039 23.8591 27.946 23.8857L27.9769 24.8852ZM39.0006 14.3478C39.9329 14.3478 40.5836 14.5161 41.0998 14.7545C41.6256 14.9974 42.0342 15.3218 42.4973 15.6887C42.9523 16.0491 43.4578 16.4487 44.1262 16.749C44.8023 17.0527 45.6213 17.2457 46.7148 17.2457V16.2457C45.7466 16.2457 45.0694 16.0764 44.536 15.8368C43.9949 15.5937 43.5777 15.2689 43.1183 14.9049C42.667 14.5473 42.1695 14.1472 41.5191 13.8467C40.8591 13.5418 40.0634 13.3478 39.0006 13.3478V14.3478Z" fill="white"/>
<path fill-rule="evenodd" clip-rule="evenodd" d="M6.40006 15.9715C5.15183 16.6181 3.50771 17.0425 1.18945 17.0425V16.6616C3.45977 16.6616 5.04096 16.2463 6.22418 15.6334C7.4076 15.0203 8.2073 14.2023 8.90704 13.3707C9.0755 13.1705 9.23941 12.9677 9.40232 12.7662C9.90887 12.1394 10.4058 11.5247 10.9997 11.0369C11.7996 10.3799 12.7815 9.94385 14.2237 9.94385C15.704 9.94385 17.049 10.8934 18.2842 12.2474C19.5238 13.6061 20.6877 15.4111 21.8006 17.196C21.9416 17.4222 22.0818 17.648 22.2212 17.8726C23.1867 19.4277 24.1155 20.9239 25.0339 22.0742C25.5588 22.7317 26.0732 23.2667 26.5805 23.6322C27.0874 23.9975 27.5744 24.1844 28.05 24.1697C29.0352 24.1392 29.9622 23.5122 30.8752 22.5286C31.7852 21.5482 32.6493 20.2492 33.5159 18.9371L33.5775 18.8438C34.4189 17.5696 35.2641 16.2897 36.1441 15.3224C37.0414 14.3362 38.0126 13.632 39.0951 13.632C40.1176 13.632 40.8685 13.818 41.4841 14.1024C42.0835 14.3793 42.5467 14.7464 42.993 15.1L43.021 15.1222C43.479 15.4851 43.9235 15.8331 44.5039 16.0939C44.9863 16.3106 45.5689 16.4695 46.3345 16.5159L45.4596 15.6428C45.385 15.5685 45.385 15.4479 45.4596 15.3735C45.5341 15.2991 45.655 15.2991 45.7295 15.3735L46.9442 16.5856C47.0187 16.66 47.0187 16.7806 46.9442 16.855L45.7295 18.0672C45.655 18.1416 45.5341 18.1416 45.4596 18.0672C45.385 17.9928 45.385 17.8722 45.4596 17.7978L46.3603 16.899C45.5289 16.8539 44.886 16.6833 44.3472 16.4412C43.7182 16.1586 43.2399 15.7821 42.7836 15.4206L42.7673 15.4076C42.3138 15.0483 41.8814 14.7057 41.3238 14.4481C40.7631 14.1892 40.0677 14.013 39.0951 14.013C38.1826 14.013 37.3084 14.6095 36.4267 15.5785C35.5669 16.5236 34.7357 17.7822 33.8866 19.068L33.8346 19.1467C32.9722 20.4525 32.0907 21.7797 31.1552 22.7875C30.2228 23.792 29.2047 24.5151 28.0618 24.5505C27.4734 24.5687 26.9047 24.3358 26.357 23.9411C25.8096 23.5467 25.2703 22.9816 24.7354 22.3116C23.8017 21.1422 22.8595 19.6242 21.896 18.0721C21.7566 17.8475 21.6168 17.6223 21.4765 17.3972C20.3616 15.6092 19.2147 13.8331 18.0019 12.5039C16.785 11.1699 15.5364 10.3248 14.2237 10.3248C12.8728 10.3248 11.976 10.7284 11.2423 11.331C10.6812 11.7918 10.2187 12.3639 9.7187 12.9822C9.55148 13.189 9.38007 13.4009 9.19939 13.6157C8.48598 14.4635 7.64809 15.3249 6.40006 15.9715Z" fill="#231F20"/>
<path opacity="0.24" d="M10.5651 17.4135L10.5651 17.9135L10.5651 17.4135ZM22.9664 13.6608L22.9891 13.1613L22.9664 13.6608ZM47.0248 13.9443C47.1814 13.7169 47.1239 13.4056 46.8964 13.249L43.1898 10.6973C42.9624 10.5407 42.6511 10.5982 42.4945 10.8256C42.3379 11.0531 42.3953 11.3644 42.6228 11.521L45.9176 13.7891L43.6494 17.0839C43.4928 17.3114 43.5503 17.6227 43.7777 17.7793C44.0052 17.9359 44.3165 17.8784 44.4731 17.6509L47.0248 13.9443ZM1.09497 13.6608C0.741428 14.0144 0.741574 14.0145 0.741735 14.0147C0.741807 14.0148 0.741982 14.0149 0.742128 14.0151C0.742419 14.0154 0.742767 14.0157 0.743173 14.0161C0.743986 14.0169 0.745029 14.018 0.746301 14.0192C0.748846 14.0217 0.75231 14.0251 0.756685 14.0294C0.765436 14.038 0.777836 14.0499 0.793831 14.0652C0.825819 14.0956 0.872201 14.139 0.932541 14.1934C1.0532 14.3022 1.22983 14.4554 1.45895 14.6381C1.9169 15.0033 2.58631 15.4879 3.43926 15.972C5.14342 16.9392 7.59605 17.9135 10.5651 17.9135L10.5652 16.9135C7.81695 16.9135 5.53449 16.0114 3.93288 15.1023C3.13295 14.6483 2.50681 14.1947 2.08243 13.8563C1.87039 13.6872 1.70916 13.5472 1.60225 13.4508C1.5488 13.4026 1.50897 13.3653 1.48319 13.3408C1.47031 13.3285 1.46094 13.3194 1.45514 13.3138C1.45224 13.3109 1.45023 13.3089 1.44912 13.3079C1.44857 13.3073 1.44824 13.307 1.44814 13.3069C1.44809 13.3068 1.4481 13.3068 1.44816 13.3069C1.44819 13.3069 1.44828 13.307 1.44829 13.307C1.4484 13.3071 1.44851 13.3073 1.09497 13.6608ZM10.5651 17.9135C13.4917 17.9135 15.6676 16.8799 17.5701 15.9138C19.5005 14.9335 21.0727 14.0753 22.9437 14.1603L22.9891 13.1613C20.8005 13.0619 18.9724 14.0801 17.1173 15.0222C15.2341 15.9785 13.2393 16.9135 10.5652 16.9135L10.5651 17.9135ZM22.9437 14.1603C24.2567 14.2199 25.3998 14.9962 26.4753 16.2553C27.5511 17.515 28.497 19.1842 29.4289 20.8952C30.3483 22.5832 31.2592 24.3227 32.2434 25.6306C33.2166 26.9238 34.3702 27.9451 35.819 27.9451V26.9451C34.8747 26.9451 33.982 26.2778 33.0424 25.0293C32.114 23.7956 31.246 22.1406 30.3071 20.4169C29.3809 18.7162 28.3893 16.9566 27.2356 15.6059C26.0815 14.2547 24.7029 13.2392 22.9891 13.1613L22.9437 14.1603ZM35.819 27.9451C37.2686 27.9451 38.3624 26.9649 39.2387 25.7054C40.1205 24.4378 40.8751 22.7531 41.6105 21.0988C42.3564 19.421 43.0854 17.7677 43.9291 16.4732C44.7791 15.1689 45.6744 14.3425 46.7037 14.1525L46.5222 13.1691C45.0753 13.4361 43.9816 14.5612 43.0913 15.9272C42.1947 17.3029 41.4321 19.0386 40.6968 20.6926C39.951 22.3701 39.2347 23.9601 38.4178 25.1343C37.5952 26.3166 36.7623 26.9451 35.819 26.9451V27.9451Z" fill="white"/>
<path opacity="0.24" fill-rule="evenodd" clip-rule="evenodd" d="M46.8153 13.4389C46.9021 13.4986 46.9241 13.6172 46.8644 13.7038L45.8908 15.1162C45.8311 15.2029 45.7122 15.2248 45.6254 15.1652C45.5385 15.1056 45.5165 14.987 45.5763 14.9003L46.2529 13.9188C45.3096 14.2704 44.5025 15.1065 43.7644 16.2391C42.9251 17.5269 42.2007 19.1566 41.4761 20.7869L41.4223 20.908C40.6837 22.5695 39.941 24.2249 39.0792 25.4635C38.2196 26.699 37.2065 27.5707 35.9131 27.5707C34.6202 27.5707 33.5472 26.6587 32.5845 25.3794C31.7194 24.2298 30.9097 22.7373 30.0861 21.2189C29.9891 21.0401 29.892 20.861 29.7945 20.6821C28.8643 18.9742 27.9043 17.277 26.8044 15.9892C25.7045 14.7015 24.4887 13.8514 23.0519 13.7862C21.1943 13.7018 19.6196 14.5047 17.846 15.4091C17.7395 15.4634 17.6324 15.518 17.5244 15.5728C15.628 16.5359 13.5079 17.539 10.6593 17.539C7.75844 17.539 5.35836 16.5871 3.6859 15.6378C2.84933 15.1629 2.1933 14.688 1.74573 14.331C1.52188 14.1525 1.35002 14.0034 1.23361 13.8984C1.1754 13.846 1.13105 13.8045 1.10098 13.7759C1.08595 13.7616 1.07448 13.7505 1.06665 13.7428L1.05761 13.734L1.05515 13.7315L1.05443 13.7308L1.0542 13.7306C1.05412 13.7305 1.05406 13.7304 1.18916 13.5959C1.32426 13.4613 1.32423 13.4613 1.32421 13.4613L1.32423 13.4613L1.32455 13.4616L1.32619 13.4632L1.33356 13.4705C1.34027 13.477 1.35058 13.487 1.36443 13.5002C1.39212 13.5265 1.43398 13.5657 1.48956 13.6158C1.60072 13.7161 1.76671 13.8601 1.98404 14.0334C2.4188 14.3801 3.05831 14.8433 3.87463 15.3066C5.50793 16.2337 7.84294 17.1581 10.6593 17.1581C13.4114 17.1581 15.4622 16.1927 17.3513 15.2333C17.4665 15.1748 17.5812 15.1163 17.6955 15.0579C19.4454 14.1646 21.1069 13.3165 23.0693 13.4056C24.6593 13.4778 25.9652 14.4194 27.0949 15.7421C28.2245 17.0646 29.2019 18.7963 30.1299 20.5002C30.2274 20.6791 30.3243 20.8577 30.4207 21.0355C31.2476 22.5595 32.0429 24.0253 32.8898 25.1507C33.8397 26.413 34.8131 27.1897 35.9131 27.1897C37.0128 27.1897 37.9264 26.4525 38.7656 25.2463C39.6026 24.0432 40.3308 22.4239 41.0734 20.7535L41.1338 20.6176C41.853 18.9992 42.5882 17.3451 43.4444 16.0314C44.2268 14.8309 45.132 13.8799 46.2528 13.5152L45.1836 12.7813C45.0968 12.7216 45.0748 12.6031 45.1345 12.5164C45.1943 12.4297 45.3131 12.4078 45.4 12.4674L46.8153 13.4389Z" fill="#231F20"/>
<path opacity="0.8" d="M29.8961 6.47632V5.97632V6.47632ZM46.7497 23.8279C47.0164 23.7562 47.1744 23.4818 47.1026 23.2152L45.9331 18.8698C45.8614 18.6031 45.587 18.4451 45.3204 18.5169C45.0537 18.5887 44.8957 18.863 44.9675 19.1297L46.007 22.9922L42.1445 24.0318C41.8778 24.1035 41.7198 24.3779 41.7916 24.6445C41.8634 24.9112 42.1377 25.0692 42.4044 24.9974L46.7497 23.8279ZM1 19.8097C0.705393 20.2137 0.705564 20.2139 0.705757 20.214C0.70585 20.2141 0.706064 20.2142 0.70625 20.2144C0.706621 20.2146 0.707079 20.215 0.707622 20.2153C0.708709 20.2161 0.710138 20.2172 0.711907 20.2184C0.715445 20.221 0.720343 20.2245 0.726578 20.2289C0.739047 20.2378 0.756871 20.2503 0.779869 20.2663C0.82586 20.2981 0.892582 20.3433 0.97861 20.3994C1.1506 20.5115 1.40013 20.667 1.71575 20.8445C2.34614 21.1991 3.24489 21.6444 4.31987 22.007C6.46331 22.7301 9.36196 23.1415 12.2233 21.7762L11.7927 20.8736C9.25592 22.0841 6.65056 21.7379 4.63953 21.0595C3.63728 20.7214 2.79618 20.3049 2.20602 19.9729C1.91137 19.8072 1.68046 19.6632 1.52457 19.5616C1.44666 19.5108 1.38759 19.4707 1.34877 19.4439C1.32936 19.4304 1.31503 19.4203 1.30594 19.4139C1.30139 19.4106 1.29816 19.4083 1.29627 19.4069C1.29532 19.4063 1.2947 19.4058 1.29443 19.4056C1.29429 19.4055 1.29423 19.4055 1.29426 19.4055C1.29428 19.4055 1.29436 19.4056 1.29437 19.4056C1.29448 19.4057 1.29461 19.4058 1 19.8097ZM12.2233 21.7762C13.6782 21.082 14.9834 19.7573 16.2379 18.2363C16.8696 17.4704 17.4998 16.6401 18.1365 15.7958C18.7753 14.9488 19.4209 14.0875 20.092 13.2466C22.796 9.85832 25.7854 6.97632 29.8961 6.97632V5.97632C25.273 5.97632 22.0174 9.23071 19.3104 12.6228C18.6288 13.4769 17.9737 14.3509 17.3381 15.1937C16.7005 16.0392 16.0825 16.8531 15.4665 17.6C14.2255 19.1046 13.037 20.2799 11.7927 20.8736L12.2233 21.7762ZM29.8961 6.97632C31.7808 6.97632 33.3478 7.74204 34.7522 8.98882C36.1671 10.2449 37.3965 11.9714 38.5899 13.8528C39.7672 15.7088 40.9274 17.7475 42.1528 19.5039C43.3835 21.268 44.738 22.8384 46.3703 23.7784L46.8693 22.9118C45.432 22.0841 44.18 20.662 42.973 18.9318C41.7606 17.1939 40.6517 15.2363 39.4343 13.3171C38.2329 11.4232 36.9418 9.59544 35.4161 8.24099C33.88 6.87727 32.0864 5.97632 29.8961 5.97632V6.97632Z" fill="white"/>
<path opacity="0.8" fill-rule="evenodd" clip-rule="evenodd" d="M16.1887 18.039C14.9384 19.5549 13.6692 20.8334 12.2795 21.4965C9.51833 22.8141 6.71023 22.4228 4.60768 21.7135C3.55516 21.3584 2.67422 20.922 2.05627 20.5744C1.74712 20.4005 1.50335 20.2486 1.33633 20.1398C1.25282 20.0854 1.18846 20.0417 1.14468 20.0114C1.1228 19.9963 1.10605 19.9845 1.09463 19.9763L1.0815 19.967L1.07797 19.9644L1.07697 19.9637L1.07667 19.9635C1.07657 19.9634 1.07649 19.9633 1.1891 19.8095C1.30172 19.6558 1.30168 19.6557 1.30167 19.6557L1.30175 19.6558L1.30228 19.6562L1.30488 19.658L1.3161 19.6661C1.32623 19.6733 1.34164 19.6841 1.36216 19.6983C1.4032 19.7267 1.46464 19.7684 1.54506 19.8208C1.70592 19.9256 1.94259 20.0732 2.24371 20.2426C2.8463 20.5815 3.70521 21.0069 4.72993 21.3526C6.78185 22.0448 9.47776 22.4112 12.1148 21.1529C13.4241 20.5281 14.6488 19.3066 15.8939 17.7969C16.5148 17.0441 17.1365 16.2251 17.7739 15.38C17.8309 15.3045 17.8879 15.2288 17.9451 15.1529C18.5274 14.3804 19.1233 13.5898 19.741 12.8158C22.447 9.42501 25.6203 6.28564 30.0852 6.28564C32.1811 6.28564 33.9048 7.14485 35.4002 8.47239C36.8916 9.7964 38.1636 11.5928 39.3625 13.4829C39.7907 14.1579 40.2087 14.8434 40.6244 15.525C41.3784 16.7614 42.1245 17.9848 42.9086 19.1088C44.0122 20.6907 45.173 22.0473 46.4995 22.9289L46.1796 21.7385C46.1523 21.6369 46.2127 21.5324 46.3145 21.5051C46.4163 21.4779 46.521 21.5382 46.5483 21.6398L46.9932 23.2956C47.0206 23.3972 46.9601 23.5016 46.8583 23.5289L45.1991 23.9729C45.0973 24.0002 44.9926 23.9399 44.9653 23.8383C44.938 23.7367 44.9984 23.6322 45.1002 23.605L46.3323 23.2753C44.9255 22.3534 43.7185 20.9365 42.5953 19.3265C41.8053 18.194 41.0475 16.9515 40.2887 15.7076C39.8745 15.0285 39.46 14.349 39.0399 13.6866C37.844 11.8014 36.5956 10.0435 35.1464 8.75702C33.7013 7.47407 32.0643 6.6666 30.0852 6.6666C25.8163 6.6666 22.7446 9.66362 20.0396 13.0531C19.4254 13.8228 18.8326 14.6093 18.2498 15.3824C18.1928 15.4581 18.1358 15.5337 18.0789 15.6091C17.4419 16.4538 16.8155 17.279 16.1887 18.039Z" fill="#231F20"/>
<path d="M40 21.995C40 26.4105 36.4183 29.99 32 29.99C27.5817 29.99 24 26.4105 24 21.995C24 17.5795 27.5817 14 32 14C36.4183 14 40 17.5795 40 21.995Z" fill="white"/>
<path fill-rule="evenodd" clip-rule="evenodd" d="M32 29.3152C36.0439 29.3152 39.3238 26.0387 39.3238 21.995C39.3238 17.9512 36.0439 14.6748 32 14.6748C27.9561 14.6748 24.6762 17.9512 24.6762 21.995C24.6762 26.0387 27.9561 29.3152 32 29.3152ZM32 29.99C36.4183 29.99 40 26.4105 40 21.995C40 17.5795 36.4183 14 32 14C27.5817 14 24 17.5795 24 21.995C24 26.4105 27.5817 29.99 32 29.99Z" fill="black"/>
<mask id="mask0_2973_71598" style="mask-type:alpha" maskUnits="userSpaceOnUse" x="28" y="18" width="8" height="8">
<path d="M35.1458 21.5161C35.379 21.5161 35.4955 21.71 35.4955 22.0978C35.4955 22.4856 35.379 22.6795 35.1458 22.6795H32.6975V25.1228C32.6975 25.3554 32.5032 25.4718 32.1146 25.4718C31.726 25.4718 31.5317 25.3554 31.5317 25.1228V22.6795H29.0834C28.8502 22.6795 28.7336 22.4856 28.7336 22.0978C28.7336 21.71 28.8502 21.5161 29.0834 21.5161H31.5317V19.0729C31.5317 18.8402 31.726 18.7239 32.1146 18.7239C32.5032 18.7239 32.6975 18.8402 32.6975 19.0729V21.5161H35.1458Z" fill="white"/>
</mask>
<g mask="url(#mask0_2973_71598)">
<path d="M35.1458 21.5161C35.379 21.5161 35.4955 21.71 35.4955 22.0978C35.4955 22.4856 35.379 22.6795 35.1458 22.6795H32.6975V25.1228C32.6975 25.3554 32.5032 25.4718 32.1146 25.4718C31.726 25.4718 31.5317 25.3554 31.5317 25.1228V22.6795H29.0834C28.8502 22.6795 28.7336 22.4856 28.7336 22.0978C28.7336 21.71 28.8502 21.5161 29.0834 21.5161H31.5317V19.0729C31.5317 18.8402 31.726 18.7239 32.1146 18.7239C32.5032 18.7239 32.6975 18.8402 32.6975 19.0729V21.5161H35.1458Z" fill="#19AF66"/>
</g>
</svg>
