<svg width="24" height="24" viewBox="0 0 24 24" fill="none" xmlns="http://www.w3.org/2000/svg">
<path fill-rule="evenodd" clip-rule="evenodd" d="M12.0001 17.2482C12.559 17.2482 13.0121 16.7951 13.0121 16.2362C13.0121 15.6772 12.559 15.2241 12.0001 15.2241C11.4411 15.2241 10.988 15.6772 10.988 16.2362C10.988 16.7951 11.4411 17.2482 12.0001 17.2482ZM12.8646 16.2362C12.8646 16.2063 12.8631 16.1768 12.8601 16.1478C12.8631 16.1768 12.8646 16.2063 12.8646 16.2362M11.2672 16.6949C11.4201 16.9386 11.6912 17.1007 12.0001 17.1007C12.3582 17.1007 12.6654 16.8829 12.7966 16.5727C12.6654 16.8829 12.3582 17.1007 12.0001 17.1007C11.6912 17.1007 11.4201 16.9386 11.2672 16.6949Z" fill="black"/>
<path fill-rule="evenodd" clip-rule="evenodd" d="M12 3C7.02602 3 3 7.02535 3 12C3 16.974 7.02535 21 12 21C16.974 21 21 16.9747 21 12C21 7.02602 16.9747 3 12 3ZM12 19.3217C7.95343 19.3217 4.67828 16.0471 4.67828 12C4.67828 7.95343 7.95289 4.67828 12 4.67828C16.0466 4.67828 19.3217 7.95289 19.3217 12C19.3217 16.0466 16.0471 19.3217 12 19.3217Z" fill="black"/>
<path fill-rule="evenodd" clip-rule="evenodd" d="M12.0001 7.4436C10.3932 7.4436 9.08618 8.75066 9.08618 10.3575C9.08618 10.821 9.46187 11.1967 9.92532 11.1967C10.3888 11.1967 10.7645 10.821 10.7645 10.3575C10.7645 9.67633 11.3189 9.12188 12.0001 9.12188C12.6813 9.12188 13.2358 9.67633 13.2358 10.3575C13.2358 11.0387 12.6813 11.5932 12.0001 11.5932C11.5367 11.5932 11.161 11.9689 11.161 12.4323V14.1613C11.161 14.6248 11.5367 15.0005 12.0001 15.0005C12.4636 15.0005 12.8393 14.6248 12.8393 14.1613V13.1483C14.0381 12.7872 14.9141 11.6731 14.9141 10.3575C14.9141 8.75066 13.607 7.4436 12.0001 7.4436ZM12.6235 7.66196C12.4231 7.61563 12.2144 7.59114 12.0001 7.59114C10.8561 7.59114 9.872 8.28921 9.45146 9.28177C9.872 8.28921 10.8561 7.59115 12.0001 7.59115C12.2144 7.59115 12.4231 7.61564 12.6235 7.66196ZM9.23372 10.3575C9.23372 10.3814 9.23493 10.405 9.23729 10.4283L9.23372 10.3575ZM9.23729 10.4283C9.23493 10.405 9.23372 10.3814 9.23372 10.3575L9.23729 10.4283Z" fill="black"/>
</svg>
