<svg width="38" height="32" viewBox="0 0 38 32" fill="none" xmlns="http://www.w3.org/2000/svg">
<path opacity="0.08" d="M25.5955 11.5275C25.4577 11.5275 25.3198 11.5334 25.1831 11.5381C24.8646 5.11312 19.5152 0 12.9622 0C6.20428 0 0.726318 5.43725 0.726318 12.1404C0.726318 18.8436 6.20428 24.2808 12.9622 24.2808C13.9685 24.2813 14.9711 24.1586 15.9485 23.9154C16.903 28.5359 20.8589 32 25.5955 32C31.0457 32 35.4649 27.4149 35.4649 21.7596C35.4649 16.1043 31.0457 11.5275 25.5955 11.5275Z" fill="#FB6E00"/>
<path d="M37.4937 22.995C37.4937 27.4105 33.9119 30.99 29.4937 30.99C25.0754 30.99 21.4937 27.4105 21.4937 22.995C21.4937 18.5795 25.0754 15 29.4937 15C33.9119 15 37.4937 18.5795 37.4937 22.995Z" fill="white"/>
<path fill-rule="evenodd" clip-rule="evenodd" d="M29.4937 30.3152C33.5376 30.3152 36.8175 27.0387 36.8175 22.995C36.8175 18.9512 33.5376 15.6748 29.4937 15.6748C25.4497 15.6748 22.1698 18.9512 22.1698 22.995C22.1698 27.0387 25.4497 30.3152 29.4937 30.3152ZM29.4937 30.99C33.9119 30.99 37.4937 27.4105 37.4937 22.995C37.4937 18.5795 33.9119 15 29.4937 15C25.0754 15 21.4937 18.5795 21.4937 22.995C21.4937 27.4105 25.0754 30.99 29.4937 30.99Z" fill="black"/>
<mask id="mask0_2973_71626" style="mask-type:alpha" maskUnits="userSpaceOnUse" x="26" y="19" width="7" height="9">
<path d="M29.6081 19.0488C29.7513 19.0488 29.8698 19.1007 29.9635 19.2044C30.0572 19.3081 30.104 19.432 30.104 19.576L30.104 25.1241L32.121 23.0328C32.2202 22.9233 32.3415 22.8686 32.4848 22.8686C32.628 22.8686 32.7438 22.9233 32.832 23.0328C32.9367 23.1307 32.989 23.2517 32.989 23.3957C32.989 23.5398 32.9367 23.6665 32.832 23.776L29.6081 27.1463L26.3759 23.776C26.2767 23.6607 26.2271 23.534 26.2271 23.3957C26.2271 23.2574 26.2767 23.1365 26.3759 23.0328C26.4751 22.9291 26.5963 22.8743 26.7396 22.8686C26.8829 22.8628 27.0014 22.9175 27.0951 23.0328L29.0955 25.1241L29.0955 19.576C29.0955 19.432 29.1451 19.3081 29.2443 19.2044C29.3435 19.1007 29.4648 19.0488 29.6081 19.0488Z" fill="white"/>
</mask>
<g mask="url(#mask0_2973_71626)">
<path d="M29.6081 19.0488C29.7513 19.0488 29.8698 19.1007 29.9635 19.2044C30.0572 19.3081 30.104 19.432 30.104 19.576L30.104 25.1241L32.121 23.0328C32.2202 22.9233 32.3415 22.8686 32.4848 22.8686C32.628 22.8686 32.7438 22.9233 32.832 23.0328C32.9367 23.1307 32.989 23.2517 32.989 23.3957C32.989 23.5398 32.9367 23.6665 32.832 23.776L29.6081 27.1463L26.3759 23.776C26.2767 23.6607 26.2271 23.534 26.2271 23.3957C26.2271 23.2574 26.2767 23.1365 26.3759 23.0328C26.4751 22.9291 26.5963 22.8743 26.7396 22.8686C26.8829 22.8628 27.0014 22.9175 27.0951 23.0328L29.0955 25.1241L29.0955 19.576C29.0955 19.432 29.1451 19.3081 29.2443 19.2044C29.3435 19.1007 29.4648 19.0488 29.6081 19.0488Z" fill="#19AF66"/>
</g>
</svg>
