<svg width="29" height="28" viewBox="0 0 29 28" fill="none" xmlns="http://www.w3.org/2000/svg">
<path d="M9.90625 9.40381C10.2957 9.40381 10.6114 9.71952 10.6114 10.109C10.6114 10.4984 10.2957 10.8141 9.90625 10.8141H4.44779C3.04876 10.8141 1.91029 11.9526 1.91029 13.3516V21.6744C1.91029 23.0734 3.04876 24.2119 4.44779 24.2119H7.95953C8.24239 24.2119 8.49497 24.3802 8.60617 24.6355L8.59068 24.6039L9.58057 25.5938L9.58114 24.9165C9.58141 24.5442 9.87016 24.2395 10.236 24.2137L10.2863 24.2119H16.1213C17.5204 24.2119 18.6588 23.0734 18.6588 21.6744V17.9454C18.6588 17.5559 18.9746 17.2402 19.364 17.2402C19.7534 17.2402 20.0691 17.5559 20.0691 17.9454V21.6744C20.0691 23.8514 18.2983 25.6222 16.1213 25.6222L10.9908 25.6221L10.9897 27.2955C10.9895 27.5616 10.8398 27.8032 10.6056 27.9228L10.5541 27.9465C10.4682 27.9821 10.3767 28.0001 10.2847 28.0001C10.0985 28.0001 9.91895 27.9266 9.78595 27.7936L7.61464 25.6221L4.44779 25.6222C2.30433 25.6222 0.554583 23.9054 0.501252 21.7746L0.5 21.6744V13.3516C0.5 11.1746 2.27083 9.40381 4.44779 9.40381H9.90625Z" fill="url(#paint0_linear_3134_65208)"/>
<path d="M20.4804 0C24.9026 0 28.5001 3.59753 28.5001 8.0198C28.5001 9.30054 28.2068 10.5254 27.6286 11.6589C27.1481 12.6008 26.4748 13.4501 25.665 14.138L25.5815 14.2069L25.5817 17.2564C25.5817 17.5036 25.4527 17.7296 25.2469 17.8566L25.198 17.8841L25.1466 17.9078C25.0605 17.9435 24.9689 17.9616 24.8767 17.9616C24.7113 17.9616 24.5511 17.9035 24.4241 17.7973L24.3781 17.7552L22.4231 15.8016L22.3164 15.828C21.8499 15.9374 21.3739 16.0046 20.8933 16.0291L20.687 16.0369L20.4803 16.0396H19.1125C14.6903 16.0396 11.0928 12.4421 11.0928 8.0198C11.0928 3.64175 14.6187 0.072033 18.9802 0.00107648L19.1126 0H20.4804ZM20.4804 1.41029H19.1126C15.4682 1.41029 12.5031 4.37545 12.5031 8.0198C12.5031 11.6262 15.4067 14.5675 18.9989 14.6283L19.1126 14.6293H20.4804C21.1429 14.6293 21.797 14.5315 22.4245 14.3387C22.4919 14.318 22.5617 14.3075 22.6316 14.3075C22.7971 14.3075 22.9573 14.3658 23.0841 14.4719L23.1301 14.5139L24.1713 15.5545L24.1715 13.8661C24.1715 13.6632 24.2589 13.471 24.4097 13.3377L24.4523 13.3029C26.1289 12.0402 27.0898 10.1153 27.0898 8.0198C27.0898 4.37544 24.1247 1.41029 20.4804 1.41029Z" fill="url(#paint1_linear_3134_65208)"/>
<path d="M22.2302 6.07823C22.1522 4.94682 21.2402 4.03477 20.1087 3.95678C19.4673 3.91274 18.8552 4.12908 18.3867 4.56646C17.9246 4.99778 17.6597 5.60751 17.6597 6.23934C17.6597 6.53782 17.9017 6.77978 18.2001 6.77978C18.4985 6.77978 18.7406 6.53782 18.7406 6.23934C18.7406 5.90108 18.8768 5.58757 19.1243 5.35663C19.3715 5.12592 19.6945 5.01173 20.0345 5.03518C20.6305 5.07625 21.1109 5.55665 21.1519 6.1526C21.1935 6.75449 20.7986 7.28639 20.213 7.41739C19.7386 7.52353 19.4073 7.93578 19.4073 8.41986V9.71827C19.4073 10.0168 19.6494 10.2587 19.9478 10.2587C20.2463 10.2587 20.4882 10.0168 20.4882 9.71827V8.46304C21.5772 8.19995 22.3078 7.20348 22.2302 6.07823Z" fill="#857F87"/>
<path d="M20.3298 11.4743C20.2292 11.3737 20.0898 11.3159 19.9477 11.3159C19.8055 11.3159 19.6661 11.3737 19.5656 11.4743C19.4651 11.5748 19.4072 11.7142 19.4072 11.8564C19.4072 11.999 19.4651 12.1385 19.5656 12.239C19.6661 12.3395 19.8055 12.3968 19.9477 12.3968C20.0898 12.3968 20.2292 12.3395 20.3298 12.239C20.4303 12.1379 20.4881 11.999 20.4881 11.8564C20.4881 11.7142 20.4302 11.5748 20.3298 11.4743Z" fill="#857F87"/>
<path d="M15.5272 16.9185H4.12394C3.82551 16.9185 3.5835 17.1604 3.5835 17.4589C3.5835 17.7574 3.82551 17.9993 4.12394 17.9993H15.5272C15.8257 17.9993 16.0677 17.7574 16.0677 17.4589C16.0677 17.1604 15.8257 16.9185 15.5272 16.9185Z" fill="#857F87"/>
<path d="M15.9088 20.1032C15.8083 20.0027 15.6689 19.9448 15.5268 19.9448C15.3846 19.9448 15.2452 20.0027 15.1447 20.1032C15.0441 20.2037 14.9863 20.3431 14.9863 20.4853C14.9863 20.6274 15.0442 20.7668 15.1447 20.8674C15.2452 20.9679 15.3846 21.0257 15.5268 21.0257C15.6689 21.0257 15.8083 20.9679 15.9088 20.8674C16.0094 20.7668 16.0672 20.6279 16.0672 20.4853C16.0672 20.3431 16.0093 20.2037 15.9088 20.1032Z" fill="#857F87"/>
<path d="M13.4015 19.9448H4.12394C3.82551 19.9448 3.5835 20.1868 3.5835 20.4853C3.5835 20.7838 3.82551 21.0257 4.12394 21.0257H13.4015C13.7 21.0257 13.942 20.7838 13.942 20.4853C13.942 20.1868 13.7 19.9448 13.4015 19.9448Z" fill="#857F87"/>
<path d="M12.0144 13.8916H4.12394C3.82551 13.8916 3.5835 14.1336 3.5835 14.432C3.5835 14.7305 3.82551 14.9725 4.12394 14.9725H12.0144C12.3129 14.9725 12.5548 14.7305 12.5548 14.432C12.5548 14.1336 12.3128 13.8916 12.0144 13.8916Z" fill="#857F87"/>
<defs>
<linearGradient id="paint0_linear_3134_65208" x1="20.2952" y1="16.223" x2="2.05085" y2="21.1736" gradientUnits="userSpaceOnUse">
<stop stop-color="#FB6E00"/>
<stop offset="1" stop-color="#FFC500"/>
</linearGradient>
<linearGradient id="paint1_linear_3134_65208" x1="28.5001" y1="17.9616" x2="15.2354" y2="-2.6642" gradientUnits="userSpaceOnUse">
<stop stop-color="#FB6E00"/>
<stop offset="1" stop-color="#FFC500"/>
</linearGradient>
</defs>
</svg>
