<svg width="24" height="24" viewBox="0 0 24 24" fill="none" xmlns="http://www.w3.org/2000/svg">
<path d="M13.0716 7.57144C12.7165 7.57144 12.4287 7.85926 12.4287 8.2143V11.8571L15.5765 13.7252C15.864 13.8959 16.2355 13.801 16.4059 13.5133C16.5763 13.2259 16.4814 12.8547 16.1939 12.6843L13.7144 11.2143V8.2143C13.7144 7.85926 13.4266 7.57144 13.0716 7.57144Z" fill="#231F20"/>
<path d="M13.2814 3.28571C9.01714 3.28571 5.57143 6.73998 5.57143 11H3L6.39854 14.4628L9.85716 11H7.28573C7.28573 7.68715 9.97287 5 13.2857 5C16.5986 5 19.2857 7.68715 19.2857 11C19.2857 14.3128 16.5986 17 13.2857 17C11.9363 17 10.6947 16.5518 9.69479 15.8007C9.31577 15.516 8.77543 15.5103 8.44025 15.8455C8.10544 16.1803 8.10234 16.7273 8.47157 17.0237C9.78856 18.081 11.4598 18.7143 13.2814 18.7143C17.5457 18.7143 21 15.26 21 11C21 6.73998 17.5457 3.28571 13.2814 3.28571Z" fill="#231F20"/>
</svg>
