<svg width="24" height="24" viewBox="0 0 24 24" fill="none" xmlns="http://www.w3.org/2000/svg">
<path d="M13.0714 7.57144C12.7164 7.57144 12.4286 7.85926 12.4286 8.2143V11.8571L15.5764 13.7252C15.8639 13.8959 16.2354 13.801 16.4058 13.5133C16.5762 13.2259 16.4813 12.8547 16.1938 12.6843L13.7143 11.2143V8.2143C13.7143 7.85926 13.4265 7.57144 13.0714 7.57144Z" fill="#646265"/>
<path d="M13.2814 3.28572C9.01714 3.28572 5.57143 6.73999 5.57143 11H3L6.39854 14.4628L9.85716 11H7.28573C7.28573 7.68716 9.97287 5.00002 13.2857 5.00002C16.5986 5.00002 19.2857 7.68716 19.2857 11C19.2857 14.3129 16.5986 17 13.2857 17C11.9363 17 10.6947 16.5518 9.69479 15.8007C9.31577 15.5161 8.77544 15.5103 8.44025 15.8455V15.8455C8.10544 16.1803 8.10234 16.7273 8.47157 17.0237C9.78856 18.0811 11.4598 18.7143 13.2814 18.7143C17.5457 18.7143 21 15.26 21 11C21 6.73999 17.5457 3.28572 13.2814 3.28572Z" fill="#646265"/>
</svg>
