<svg width="16" height="16" viewBox="0 0 16 16" fill="none" xmlns="http://www.w3.org/2000/svg">
<path fill-rule="evenodd" clip-rule="evenodd" d="M11.629 11.3046C11.629 10.4379 11.1877 9.62521 10.448 9.12958C9.51084 8.50167 8.2491 7.65665 8.2491 7.65665C8.09929 7.55618 7.90071 7.55618 7.75091 7.65665C7.75091 7.65665 6.48917 8.50167 5.552 9.12958C4.81226 9.62521 4.37097 10.4379 4.37097 11.3046V13.5813C4.37097 13.8124 4.56607 13.9999 4.80646 13.9999H11.1936C11.4339 13.9999 11.629 13.8124 11.629 13.5813V11.3046Z" fill="#857F87"/>
<path fill-rule="evenodd" clip-rule="evenodd" d="M11.629 4.69526V2.4186C11.629 2.18753 11.4339 2 11.1936 2H4.80646C4.56607 2 4.37097 2.18753 4.37097 2.4186V4.69526C4.37097 5.56205 4.81226 6.3747 5.552 6.87033C6.48917 7.49823 7.75091 8.34326 7.75091 8.34326C7.90071 8.44372 8.09929 8.44372 8.2491 8.34326C8.2491 8.34326 9.51084 7.49823 10.448 6.87033C11.1877 6.3747 11.629 5.56205 11.629 4.69526Z" fill="#857F87"/>
<path fill-rule="evenodd" clip-rule="evenodd" d="M3.93548 2.83721H12.0645C12.3049 2.83721 12.5 2.64967 12.5 2.4186C12.5 2.18753 12.3049 2 12.0645 2H3.93548C3.6951 2 3.5 2.18753 3.5 2.4186C3.5 2.64967 3.6951 2.83721 3.93548 2.83721Z" fill="#857F87"/>
<path fill-rule="evenodd" clip-rule="evenodd" d="M3.93548 14.0001H12.0645C12.3049 14.0001 12.5 13.8125 12.5 13.5814C12.5 13.3504 12.3049 13.1628 12.0645 13.1628H3.93548C3.6951 13.1628 3.5 13.3504 3.5 13.5814C3.5 13.8125 3.6951 14.0001 3.93548 14.0001Z" fill="#857F87"/>
</svg>
