<svg width="70" height="78" viewBox="0 0 70 78" fill="none" xmlns="http://www.w3.org/2000/svg">
<path d="M0.5 75.9999V2C0.5 1.17157 1.17157 0.5 2 0.5H41.1839C41.5427 0.5 41.8896 0.628605 42.1617 0.862483L58.1327 14.5908C58.4642 14.8757 58.6549 15.2911 58.6549 15.7283V75.9999C58.6549 76.8283 57.9834 77.4999 57.1549 77.4999H2C1.17157 77.4999 0.5 76.8283 0.5 75.9999Z" stroke="black" stroke-linejoin="round"/>
<path d="M4 72V6C4 4.89543 4.89543 4 6 4H39.3815C39.8736 4 40.3484 4.18141 40.7151 4.50954L54.3336 16.6949C54.7576 17.0743 55 17.6163 55 18.1853V72C55 73.1046 54.1046 74 53 74H6C4.89543 74 4 73.1046 4 72Z" fill="#FB6E00" fill-opacity="0.08"/>
<path d="M40.3594 47.2734L43.7109 37.625H45.3438L41.1328 49H39.9688L40.3594 47.2734ZM37.2266 37.625L40.5469 47.2734L40.9609 49H39.7969L35.5938 37.625H37.2266Z" fill="#231F20"/>
<path d="M33.25 46.125C33.25 45.8594 33.2083 45.625 33.125 45.4219C33.0469 45.2135 32.9062 45.026 32.7031 44.8594C32.5052 44.6927 32.2292 44.5339 31.875 44.3828C31.526 44.2318 31.0833 44.0781 30.5469 43.9219C29.9844 43.7552 29.4766 43.5703 29.0234 43.3672C28.5703 43.1589 28.1823 42.9219 27.8594 42.6562C27.5365 42.3906 27.2891 42.0859 27.1172 41.7422C26.9453 41.3984 26.8594 41.0052 26.8594 40.5625C26.8594 40.1198 26.9505 39.7109 27.1328 39.3359C27.3151 38.9609 27.5755 38.6354 27.9141 38.3594C28.2578 38.0781 28.6667 37.8594 29.1406 37.7031C29.6146 37.5469 30.1432 37.4688 30.7266 37.4688C31.5807 37.4688 32.3047 37.6328 32.8984 37.9609C33.4974 38.2839 33.9531 38.7083 34.2656 39.2344C34.5781 39.7552 34.7344 40.3125 34.7344 40.9062H33.2344C33.2344 40.4792 33.1432 40.1016 32.9609 39.7734C32.7786 39.4401 32.5026 39.1797 32.1328 38.9922C31.763 38.7995 31.2943 38.7031 30.7266 38.7031C30.1901 38.7031 29.7474 38.7839 29.3984 38.9453C29.0495 39.1068 28.7891 39.3255 28.6172 39.6016C28.4505 39.8776 28.3672 40.1927 28.3672 40.5469C28.3672 40.7865 28.4167 41.0052 28.5156 41.2031C28.6198 41.3958 28.7786 41.5755 28.9922 41.7422C29.2109 41.9089 29.487 42.0625 29.8203 42.2031C30.1589 42.3438 30.5625 42.4792 31.0312 42.6094C31.6771 42.7917 32.2344 42.9948 32.7031 43.2188C33.1719 43.4427 33.5573 43.6953 33.8594 43.9766C34.1667 44.2526 34.3932 44.5677 34.5391 44.9219C34.6901 45.2708 34.7656 45.6667 34.7656 46.1094C34.7656 46.5729 34.6719 46.9922 34.4844 47.3672C34.2969 47.7422 34.0286 48.0625 33.6797 48.3281C33.3307 48.5938 32.9115 48.7995 32.4219 48.9453C31.9375 49.0859 31.3958 49.1562 30.7969 49.1562C30.2708 49.1562 29.7526 49.0833 29.2422 48.9375C28.737 48.7917 28.276 48.5729 27.8594 48.2812C27.4479 47.9896 27.1172 47.6302 26.8672 47.2031C26.6224 46.7708 26.5 46.2708 26.5 45.7031H28C28 46.0938 28.0755 46.4297 28.2266 46.7109C28.3776 46.987 28.5833 47.2161 28.8438 47.3984C29.1094 47.5807 29.4089 47.7161 29.7422 47.8047C30.0807 47.888 30.4323 47.9297 30.7969 47.9297C31.3229 47.9297 31.7682 47.8568 32.1328 47.7109C32.4974 47.5651 32.7734 47.3568 32.9609 47.0859C33.1536 46.8151 33.25 46.4948 33.25 46.125Z" fill="#231F20"/>
<path d="M23.6328 45.3828H25.1328C25.0547 46.1016 24.849 46.7448 24.5156 47.3125C24.1823 47.8802 23.7109 48.3307 23.1016 48.6641C22.4922 48.9922 21.7318 49.1562 20.8203 49.1562C20.1536 49.1562 19.5469 49.0312 19 48.7812C18.4583 48.5312 17.9922 48.1771 17.6016 47.7188C17.2109 47.2552 16.9089 46.7005 16.6953 46.0547C16.487 45.4036 16.3828 44.6797 16.3828 43.8828V42.75C16.3828 41.9531 16.487 41.2318 16.6953 40.5859C16.9089 39.9349 17.2135 39.3776 17.6094 38.9141C18.0104 38.4505 18.4922 38.0938 19.0547 37.8438C19.6172 37.5938 20.25 37.4688 20.9531 37.4688C21.8125 37.4688 22.5391 37.6302 23.1328 37.9531C23.7266 38.276 24.1875 38.724 24.5156 39.2969C24.849 39.8646 25.0547 40.5234 25.1328 41.2734H23.6328C23.5599 40.7422 23.4245 40.2865 23.2266 39.9062C23.0286 39.5208 22.7474 39.224 22.3828 39.0156C22.0182 38.8073 21.5417 38.7031 20.9531 38.7031C20.4479 38.7031 20.0026 38.7995 19.6172 38.9922C19.237 39.1849 18.9167 39.4583 18.6562 39.8125C18.401 40.1667 18.2083 40.5911 18.0781 41.0859C17.9479 41.5807 17.8828 42.1302 17.8828 42.7344V43.8828C17.8828 44.4401 17.9401 44.9635 18.0547 45.4531C18.1745 45.9427 18.3542 46.3724 18.5938 46.7422C18.8333 47.112 19.138 47.4036 19.5078 47.6172C19.8776 47.8255 20.3151 47.9297 20.8203 47.9297C21.4609 47.9297 21.9714 47.8281 22.3516 47.625C22.7318 47.4219 23.0182 47.1302 23.2109 46.75C23.4089 46.3698 23.5495 45.9141 23.6328 45.3828Z" fill="#231F20"/>
<circle cx="58" cy="66" r="11.5" fill="white" stroke="black"/>
<g clip-path="url(#clip0_511_5201)">
<mask id="mask0_511_5201" style="mask-type:alpha" maskUnits="userSpaceOnUse" x="52" y="60" width="12" height="12">
<path d="M52.6001 65.5582C52.6001 65.3362 52.6769 65.1483 52.8306 64.9947L57.8381 60L62.8328 64.9947C62.9864 65.1483 63.0633 65.3362 63.0633 65.5582C63.0633 65.7802 62.9864 65.9658 62.8328 66.1153C62.6791 66.2647 62.4955 66.3394 62.2821 66.3394C62.0686 66.3394 61.885 66.2625 61.7314 66.1089L58.6193 62.9968V71.2188C58.6193 71.4322 58.5425 71.6158 58.3888 71.7695C58.2351 71.9232 58.0494 72 57.8317 72C57.614 72 57.4283 71.9232 57.2746 71.7695C57.1209 71.6158 57.0483 71.4322 57.0569 71.2188V62.9968L53.932 66.1089C53.7783 66.2625 53.5948 66.3394 53.3813 66.3394C53.1679 66.3394 52.9843 66.2647 52.8306 66.1153C52.6769 65.9658 52.6001 65.7802 52.6001 65.5582Z" fill="white"/>
</mask>
<g mask="url(#mask0_511_5201)">
<path d="M52.6001 65.5582C52.6001 65.3362 52.6769 65.1483 52.8306 64.9947L57.8381 60L62.8328 64.9947C62.9864 65.1483 63.0633 65.3362 63.0633 65.5582C63.0633 65.7802 62.9864 65.9658 62.8328 66.1153C62.6791 66.2647 62.4955 66.3394 62.2821 66.3394C62.0686 66.3394 61.885 66.2625 61.7314 66.1089L58.6193 62.9968V71.2188C58.6193 71.4322 58.5425 71.6158 58.3888 71.7695C58.2351 71.9232 58.0494 72 57.8317 72C57.614 72 57.4283 71.9232 57.2746 71.7695C57.1209 71.6158 57.0483 71.4322 57.0569 71.2188V62.9968L53.932 66.1089C53.7783 66.2625 53.5948 66.3394 53.3813 66.3394C53.1679 66.3394 52.9843 66.2647 52.8306 66.1153C52.6769 65.9658 52.6001 65.7802 52.6001 65.5582Z" fill="#19AF66"/>
</g>
</g>
<defs>
<clipPath id="clip0_511_5201">
<rect width="12" height="12" fill="white" transform="translate(52 60)"/>
</clipPath>
</defs>
</svg>
