<svg width="70" height="78" viewBox="0 0 70 78" fill="none" xmlns="http://www.w3.org/2000/svg">
<path d="M0.5 75.9999V2C0.5 1.17157 1.17157 0.5 2 0.5H41.0726C41.4321 0.5 41.7796 0.629083 42.0519 0.863751L57.9793 14.5905C58.3099 14.8754 58.5 15.2902 58.5 15.7267V75.9999C58.5 76.8283 57.8284 77.4999 57 77.4999H2C1.17157 77.4999 0.5 76.8283 0.5 75.9999Z" stroke="black" stroke-linejoin="round"/>
<path d="M4 72V6C4 4.89543 4.89543 4 6 4H39.3815C39.8736 4 40.3484 4.18141 40.7151 4.50954L54.3336 16.6949C54.7576 17.0743 55 17.6163 55 18.1853V72C55 73.1046 54.1046 74 53 74H6C4.89543 74 4 73.1046 4 72Z" fill="#BAB8BB"/>
<path d="M22.0781 41.2969H24.0312C23.9688 42.0417 23.7604 42.7057 23.4062 43.2891C23.0521 43.8672 22.5547 44.3229 21.9141 44.6562C21.2734 44.9896 20.4948 45.1562 19.5781 45.1562C18.875 45.1562 18.2422 45.0312 17.6797 44.7812C17.1172 44.526 16.6354 44.1667 16.2344 43.7031C15.8333 43.2344 15.526 42.6693 15.3125 42.0078C15.1042 41.3464 15 40.6068 15 39.7891V38.8438C15 38.026 15.1068 37.2865 15.3203 36.625C15.5391 35.9635 15.8516 35.3984 16.2578 34.9297C16.6641 34.4557 17.151 34.0938 17.7188 33.8438C18.2917 33.5938 18.9349 33.4688 19.6484 33.4688C20.5547 33.4688 21.3203 33.6354 21.9453 33.9688C22.5703 34.3021 23.0547 34.763 23.3984 35.3516C23.7474 35.9401 23.9609 36.6146 24.0391 37.375H22.0859C22.0339 36.8854 21.9193 36.4661 21.7422 36.1172C21.5703 35.7682 21.3151 35.5026 20.9766 35.3203C20.638 35.1328 20.1953 35.0391 19.6484 35.0391C19.2005 35.0391 18.8099 35.1224 18.4766 35.2891C18.1432 35.4557 17.8646 35.7005 17.6406 36.0234C17.4167 36.3464 17.2474 36.7448 17.1328 37.2188C17.0234 37.6875 16.9688 38.224 16.9688 38.8281V39.7891C16.9688 40.362 17.0182 40.8828 17.1172 41.3516C17.2214 41.8151 17.3776 42.2135 17.5859 42.5469C17.7995 42.8802 18.0703 43.138 18.3984 43.3203C18.7266 43.5026 19.1198 43.5938 19.5781 43.5938C20.1354 43.5938 20.5859 43.5052 20.9297 43.3281C21.2786 43.151 21.5417 42.8932 21.7188 42.5547C21.901 42.2109 22.0208 41.7917 22.0781 41.2969Z" fill="#231F20"/>
<path d="M31.7969 42.0703C31.7969 41.8359 31.7604 41.6276 31.6875 41.4453C31.6198 41.263 31.4974 41.0964 31.3203 40.9453C31.1432 40.7943 30.8932 40.6484 30.5703 40.5078C30.2526 40.362 29.8464 40.2135 29.3516 40.0625C28.8099 39.8958 28.3099 39.7109 27.8516 39.5078C27.3984 39.2995 27.0026 39.0599 26.6641 38.7891C26.3255 38.513 26.0625 38.1979 25.875 37.8438C25.6875 37.4844 25.5938 37.0703 25.5938 36.6016C25.5938 36.138 25.6901 35.7161 25.8828 35.3359C26.0807 34.9557 26.3594 34.6276 26.7188 34.3516C27.0833 34.0703 27.513 33.8542 28.0078 33.7031C28.5026 33.5469 29.0495 33.4688 29.6484 33.4688C30.4922 33.4688 31.2188 33.625 31.8281 33.9375C32.4427 34.25 32.9141 34.6693 33.2422 35.1953C33.5755 35.7214 33.7422 36.3021 33.7422 36.9375H31.7969C31.7969 36.5625 31.7161 36.2318 31.5547 35.9453C31.3984 35.6536 31.1589 35.4245 30.8359 35.2578C30.5182 35.0911 30.1146 35.0078 29.625 35.0078C29.1615 35.0078 28.776 35.0781 28.4688 35.2188C28.1615 35.3594 27.9323 35.5495 27.7812 35.7891C27.6302 36.0286 27.5547 36.2995 27.5547 36.6016C27.5547 36.8151 27.6042 37.0104 27.7031 37.1875C27.8021 37.3594 27.9531 37.5208 28.1562 37.6719C28.3594 37.8177 28.6146 37.9557 28.9219 38.0859C29.2292 38.2161 29.5911 38.3411 30.0078 38.4609C30.638 38.6484 31.1875 38.8568 31.6562 39.0859C32.125 39.3099 32.5156 39.5651 32.8281 39.8516C33.1406 40.138 33.375 40.4635 33.5312 40.8281C33.6875 41.1875 33.7656 41.5964 33.7656 42.0547C33.7656 42.5339 33.6693 42.9661 33.4766 43.3516C33.2839 43.7318 33.0078 44.0573 32.6484 44.3281C32.2943 44.5938 31.8672 44.7995 31.3672 44.9453C30.8724 45.0859 30.3203 45.1562 29.7109 45.1562C29.1641 45.1562 28.625 45.0833 28.0938 44.9375C27.5677 44.7917 27.0885 44.5703 26.6562 44.2734C26.224 43.9714 25.8802 43.5964 25.625 43.1484C25.3698 42.6953 25.2422 42.1667 25.2422 41.5625H27.2031C27.2031 41.9323 27.2656 42.2474 27.3906 42.5078C27.5208 42.7682 27.7005 42.9818 27.9297 43.1484C28.1589 43.3099 28.4245 43.4297 28.7266 43.5078C29.0339 43.5859 29.362 43.625 29.7109 43.625C30.1693 43.625 30.5521 43.5599 30.8594 43.4297C31.1719 43.2995 31.4062 43.1172 31.5625 42.8828C31.7188 42.6484 31.7969 42.3776 31.7969 42.0703Z" fill="#231F20"/>
<path d="M39.3984 42.9219L42.3906 33.625H44.5547L40.4766 45H39.0156L39.3984 42.9219ZM36.6328 33.625L39.6016 42.9219L40.0078 45H38.5391L34.4766 33.625H36.6328Z" fill="#231F20"/>
<circle cx="58" cy="66" r="11.5" fill="#E6E6E6" stroke="black"/>
<g clip-path="url(#clip0_511_7724)">
<mask id="mask0_511_7724" style="mask-type:alpha" maskUnits="userSpaceOnUse" x="52" y="60" width="12" height="12">
<path d="M52.6001 65.5582C52.6001 65.3362 52.6769 65.1483 52.8306 64.9947L57.8381 60L62.8328 64.9947C62.9864 65.1483 63.0633 65.3362 63.0633 65.5582C63.0633 65.7802 62.9864 65.9658 62.8328 66.1153C62.6791 66.2647 62.4955 66.3394 62.2821 66.3394C62.0686 66.3394 61.885 66.2625 61.7314 66.1089L58.6193 62.9968V71.2188C58.6193 71.4322 58.5425 71.6158 58.3888 71.7695C58.2351 71.9232 58.0494 72 57.8317 72C57.614 72 57.4283 71.9232 57.2746 71.7695C57.1209 71.6158 57.0483 71.4322 57.0569 71.2188V62.9968L53.932 66.1089C53.7783 66.2625 53.5948 66.3394 53.3813 66.3394C53.1679 66.3394 52.9843 66.2647 52.8306 66.1153C52.6769 65.9658 52.6001 65.7802 52.6001 65.5582Z" fill="white"/>
</mask>
<g mask="url(#mask0_511_7724)">
<path d="M52.6001 65.5582C52.6001 65.3362 52.6769 65.1483 52.8306 64.9947L57.8381 60L62.8328 64.9947C62.9864 65.1483 63.0633 65.3362 63.0633 65.5582C63.0633 65.7802 62.9864 65.9658 62.8328 66.1153C62.6791 66.2647 62.4955 66.3394 62.2821 66.3394C62.0686 66.3394 61.885 66.2625 61.7314 66.1089L58.6193 62.9968V71.2188C58.6193 71.4322 58.5425 71.6158 58.3888 71.7695C58.2351 71.9232 58.0494 72 57.8317 72C57.614 72 57.4283 71.9232 57.2746 71.7695C57.1209 71.6158 57.0483 71.4322 57.0569 71.2188V62.9968L53.932 66.1089C53.7783 66.2625 53.5948 66.3394 53.3813 66.3394C53.1679 66.3394 52.9843 66.2647 52.8306 66.1153C52.6769 65.9658 52.6001 65.7802 52.6001 65.5582Z" fill="#19AF66"/>
</g>
</g>
<defs>
<clipPath id="clip0_511_7724">
<rect width="12" height="12" fill="white" transform="translate(52 60)"/>
</clipPath>
</defs>
</svg>
