<svg width="70" height="78" viewBox="0 0 70 78" fill="none" xmlns="http://www.w3.org/2000/svg">
<path d="M0.5 75.9999V2C0.5 1.17157 1.17157 0.5 2 0.5H41.1839C41.5427 0.5 41.8896 0.628605 42.1617 0.862483L58.1327 14.5908C58.4642 14.8757 58.6549 15.2911 58.6549 15.7283V75.9999C58.6549 76.8283 57.9834 77.4999 57.1549 77.4999H2C1.17157 77.4999 0.5 76.8283 0.5 75.9999Z" stroke="black" stroke-linejoin="round"/>
<path d="M3.94385 72.0504V5.94922C3.94385 4.84465 4.83928 3.94922 5.94385 3.94922H39.5172C40.0079 3.94922 40.4816 4.12968 40.848 4.45625L54.5423 16.6631C54.968 17.0425 55.2115 17.5857 55.2115 18.156V72.0504C55.2115 73.1549 54.316 74.0504 53.2115 74.0504H5.94385C4.83928 74.0504 3.94385 73.1549 3.94385 72.0504Z" fill="#FB6E00" fill-opacity="0.08"/>
<path d="M69.4999 66.1528C69.4999 72.4208 64.4261 77.5009 58.1689 77.5009C51.9116 77.5009 46.8379 72.4208 46.8379 66.1528C46.8379 59.8847 51.9116 54.8047 58.1689 54.8047C64.4261 54.8047 69.4999 59.8847 69.4999 66.1528Z" fill="white" stroke="black"/>
<g clip-path="url(#clip0_511_7707)">
<mask id="mask0_511_7707" style="mask-type:alpha" maskUnits="userSpaceOnUse" x="53" y="60" width="11" height="13">
<path d="M53.3379 65.7144C53.3379 65.4952 53.4136 65.3097 53.5652 65.158L58.5021 60.2266L63.4264 65.158C63.5779 65.3097 63.6537 65.4952 63.6537 65.7144C63.6537 65.9335 63.5779 66.1169 63.4264 66.2644C63.2749 66.4119 63.0939 66.4857 62.8835 66.4857C62.673 66.4857 62.4921 66.4098 62.3406 66.2581L59.2723 63.1854V71.3033C59.2723 71.5141 59.1966 71.6953 59.045 71.847C58.8935 71.9988 58.7104 72.0746 58.4958 72.0746C58.2811 72.0746 58.0981 71.9988 57.9465 71.847C57.795 71.6953 57.7235 71.5141 57.7319 71.3033V63.1854L54.651 66.2581C54.4995 66.4098 54.3185 66.4857 54.1081 66.4857C53.8977 66.4857 53.7167 66.4119 53.5652 66.2644C53.4136 66.1169 53.3379 65.9335 53.3379 65.7144Z" fill="white"/>
</mask>
<g mask="url(#mask0_511_7707)">
<path d="M53.3379 65.7144C53.3379 65.4952 53.4136 65.3097 53.5652 65.158L58.5021 60.2266L63.4264 65.158C63.5779 65.3097 63.6537 65.4952 63.6537 65.7144C63.6537 65.9335 63.5779 66.1169 63.4264 66.2644C63.2749 66.4119 63.0939 66.4857 62.8835 66.4857C62.673 66.4857 62.4921 66.4098 62.3406 66.2581L59.2723 63.1854V71.3033C59.2723 71.5141 59.1966 71.6953 59.045 71.847C58.8935 71.9988 58.7104 72.0746 58.4958 72.0746C58.2811 72.0746 58.0981 71.9988 57.9465 71.847C57.795 71.6953 57.7235 71.5141 57.7319 71.3033V63.1854L54.651 66.2581C54.4995 66.4098 54.3185 66.4857 54.1081 66.4857C53.8977 66.4857 53.7167 66.4119 53.5652 66.2644C53.4136 66.1169 53.3379 65.9335 53.3379 65.7144Z" fill="#19AF66"/>
</g>
</g>
<defs>
<clipPath id="clip0_511_7707">
<rect width="11.831" height="11.8481" fill="white" transform="translate(52.7466 60.2266)"/>
</clipPath>
</defs>
</svg>
