<svg width="320" height="290" viewBox="0 0 320 290" fill="none" xmlns="http://www.w3.org/2000/svg">
<path opacity="0.04" d="M228.594 104.134C227.327 104.134 226.06 104.187 224.804 104.23C221.875 46.1894 172.705 0 112.471 0C50.3527 0 0 49.1175 0 109.671C0 170.224 50.3527 219.341 112.471 219.341C121.72 219.346 130.936 218.237 139.921 216.041C148.694 257.779 185.056 289.073 228.594 289.073C278.691 289.073 319.312 247.653 319.312 196.566C319.312 145.479 278.691 104.134 228.594 104.134Z" fill="url(#paint0_linear_1839_46844)"/>
<rect x="24.5" y="57.5" width="272" height="169.829" rx="3.5" fill="white" stroke="url(#paint1_linear_1839_46844)"/>
<path d="M24 61C24 58.7909 25.7909 57 28 57H293C295.209 57 297 58.7909 297 61V67.8709H24V61Z" fill="url(#paint2_linear_1839_46844)"/>
<ellipse cx="31.0578" cy="62.6698" rx="1.23778" ry="1.26742" fill="white"/>
<ellipse cx="35.1838" cy="62.6698" rx="1.23778" ry="1.26742" fill="white"/>
<ellipse cx="39.3098" cy="62.6698" rx="1.23778" ry="1.26742" fill="white"/>
<path d="M149.554 175.649L149.532 175.642C148.977 175.455 148.524 175.15 148.263 174.683C148.021 174.249 147.953 173.758 148.025 173.239L148.031 173.195L148.044 173.154L166.874 114.927C167.029 114.379 167.357 113.956 167.869 113.726C168.319 113.524 168.804 113.46 169.308 113.524L169.339 113.528L169.369 113.536L172.523 114.345C173.07 114.485 173.505 114.808 173.812 115.288C174.116 115.767 174.201 116.298 173.942 116.804L155.214 175.077C155.214 175.077 155.214 175.077 155.214 175.078L155.214 175.078L154.738 174.925C154.617 175.303 154.347 175.599 153.927 175.815C153.506 176.031 153.116 176.058 152.755 175.896L149.554 175.649ZM149.554 175.649L149.576 175.655L152.597 176.372L149.554 175.649ZM138.634 167.451L138.651 167.466L138.669 167.48C139.11 167.81 139.604 167.984 140.14 167.984C140.678 167.984 141.159 167.807 141.555 167.452L144.078 165.187C144.513 164.797 144.785 164.321 144.785 163.764C144.785 163.206 144.513 162.73 144.078 162.34L124.758 144.998L144.046 127.606C144.533 127.296 144.785 126.817 144.785 126.234C144.785 125.645 144.531 125.154 144.063 124.796L141.59 122.576C141.237 122.131 140.726 121.932 140.14 121.932C139.542 121.932 139.021 122.136 138.619 122.56L115.207 143.575C114.772 143.965 114.5 144.441 114.5 144.999C114.5 145.557 114.774 146.013 115.222 146.355L138.634 167.451ZM183.421 167.48L183.439 167.466L183.456 167.451L206.865 146.357C207.303 146.031 207.5 145.55 207.5 144.999C207.5 144.436 207.297 143.947 206.883 143.575L183.455 122.545C183.018 122.153 182.512 121.932 181.95 121.932C181.388 121.932 180.882 122.153 180.445 122.545L177.922 124.81L177.905 124.825L177.889 124.842C177.519 125.241 177.305 125.709 177.305 126.234C177.305 126.764 177.524 127.219 177.922 127.576C177.922 127.576 177.922 127.576 177.922 127.576L197.242 144.998L177.922 162.34L177.905 162.355L177.889 162.372C177.519 162.771 177.305 163.239 177.305 163.764C177.305 164.288 177.519 164.756 177.889 165.155L177.905 165.172L177.922 165.187L180.445 167.452L180.461 167.467L180.479 167.48C180.92 167.81 181.414 167.984 181.95 167.984C182.486 167.984 182.981 167.81 183.421 167.48Z" fill="#E6E6E6" stroke="#857F87"/>
<defs>
<linearGradient id="paint0_linear_1839_46844" x1="0" y1="0" x2="370.858" y2="102.413" gradientUnits="userSpaceOnUse">
<stop stop-color="#FFC500"/>
<stop offset="0.411458" stop-color="#DC2223"/>
<stop offset="1" stop-color="#720096"/>
</linearGradient>
<linearGradient id="paint1_linear_1839_46844" x1="24" y1="57" x2="318.278" y2="174.571" gradientUnits="userSpaceOnUse">
<stop stop-color="#FFC500"/>
<stop offset="0.411458" stop-color="#DC2223"/>
<stop offset="1" stop-color="#720096"/>
</linearGradient>
<linearGradient id="paint2_linear_1839_46844" x1="24" y1="57" x2="32.4434" y2="110.01" gradientUnits="userSpaceOnUse">
<stop stop-color="#FFC500"/>
<stop offset="0.411458" stop-color="#DC2223"/>
<stop offset="1" stop-color="#720096"/>
</linearGradient>
</defs>
</svg>
