<svg width="622" height="213" viewBox="0 0 622 213" fill="none" xmlns="http://www.w3.org/2000/svg">
<path opacity="0.24" d="M622 115.005C622 115.005 605.212 49.0113 581.792 49.0113C558.372 49.0113 543.242 165 519.822 165C496.401 165 491.22 87.0076 482.308 87.0076C473.396 87.0076 473.81 131.503 455.986 131.503C438.162 131.503 443.136 15.5146 414.12 17.0144C385.104 18.5143 375.199 131.503 344.224 131.503C313.249 131.503 229.954 70.5 172.5 70.5C115.046 70.5 68.9453 131.503 1 131.503" stroke="url(#paint0_linear_1839_46839)" stroke-width="2"/>
<rect opacity="0.72" x="176" y="8" width="274" height="167" rx="4" fill="white"/>
<rect x="173.5" y="0.5" width="272" height="169.829" rx="3.5" fill="white" stroke="url(#paint1_linear_1839_46839)"/>
<path d="M173 4C173 1.79086 174.791 0 177 0H442C444.209 0 446 1.79086 446 4V10.8709H173V4Z" fill="url(#paint2_linear_1839_46839)"/>
<ellipse cx="180.058" cy="5.66976" rx="1.23778" ry="1.26742" fill="white"/>
<ellipse cx="184.184" cy="5.66976" rx="1.23778" ry="1.26742" fill="white"/>
<ellipse cx="188.31" cy="5.66976" rx="1.23778" ry="1.26742" fill="white"/>
<path d="M173.5 11.3708H208.142V170.329H177C175.067 170.329 173.5 168.762 173.5 166.829V11.3708Z" fill="#FB6E00" fill-opacity="0.16" stroke="#FB6E00"/>
<g filter="url(#filter0_d_1839_46839)">
<ellipse cx="191.2" cy="54.8487" rx="12.1333" ry="12.4239" fill="white"/>
</g>
<path d="M186.9 54.2149C187.072 54.0389 187.282 53.951 187.531 53.951H190.323L190.33 51.0845C190.325 50.8353 190.409 50.6227 190.581 50.4467C190.752 50.2708 190.96 50.1853 191.203 50.1901C191.447 50.195 191.652 50.283 191.819 50.4541C191.986 50.6251 192.072 50.8353 192.077 51.0845V53.9583L194.876 53.951C195.115 53.951 195.32 54.0389 195.492 54.2149C195.664 54.3908 195.75 54.601 195.75 54.8453C195.75 55.0897 195.664 55.2999 195.492 55.4758C195.32 55.6518 195.115 55.7397 194.876 55.7397L192.077 55.7471V58.6062C192.072 58.8554 191.984 59.068 191.812 59.244C191.64 59.4199 191.435 59.5079 191.196 59.5079C190.958 59.5079 190.752 59.4199 190.581 59.244C190.409 59.068 190.323 58.8579 190.323 58.6135V55.7544L187.523 55.7471C187.285 55.7471 187.079 55.6591 186.908 55.4831C186.736 55.3072 186.65 55.0946 186.65 54.8453C186.65 54.5961 186.733 54.3859 186.9 54.2149Z" fill="white"/>
<path d="M186.9 54.2149C187.072 54.0389 187.282 53.951 187.531 53.951H190.323L190.33 51.0845C190.325 50.8353 190.409 50.6227 190.581 50.4467C190.752 50.2708 190.96 50.1853 191.203 50.1901C191.447 50.195 191.652 50.283 191.819 50.4541C191.986 50.6251 192.072 50.8353 192.077 51.0845V53.9583L194.876 53.951C195.115 53.951 195.32 54.0389 195.492 54.2149C195.664 54.3908 195.75 54.601 195.75 54.8453C195.75 55.0897 195.664 55.2999 195.492 55.4758C195.32 55.6518 195.115 55.7397 194.876 55.7397L192.077 55.7471V58.6062C192.072 58.8554 191.984 59.068 191.812 59.244C191.64 59.4199 191.435 59.5079 191.196 59.5079C190.958 59.5079 190.752 59.4199 190.581 59.244C190.409 59.068 190.323 58.8579 190.323 58.6135V55.7544L187.523 55.7471C187.285 55.7471 187.079 55.6591 186.908 55.4831C186.736 55.3072 186.65 55.0946 186.65 54.8453C186.65 54.5961 186.733 54.3859 186.9 54.2149Z" fill="black"/>
<path opacity="0.24" d="M1 162.005C1 162.005 41.5981 96.0113 98.2349 96.0113C154.872 96.0113 191.46 212 248.097 212C304.734 212 317.264 134.008 338.816 134.008C360.368 134.008 359.366 178.503 402.47 178.503C445.574 178.503 433.545 62.5146 503.714 64.0144C573.884 65.5143 571.879 178.503 622 178.503" stroke="url(#paint3_linear_1839_46839)" stroke-width="2"/>
<defs>
<filter id="filter0_d_1839_46839" x="169.067" y="34.4248" width="44.2666" height="44.8479" filterUnits="userSpaceOnUse" color-interpolation-filters="sRGB">
<feFlood flood-opacity="0" result="BackgroundImageFix"/>
<feColorMatrix in="SourceAlpha" type="matrix" values="0 0 0 0 0 0 0 0 0 0 0 0 0 0 0 0 0 0 127 0" result="hardAlpha"/>
<feOffset dy="2"/>
<feGaussianBlur stdDeviation="5"/>
<feComposite in2="hardAlpha" operator="out"/>
<feColorMatrix type="matrix" values="0 0 0 0 0 0 0 0 0 0 0 0 0 0 0 0 0 0 0.1 0"/>
<feBlend mode="normal" in2="BackgroundImageFix" result="effect1_dropShadow_1839_46839"/>
<feBlend mode="normal" in="SourceGraphic" in2="effect1_dropShadow_1839_46839" result="shape"/>
</filter>
<linearGradient id="paint0_linear_1839_46839" x1="622" y1="17" x2="252.423" y2="404.682" gradientUnits="userSpaceOnUse">
<stop stop-color="#FFC500"/>
<stop offset="0.411458" stop-color="#DC2223"/>
<stop offset="1" stop-color="#720096"/>
</linearGradient>
<linearGradient id="paint1_linear_1839_46839" x1="173" y1="0" x2="467.278" y2="117.571" gradientUnits="userSpaceOnUse">
<stop stop-color="#FFC500"/>
<stop offset="0.411458" stop-color="#DC2223"/>
<stop offset="1" stop-color="#720096"/>
</linearGradient>
<linearGradient id="paint2_linear_1839_46839" x1="173" y1="0" x2="181.443" y2="53.0098" gradientUnits="userSpaceOnUse">
<stop stop-color="#FFC500"/>
<stop offset="0.411458" stop-color="#DC2223"/>
<stop offset="1" stop-color="#720096"/>
</linearGradient>
<linearGradient id="paint3_linear_1839_46839" x1="1" y1="64" x2="370.577" y2="451.682" gradientUnits="userSpaceOnUse">
<stop stop-color="#FFC500"/>
<stop offset="0.411458" stop-color="#DC2223"/>
<stop offset="1" stop-color="#720096"/>
</linearGradient>
</defs>
</svg>
