<svg width="24" height="24" viewBox="0 0 24 24" fill="none" xmlns="http://www.w3.org/2000/svg">
<g id="library 1">
<path id="Vector" d="M6.84772 4.28571V19.7143C6.84772 20.0553 6.71259 20.3823 6.47206 20.6234C6.23153 20.8645 5.90531 21 5.56515 21H4.28257C3.94241 21 3.61619 20.8645 3.37566 20.6234C3.13513 20.3823 3 20.0553 3 19.7143V4.28571C3 3.94472 3.13513 3.6177 3.37566 3.37658C3.61619 3.13546 3.94241 3 4.28257 3H5.56515C5.90531 3 6.23153 3.13546 6.47206 3.37658C6.71259 3.6177 6.84772 3.94472 6.84772 4.28571ZM20.956 18.9493L16.9736 4.04786C16.885 3.71891 16.6698 3.43868 16.3752 3.26872C16.0806 3.09876 15.7307 3.05298 15.4025 3.14143L14.1648 3.47571C13.8367 3.56455 13.5571 3.78033 13.3876 4.07564C13.218 4.37096 13.1724 4.72166 13.2606 5.05071L17.243 19.9521C17.3163 20.225 17.4772 20.4661 17.701 20.6381C17.9247 20.8101 18.1987 20.9034 18.4807 20.9036C18.5934 20.904 18.7056 20.8889 18.8141 20.8586L20.0518 20.5243C20.38 20.4354 20.6595 20.2197 20.8291 19.9244C20.9986 19.629 21.0443 19.2783 20.956 18.9493ZM10.6954 3H9.41287C9.07271 3 8.74648 3.13546 8.50595 3.37658C8.26542 3.6177 8.13029 3.94472 8.13029 4.28571V19.7143C8.13029 20.0553 8.26542 20.3823 8.50595 20.6234C8.74648 20.8645 9.07271 21 9.41287 21H10.6954C11.0356 21 11.3618 20.8645 11.6024 20.6234C11.8429 20.3823 11.978 20.0553 11.978 19.7143V4.28571C11.978 3.94472 11.8429 3.6177 11.6024 3.37658C11.3618 3.13546 11.0356 3 10.6954 3Z" fill="#231F20"/>
</g>
</svg>
