<svg width="24" height="24" viewBox="0 0 24 24" fill="none" xmlns="http://www.w3.org/2000/svg">
<mask id="mask0_2862_61962" style="mask-type:alpha" maskUnits="userSpaceOnUse" x="3" y="4" width="18" height="16">
<path d="M8.148 16.4275V18.4885C8.148 18.7684 8.052 19.0038 7.86 19.1946C7.668 19.3855 7.44 19.4873 7.176 19.5H3.972C3.696 19.5 3.468 19.3982 3.288 19.1946C3.108 18.9911 3.012 18.7557 3 18.4885V16.4275C3 16.1476 3.096 15.9058 3.288 15.7023C3.48 15.4987 3.708 15.4033 3.972 15.416H7.176C7.452 15.416 7.68 15.5114 7.86 15.7023C8.04 15.8931 8.136 16.1348 8.148 16.4275ZM8.148 10.9885V13.0305C8.148 13.3104 8.052 13.5522 7.86 13.7557C7.668 13.9593 7.44 14.0547 7.176 14.042H3.972C3.696 14.042 3.468 13.9466 3.288 13.7557C3.108 13.5649 3.012 13.3232 3 13.0305V10.9885C3 10.6959 3.096 10.4542 3.288 10.2634C3.48 10.0725 3.708 9.97073 3.972 9.95801H7.176C7.452 9.95801 7.68 10.0598 7.86 10.2634C8.04 10.4669 8.136 10.7086 8.148 10.9885ZM21 16.4275V18.4885C21 18.7684 20.904 19.0038 20.712 19.1946C20.52 19.3855 20.292 19.4873 20.028 19.5H10.398C10.122 19.5 9.894 19.3982 9.714 19.1946C9.534 18.9911 9.438 18.7557 9.426 18.4885V16.4275C9.426 16.1476 9.522 15.9058 9.714 15.7023C9.906 15.4987 10.134 15.4033 10.398 15.416H20.028C20.304 15.416 20.532 15.5114 20.712 15.7023C20.892 15.8931 20.988 16.1348 21 16.4275ZM8.148 5.53053V7.57252C8.148 7.85242 8.052 8.09414 7.86 8.29771C7.668 8.50127 7.44 8.60305 7.176 8.60305H3.972C3.696 8.60305 3.468 8.50127 3.288 8.29771C3.108 8.09414 3.012 7.85242 3 7.57252V5.53053C3 5.25063 3.096 5.00891 3.288 4.80534C3.48 4.60178 3.708 4.5 3.972 4.5H7.176C7.452 4.5 7.68 4.60178 7.86 4.80534C8.04 5.00891 8.136 5.25063 8.148 5.53053ZM21 10.9885V13.0305C21 13.3104 20.904 13.5522 20.712 13.7557C20.52 13.9593 20.292 14.0547 20.028 14.042H10.398C10.122 14.042 9.894 13.9466 9.714 13.7557C9.534 13.5649 9.438 13.3232 9.426 13.0305V10.9885C9.426 10.6959 9.522 10.4542 9.714 10.2634C9.906 10.0725 10.134 9.97073 10.398 9.95801H20.028C20.304 9.95801 20.532 10.0598 20.712 10.2634C20.892 10.4669 20.988 10.7086 21 10.9885ZM21 5.53053V7.57252C21 7.85242 20.904 8.09414 20.712 8.29771C20.52 8.50127 20.292 8.60305 20.028 8.60305H10.398C10.122 8.60305 9.894 8.50127 9.714 8.29771C9.534 8.09414 9.438 7.85242 9.426 7.57252V5.53053C9.426 5.25063 9.522 5.00891 9.714 4.80534C9.906 4.60178 10.134 4.5 10.398 4.5H20.028C20.304 4.5 20.532 4.60178 20.712 4.80534C20.892 5.00891 20.988 5.25063 21 5.53053Z" fill="white"/>
</mask>
<g mask="url(#mask0_2862_61962)">
<path d="M8.148 16.4275V18.4885C8.148 18.7684 8.052 19.0038 7.86 19.1947C7.668 19.3855 7.44 19.4873 7.176 19.5H3.972C3.696 19.5 3.468 19.3982 3.288 19.1947C3.108 18.9911 3.012 18.7557 3 18.4885V16.4275C3 16.1476 3.096 15.9059 3.288 15.7023C3.48 15.4987 3.708 15.4033 3.972 15.416H7.176C7.452 15.416 7.68 15.5114 7.86 15.7023C8.04 15.8931 8.136 16.1349 8.148 16.4275ZM8.148 10.9885V13.0305C8.148 13.3104 8.052 13.5522 7.86 13.7557C7.668 13.9593 7.44 14.0547 7.176 14.042H3.972C3.696 14.042 3.468 13.9466 3.288 13.7557C3.108 13.5649 3.012 13.3232 3 13.0305V10.9885C3 10.6959 3.096 10.4542 3.288 10.2634C3.48 10.0725 3.708 9.97074 3.972 9.95802H7.176C7.452 9.95802 7.68 10.0598 7.86 10.2634C8.04 10.4669 8.136 10.7086 8.148 10.9885ZM21 16.4275V18.4885C21 18.7684 20.904 19.0038 20.712 19.1947C20.52 19.3855 20.292 19.4873 20.028 19.5H10.398C10.122 19.5 9.894 19.3982 9.714 19.1947C9.534 18.9911 9.438 18.7557 9.426 18.4885V16.4275C9.426 16.1476 9.522 15.9059 9.714 15.7023C9.906 15.4987 10.134 15.4033 10.398 15.416H20.028C20.304 15.416 20.532 15.5114 20.712 15.7023C20.892 15.8931 20.988 16.1349 21 16.4275ZM8.148 5.53053V7.57252C8.148 7.85242 8.052 8.09415 7.86 8.29771C7.668 8.50127 7.44 8.60305 7.176 8.60305H3.972C3.696 8.60305 3.468 8.50127 3.288 8.29771C3.108 8.09415 3.012 7.85242 3 7.57252V5.53053C3 5.25063 3.096 5.00891 3.288 4.80534C3.48 4.60178 3.708 4.5 3.972 4.5H7.176C7.452 4.5 7.68 4.60178 7.86 4.80534C8.04 5.00891 8.136 5.25063 8.148 5.53053ZM21 10.9885V13.0305C21 13.3104 20.904 13.5522 20.712 13.7557C20.52 13.9593 20.292 14.0547 20.028 14.042H10.398C10.122 14.042 9.894 13.9466 9.714 13.7557C9.534 13.5649 9.438 13.3232 9.426 13.0305V10.9885C9.426 10.6959 9.522 10.4542 9.714 10.2634C9.906 10.0725 10.134 9.97074 10.398 9.95802H20.028C20.304 9.95802 20.532 10.0598 20.712 10.2634C20.892 10.4669 20.988 10.7086 21 10.9885ZM21 5.53053V7.57252C21 7.85242 20.904 8.09415 20.712 8.29771C20.52 8.50127 20.292 8.60305 20.028 8.60305H10.398C10.122 8.60305 9.894 8.50127 9.714 8.29771C9.534 8.09415 9.438 7.85242 9.426 7.57252V5.53053C9.426 5.25063 9.522 5.00891 9.714 4.80534C9.906 4.60178 10.134 4.5 10.398 4.5H20.028C20.304 4.5 20.532 4.60178 20.712 4.80534C20.892 5.00891 20.988 5.25063 21 5.53053Z" fill="#231F20"/>
</g>
</svg>
