<?xml version="1.0" encoding="UTF-8"?>
<svg width="123px" height="42px" viewBox="0 0 123 42" version="1.1" xmlns="http://www.w3.org/2000/svg" xmlns:xlink="http://www.w3.org/1999/xlink">
    <title>38A381BF-80AC-4C84-A3EC-08220F09EEBB</title>
    <defs>
        <linearGradient x1="41.2205265%" y1="68.5067485%" x2="55.0748899%" y2="35.958845%" id="linearGradient-1">
            <stop stop-color="#FF0097" offset="0%"></stop>
            <stop stop-color="#FFC516" offset="100%"></stop>
        </linearGradient>
        <linearGradient x1="62.0041213%" y1="72.8412604%" x2="39.395513%" y2="26.4466258%" id="linearGradient-2">
            <stop stop-color="#FF7300" offset="0%"></stop>
            <stop stop-color="#FFC516" offset="100%"></stop>
        </linearGradient>
        <linearGradient x1="53.5190513%" y1="39.4287013%" x2="29.5889694%" y2="77.4747572%" id="linearGradient-3">
            <stop stop-color="#6E0097" offset="0%"></stop>
            <stop stop-color="#FF7300" offset="100%"></stop>
        </linearGradient>
        <linearGradient x1="42.4632283%" y1="16.2401632%" x2="74.3431501%" y2="101.053239%" id="linearGradient-4">
            <stop stop-color="#6E0097" offset="2.21%"></stop>
            <stop stop-color="#FF0009" offset="100%"></stop>
        </linearGradient>
    </defs>
    <g id="Playground-Hybrid" stroke="none" stroke-width="1" fill="none" fill-rule="evenodd">
        <g id="PlaygroundLandingPage_Footer" transform="translate(-129.000000, -4217.000000)" fill-rule="nonzero">
            <g id="Footer-Copy-3" transform="translate(0.000000, 4175.000000)">
                <g id="Memgraph-logo-gradient-rgb" transform="translate(129.000000, 42.000000)">
                    <polygon id="Path" fill="#FFFFFF" points="63.4904628 26.8293223 66.5415372 8.85575207 71.1441818 8.85575207 74.792281 18.4640331 78.6552397 8.85575207 83.305438 8.85575207 86.0232893 26.8293223 81.3501818 26.8293223 80.0384628 16.4844793 79.9919504 16.4844793 75.6760165 26.8293223 73.8151736 26.8293223 69.6911901 16.4844793 69.6419008 16.4844793 68.1396198 26.8293223"></polygon>
                    <polygon id="Path" fill="#FFFFFF" points="98.2619504 12.8127769 92.7078843 12.8127769 92.7078843 15.8169917 97.9748926 15.8169917 97.9748926 19.7733223 92.7078843 19.7733223 92.7078843 22.8726446 98.2619504 22.8726446 98.2619504 26.8293223 88.0344298 26.8293223 88.0344298 8.85575207 98.2619504 8.85575207"></polygon>
                    <polygon id="Path" fill="#FFFFFF" points="115.131719 8.85575207 111.269802 18.4626446 107.621355 8.85575207 103.017322 8.85575207 99.9683306 26.8293223 104.617835 26.8293223 106.12081 16.4844793 106.166628 16.4844793 110.294083 26.8293223 112.152843 26.8293223 116.467041 16.4844793 116.515636 16.4844793 117.829091 26.8293223 122.500463 26.8293223 119.782959 8.85575207"></polygon>
                    <path d="M69.8713388,35.0363306 L75.1563967,35.0363306 C75.1789587,36.0009421 75.1005124,36.8301818 74.9186281,37.5257851 C74.7412562,38.2220826 74.382,38.8843636 73.8443306,39.5115868 C73.2716033,40.1860165 72.566281,40.7080661 71.7304463,41.0773884 C70.8946116,41.4467107 70.0330909,41.6306777 69.1469256,41.6306777 C67.3627934,41.6306777 65.8285785,40.9930413 64.5435868,39.7073554 C63.258595,38.4230579 62.6157521,36.8867603 62.6157521,35.1043636 C62.6157521,33.2879504 63.2620661,31.7332562 64.5536529,30.4420165 C65.843157,29.1535537 67.4020165,28.508281 69.2316198,28.508281 C71.4090248,28.508281 73.1980165,29.4218678 74.601719,31.251124 L73.5739339,32.2091405 C72.4392397,30.618 70.986595,29.8193058 69.2149587,29.8193058 C67.7779339,29.8193058 66.5561157,30.3420496 65.5460331,31.3840661 C64.5356033,32.4274711 64.0319504,33.6746281 64.0319504,35.1196364 C64.0319504,36.501124 64.524843,37.6941322 65.5127107,38.7049091 C65.9941488,39.1870413 66.5564628,39.5775372 67.193405,39.8736198 C67.8352066,40.1717851 68.4759669,40.3206942 69.1142975,40.3206942 C70.2684298,40.3206942 71.3135702,39.9426942 72.2441653,39.1849587 C73.1778843,38.4296529 73.6419669,37.4820496 73.6419669,36.3508264 L69.871686,36.3508264 L69.871686,35.0363306 L69.8713388,35.0363306 Z" id="Path" fill="#FFFFFF"></path>
                    <path d="M80.2047273,35.8430083 L80.2047273,41.4144298 L78.792,41.4144298 L78.792,28.7252231 L80.6264628,28.7252231 C81.2769421,28.7252231 81.8597355,28.7738182 82.3751901,28.8751736 C82.8923802,28.976876 83.3804132,29.1521653 83.8413719,29.3989587 C84.2985124,29.645405 84.6532562,30.0088264 84.9010909,30.4836694 C85.1475372,30.9602479 85.2718017,31.5406116 85.2718017,32.2264959 C85.2718017,33.2011736 84.9847438,34.010281 84.4116694,34.6489587 C83.8410248,35.286595 83.0669752,35.6468926 82.0902149,35.725686 L86.1301983,41.4147769 L84.397438,41.4147769 L80.5570413,35.8433554 L80.2047273,35.8433554 L80.2047273,35.8430083 Z M80.2047273,30.0390248 L80.2047273,34.5996694 L80.6438182,34.5996694 C81.0915868,34.5996694 81.4872893,34.572595 81.8295372,34.5153223 C82.171438,34.4587438 82.5098678,34.3546116 82.8389256,34.2029256 C83.1718017,34.0543636 83.4227603,33.8193719 83.5977025,33.5059339 C83.7716033,33.1918017 83.8573388,32.7985289 83.8573388,32.327157 C83.8573388,31.9234711 83.7955537,31.5791405 83.6719835,31.2948595 C83.5491074,31.0084959 83.3974215,30.7835702 83.2190083,30.621124 C83.0395537,30.4583306 82.7969256,30.3326777 82.4959835,30.2417355 C82.1912231,30.152876 81.9013884,30.097686 81.6282149,30.0730413 C81.3526116,30.052562 81.018,30.0393719 80.627157,30.0393719 L80.2047273,30.0393719 L80.2047273,30.0390248 Z" id="Shape" fill="#FFFFFF"></path>
                    <path d="M97.2480496,37.812843 L91.8272727,37.812843 L90.2979174,41.4144298 L88.7477355,41.4144298 L94.6058678,28.1191736 L100.312314,41.4144298 L98.7458182,41.4144298 L97.2480496,37.812843 Z M96.6940661,36.5007769 L94.5725455,31.4184298 L92.3989587,36.5007769 L96.6940661,36.5007769 Z" id="Shape" fill="#FFFFFF"></path>
                    <path d="M104.730992,35.8610579 L104.730992,41.4154711 L103.318612,41.4154711 L103.318612,28.7255702 L105.404727,28.7255702 C106.101025,28.7255702 106.694231,28.7630579 107.188512,28.844281 C107.682793,28.9206446 108.137157,29.1066942 108.551603,29.3996529 C109.012909,29.7245455 109.367306,30.1417686 109.614099,30.653405 C109.862975,31.1629587 109.98481,31.7106942 109.98481,32.2945289 C109.98481,33.4379008 109.580777,34.3469752 108.775488,35.0189752 C108.087174,35.5812893 107.08195,35.861405 105.759471,35.861405 L104.730992,35.861405 L104.730992,35.8610579 Z M104.730992,30.0390248 L104.730992,34.5476033 L105.673736,34.5476033 C107.603653,34.5476033 108.569306,33.7853554 108.569306,32.2608595 C108.569306,31.855438 108.505438,31.5138843 108.374579,31.2334215 C108.247884,30.9519174 108.083702,30.737405 107.886893,30.5850248 C107.692512,30.4343802 107.436,30.3170579 107.122215,30.2306281 C106.807041,30.1483636 106.514777,30.0966446 106.247157,30.072 C105.977802,30.0515207 105.647355,30.0390248 105.252347,30.0390248 L104.730992,30.0390248 L104.730992,30.0390248 Z" id="Shape" fill="#FFFFFF"></path>
                    <polygon id="Path" fill="#FFFFFF" points="114.655488 33.8762975 121.152298 33.8762975 121.152298 28.7259174 122.567802 28.7259174 122.567802 41.4140826 121.152298 41.4140826 121.152298 35.1880165 114.655488 35.1880165 114.655488 41.4140826 113.241372 41.4140826 113.241372 28.7259174 114.655488 28.7259174"></polygon>
                    <g id="Group">
                        <path d="M14.677438,14.990876 C14.7246446,14.9145124 14.7725455,14.838843 14.8128099,14.7590083 C14.8374545,14.716314 14.864876,14.6753554 14.8867438,14.6305785 C14.9120826,14.586843 14.9388099,14.5455372 14.9624132,14.5018017 C14.9870579,14.4598017 15.0144793,14.4167603 15.0363471,14.3747603 C15.061686,14.3324132 15.0891074,14.289719 15.1120165,14.2473719 C15.1373554,14.2032893 15.1633884,14.1616364 15.1866446,14.1175537 C15.2126777,14.076595 15.2380165,14.0339008 15.2616198,13.9901653 C15.2876529,13.9481653 15.3129917,13.9061653 15.3372893,13.863124 C15.3629752,13.8218182 15.3879669,13.7780826 15.4126116,13.7360826 C15.4379504,13.6940826 15.4632893,13.6510413 15.4868926,13.6090413 C15.5129256,13.5666942 15.5379174,13.5253884 15.5615207,13.4809587 C15.5882479,13.4396529 15.6128926,13.3969587 15.6371901,13.3546116 C15.6639174,13.3133058 15.6871736,13.2706116 15.7118182,13.2282645 C15.7392397,13.1862645 15.7621488,13.1446116 15.7874876,13.1026116 C15.8149091,13.0599174 15.8374711,13.0186116 15.8621157,12.9762645 C15.888843,12.9349587 15.9124463,12.8912231 15.9377851,12.8485289 C15.9645124,12.8072231 15.9874215,12.7631405 16.0124132,12.722876 C16.0398347,12.6815702 16.0620496,12.6374876 16.0873884,12.5965289 C16.1141157,12.5566116 16.1370248,12.5132231 16.1620165,12.4712231 C16.1904793,12.4299174 16.2126942,12.3854876 16.2390744,12.3427934 C16.2918347,12.2633058 16.3366116,12.1820826 16.3841653,12.1008595 C16.4355372,12.0175537 16.4879504,11.9363306 16.5330744,11.8526777 C16.5604959,11.8068595 16.5910413,11.7606942 16.6163802,11.7141818 C16.641719,11.6721818 16.6701818,11.6291405 16.6937851,11.5850579 C16.719124,11.5423636 16.7479339,11.5007107 16.7715372,11.4573223 C16.796876,11.4139339 16.8249917,11.372281 16.8496364,11.3281983 C16.8749752,11.2861983 16.9037851,11.2424628 16.9270413,11.2004628 C16.9530744,11.1570744 16.9811901,11.1150744 17.0051405,11.0713388 C17.0311736,11.0286446 17.0592893,10.9866446 17.0832397,10.9436033 C17.1092727,10.9016033 17.136,10.8582149 17.1606446,10.816562 C17.1873719,10.7728264 17.2140992,10.7301322 17.2387438,10.6867438 C17.2647769,10.6440496 17.2915041,10.6017025 17.316843,10.558314 C17.342876,10.516314 17.3696033,10.4739669 17.3939008,10.4305785 C17.4206281,10.3892727 17.4466612,10.3462314 17.472,10.302843 C17.4987273,10.260843 17.5247603,10.218843 17.549405,10.1758017 C17.5761322,10.1338017 17.6021653,10.0918017 17.6275041,10.0487603 C17.6507603,10.0126612 17.6729752,9.97621488 17.6951901,9.93872727 C17.7274711,9.88839669 17.7580165,9.83667769 17.7892562,9.78565289 C17.8166777,9.74191736 17.843405,9.6974876 17.869438,9.65340496 C17.8972066,9.61140496 17.9228926,9.56697521 17.9492727,9.52323967 C17.9766942,9.47985124 18.0027273,9.43646281 18.0294545,9.39238017 C18.056876,9.34968595 18.082562,9.30560331 18.1089421,9.26152066 C18.1370579,9.21882645 18.1630909,9.17439669 18.1894711,9.13239669 C18.2227934,9.08033058 18.2526446,9.02826446 18.2838843,8.97758678 C18.3279669,8.9088595 18.370314,8.84013223 18.4098843,8.77105785 C18.4373058,8.72732231 18.4650744,8.68323967 18.4911074,8.6381157 C19.8135868,6.50757025 19.5473554,3.6727438 17.691719,1.82856198 C15.533405,-0.317256198 12.0428926,-0.30753719 9.89603306,1.85008264 C8.84568595,2.90702479 8.31322314,4.28157025 8.29517355,5.66166942 C8.29413223,5.68527273 8.29482645,5.70957025 8.29413223,5.73247934 C8.29413223,5.7397686 8.29343802,5.74636364 8.29343802,5.75261157 C8.2927438,5.77795041 8.2927438,5.80224793 8.29239669,5.82897521 C8.28996694,5.88347107 8.28927273,5.93935537 8.2882314,5.99523967 C8.28649587,6.05112397 8.28580165,6.10700826 8.28510744,6.16150413 C8.2833719,6.21738843 8.28267769,6.27257851 8.28198347,6.32846281 C8.27990083,6.38295868 8.27955372,6.43884298 8.2788595,6.49472727 C8.27712397,6.54922314 8.27538843,6.60580165 8.27538843,6.65995041 C8.27295868,6.71583471 8.27226446,6.77102479 8.27157025,6.82621488 C8.2691405,6.88140496 8.26775207,6.93728926 8.26775207,6.99213223 C8.26532231,7.06328926 8.26393388,7.13583471 8.26393388,7.20838017 C8.26115702,7.25871074 8.26323967,7.30869421 8.26254545,7.35902479 C8.25838017,7.41733884 8.25907438,7.47530579 8.25768595,7.53500826 C8.25456198,7.59089256 8.2552562,7.65059504 8.25386777,7.70786777 C8.2507438,7.76583471 8.2507438,7.82414876 8.24866116,7.88142149 C8.24519008,7.94042975 8.24519008,7.99735537 8.24449587,8.05601653 C8.2413719,8.11328926 8.24067769,8.17229752 8.23998347,8.22957025 C8.2368595,8.2878843 8.23616529,8.34585124 8.23547107,8.40312397 C8.23269421,8.46143802 8.23130579,8.51871074 8.23061157,8.57667769 C8.22818182,8.63464463 8.22679339,8.69226446 8.22609917,8.7502314 C8.22366942,8.80854545 8.22228099,8.86477686 8.22158678,8.92309091 C8.21880992,8.98140496 8.21672727,9.03867769 8.21672727,9.09595041 C8.21499174,9.15391736 8.21221488,9.21153719 8.21221488,9.26880992 C8.21047934,9.32712397 8.20700826,9.38439669 8.20700826,9.44166942 C8.20492562,9.49963636 8.20214876,9.55586777 8.20214876,9.61383471 C8.20041322,9.67110744 8.19694215,9.72838017 8.19694215,9.786 C8.19590083,9.84327273 8.19138843,9.90054545 8.19208264,9.95747107 C8.19034711,10.0157851 8.18618182,10.0723636 8.18687603,10.1289421 C8.1854876,10.167124 8.18236364,10.2053058 8.18236364,10.2427934 C8.18166942,10.2535537 8.18236364,10.2604959 8.18166942,10.2688264 C8.18166942,10.2778512 8.18097521,10.2840992 8.18097521,10.2924298 C8.17819835,10.3323471 8.17889256,10.3712231 8.17750413,10.4111405 C8.17299174,10.4684132 8.17368595,10.5267273 8.17160331,10.5864298 C8.16778512,10.6437025 8.16778512,10.7020165 8.16570248,10.7603306 C8.16153719,10.8176033 8.16153719,10.8759174 8.15980165,10.9349256 C8.15598347,10.9928926 8.15528926,11.0498182 8.15390083,11.1088264 C8.14973554,11.1667934 8.14904132,11.223719 8.14661157,11.2823802 C8.1434876,11.3406942 8.14140496,11.3986612 8.14071074,11.4569752 C8.13723967,11.5135537 8.13515702,11.5711736 8.1341157,11.6305289 C8.13099174,11.6878017 8.12821488,11.7447273 8.12682645,11.8040826 C8.12335537,11.8613554 8.12092562,11.9186281 8.1202314,11.9762479 C8.11710744,12.0328264 8.11398347,12.0904463 8.11398347,12.147719 C8.1105124,12.2060331 8.106,12.2646942 8.106,12.3212727 C8.10357025,12.3778512 8.09871074,12.4344298 8.09871074,12.493438 C8.09593388,12.5493223 8.09107438,12.6052066 8.09107438,12.6638678 C8.08586777,12.7197521 8.08586777,12.7780661 8.08378512,12.8353388 C8.07857851,12.8933058 8.0778843,12.9519669 8.07614876,13.0092397 C8.07094215,13.0689421 8.06920661,13.1248264 8.06747107,13.184876 C8.06295868,13.2414545 8.06087603,13.3004628 8.0591405,13.3577355 C8.05497521,13.414314 8.05254545,13.4740165 8.05080992,13.5312893 C8.04629752,13.5882149 8.04352066,13.6475702 8.04213223,13.7044959 C8.03761983,13.7617686 8.03449587,13.8193884 8.03380165,13.8766612 C8.02894215,13.9339339 8.02547107,13.9908595 8.02408264,14.0481322 C8.02026446,14.1060992 8.01575207,14.1630248 8.01505785,14.2196033 C8.01123967,14.2761818 8.00568595,14.3331074 8.00499174,14.3910744 C8.00429752,14.4025289 8.00360331,14.415719 8.0032562,14.4302975 C7.99839669,14.4722975 7.99770248,14.5142975 7.99596694,14.554562 C7.99596694,14.5559504 7.99527273,14.5587273 7.99527273,14.561157 C7.99457851,14.5750413 7.9938843,14.5892727 7.99353719,14.6038512 C7.98728926,14.6614711 7.98624793,14.7187438 7.98312397,14.7784463 C7.97722314,14.8343306 7.9751405,14.8916033 7.97271074,14.9499174 C7.96750413,15.0064959 7.96368595,15.0641157 7.96160331,15.1213884 C7.95639669,15.1797025 7.95361983,15.2355868 7.95153719,15.2928595 C7.94598347,15.3511736 7.94112397,15.4063636 7.93904132,15.4650248 C7.93418182,15.5216033 7.92932231,15.5767934 7.92793388,15.6351074 C7.92342149,15.6902975 7.91682645,15.7475702 7.91543802,15.8034545 C7.91300826,15.827405 7.91161983,15.8517025 7.9102314,15.8756529 C7.90294215,15.9322314 7.9008595,15.9901983 7.89704132,16.047124 C7.89009917,16.1043967 7.88766942,16.1627107 7.88523967,16.2199835 C7.87795041,16.2751736 7.87413223,16.3327934 7.87170248,16.3886777 C7.86545455,16.4459504 7.86128926,16.5025289 7.8585124,16.5591074 C7.85122314,16.6149917 7.84601653,16.6719174 7.8446281,16.7278017 C7.83872727,16.783686 7.83178512,16.8381818 7.82935537,16.8954545 C7.8258843,16.9277355 7.82310744,16.9589752 7.82067769,16.9898678 C7.81304132,17.0464463 7.80957025,17.1033719 7.80679339,17.1606446 C7.79985124,17.2165289 7.79499174,17.2724132 7.79152066,17.3282975 C7.7842314,17.3859174 7.77971901,17.4411074 7.77659504,17.4959504 C7.76930579,17.5521818 7.76340496,17.6073719 7.76028099,17.6632562 C7.75299174,17.7184463 7.74639669,17.772595 7.74327273,17.8281322 C7.73806612,17.8652727 7.73390083,17.9041488 7.73008264,17.9416364 C7.72244628,17.9975207 7.71793388,18.0520165 7.71342149,18.1079008 C7.70509091,18.1637851 7.7002314,18.2168926 7.6953719,18.273124 C7.68738843,18.3276198 7.6814876,18.3824628 7.67628099,18.4383471 C7.66864463,18.4918017 7.66135537,18.5466446 7.65684298,18.6011405 C7.6488595,18.654595 7.64087603,18.709438 7.63532231,18.7625455 C7.62942149,18.8045455 7.6252562,18.8465455 7.62143802,18.8868099 C7.61900826,18.9003471 7.61553719,18.9104132 7.61380165,18.9249917 C7.60755372,18.9656033 7.60547107,19.0072562 7.60130579,19.0492562 C7.59679339,19.0752893 7.59019835,19.0995868 7.58638017,19.126314 C7.5832562,19.1540826 7.58256198,19.1815041 7.57978512,19.2089256 C7.57249587,19.248843 7.5648595,19.2887603 7.55965289,19.3290248 C7.55757025,19.3429091 7.55826446,19.355405 7.55722314,19.3696364 C7.54854545,19.4126777 7.54056198,19.4598843 7.53604959,19.5067438 C7.52563636,19.5581157 7.51973554,19.6122645 7.51383471,19.665719 C7.5041157,19.7170909 7.49682645,19.7684628 7.49057851,19.8233058 C7.48016529,19.8729421 7.4714876,19.9246612 7.46523967,19.9767273 C7.45552066,20.0287934 7.44476033,20.079124 7.4385124,20.1304959 C7.42844628,20.179438 7.42080992,20.2332397 7.41490909,20.2846116 C7.40380165,20.3335537 7.39547107,20.3870083 7.38887603,20.4366446 C7.37707438,20.4869752 7.36804959,20.5355702 7.36076033,20.5872893 C7.34826446,20.6403967 7.33750413,20.6948926 7.32986777,20.7500826 C7.31876033,20.7990248 7.31112397,20.848314 7.3031405,20.8993388 C7.29203306,20.9489752 7.28231405,20.9982645 7.27502479,21.0482479 C7.26252893,21.0951074 7.2521157,21.1433554 7.24413223,21.1929917 C7.22955372,21.2499174 7.21879339,21.3071901 7.20942149,21.3658512 C7.19761983,21.4113223 7.18859504,21.4602645 7.17957025,21.5085124 C7.16707438,21.5564132 7.15631405,21.6029256 7.14694215,21.6508264 C7.13201653,21.7067107 7.11847934,21.7632893 7.1073719,21.8216033 C7.09522314,21.8695041 7.08480992,21.9167107 7.07578512,21.9663471 C7.06190083,22.0121653 7.05079339,22.0586777 7.0421157,22.1055372 C7.02580165,22.1586446 7.01122314,22.2127934 7.00115702,22.2693719 C6.98553719,22.318314 6.97442975,22.3689917 6.96332231,22.4200165 C6.94978512,22.4640992 6.93728926,22.5095702 6.92757025,22.5560826 C6.91056198,22.6067603 6.89563636,22.6616033 6.88279339,22.7164463 C6.86717355,22.7660826 6.85433058,22.8160661 6.84252893,22.8677851 C6.82829752,22.9108264 6.81510744,22.9566446 6.80434711,23.0017686 C6.78664463,23.0531405 6.77067769,23.1072893 6.75679339,23.1617851 C6.73978512,23.2107273 6.72555372,23.2603636 6.71236364,23.3113884 C6.69743802,23.3558182 6.68355372,23.4002479 6.67140496,23.4432893 C6.65196694,23.4967438 6.63461157,23.5488099 6.62003306,23.6036529 C6.60267769,23.652595 6.58705785,23.7011901 6.57247934,23.7529091 C6.5565124,23.7966446 6.5426281,23.8424628 6.52909091,23.8858512 C6.50861157,23.9375702 6.49056198,23.988595 6.47494215,24.0406612 C6.45585124,24.0902975 6.43953719,24.1409752 6.42426446,24.192 C6.40690909,24.2364298 6.39128926,24.2808595 6.37705785,24.3259835 C6.35657851,24.3749256 6.33852893,24.424562 6.3232562,24.4741983 C6.30173554,24.5259174 6.28403306,24.5783306 6.26702479,24.6303967 C6.24828099,24.6755207 6.23127273,24.7206446 6.21634711,24.767157 C6.1972562,24.8108926 6.17781818,24.8580992 6.16219835,24.9032231 C6.13824793,24.9584132 6.11846281,25.0111736 6.09971901,25.0677521 C6.07958678,25.112876 6.0618843,25.1593884 6.04591736,25.2062479 C6.02509091,25.2506777 6.00565289,25.2975372 5.98933884,25.3471736 C5.96712397,25.3940331 5.9452562,25.4429752 5.9268595,25.4936529 C5.90429752,25.5415537 5.88590083,25.590843 5.86785124,25.6404793 C5.84563636,25.6869917 5.82689256,25.7345455 5.80953719,25.781405 C5.78732231,25.83 5.76580165,25.8765124 5.74740496,25.9251074 C5.72380165,25.972314 5.7026281,26.0202149 5.68353719,26.0684628 C5.66097521,26.1163636 5.6418843,26.1649587 5.62279339,26.2135537 C5.59919008,26.2604132 5.57940496,26.3086612 5.55892562,26.3582975 C5.53532231,26.4055041 5.51276033,26.453405 5.4926281,26.5016529 C5.47145455,26.5443471 5.45028099,26.5894711 5.4322314,26.6314711 C5.4322314,26.6325124 5.4322314,26.6325124 5.4318843,26.6325124 C5.42980165,26.637719 5.42702479,26.6439669 5.42494215,26.6491736 C5.4037686,26.6911736 5.38467769,26.7342149 5.3666281,26.7776033 C5.34198347,26.825157 5.32080992,26.8744463 5.29894215,26.9244298 C5.27429752,26.9733719 5.25069421,27.0212727 5.23021488,27.0709091 C5.20487603,27.1208926 5.1798843,27.1694876 5.15871074,27.2198182 C5.14100826,27.2566116 5.12226446,27.293405 5.1052562,27.3315868 C5.10317355,27.335405 5.10109091,27.3381818 5.09935537,27.3423471 C5.07401653,27.3860826 5.05527273,27.4332893 5.03409917,27.4794545 C5.02646281,27.493686 5.01743802,27.5082645 5.00980165,27.5221488 C4.99209917,27.5572066 4.97856198,27.5933058 4.96224793,27.626281 C4.94836364,27.6516198 4.93309091,27.6769587 4.91990083,27.7026446 C4.90879339,27.726595 4.89942149,27.7512397 4.88935537,27.7744959 C4.86957025,27.8116364 4.84909091,27.8449587 4.83069421,27.8834876 C4.82479339,27.8970248 4.8206281,27.9109091 4.81472727,27.923405 C4.78973554,27.9706116 4.76404959,28.0157355 4.74183471,28.0632893 C4.74079339,28.0684959 4.74009917,28.0705785 4.73871074,28.0750909 C4.72170248,28.1042479 4.70608264,28.136876 4.69115702,28.1688099 C4.66373554,28.2156694 4.64047934,28.2656529 4.61652893,28.3173719 C4.58910744,28.3652727 4.5637686,28.4159504 4.53912397,28.466281 C4.51170248,28.5159174 4.48566942,28.5652066 4.46171901,28.6169256 C4.43429752,28.6658678 4.40757025,28.7158512 4.38292562,28.7682645 C4.35550413,28.8172066 4.32842975,28.8651074 4.30309091,28.9175207 C4.28920661,28.9428595 4.27497521,28.9695868 4.26213223,28.9952727 C4.23401653,29.0428264 4.2093719,29.0948926 4.18368595,29.1438347 C4.15557025,29.1934711 4.1298843,29.2434545 4.10419835,29.2944793 C4.07608264,29.3437686 4.04935537,29.3930579 4.02436364,29.4440826 C3.99520661,29.493719 3.96847934,29.5443967 3.9431405,29.5947273 C3.91433058,29.6450579 3.88656198,29.6936529 3.86122314,29.7460661 C3.83276033,29.7963967 3.8032562,29.845686 3.77791736,29.8967107 C3.76750413,29.9164959 3.75639669,29.9352397 3.74667769,29.9539835 C3.74147107,29.9640496 3.73730579,29.9709917 3.73175207,29.9803636 C3.71995041,30.0025785 3.70571901,30.0254876 3.69461157,30.0497851 C3.68523967,30.0667934 3.67586777,30.0841488 3.66545455,30.1021983 C3.63629752,30.1511405 3.61026446,30.2025124 3.58353719,30.2511074 C3.55472727,30.3000496 3.52834711,30.3521157 3.50161983,30.4024463 C3.47246281,30.4513884 3.44504132,30.4999835 3.41831405,30.5523967 C3.38846281,30.6020331 3.36104132,30.6499339 3.33431405,30.7023471 C3.30446281,30.7519835 3.27634711,30.8012727 3.24996694,30.8522975 C3.22046281,30.902281 3.19130579,30.950876 3.16457851,31.0036364 C3.1357686,31.0539669 3.10626446,31.1029091 3.07953719,31.1549752 C3.05038017,31.2056529 3.01983471,31.2542479 2.99380165,31.3073554 C2.98894215,31.3149917 2.98408264,31.3240165 2.97991736,31.3313058 C2.94902479,31.3792066 2.92264463,31.4305785 2.89452893,31.4809091 C2.8653719,31.5284628 2.83864463,31.5791405 2.81018182,31.6294711 C2.77963636,31.6773719 2.75221488,31.7273554 2.7254876,31.7790744 C2.69424793,31.8287107 2.66752066,31.8766116 2.63905785,31.9276364 C2.6088595,31.978314 2.58039669,32.0279504 2.55228099,32.0789752 C2.52312397,32.1272231 2.49396694,32.1768595 2.46654545,32.2289256 C2.43669421,32.2782149 2.40649587,32.3281983 2.37872727,32.3795702 C2.34887603,32.4295537 2.31902479,32.4781488 2.29160331,32.5291736 C2.26175207,32.5781157 2.23190083,32.6280992 2.20482645,32.6805124 C2.17532231,32.730843 2.14408264,32.779438 2.11700826,32.8318512 C2.08819835,32.8800992 2.05869421,32.9252231 2.03231405,32.9741653 C2.00315702,33.018595 1.9785124,33.0682314 1.95109091,33.1161322 C1.91950413,33.1640331 1.89312397,33.2140165 1.86361983,33.2636529 C1.83307438,33.3115537 1.80530579,33.3622314 1.77684298,33.4129091 C1.74629752,33.4608099 1.71852893,33.5114876 1.68971901,33.561124 C1.65917355,33.6100661 1.63036364,33.6590083 1.60120661,33.7103802 C1.57066116,33.7603636 1.54289256,33.8089587 1.51304132,33.8599835 C1.48319008,33.9089256 1.45333884,33.9575207 1.42487603,34.0085455 C1.39502479,34.0578347 1.36586777,34.1078182 1.33636364,34.1574545 C1.3065124,34.2063967 1.27596694,34.255686 1.24819835,34.3067107 C1.21765289,34.3563471 1.18745455,34.4052893 1.15899174,34.456314 C1.1291405,34.5069917 1.09859504,34.5545455 1.07082645,34.6062645 C1.04097521,34.6552066 1.00938843,34.7038017 0.981619835,34.7562149 C0.951768595,34.8058512 0.919834711,34.853405 0.892760331,34.9054711 C0.861867769,34.9554545 0.830628099,35.0040496 0.802165289,35.0564628 C0.414793388,35.7093719 0.189520661,36.4695372 0.189520661,37.2845455 C0.189520661,39.7073554 2.15449587,41.6716364 4.57695868,41.6716364 C7.0001157,41.6716364 8.96578512,39.7070083 8.96578512,37.2845455 C8.96578512,37.2758678 8.96335537,37.2661488 8.96335537,37.2567769 C8.96543802,37.2199835 8.97064463,37.1824959 8.97064463,37.1436198 C8.97064463,37.131124 8.9692562,37.1210579 8.96856198,37.1106446 C8.96995041,37.0738512 8.97515702,37.0387934 8.97515702,37.0023471 C8.97585124,36.9884628 8.9737686,36.9759669 8.9737686,36.9617355 C8.97515702,36.9273719 8.97966942,36.8947438 8.97966942,36.8603802 C8.98036364,36.8461488 8.9786281,36.8301818 8.9786281,36.814562 C8.97966942,36.7840165 8.98452893,36.7513884 8.98591736,36.7194545 C8.98591736,36.7027934 8.9834876,36.6837025 8.9834876,36.6680826 C8.98452893,36.636843 8.98973554,36.6094215 8.99042975,36.5795702 C8.99112397,36.5580496 8.98869421,36.5389587 8.98904132,36.5198678 C8.99042975,36.4920992 8.99424793,36.4639835 8.99528926,36.4386446 C8.99598347,36.4160826 8.99390083,36.3949091 8.99390083,36.3716529 C8.99528926,36.346314 8.99910744,36.3230579 9.00049587,36.2966777 C9.00119008,36.2723802 8.99876033,36.2480826 8.99910744,36.2241322 C9.00049587,36.2019174 9.00431405,36.1790083 9.00500826,36.1560992 C9.00639669,36.129719 9.00396694,36.1029917 9.00431405,36.0762645 C9.00570248,36.0550909 9.00986777,36.0363471 9.0112562,36.0151736 C9.01229752,35.9853223 9.00986777,35.9561653 9.01056198,35.9277025 C9.01195041,35.9096529 9.01438017,35.8926446 9.0157686,35.8742479 C9.01715702,35.8433554 9.01507438,35.8114215 9.0157686,35.7791405 C9.01646281,35.764562 9.01958678,35.7492893 9.02028099,35.7340165 C9.02236364,35.6996529 9.02028099,35.6670248 9.02097521,35.632314 C9.02166942,35.6184298 9.02444628,35.6069752 9.0251405,35.5944793 C9.02826446,35.5566446 9.0251405,35.5208926 9.02652893,35.4827107 C9.02722314,35.4726446 9.03034711,35.4622314 9.03104132,35.4521653 C9.03347107,35.4115537 9.03104132,35.3733719 9.03277686,35.334843 C9.03347107,35.3265124 9.0348595,35.3195702 9.03520661,35.3112397 C9.03867769,35.2692397 9.03694215,35.228281 9.03798347,35.1869752 C9.03867769,35.179686 9.03971901,35.1748264 9.03971901,35.170314 C9.04353719,35.1251901 9.04180165,35.082843 9.04353719,35.0373719 C9.04353719,35.0349421 9.0442314,35.0318182 9.04457851,35.0304298 C9.04943802,34.9769752 9.04770248,34.9256033 9.05013223,34.8735372 C9.0577686,34.7801653 9.05985124,34.6881818 9.06089256,34.5958512 C9.06575207,34.5215702 9.072,34.4452066 9.072,34.3705785 C9.07373554,34.3226777 9.07859504,34.2733884 9.07859504,34.2251405 C9.08102479,34.1772397 9.08484298,34.1286446 9.08553719,34.0800496 C9.08727273,34.0311074 9.09178512,33.9832066 9.09247934,33.9335702 C9.09490909,33.8856694 9.09872727,33.8363802 9.09942149,33.7877851 C9.10185124,33.7381488 9.10532231,33.6909421 9.10671074,33.6416529 C9.1091405,33.593405 9.11261157,33.5441157 9.11365289,33.4951736 C9.11712397,33.4458843 9.11990083,33.3979835 9.12094215,33.3469587 C9.12476033,33.2990579 9.12684298,33.2504628 9.12927273,33.2022149 C9.13343802,33.1536198 9.13552066,33.1029421 9.1372562,33.0533058 C9.14107438,33.0043636 9.14280992,32.9557686 9.14454545,32.9071736 C9.14975207,32.8575372 9.15079339,32.8082479 9.15287603,32.7586116 C9.15808264,32.7093223 9.15877686,32.6593388 9.16190083,32.6097025 C9.16641322,32.562843 9.16780165,32.5139008 9.1702314,32.4642645 C9.17682645,32.3965785 9.17856198,32.3313223 9.18203306,32.2667603 C9.19071074,32.1803306 9.19765289,32.0952893 9.19834711,32.0102479 C9.20216529,31.962 9.2073719,31.9151405 9.20806612,31.8668926 C9.2122314,31.8182975 9.21639669,31.7703967 9.21778512,31.7207603 C9.22160331,31.6728595 9.2261157,31.6242645 9.22750413,31.5753223 C9.23201653,31.5274215 9.23583471,31.4781322 9.23757025,31.4302314 C9.24242975,31.3812893 9.24659504,31.3326942 9.24867769,31.2847934 C9.25353719,31.235157 9.25666116,31.1876033 9.25909091,31.1372727 C9.26429752,31.089719 9.26846281,31.041124 9.27019835,30.9925289 C9.27609917,30.9428926 9.27852893,30.8949917 9.282,30.8450083 C9.28790083,30.7967603 9.29033058,30.7488595 9.29449587,30.6985289 C9.30109091,30.6492397 9.30282645,30.5999504 9.30595041,30.5517025 C9.31705785,30.4753388 9.32226446,30.3979339 9.32642975,30.3205289 C9.33198347,30.2618678 9.33927273,30.2021653 9.34170248,30.1448926 C9.34621488,30.0966446 9.3521157,30.0473554 9.35489256,29.9987603 C9.36009917,29.9505124 9.36530579,29.9036529 9.36808264,29.8540165 C9.37398347,29.8050744 9.3798843,29.7575207 9.38231405,29.7092727 C9.3892562,29.6606777 9.39342149,29.6127769 9.39689256,29.5631405 C9.4034876,29.5152397 9.408,29.4666446 9.41042975,29.4183967 C9.41771901,29.3684132 9.42292562,29.3219008 9.4267438,29.2715702 C9.43333884,29.2236694 9.43785124,29.1743802 9.44271074,29.1261322 C9.45347107,29.0580992 9.46006612,28.9900661 9.46527273,28.9227273 C9.47360331,28.863719 9.48054545,28.8050579 9.48575207,28.7467438 C9.492,28.6981488 9.49859504,28.6502479 9.50171901,28.6023471 C9.50866116,28.5527107 9.51560331,28.5055041 9.5197686,28.4569091 C9.52705785,28.4086612 9.53295868,28.3611074 9.53747107,28.3135537 C9.54510744,28.2649587 9.55100826,28.2149752 9.55552066,28.1667273 C9.56454545,28.1195207 9.57044628,28.072314 9.57495868,28.0226777 C9.58467769,27.9733884 9.58919008,27.926876 9.59613223,27.8758512 C9.60966942,27.8046942 9.62077686,27.7314545 9.62667769,27.6609917 C9.63431405,27.6127438 9.64264463,27.5644959 9.64750413,27.5162479 C9.65583471,27.4690413 9.6645124,27.4218347 9.6693719,27.3725455 C9.67839669,27.3242975 9.68638017,27.277438 9.69158678,27.2284959 C9.702,27.1809421 9.70894215,27.1326942 9.71484298,27.0844463 C9.72560331,27.0358512 9.73289256,26.9893388 9.7394876,26.9393554 C9.75267769,26.883124 9.76170248,26.8244628 9.76968595,26.766843 C9.78287603,26.7095702 9.79294215,26.6512562 9.8002314,26.5919008 C9.81064463,26.5443471 9.81966942,26.4978347 9.82626446,26.4492397 C9.8373719,26.4013388 9.84639669,26.3541322 9.85368595,26.3055372 C9.86479339,26.2579835 9.87381818,26.2097355 9.88110744,26.1621818 C9.89221488,26.1149752 9.90158678,26.0677686 9.91026446,26.0184793 C9.92519008,25.9601653 9.93768595,25.9035868 9.94671074,25.8431901 C9.96024793,25.7900826 9.9727438,25.736281 9.98107438,25.6817851 C9.99357025,25.6342314 10.0039835,25.5866777 10.012314,25.5394711 C10.0255041,25.4898347 10.0355702,25.4443636 10.0449421,25.3961157 C10.057438,25.3489091 10.0688926,25.3020496 10.0779174,25.2544959 C10.0918017,25.206595 10.1029091,25.1600826 10.1133223,25.1104463 C10.1320661,25.0493554 10.1480331,24.9875702 10.1594876,24.922314 C10.1733719,24.8764959 10.1855207,24.8282479 10.1955868,24.7827769 C10.2098182,24.7362645 10.222314,24.6873223 10.2334215,24.641157 C10.2473058,24.5932562 10.2601488,24.5463967 10.2719504,24.4995372 C10.286876,24.453719 10.2993719,24.4054711 10.3115207,24.3586116 C10.3316529,24.2999504 10.348314,24.2388595 10.3621983,24.1798512 C10.3785124,24.1322975 10.393438,24.0826612 10.4045455,24.0330248 C10.4212066,23.9861653 10.435438,23.9389587 10.4472397,23.8934876 C10.4628595,23.846281 10.4777851,23.7994215 10.490281,23.7539504 C10.5072893,23.7088264 10.5208264,23.6609256 10.5343636,23.6154545 C10.551719,23.5672066 10.5673388,23.5186116 10.580876,23.468281 C10.6037851,23.4110083 10.6235702,23.3513058 10.638843,23.2916033 C10.6561983,23.2457851 10.6718182,23.1985785 10.6860496,23.1531074 C10.7037521,23.1072893 10.7193719,23.0621653 10.7332562,23.0156529 C10.7513058,22.9698347 10.7676198,22.9229752 10.7825455,22.8768099 C10.8016364,22.8330744 10.816562,22.786562 10.8321818,22.741438 C10.8575207,22.6789587 10.881124,22.6192562 10.900562,22.554 C10.9186116,22.5102645 10.9366612,22.4651405 10.9512397,22.4172397 C10.9699835,22.3741983 10.9883802,22.327686 11.004,22.2811736 C11.023438,22.2367438 11.0400992,22.1916198 11.0567603,22.1451074 C11.0768926,22.1020661 11.0935537,22.0562479 11.1109091,22.011124 C11.1310413,21.966 11.1490909,21.9201818 11.165405,21.8743636 C11.1942149,21.8132727 11.220595,21.7497521 11.243157,21.684843 C11.2629421,21.6418017 11.2823802,21.5959835 11.2983471,21.5494711 C11.3181322,21.5057355 11.3382645,21.4613058 11.3552727,21.4165289 C11.3760992,21.3727934 11.3955372,21.326281 11.4125455,21.2818512 C11.4340661,21.2381157 11.4528099,21.193686 11.4705124,21.148562 C11.491686,21.1051736 11.5107769,21.0607438 11.5284793,21.0149256 C11.5552066,20.9628595 11.5788099,20.9080165 11.6013719,20.8521322 C11.6287934,20.7976364 11.6548264,20.7417521 11.6773884,20.6848264 C11.6989091,20.6407438 11.7190413,20.596314 11.7381322,20.5511901 C11.7596529,20.5081488 11.7797851,20.4647603 11.7992231,20.4189421 C11.8207438,20.376595 11.840876,20.3328595 11.860314,20.2880826 C11.8821818,20.2436529 11.9033554,20.1992231 11.9220992,20.1561818 C11.9450083,20.1134876 11.9647934,20.0697521 11.9845785,20.0256694 C12.0074876,19.9833223 12.0269256,19.9395868 12.0470579,19.8955041 C12.0852397,19.8278182 12.1192562,19.7559669 12.1498017,19.6834215 C12.1720165,19.6417686 12.1938843,19.5973388 12.2143636,19.5515207 C12.2365785,19.5095207 12.2591405,19.4650909 12.2796198,19.4217025 C12.3021818,19.3793554 12.3243967,19.3352727 12.3452231,19.2915372 C12.3677851,19.2491901 12.3893058,19.2044132 12.4101322,19.1606777 C12.4337355,19.1183306 12.4552562,19.0742479 12.4764298,19.0305124 C12.5000331,18.9899008 12.5208595,18.9447769 12.5420331,18.9020826 C12.5656364,18.8604298 12.5861157,18.816 12.6076364,18.774 C12.6350579,18.7250579 12.6597025,18.6761157 12.684,18.6250909 C12.7235702,18.5580992 12.7610579,18.4848595 12.7950744,18.4119669 C12.8186777,18.3685785 12.8419339,18.3269256 12.8627603,18.2811074 C12.8867107,18.2391074 12.9106612,18.1960661 12.9311405,18.1512893 C12.9543967,18.1096364 12.9783471,18.0676364 12.9991736,18.0225124 C13.0234711,17.9798182 13.0467273,17.9388595 13.0682479,17.8937355 C13.0921983,17.853124 13.1151074,17.8097355 13.1373223,17.7653058 C13.1612727,17.7229587 13.1841818,17.6802645 13.2060496,17.6365289 C13.2303471,17.5952231 13.2518678,17.5525289 13.2744298,17.5087934 C13.2990744,17.4681818 13.3216364,17.4251405 13.3441983,17.3831405 C13.368843,17.3418347 13.3910579,17.2980992 13.4129256,17.255405 C13.4424298,17.207157 13.4677686,17.1564793 13.4941488,17.1061488 C13.5406612,17.0297851 13.5847438,16.9513388 13.624314,16.8697686 C13.6486116,16.8277686 13.6746446,16.7885455 13.6965124,16.7448099 C13.6975537,16.7402975 13.6982479,16.7375207 13.7006777,16.7340496 C13.7215041,16.6972562 13.743719,16.6635868 13.7628099,16.6247107 C13.7659339,16.6198512 13.7683636,16.6108264 13.7725289,16.6045785 C13.7905785,16.5712562 13.8127934,16.5407107 13.8304959,16.5073884 C13.8360496,16.4973223 13.8391736,16.4862149 13.8443802,16.476843 C13.8606942,16.4462975 13.8808264,16.4181818 13.8971405,16.3890248 C13.9044298,16.3758347 13.9096364,16.3612562 13.9169256,16.347719 C13.9325455,16.3213388 13.9492066,16.2970413 13.9644793,16.2689256 C13.9735041,16.2536529 13.9797521,16.2359504 13.9884298,16.2192893 C14.002314,16.1963802 14.018281,16.1748595 14.0318182,16.1512562 C14.0422314,16.1328595 14.0491736,16.1113388 14.060281,16.0922479 C14.0727769,16.0724628 14.086314,16.0516364 14.0981157,16.0325455 C14.1113058,16.0099835 14.1203306,15.9874215 14.1324793,15.9641653 C14.1428926,15.9475041 14.1553884,15.9315372 14.1651074,15.9141818 C14.1800331,15.888843 14.1911405,15.8624628 14.2046777,15.8367769 C14.2133554,15.8228926 14.2234215,15.8100496 14.2320992,15.7961653 C14.2484132,15.7677025 14.2612562,15.7381983 14.276876,15.711124 C14.2841653,15.698281 14.2924959,15.6875207 14.2997851,15.6767603 C14.3185289,15.6462149 14.3320661,15.6135868 14.3501157,15.5837355 C14.3553223,15.5736694 14.3622645,15.5660331 14.3674711,15.556314 C14.3876033,15.5226446 14.4032231,15.4900165 14.4216198,15.4566942 C14.4261322,15.4500992 14.4302975,15.4441983 14.4341157,15.4382975 C14.4559835,15.4032397 14.4743802,15.3664463 14.4945124,15.3306942 C14.4962479,15.3254876 14.4993719,15.323405 14.5018017,15.3192397 C14.5257521,15.2820992 14.544843,15.2418347 14.5670579,15.2033058 C14.5677521,15.2019174 14.5684463,15.2019174 14.5691405,15.2005289 C14.6038512,15.1290248 14.6396033,15.0592562 14.677438,14.990876" id="Path" fill="url(#linearGradient-1)"></path>
                        <path d="M30.9206777,33.396595 C30.8436198,33.289686 30.7630909,33.1869421 30.6766612,33.0855868 C30.5992562,32.9800661 30.5159504,32.8759339 30.4291736,32.7752727 C30.3524628,32.6704463 30.2712397,32.5677025 30.1865455,32.469124 C30.1119174,32.3636033 30.0320826,32.2639835 29.9480826,32.1650579 C29.8738017,32.0612727 29.7960496,31.9609587 29.7130909,31.8637686 C29.6405455,31.7603306 29.5641818,31.661405 29.4829587,31.5656033 C29.4083306,31.4569587 29.3274545,31.351438 29.241719,31.2525124 C29.1622314,31.1355372 29.0771901,31.0258512 28.9848595,30.9196364 C28.9081488,30.8099504 28.8272727,30.7030413 28.7401488,30.6006446 C28.6707273,30.5003306 28.5957521,30.4024463 28.5169587,30.3097686 C28.4499669,30.2125785 28.3770744,30.1150413 28.3003636,30.0240992 C28.2257355,29.9095537 28.1417355,29.8016033 28.0539174,29.6981653 C27.9782479,29.5818843 27.8949421,29.4715041 27.8060826,29.3659835 C27.7331901,29.2562975 27.6557851,29.1493884 27.5703967,29.0497686 C27.5079174,28.9546612 27.4398843,28.8623306 27.3680331,28.7745124 C27.2940992,28.6571901 27.2107934,28.5481983 27.1233223,28.4430248 C27.0507769,28.3267438 26.9712893,28.2177521 26.8841653,28.1122314 C26.8189091,28.0105289 26.7501818,27.9109091 26.6745124,27.8199669 C26.6050909,27.7057686 26.5269917,27.5974711 26.4443802,27.4978512 C26.3753058,27.3815702 26.2989421,27.2725785 26.214595,27.1701818 C26.1503802,27.0618843 26.0813058,26.9605289 26.0052893,26.8657686 C25.9382975,26.7501818 25.8626281,26.6422314 25.7807107,26.5394876 C25.7158017,26.4252893 25.6453388,26.3169917 25.5658512,26.2152893 C25.5030248,26.1049091 25.4322149,25.9983471 25.3548099,25.901157 C25.3405785,25.8723471 25.3266942,25.8431901 25.3100331,25.817157 C25.2610909,25.7341983 25.2072893,25.6571405 25.1510579,25.5821653 C25.1163471,25.5179504 25.0809421,25.4544298 25.0406777,25.3916033 C25.0097851,25.3450909 24.9761157,25.3013554 24.9420992,25.2562314 C24.8914215,25.1569587 24.8362314,25.0601157 24.7706281,24.9691736 C24.7626446,24.9570248 24.7536198,24.9486942 24.7463306,24.9386281 C24.6904463,24.8230413 24.6224132,24.7133554 24.5453554,24.6081818 C24.4908595,24.492595 24.4256033,24.3797851 24.3499339,24.272876 C24.2992562,24.1638843 24.2388595,24.0583636 24.1683967,23.9559669 C24.1156364,23.8337851 24.0510744,23.7164628 23.9733223,23.604 C23.9250744,23.4894545 23.8653719,23.3790744 23.7966446,23.2735537 C23.7501322,23.1586612 23.6932066,23.0489752 23.6258678,22.9420661 C23.5803967,22.8233554 23.5241653,22.7101983 23.4568264,22.6005124 C23.4127438,22.479719 23.3565124,22.3620496 23.2888264,22.2516694 C23.248562,22.1329587 23.1954545,22.0198017 23.1329752,21.9115041 C23.0937521,21.7917521 23.0444628,21.6775537 22.9833719,21.568562 C22.9469256,21.4488099 22.8990248,21.3346116 22.8400165,21.2242314 C22.8032231,21.0978843 22.7549752,20.9746612 22.6952727,20.8590744 C22.660562,20.7375868 22.6164793,20.6202645 22.560595,20.5081488 C22.5293554,20.3866612 22.486314,20.2693388 22.4342479,20.1575702 C22.4043967,20.0346942 22.363438,19.9163306 22.3120661,19.8024793 C22.2829091,19.6709256 22.240562,19.5445785 22.1867603,19.4227438 C22.1593388,19.300562 22.1228926,19.1839339 22.0760331,19.0725124 C22.05,18.9447769 22.0114711,18.8201653 21.9649587,18.7024959 C21.9396198,18.5726777 21.9049091,18.447719 21.8580496,18.3276198 C21.8340992,18.2037025 21.8000826,18.082562 21.7563471,17.9666281 C21.7330909,17.837157 21.701157,17.7108099 21.6581157,17.5893223 C21.6563802,17.5768264 21.655686,17.5653719 21.6529091,17.5507934 C21.6306942,17.4376364 21.5991074,17.3303802 21.5630083,17.2238182 C21.5543306,17.1724463 21.5473884,17.1207273 21.5355868,17.0690083 C21.5185785,16.9964628 21.4970579,16.9273884 21.4751901,16.858314 C21.4613058,16.7673719 21.442562,16.6774711 21.4175702,16.5875702 C21.4078512,16.5504298 21.394314,16.5171074 21.3825124,16.4806612 C21.3634215,16.3563967 21.339124,16.2303967 21.2999008,16.1061322 C21.2992066,16.102314 21.2974711,16.0974545 21.2957355,16.0932893 C21.277686,15.9745785 21.2502645,15.8569091 21.2159008,15.7388926 C21.1975041,15.6066446 21.1690413,15.4757851 21.1312066,15.346314 C21.1138512,15.2185785 21.0881653,15.0901488 21.051719,14.9627603 C21.035405,14.8443967 21.0107603,14.7263802 20.9784793,14.6083636 C20.9621653,14.473686 20.9343967,14.3403967 20.8989917,14.2084959 C20.8809421,14.0724298 20.8573388,13.9367107 20.8208926,13.8002975 C20.8052727,13.6899174 20.7840992,13.5791901 20.7566777,13.4681157 C20.7417521,13.3379504 20.7164132,13.2084793 20.6848264,13.0800496 C20.6688595,12.9432893 20.6438678,12.8075702 20.6101983,12.6708099 C20.5938843,12.5368264 20.5709752,12.402843 20.538,12.2688595 C20.5230744,12.1501488 20.5019008,12.0317851 20.4744793,11.9148099 C20.4602479,11.7929752 20.4383802,11.6721818 20.4123471,11.5517355 C20.3974215,11.4194876 20.3745124,11.2893223 20.3453554,11.1584628 C20.3304298,11.0210083 20.3064793,10.8828595 20.276281,10.745405 C20.260314,10.6145455 20.2380992,10.4833388 20.2099835,10.3524793 C20.1943636,10.228562 20.1731901,10.1039504 20.1464628,9.98003306 C20.1322314,9.85507438 20.1110579,9.72838017 20.0839835,9.60272727 C20.0700992,9.47499174 20.0492727,9.34690909 20.0235868,9.22021488 C20.0090083,9.09109091 19.9895702,8.96231405 19.9635372,8.83527273 C19.9489587,8.70441322 19.930562,8.57355372 19.9045289,8.44477686 C19.8896033,8.31252893 19.8666942,8.18375207 19.8413554,8.05289256 C19.8264298,7.92446281 19.8049091,7.79638017 19.7799174,7.66933884 C19.7653388,7.53952066 19.7438182,7.41143802 19.7191736,7.28231405 C19.7035537,7.15145455 19.6830744,7.02128926 19.6587769,6.89181818 C19.6455868,6.77866116 19.6299669,6.66585124 19.6091405,6.55269421 C19.5942149,6.40899174 19.5726942,6.26563636 19.5459669,6.12123967 C19.5317355,5.98968595 19.5109091,5.85882645 19.4876529,5.72692562 C19.4727273,5.5953719 19.4529421,5.46381818 19.4286446,5.33226446 C19.4133719,5.19897521 19.3953223,5.06603306 19.3706777,4.93517355 C19.232876,3.73071074 18.7035372,2.56581818 17.7802314,1.6428595 C15.6108099,-0.526909091 12.0925289,-0.526909091 9.92276033,1.6428595 C7.85087603,3.71439669 7.75923967,7.01157025 9.64229752,9.1934876 C9.72247934,9.30039669 9.80647934,9.40557025 9.89429752,9.50657851 C9.97447934,9.61383471 10.0577851,9.72004959 10.1473388,9.82105785 C10.2243967,9.92519008 10.3045785,10.0268926 10.3906612,10.1258182 C10.4673719,10.228562 10.548595,10.3302645 10.6339835,10.4281488 C10.7009752,10.5183967 10.7742149,10.603438 10.8471074,10.690562 C10.9213884,10.7929587 11.0033058,10.8932727 11.0866116,10.9918512 C11.1706116,11.1091736 11.2629421,11.223719 11.3583967,11.3354876 C11.4396198,11.4493388 11.5260496,11.5614545 11.6197686,11.6690579 C11.6249752,11.6753058 11.6322645,11.6812066 11.6374711,11.6874545 C11.7006446,11.7724959 11.7624298,11.8589256 11.8318512,11.9401488 C11.8443471,11.9568099 11.8599669,11.9689587 11.8721157,11.9821488 C11.928,12.0595537 11.9821488,12.1369587 12.0432397,12.2126281 C12.0640661,12.2362314 12.086281,12.2577521 12.1074545,12.2820496 C12.1570909,12.3493884 12.2022149,12.4181157 12.2556694,12.4844132 C12.2837851,12.5166942 12.3143306,12.5472397 12.3427934,12.5802149 C12.3837521,12.6374876 12.422281,12.6982314 12.4677521,12.7548099 C12.503157,12.7985455 12.541686,12.8384628 12.5781322,12.881157 C12.612843,12.929405 12.6433884,12.9783471 12.6791405,13.0272893 C12.7221818,13.0817851 12.7700826,13.1328099 12.8145124,13.1841818 C12.8412397,13.2213223 12.8638017,13.2608926 12.8919174,13.2990744 C12.9422479,13.3650248 12.997438,13.4264628 13.0505455,13.4889421 C13.068595,13.5156694 13.0842149,13.5441322 13.104,13.5687769 C13.1612727,13.6486116 13.2251405,13.7218512 13.2872727,13.795438 C13.297686,13.8100165 13.3056694,13.8259835 13.3160826,13.8398678 C13.3809917,13.9328926 13.4514545,14.0193223 13.5229587,14.1015868 C13.5243471,14.1074876 13.5253884,14.1099174 13.5274711,14.1123471 C13.6073058,14.2286281 13.6933884,14.3379669 13.7832893,14.4427934 C13.8558347,14.5490083 13.934281,14.6493223 14.0158512,14.7444298 C14.089438,14.8534215 14.166843,14.9544298 14.2487603,15.0519669 C14.3223471,15.1602645 14.4000992,15.2626612 14.4816694,15.3608926 C14.554562,15.4698843 14.6312727,15.5747107 14.7138843,15.6719008 C14.7853884,15.782281 14.8627934,15.8878017 14.945405,15.9860331 C15.0151736,16.0943306 15.0911901,16.1974215 15.171719,16.2956529 C15.2421818,16.4067273 15.3199339,16.509124 15.4018512,16.6087438 C15.472314,16.7184298 15.5500661,16.8239504 15.6323306,16.922876 C15.701405,17.0339504 15.7774215,17.1422479 15.8607273,17.2418678 C15.9298017,17.3550248 16.0040826,17.4643636 16.0870413,17.5646777 C16.1509091,17.6688099 16.2203306,17.7694711 16.2953058,17.8631901 C16.3622975,17.976 16.4379669,18.0804793 16.5184959,18.1821818 C16.5854876,18.2988099 16.6601157,18.4067603 16.7420331,18.5098512 C16.806595,18.6226612 16.8767107,18.7309587 16.9568926,18.8305785 C17.0162479,18.9385289 17.0832397,19.0384959 17.1568264,19.1349917 C17.2193058,19.2537025 17.2935868,19.362 17.3734215,19.4664793 C17.4345124,19.5834545 17.504281,19.6955702 17.5834215,19.7993554 C17.6396529,19.9083471 17.7031736,20.011438 17.7753719,20.1093223 C17.8333388,20.227686 17.9006777,20.3394545 17.9777355,20.4421983 C18.0336198,20.560562 18.0985289,20.6726777 18.173157,20.777157 C18.2245289,20.8885785 18.2849256,20.9937521 18.3533058,21.0926777 C18.4071074,21.2162479 18.4730579,21.3339174 18.5480331,21.4460331 C18.5966281,21.5584959 18.6542479,21.6664463 18.7219339,21.768843 C18.7698347,21.8882479 18.8281488,22.0000165 18.8961818,22.108314 C18.942,22.2291074 18.9996198,22.3419174 19.0673058,22.4522975 C19.1089587,22.5671901 19.1624132,22.6765289 19.2248926,22.7837851 C19.2665455,22.9070083 19.323124,23.0271074 19.3894215,23.142 C19.4279504,23.2589752 19.4758512,23.3693554 19.5359008,23.4776529 C19.5740826,23.604 19.6247603,23.7272231 19.6879339,23.8435041 C19.7222975,23.9604793 19.7674215,24.0746777 19.8233058,24.1829752 C19.8569752,24.3058512 19.9027934,24.4280331 19.9593719,24.5436198 C19.9916529,24.6658017 20.034,24.7848595 20.088843,24.8997521 C20.118,25.0201983 20.1582645,25.1368264 20.2099835,25.2506777 C20.2387934,25.3794545 20.2800992,25.5064959 20.3342479,25.6300661 C20.3609752,25.7466942 20.3967273,25.862281 20.4432397,25.9761322 C20.4692727,26.1024793 20.5071074,26.2263967 20.5560496,26.3475372 C20.5806942,26.4731901 20.6150579,26.5991901 20.6626116,26.7210248 C20.6851736,26.8404298 20.7167603,26.9567107 20.7587603,27.0712562 C20.7806281,27.2007273 20.8160331,27.3284628 20.8608099,27.4530744 C20.8830248,27.5818512 20.912876,27.7109752 20.9569587,27.8376694 C20.977438,27.9560331 21.0059008,28.0730083 21.0437355,28.1899835 C21.0631736,28.3156364 21.0951074,28.4416364 21.1350248,28.5659008 C21.1544628,28.6953719 21.1836198,28.8238017 21.2231901,28.9518843 C21.2412397,29.080314 21.2672727,29.2083967 21.3064959,29.3361322 C21.323157,29.454843 21.3495372,29.5718182 21.3821653,29.6912231 C21.3995207,29.8179174 21.4293719,29.9477355 21.4654711,30.075124 C21.4828264,30.2042479 21.5095537,30.3323306 21.5453058,30.4600661 C21.5612727,30.5864132 21.5862645,30.7144959 21.6199339,30.8418843 C21.6369421,30.9689256 21.659157,31.0959669 21.6921322,31.2233554 C21.7070579,31.3399835 21.7271901,31.4555702 21.7553058,31.5725455 C21.7587769,31.584 21.7629421,31.5940661 21.765719,31.6044793 C21.7789091,31.7027107 21.7938347,31.803719 21.8153554,31.9016033 C21.8222975,31.9321488 21.8313223,31.958876 21.8389587,31.9880331 C21.8500661,32.0692562 21.8587438,32.1504793 21.875405,32.2306612 C21.8844298,32.2789091 21.8993554,32.3250744 21.9108099,32.3726281 C21.9177521,32.4344132 21.924,32.4972397 21.9347603,32.5607603 C21.9462149,32.6267107 21.9639174,32.6891901 21.978843,32.753405 C21.9843967,32.7985289 21.9864793,32.8450413 21.9937686,32.8908595 C22.0073058,32.973124 22.0267438,33.0522645 22.0458347,33.1327934 C22.0489587,33.1619504 22.0496529,33.1904132 22.0534711,33.2195702 C22.0677025,33.3181488 22.088876,33.4142975 22.1103967,33.5100992 C22.1117851,33.522595 22.1110909,33.5364793 22.1128264,33.5500165 C22.1291405,33.6787934 22.1527438,33.8072231 22.1812066,33.9332231 C22.1968264,34.0613058 22.2190413,34.1897355 22.2468099,34.3143471 C22.263124,34.4438182 22.2842975,34.5722479 22.311719,34.6968595 C22.3273388,34.8252893 22.3481653,34.9533719 22.3755868,35.0769421 C22.3901653,35.2039835 22.4109917,35.3306777 22.437719,35.4566777 C22.4526446,35.5844132 22.4727769,35.7100661 22.4981157,35.8343306 C22.5123471,35.9610248 22.5328264,36.0870248 22.5581653,36.2102479 C22.5710083,36.3303471 22.5897521,36.4487107 22.6126612,36.5646446 C22.6268926,36.7086942 22.6484132,36.8482314 22.6747934,36.9870744 C22.9354711,39.3619835 24.9611901,41.1992231 27.4010083,41.1741433 C30.0004959,41.1485455 32.0869587,39.0197355 32.0609256,36.4212893 C32.049124,35.2629917 31.6204463,34.2084793 30.9206777,33.396595" id="Path" fill="url(#linearGradient-2)"></path>
                        <path d="M43.0631901,20.0527438 C43.1093554,20.0156033 43.1548264,19.9784628 43.1999504,19.9413223 C43.2461157,19.9038347 43.2926281,19.8666942 43.337405,19.8288595 C43.3835702,19.7906777 43.4297355,19.7538843 43.4755537,19.7163967 C43.5210248,19.6802975 43.5675372,19.6428099 43.6130083,19.6039339 C43.6602149,19.5685289 43.7067273,19.5310413 43.7515041,19.4925124 C43.7983636,19.4543306 43.8455702,19.4178843 43.8913884,19.3793554 C43.9368595,19.3415207 43.9844132,19.3057686 44.0295372,19.2665455 C44.0770909,19.2297521 44.1242975,19.1926116 44.1697686,19.1540826 C44.1784463,19.1467934 44.187124,19.1408926 44.1947603,19.1336033 C44.2239174,19.1113884 44.251686,19.0870909 44.2801488,19.0645289 C44.2902149,19.0568926 44.300281,19.0492562 44.3106942,19.0409256 C44.3179835,19.0339835 44.3249256,19.029124 44.3318678,19.0218347 C44.3790744,18.9867769 44.4252397,18.9499835 44.4707107,18.9121488 C44.5172231,18.8760496 44.5633884,18.8371736 44.6088595,18.799686 C44.655719,18.7635868 44.7022314,18.7274876 44.7480496,18.6886116 C44.794562,18.6521653 44.8410744,18.6150248 44.8868926,18.5758017 C44.9327107,18.5400496 44.9802645,18.5032562 45.0260826,18.4654215 C45.0729421,18.4286281 45.1198017,18.3914876 45.1659669,18.3522645 C45.3811736,18.1846116 45.5887438,18.0041157 45.7869421,17.8055702 C48.539157,15.0720992 48.5547769,10.6246116 45.8195702,7.8727438 C43.0843636,5.12157025 38.6365289,5.10560331 35.8839669,7.84080992 C34.6760331,9.04145455 33.9953554,10.5718512 33.8419339,12.1439008 C33.8367273,12.1945785 33.8287438,12.2466446 33.8245785,12.2976694 C33.8186777,12.3490413 33.8113884,12.399719 33.8072231,12.4510909 C33.800281,12.5017686 33.7933388,12.5541818 33.7881322,12.6062479 C33.7818843,12.6565785 33.7752893,12.7079504 33.7707769,12.758281 C33.7641818,12.8117355 33.7572397,12.8631074 33.7520331,12.9123967 C33.7450909,12.9644628 33.738843,13.0165289 33.7343306,13.068595 C33.7266942,13.1189256 33.7204463,13.1713388 33.7155868,13.2230579 C33.7076033,13.2733884 33.7023967,13.3254545 33.6964959,13.3778678 C33.6888595,13.4292397 33.6836529,13.4816529 33.6777521,13.5323306 C33.6701157,13.5830083 33.664562,13.6350744 33.6590083,13.6871405 C33.6510248,13.7392066 33.6458182,13.7905785 33.6399174,13.8426446 C33.632281,13.8947107 33.6267273,13.9467769 33.6204793,13.9981488 C33.6079835,14.0814545 33.5982645,14.1651074 33.5899339,14.2491074 C33.5809091,14.3136694 33.5722314,14.3782314 33.5652893,14.4438347 C33.5586942,14.4945124 33.551405,14.544843 33.5461983,14.596562 C33.5389091,14.6472397 33.532314,14.696876 33.5274545,14.7489421 C33.5194711,14.8010083 33.5135702,14.8520331 33.5073223,14.9020165 C33.5000331,14.9533884 33.493438,15.0047603 33.4882314,15.0568264 C33.480595,15.107157 33.4746942,15.1592231 33.4680992,15.2099008 C33.4604628,15.2605785 33.454562,15.3126446 33.4476198,15.3640165 C33.4399835,15.4153884 33.4340826,15.465719 33.4274876,15.5170909 C33.4201983,15.5701983 33.4139504,15.6212231 33.4070083,15.6732893 C33.3993719,15.7239669 33.3927769,15.7760331 33.3865289,15.827405 C33.3785455,15.8794711 33.3726446,15.9304959 33.3653554,15.9815207 C33.3514711,16.066562 33.3400165,16.1519504 33.331686,16.2380331 C33.3240496,16.2880165 33.3167603,16.3397355 33.3108595,16.3904132 C33.3032231,16.4410909 33.2959339,16.4928099 33.2893388,16.5427934 C33.2813554,16.5948595 33.2740661,16.6455372 33.2681653,16.6962149 C33.2598347,16.7465455 33.2528926,16.7986116 33.2466446,16.848595 C33.238314,16.8999669 33.231719,16.951686 33.225124,17.003405 C33.2160992,17.0540826 33.2101983,17.1051074 33.2029091,17.1571736 C33.1938843,17.210281 33.1869421,17.265124 33.1796529,17.3185785 C33.1751405,17.349124 33.1723636,17.378281 33.1675041,17.4088264 C33.1668099,17.4181983 33.1654215,17.4279174 33.1640331,17.4379835 C33.1557025,17.4865785 33.1501488,17.5358678 33.1432066,17.5848099 C33.1345289,17.6327107 33.1293223,17.6830413 33.121686,17.7330248 C33.112314,17.7812727 33.1078017,17.8298678 33.0998182,17.8808926 C33.0866281,17.9475372 33.0800331,18.0138347 33.0710083,18.0811736 C33.0546942,18.1700331 33.0418512,18.260281 33.0300496,18.3501818 C33.0168595,18.4279339 33.0019339,18.5039504 32.9939504,18.5806612 C32.9873554,18.628562 32.9769421,18.6754215 32.9710413,18.7236694 C32.9637521,18.7715702 32.9550744,18.8187769 32.9481322,18.8659835 C32.9411901,18.9135372 32.9314711,18.9610909 32.9255702,19.0079504 C32.9172397,19.0565455 32.908562,19.103405 32.902314,19.1516529 C32.8929421,19.1999008 32.8853058,19.2467603 32.8787107,19.2953554 C32.8700331,19.3415207 32.8613554,19.3904628 32.8547603,19.4373223 C32.8450413,19.4859174 32.8384463,19.533124 32.8301157,19.5824132 C32.8210909,19.6306612 32.8138017,19.6775207 32.8054711,19.7264628 C32.7957521,19.7740165 32.7895041,19.820876 32.7808264,19.8694711 C32.7704132,19.917719 32.7641653,19.9656198 32.7554876,20.0149091 C32.740562,20.0812066 32.7315372,20.1475041 32.7204298,20.2141488 C32.7027273,20.2991901 32.685719,20.3835372 32.6735702,20.4699669 C32.663157,20.5258512 32.6492727,20.5803471 32.6416364,20.6362314 C32.6326116,20.683438 32.6218512,20.7292562 32.6156033,20.7754215 C32.6051901,20.8215868 32.595124,20.8680992 32.5874876,20.9156529 C32.5777686,20.9614711 32.5670083,21.009719 32.5600661,21.0565785 C32.5489587,21.1030909 32.5395868,21.1492562 32.5319504,21.1961157 C32.5201488,21.2426281 32.5114711,21.2905289 32.5031405,21.3370413 C32.4920331,21.3842479 32.4826612,21.4314545 32.4736364,21.4779669 C32.4621818,21.5251736 32.4535041,21.5723802 32.4437851,21.6195868 C32.4243471,21.6938678 32.4101157,21.7702314 32.3958843,21.8462479 C32.3792231,21.9135868 32.3618678,21.9791901 32.3500661,22.0482645 C32.3396529,22.0926942 32.3275041,22.1385124 32.3188264,22.1850248 C32.307719,22.2301488 32.2959174,22.2773554 32.2875868,22.3224793 C32.2747438,22.3682975 32.2643306,22.4141157 32.2542645,22.4592397 C32.2410744,22.5057521 32.2306612,22.5515702 32.2212893,22.5970413 C32.2080992,22.6435537 32.1969917,22.6911074 32.1865785,22.7365785 C32.1716529,22.7844793 32.1598512,22.8344628 32.1480496,22.8861818 C32.1240992,22.9604628 32.1039669,23.0378678 32.0869587,23.1159669 C32.0727273,23.1649091 32.0578017,23.2141983 32.0466942,23.2641818 C32.0328099,23.3072231 32.0192727,23.3530413 32.0095537,23.3974711 C31.9949752,23.4419008 31.9821322,23.487719 31.9703306,23.5321488 C31.955405,23.5779669 31.9422149,23.6223967 31.9300661,23.6671736 C31.9144463,23.7109091 31.9019504,23.7567273 31.8891074,23.8032397 C31.8672397,23.8653719 31.848843,23.9268099 31.8307934,23.9910248 C31.8096198,24.0482975 31.7898347,24.1073058 31.7735207,24.1677025 C31.758595,24.2110909 31.742281,24.2541322 31.7301322,24.2992562 C31.7127769,24.3419504 31.6978512,24.385686 31.6836198,24.4294215 C31.6676529,24.4741983 31.6520331,24.5165455 31.6374545,24.5616694 C31.6197521,24.6043636 31.6048264,24.6487934 31.5892066,24.6925289 C31.5610909,24.757438 31.5364463,24.8233884 31.5138843,24.8938512 C31.4940992,24.9403636 31.474314,24.986876 31.4569587,25.0354711 C31.4389091,25.0760826 31.4208595,25.119124 31.4041983,25.1625124 C31.3854545,25.2055537 31.3680992,25.2482479 31.3510909,25.290595 C31.3306116,25.3312066 31.312562,25.374595 31.2955537,25.4162479 C31.267438,25.4717851 31.2431405,25.529405 31.2195372,25.5866777 C31.1928099,25.6383967 31.1674711,25.6908099 31.144562,25.7446116 C31.1244298,25.7852231 31.1036033,25.8258347 31.0855537,25.8685289 C31.0640331,25.9091405 31.0439008,25.9497521 31.0244628,25.9907107 C31.0019008,26.0309752 30.9821157,26.0715868 30.9619835,26.1132397 C30.9321322,26.1639174 30.9047107,26.2170248 30.8786777,26.2715207 C30.8509091,26.3197686 30.8210579,26.3673223 30.7953719,26.4193884 C30.7932893,26.4242479 30.792595,26.4266777 30.7905124,26.4315372 C30.7738512,26.4593058 30.7547603,26.4846446 30.7398347,26.5141488 C30.7332397,26.5266446 30.7290744,26.5380992 30.7228264,26.550595 C30.7096364,26.5703802 30.6960992,26.5901653 30.6839504,26.6092562 C30.6731901,26.6297355 30.6638182,26.6498678 30.653405,26.6703471 C30.6457686,26.682843 30.6367438,26.6929091 30.6287603,26.7060992 C30.6117521,26.7324793 30.5982149,26.760595 30.582595,26.7876694 C30.5801653,26.792876 30.576,26.7966942 30.5735702,26.8005124 C30.543719,26.8449421 30.5180331,26.8900661 30.4923471,26.9351901 C30.4562479,26.9879504 30.4215372,27.0400165 30.3899504,27.0952066 C30.3639174,27.1340826 30.3378843,27.170876 30.314281,27.2114876 C30.2868595,27.2489752 30.2615207,27.2857686 30.2372231,27.3260331 C30.2091074,27.3621322 30.1837686,27.4010083 30.1587769,27.438843 C30.1261488,27.4780661 30.0987273,27.5214545 30.0702645,27.5631074 C30.0254876,27.6203802 29.9834876,27.6762645 29.9442645,27.7359669 C29.9158017,27.7720661 29.887686,27.8095537 29.8609587,27.8484298 C29.8321488,27.8834876 29.8033388,27.9188926 29.7769587,27.9567273 C29.7478017,27.9924793 29.7189917,28.0278843 29.6919174,28.0660661 C29.6613719,28.1021653 29.6339504,28.1382645 29.6061818,28.1743636 C29.5627934,28.2233058 29.5221818,28.2739835 29.4826116,28.3263967 C29.4430413,28.3715207 29.4020826,28.4190744 29.3652893,28.4666281 C29.3347438,28.5027273 29.3028099,28.5370909 29.274,28.5742314 C29.2431074,28.6099835 29.212562,28.6426116 29.1830579,28.6797521 C29.151124,28.7148099 29.1212727,28.7488264 29.0907273,28.7852727 C29.0587934,28.8182479 29.0282479,28.8536529 28.9983967,28.8887107 C28.9553554,28.9327934 28.9157851,28.9796529 28.8758678,29.0265124 C28.8251901,29.0778843 28.776595,29.1289091 28.7307769,29.1827107 C28.6984959,29.2184628 28.6644793,29.2510909 28.6332397,29.286843 C28.6009587,29.3212066 28.5676364,29.3541818 28.5370909,29.3899339 C28.5037686,29.4229091 28.4714876,29.4569256 28.4395537,29.4916364 C28.4062314,29.526 28.3732562,29.5586281 28.3427107,29.5919504 C28.308,29.6249256 28.2764132,29.6596364 28.243438,29.6929587 C28.2010909,29.732876 28.1636033,29.7741818 28.1243802,29.8154876 C28.0632893,29.8703306 28.0049752,29.9286446 27.9497851,29.9883471 C27.9133388,30.0240992 27.8755041,30.0581157 27.8404463,30.0966446 C27.8057355,30.130314 27.7706777,30.1615537 27.7383967,30.1969587 C27.7029917,30.2292397 27.6689752,30.2618678 27.6349587,30.2958843 C27.5999008,30.3302479 27.5655372,30.3607934 27.532562,30.3948099 C27.497157,30.427438 27.4634876,30.4600661 27.4298182,30.4926942 C27.3940661,30.5246281 27.3607438,30.5576033 27.3270744,30.5905785 C27.2913223,30.621124 27.258,30.6554876 27.2243306,30.6867273 C27.1729587,30.7301157 27.1267934,30.7773223 27.0792397,30.8227934 C27.0139835,30.8786777 26.9504628,30.9373388 26.8893719,30.9977355 C26.8498017,31.0338347 26.808843,31.0681983 26.7720496,31.1060331 C26.7359504,31.1393554 26.6984628,31.1699008 26.6640992,31.2046116 C26.628,31.2361983 26.5912066,31.2681322 26.5561488,31.3014545 C26.5197025,31.3333884 26.4832562,31.3653223 26.4478512,31.3972562 C26.411405,31.4298843 26.3756529,31.4621653 26.3399008,31.4944463 C26.3027603,31.5249917 26.2680496,31.5576198 26.2326446,31.5902479 C26.1955041,31.6207934 26.1604463,31.6544628 26.1246942,31.6860496 C26.0875537,31.716595 26.0531901,31.7502645 26.0170909,31.7801157 C25.9799504,31.8113554 25.946281,31.8450248 25.9098347,31.8752231 C25.8706116,31.907157 25.8359008,31.9411736 25.7987603,31.9744959 C25.729686,32.0289917 25.6647769,32.0886942 25.5995207,32.1483967 C25.5304463,32.2070579 25.461719,32.2622479 25.3968099,32.3243802 C25.3589752,32.3583967 25.3197521,32.3875537 25.2843471,32.4201818 C25.2465124,32.4535041 25.2083306,32.485438 25.1732727,32.5173719 C25.1350909,32.55 25.0972562,32.5801983 25.0604628,32.6138678 C25.0559504,32.617686 25.0503967,32.621157 25.0455372,32.6253223 C25.0431074,32.6263636 25.0410248,32.6298347 25.038595,32.630876 C25.0149917,32.6506612 24.9910413,32.6697521 24.9681322,32.6895372 C24.9264793,32.7252893 24.8848264,32.7579174 24.8452562,32.7950579 C24.8049917,32.8280331 24.7654215,32.8617025 24.7258512,32.8960661 C24.6855868,32.9297355 24.6463636,32.9627107 24.6081818,32.9963802 C24.5679174,33.0286612 24.5286942,33.0630248 24.489124,33.0973884 C23.4016364,33.9776529 22.7046446,35.3258182 22.7046446,36.8336529 C22.7046446,39.4914545 24.8591405,41.6452562 27.5176364,41.6452562 C29.9671736,41.6452562 31.9887273,39.8156529 32.2893223,37.4483802 C32.298,37.3914545 32.3066777,37.334876 32.3139669,37.2789917 C32.3229917,37.2224132 32.3313223,37.1672231 32.3389587,37.1106446 C32.3479835,37.0547603 32.3566612,36.9992231 32.3642975,36.9433388 C32.372281,36.8926612 32.3806116,36.8423306 32.3872066,36.7913058 C32.3941488,36.7461818 32.3990083,36.6989752 32.404562,36.6538512 C32.4149752,36.5910248 32.4250413,36.530281 32.4333719,36.4664132 C32.4444793,36.404281 32.4541983,36.3435372 32.462876,36.2796694 C32.4722479,36.2175372 32.4843967,36.1567934 32.491686,36.0929256 C32.5017521,36.0318347 32.5135537,35.9710909 32.5215372,35.9089587 C32.5312562,35.851686 32.543405,35.7947603 32.55,35.7367934 C32.5624959,35.6791736 32.5677025,35.619124 32.5781157,35.5608099 C32.5906116,35.4990248 32.5996364,35.4372397 32.6086612,35.3754545 C32.6218512,35.3115868 32.630876,35.2504959 32.6409421,35.1859339 C32.653438,35.1262314 32.6638512,35.0640992 32.6725289,35.0019669 C32.6850248,34.940876 32.6964793,34.8797851 32.7048099,34.8173058 C32.7173058,34.7555207 32.7294545,34.6958182 32.7381322,34.6350744 C32.7391736,34.6250083 32.740562,34.6170248 32.7426446,34.6097355 C32.7464628,34.5909917 32.7488926,34.5722479 32.7537521,34.5538512 C32.7589587,34.5201818 32.766595,34.4865124 32.7704132,34.4521488 C32.772843,34.4434711 32.7752727,34.4330579 32.7770083,34.4229917 C32.7901983,34.3612066 32.8002645,34.3001157 32.8106777,34.2376364 C32.824562,34.1779339 32.8360165,34.1161488 32.8453884,34.0560992 C32.8592727,33.9950083 32.8707273,33.9339174 32.8811405,33.8738678 C32.8950248,33.8134711 32.9078678,33.7537686 32.918281,33.6940661 C32.9227934,33.6728926 32.9276529,33.6520661 32.9314711,33.6295041 C32.9359835,33.609719 32.940843,33.5888926 32.9446612,33.5684132 C32.9477851,33.551405 32.9526446,33.532314 32.9550744,33.5146116 C32.960281,33.4927438 32.9647934,33.4701818 32.9686116,33.4476198 C32.9835372,33.3889587 32.9946446,33.3278678 33.0064463,33.2674711 C33.0210248,33.209157 33.0338678,33.1501488 33.0439339,33.0914876 C33.0581653,33.0310909 33.0723967,32.9745124 33.0835041,32.9148099 C33.0918347,32.8842645 33.0984298,32.853719 33.105719,32.8207438 C33.1220331,32.7648595 33.1324463,32.7037686 33.1452893,32.6454545 C33.1602149,32.5874876 33.1740992,32.5309091 33.1855537,32.472595 C33.2004793,32.4167107 33.215405,32.359438 33.2279008,32.3035537 C33.238314,32.2632893 33.2487273,32.2261488 33.2570579,32.1876198 C33.2730248,32.1317355 33.2862149,32.0758512 33.2980165,32.0185785 C33.3139835,31.9647769 33.3282149,31.9095868 33.3410579,31.8533554 C33.3573719,31.7999008 33.373686,31.7464463 33.3861818,31.6919504 C33.3990248,31.6492562 33.4104793,31.603438 33.4219339,31.5597025 C33.4389421,31.5072893 33.4524793,31.4534876 33.4670579,31.399686 C33.4830248,31.3493554 33.5000331,31.3000661 33.5135702,31.2476529 C33.5291901,31.199405 33.5441157,31.1504628 33.5566116,31.1022149 C33.5732727,31.050843 33.5885455,30.9998182 33.6024298,30.9501818 C33.6190909,30.9019339 33.6381818,30.8550744 33.651719,30.8047438 C33.6690744,30.7533719 33.6857355,30.7016529 33.7013554,30.650281 C33.7187107,30.6034215 33.7343306,30.5558678 33.7492562,30.5076198 C33.7697355,30.4572893 33.7895207,30.4052231 33.8072231,30.3521157 C33.8252727,30.3049091 33.8408926,30.2577025 33.8565124,30.2111901 C33.8742149,30.1678017 33.8926116,30.1233719 33.9078843,30.0775537 C33.9318347,30.0244463 33.9505785,29.968562 33.9717521,29.9116364 C33.9901488,29.8692893 34.0075041,29.826595 34.0238182,29.7828595 C34.049157,29.729405 34.0731074,29.6735207 34.0939339,29.6172893 C34.1133719,29.5756364 34.1303802,29.5336364 34.1463471,29.4916364 C34.1689091,29.4426942 34.1932066,29.3947934 34.2140331,29.345157 C34.236595,29.2986446 34.2567273,29.2503967 34.2765124,29.2042314 C34.2990744,29.1615372 34.3216364,29.1171074 34.3417686,29.0730248 C34.3681488,29.0240826 34.3920992,28.973405 34.4136198,28.9213388 C34.4351405,28.8824628 34.4556198,28.8456694 34.4750579,28.8050579 C34.5049091,28.7547273 34.5309421,28.7012727 34.556281,28.6481653 C34.5694711,28.6266446 34.5830083,28.6061653 34.5958512,28.5829091 C34.6045289,28.5669421 34.6100826,28.550281 34.6180661,28.5350083 C34.6493058,28.4843306 34.6784628,28.4322645 34.7051901,28.3788099 C34.7277521,28.3430579 34.7492727,28.3066116 34.7704463,28.2670413 C34.8034215,28.217405 34.8360496,28.1642975 34.8652066,28.1098017 C34.8874215,28.075438 34.9092893,28.0372562 34.9325455,27.9980331 C34.9644793,27.9536033 34.995719,27.9057025 35.0245289,27.855719 C35.0512562,27.8171901 35.0769421,27.7744959 35.1026281,27.7335372 C35.1328264,27.6929256 35.1633719,27.6498843 35.1897521,27.606843 C35.221686,27.564843 35.250843,27.5176364 35.2806942,27.4707769 C35.3081157,27.4353719 35.3355372,27.4006612 35.3601818,27.361438 C35.3969752,27.3145785 35.4309917,27.2649421 35.464314,27.2139174 C35.4934711,27.1778182 35.5208926,27.1410248 35.5472727,27.1024959 C35.5844132,27.0573719 35.6201653,27.0115537 35.6541818,26.964 C35.6840331,26.9268595 35.7121488,26.8876364 35.7399174,26.8491074 C35.7728926,26.8116198 35.8041322,26.7748264 35.8339835,26.7342149 C35.8704298,26.6915207 35.9037521,26.6477851 35.9370744,26.6026612 C35.971438,26.5651736 36.0026777,26.5269917 36.0339174,26.4863802 C36.0693223,26.4464628 36.1040331,26.4068926 36.1373554,26.3648926 C36.1724132,26.3263636 36.2050413,26.2850579 36.236281,26.2447934 C36.2723802,26.2055702 36.307438,26.1656529 36.3418017,26.124 C36.3754711,26.0879008 36.4084463,26.0535372 36.4403802,26.0157025 C36.4775207,25.9750909 36.5111901,25.9344793 36.5472893,25.8931736 C36.5868595,25.8532562 36.6243471,25.8129917 36.6604463,25.7702975 C36.6909917,25.7376694 36.7229256,25.707124 36.7513884,25.6744959 C36.7916529,25.6338843 36.8284463,25.5911901 36.8666281,25.5509256 C36.9068926,25.510314 36.9464628,25.468314 36.9842975,25.426314 C37.0252562,25.3850083 37.0682975,25.3440496 37.1068264,25.3013554 C37.1342479,25.2746281 37.1599339,25.2489421 37.186314,25.2201322 C37.2293554,25.1802149 37.2689256,25.1378678 37.308843,25.0951736 C37.3515372,25.054562 37.3945785,25.0115207 37.434843,24.9695207 C37.4778843,24.9282149 37.522314,24.8869091 37.5629256,24.8431736 C37.5844463,24.8216529 37.6059669,24.8032562 37.6271405,24.7803471 C37.6486612,24.7622975 37.6687934,24.7397355 37.6906612,24.7192562 C37.6920496,24.7178678 37.693438,24.7164793 37.6948264,24.7150909 C37.7163471,24.696 37.7347438,24.6744793 37.7559174,24.6543471 C37.8013884,24.6137355 37.8454711,24.5703471 37.8867769,24.5283471 C37.9322479,24.4873884 37.9770248,24.4446942 38.0193719,24.4009587 C38.0658843,24.3596529 38.1120496,24.3176529 38.1547438,24.2739174 C38.168281,24.2607273 38.1814711,24.2492727 38.1950083,24.2353884 C38.2140992,24.2194215 38.2311074,24.2020661 38.2484628,24.1860992 C38.262,24.1729091 38.2779669,24.1604132 38.2904628,24.1461818 C38.3029587,24.133686 38.3158017,24.1222314 38.3293388,24.1100826 C38.3758512,24.0687769 38.4199339,24.0260826 38.4643636,23.9837355 C38.5112231,23.943124 38.5573884,23.901124 38.6014711,23.8580826 C38.6486777,23.8167769 38.6958843,23.7740826 38.740314,23.7310413 C38.7871736,23.6904298 38.8350744,23.6470413 38.8798512,23.6053884 C38.8836694,23.600876 38.8864463,23.5977521 38.8902645,23.5953223 C38.8902645,23.5939339 38.8916529,23.5939339 38.8930413,23.5918512 C38.9343471,23.5533223 38.9805124,23.5161818 39.0207769,23.4759174 C39.0239008,23.4731405 39.0249421,23.4717521 39.0280661,23.4693223 C39.0752727,23.429405 39.1203967,23.3867107 39.1662149,23.3460992 C39.2148099,23.3054876 39.260281,23.2638347 39.3067934,23.2211405 C39.3550413,23.1812231 39.4015537,23.1385289 39.4470248,23.0961818 C39.4959669,23.0562645 39.5428264,23.0135702 39.5886446,22.9719174 C39.6386281,22.9313058 39.6865289,22.8893058 39.7326942,22.8473058 C39.7816364,22.806 39.8298843,22.7650413 39.8770909,22.7223471 C39.9204793,22.6838182 39.9680331,22.6480661 40.009686,22.6074545 C40.0492562,22.5755207 40.0860496,22.5394215 40.1235372,22.5071405 C40.1735207,22.4665289 40.2182975,22.4245289 40.2665455,22.3849587 C40.3147934,22.3450413 40.3613058,22.3023471 40.4095537,22.2620826 C40.458843,22.2225124 40.5050083,22.1808595 40.552562,22.1392066 C40.6021983,22.0992893 40.6504463,22.0579835 40.6969587,22.0170248 C40.7462479,21.9764132 40.7944959,21.9358017 40.8427438,21.8941488 C40.8909917,21.8535372 40.940281,21.8132727 40.9881818,21.7712727 C40.9892231,21.7698843 40.9906116,21.7684959 40.992,21.7674545 C41.0582975,21.7167769 41.1218182,21.6629752 41.1846446,21.6084793 C41.2294215,21.5727273 41.2738512,21.5355868 41.3161983,21.4980992 C41.3616694,21.462 41.4064463,21.4252066 41.4494876,21.387719 C41.4942645,21.3498843 41.5390413,21.313438 41.5827769,21.2759504 C41.628595,21.2381157 41.6740661,21.2009752 41.7174545,21.1624463 C41.7632727,21.1263471 41.809438,21.0892066 41.8528264,21.0506777 C41.8788595,21.0308926 41.903157,21.0093719 41.9271074,20.9875041 C41.9337025,20.983686 41.9402975,20.9802149 41.9448099,20.9763967 C41.9850744,20.9430744 42.022562,20.9083636 42.0621322,20.877124 C42.074281,20.8660165 42.0860826,20.8587273 42.0989256,20.8479669 C42.1322479,20.8212397 42.1641818,20.7920826 42.1964628,20.7657025 C42.2138182,20.7507769 42.2339504,20.7361983 42.2523471,20.7216198 C42.2790744,20.7000992 42.3047603,20.6758017 42.3321818,20.6539339 C42.3561322,20.6334545 42.3814711,20.6150579 42.4054215,20.5945785 C42.426595,20.5789587 42.445686,20.5584793 42.4682479,20.5421653 C42.4980992,20.5168264 42.5300331,20.4949587 42.5602314,20.4685785 C42.575157,20.4557355 42.5907769,20.4418512 42.604314,20.428314 C42.6414545,20.3984628 42.6775537,20.3720826 42.714,20.340843 C42.723719,20.3328595 42.7323967,20.3262645 42.7421157,20.3168926 C42.7841157,20.2821818 42.827157,20.2502479 42.8681157,20.2144959 C42.872281,20.2106777 42.8757521,20.2068595 42.8795702,20.2044298 C42.8958843,20.189157 42.914281,20.1759669 42.9309421,20.1617355 C42.9736364,20.1273719 43.0184132,20.0902314 43.0631901,20.0527438" id="Path" fill="url(#linearGradient-3)"></path>
                        <path d="M54.7624463,36.7340331 C54.722876,36.6833554 54.6819174,36.6354545 54.6395702,36.5858182 C54.6,36.536876 54.5600826,36.4875868 54.5170413,36.4410744 C54.4781653,36.3921322 54.438595,36.3424959 54.396595,36.2956364 C54.3667438,36.2567603 54.3344628,36.2192727 54.3025289,36.1824793 C54.2633058,36.1318017 54.2230413,36.0835537 54.18,36.0356529 C54.1414711,35.9867107 54.1008595,35.9388099 54.0595537,35.8916033 C54.021719,35.8419669 53.9835372,35.7944132 53.9422314,35.7475537 C53.905438,35.6982645 53.8676033,35.6503636 53.8280331,35.603157 C53.7919339,35.5566446 53.7572231,35.5115207 53.718,35.4677851 C53.6819008,35.4181488 53.6423306,35.370595 53.6020661,35.3223471 C53.5659669,35.2751405 53.5295207,35.228281 53.4899504,35.1828099 C53.4538512,35.1342149 53.4191405,35.0877025 53.3806116,35.0418843 C53.3445124,34.9932893 53.3087603,34.9453884 53.2691901,34.8981818 C53.2327438,34.8461157 53.1928264,34.795438 53.1518678,34.7482314 C53.1185455,34.6996364 53.0834876,34.6545124 53.0456529,34.6107769 C53.0144132,34.5649587 52.981438,34.5184463 52.9463802,34.4760992 C52.9078512,34.4195207 52.8686281,34.3650248 52.826281,34.3146942 C52.7919174,34.2650579 52.7568595,34.2181983 52.7190248,34.1723802 C52.6891736,34.126562 52.6572397,34.0842149 52.6249587,34.0415207 C52.5888595,33.9870248 52.5510248,33.9332231 52.5100661,33.8815041 C52.4760496,33.8308264 52.4413388,33.7798017 52.4024628,33.7315537 C52.3760826,33.6909421 52.3472727,33.6468595 52.3174215,33.6083306 C52.2816694,33.5479339 52.2424463,33.4920496 52.2004463,33.4389421 C52.1709421,33.3893058 52.1397025,33.3431405 52.1060331,33.2990579 C52.076876,33.2494215 52.0456364,33.2022149 52.0119669,33.1550083 C52.0074545,33.1484132 52.0046777,33.141124 52.0008595,33.1338347 C51.9710083,33.0814215 51.9380331,33.0335207 51.9043636,32.9870083 C51.8911736,32.9644463 51.8800661,32.940843 51.8651405,32.9193223 C51.8529917,32.9005785 51.8398017,32.8832231 51.8276529,32.8648264 C51.7978017,32.8106777 51.7651736,32.7565289 51.7308099,32.705157 C51.727686,32.7006446 51.7235207,32.6971736 51.7228264,32.6940496 C51.6992231,32.6506612 51.672843,32.6076198 51.6457686,32.566314 C51.6159174,32.5076529 51.5819008,32.4514215 51.5451074,32.3941488 C51.5221983,32.3476364 51.4954711,32.3032066 51.4680496,32.2594711 C51.4409752,32.1997686 51.4073058,32.1438843 51.3732893,32.0866116 C51.3510744,32.0383636 51.3253884,31.9915041 51.2976198,31.9449917 C51.2708926,31.8873719 51.2417355,31.8287107 51.2080661,31.7728264 C51.1858512,31.7238843 51.1615537,31.6766777 51.1348264,31.6294711 C51.1101818,31.5690744 51.0831074,31.5118017 51.0511736,31.4559174 C51.0303471,31.4045455 51.0070909,31.3556033 50.9803636,31.3080496 C50.958843,31.2507769 50.9348926,31.1941983 50.9053884,31.1397025 C50.8852562,31.0869421 50.8623471,31.034876 50.8370083,30.9855868 C50.8182645,30.9335207 50.797438,30.8824959 50.7734876,30.8335537 C50.7530083,30.7745455 50.7290579,30.7144959 50.7016364,30.6575702 C50.6849752,30.6068926 50.6651901,30.5544793 50.6426281,30.5062314 C50.6238843,30.4437521 50.6009752,30.3840496 50.5749421,30.3281653 C50.5600165,30.2750579 50.5402314,30.2250744 50.5204463,30.1761322 C50.5023967,30.1133058 50.4822645,30.052562 50.4565785,29.9921653 C50.4423471,29.9418347 50.4253388,29.8921983 50.4059008,29.8415207 C50.3895868,29.7790413 50.3701488,29.7162149 50.3468926,29.6558182 C50.3330083,29.6051405 50.3180826,29.5561983 50.3007273,29.506562 C50.2858017,29.4413058 50.2670579,29.3777851 50.244843,29.3153058 C50.2330413,29.2670579 50.2188099,29.2201983 50.2045785,29.1716033 C50.1910413,29.1039174 50.1716033,29.0407438 50.1500826,28.9761818 C50.1396694,28.9255041 50.1261322,28.8744793 50.1105124,28.8255372 C50.0973223,28.7613223 50.0823967,28.7026612 50.0633058,28.6422645 C50.0515041,28.5804793 50.0358843,28.5176529 50.0178347,28.4579504 C50.0088099,28.408314 49.9966612,28.3590248 49.983124,28.311124 C49.9713223,28.243438 49.9563967,28.1785289 49.9390413,28.1136198 C49.9272397,28.0553058 49.9143967,27.9956033 49.8987769,27.9390248 C49.889405,27.8845289 49.8786446,27.8310744 49.8640661,27.7790083 C49.854,27.7158347 49.8425455,27.6550909 49.8272727,27.5943471 C49.8258843,27.5884463 49.8258843,27.5835868 49.8258843,27.5790744 C49.8168595,27.5224959 49.8033223,27.4690413 49.789438,27.4148926 C49.7849256,27.3916364 49.7835372,27.3683802 49.779719,27.3437355 C49.7734711,27.3107603 49.763405,27.2802149 49.7561157,27.2472397 C49.7488264,27.2021157 49.7432727,27.1552562 49.734595,27.1101322 C49.7314711,27.0979835 49.7269587,27.0865289 49.7241818,27.0740331 C49.7161983,27.0129421 49.705438,26.951157 49.6912066,26.8918017 C49.6821818,26.8334876 49.6707273,26.7755207 49.6578843,26.7172066 C49.6488595,26.6568099 49.6387934,26.5981488 49.6259504,26.5384463 C49.6179669,26.4780496 49.6082479,26.4183471 49.595405,26.3576033 C49.5870744,26.2958182 49.579438,26.2347273 49.5659008,26.1739835 C49.5593058,26.1194876 49.5481983,26.065686 49.5377851,26.0115372 C49.5304959,25.9504463 49.5204298,25.8893554 49.5072397,25.8279174 C49.5002975,25.7668264 49.4912727,25.7057355 49.4780826,25.6432562 C49.4707934,25.5800826 49.4624628,25.5182975 49.450314,25.4565124 C49.4423306,25.3922975 49.4353884,25.3301653 49.4221983,25.264562 C49.4166446,25.2201322 49.4107438,25.1729256 49.401719,25.1284959 C49.3954711,25.0649752 49.385405,25.002843 49.3746446,24.9403636 C49.3673554,24.8761488 49.3576364,24.815405 49.3458347,24.7498017 C49.3395868,24.6869752 49.3309091,24.6241488 49.3201488,24.5606281 C49.3128595,24.495719 49.3045289,24.4328926 49.2927273,24.3686777 C49.2861322,24.3027273 49.2791901,24.2388595 49.2684298,24.1736033 C49.2611405,24.1083471 49.2538512,24.0448264 49.2423967,23.9785289 C49.2389256,23.9462479 49.2347603,23.9125785 49.2295537,23.8796033 C49.2226116,23.8153884 49.2135868,23.7511736 49.2035207,23.6876529 C49.1972727,23.623438 49.1892893,23.5592231 49.178876,23.4957025 C49.1726281,23.4304463 49.1639504,23.3662314 49.1535372,23.3013223 C49.1483306,23.2360661 49.1396529,23.1721983 49.1299339,23.1062479 C49.1229917,23.0420331 49.1157025,22.9774711 49.1052893,22.9111736 C49.0990413,22.8452231 49.0917521,22.780314 49.081686,22.7143636 C49.0747438,22.6494545 49.068843,22.5821157 49.059124,22.5168595 C49.0511405,22.4516033 49.0452397,22.3846116 49.0348264,22.3200496 C49.0337851,22.3040826 49.0310083,22.2877686 49.0296198,22.2718017 C49.0285785,22.2558347 49.0258017,22.2384793 49.0240661,22.2228595 C49.0188595,22.1878017 49.0167769,22.1555207 49.0105289,22.1197686 C49.0091405,22.1065785 49.007405,22.0930413 49.0053223,22.079157 C49.0008099,22.0142479 48.9910909,21.9503802 48.9834545,21.8854711 C48.9782479,21.8188264 48.968876,21.7556529 48.9601983,21.6903967 C48.9546446,21.6251405 48.9466612,21.5595372 48.9383306,21.4949752 C48.933124,21.4290248 48.9244463,21.3641157 48.9161157,21.2981653 C48.9109091,21.2332562 48.9025785,21.1686942 48.8942479,21.1030909 C48.8886942,21.0350579 48.881405,20.970843 48.8723802,20.9055868 C48.8664793,20.8382479 48.8584959,20.7740331 48.8515537,20.7087769 C48.8446116,20.6417851 48.8380165,20.5754876 48.8293388,20.5095372 C48.8220496,20.4421983 48.8171901,20.3779835 48.8074711,20.3099504 C48.800876,20.2446942 48.7949752,20.1780496 48.7866446,20.1120992 C48.7779669,20.0461488 48.7741488,19.9798512 48.7644298,19.9118182 C48.7574876,19.8476033 48.7533223,19.7830413 48.7442975,19.7181322 C48.7418678,19.6875868 48.7366612,19.6556529 48.7338843,19.6240661 C48.7300661,19.6015041 48.7300661,19.5744298 48.7262479,19.5504793 C48.7224298,19.4855702 48.7123636,19.423438 48.7061157,19.3585289 C48.7009091,19.2936198 48.6922314,19.2304463 48.6849421,19.1651901 C48.681124,19.0988926 48.671405,19.0343306 48.6641157,18.9687273 C48.6602975,18.9034711 48.6516198,18.8378678 48.6443306,18.7729587 C48.6398182,18.7070083 48.6318347,18.6427934 48.6248926,18.5775372 C48.619686,18.5216529 48.6137851,18.4657686 48.6085785,18.408843 C48.6023306,18.3276198 48.5950413,18.2488264 48.5860165,18.1686446 C48.5808099,18.105124 48.5735207,18.043686 48.5669256,17.9808595 C48.5606777,17.9197686 48.5540826,17.8576364 48.5471405,17.7941157 C48.5412397,17.7302479 48.5353388,17.669157 48.5290909,17.6073719 C48.5238843,17.5435041 48.5172893,17.4824132 48.5093058,17.4175041 C48.5040992,17.3543306 48.4985455,17.2921983 48.4909091,17.2279835 C48.4857025,17.1661983 48.4794545,17.1030248 48.4721653,17.0398512 C48.4666116,16.974595 48.4610579,16.913157 48.4537686,16.8499835 C48.4502975,16.8079835 48.445438,16.7649421 48.4412727,16.7222479 C48.4360661,16.6594215 48.4287769,16.5972893 48.4225289,16.535157 C48.4180165,16.4712893 48.4093388,16.4095041 48.4037851,16.3470248 C48.3982314,16.2838512 48.3912893,16.2227603 48.3850413,16.1588926 C48.3798347,16.0967603 48.3728926,16.0325455 48.3669917,15.969719 C48.3617851,15.9065455 48.3551901,15.8454545 48.3479008,15.7815868 C48.3426942,15.7173719 48.3371405,15.6566281 48.3295041,15.5910248 C48.3236033,15.5292397 48.3183967,15.4653719 48.3114545,15.4028926 C48.3062479,15.3379835 48.3003471,15.2761983 48.2930579,15.2123306 C48.2875041,15.1488099 48.2822975,15.0859835 48.2746612,15.0217686 C48.2694545,14.958595 48.2642479,14.8954215 48.2569587,14.8298182 C48.251405,14.7666446 48.2455041,14.7027769 48.2382149,14.6406446 C48.2326612,14.5760826 48.2278017,14.5122149 48.2205124,14.4486942 C48.2153058,14.3855207 48.209405,14.3230413 48.2028099,14.2577851 C48.1958678,14.1935702 48.1913554,14.1297025 48.1840661,14.0661818 C48.1823306,14.0394545 48.1799008,14.0120331 48.1760826,13.986 C48.1715702,13.9217851 48.1653223,13.8603471 48.1594215,13.7961322 C48.1538678,13.7326116 48.1469256,13.6711736 48.1406777,13.6076529 C48.1361653,13.5437851 48.1295702,13.482 48.1233223,13.4195207 C48.1181157,13.3542645 48.1115207,13.2910909 48.1056198,13.2275702 C48.1000661,13.1640496 48.0941653,13.1019174 48.0872231,13.0383967 C48.0827107,12.974876 48.0764628,12.9113554 48.0691736,12.8471405 C48.0650083,12.784314 48.0580661,12.7221818 48.0521653,12.6579669 C48.0466116,12.5937521 48.0410579,12.5302314 48.0341157,12.4660165 C48.0292562,12.4038843 48.0237025,12.3396694 48.0167603,12.2754545 C48.0115537,12.2119339 48.0049587,12.1491074 47.9987107,12.0855868 C47.8681983,10.4656364 47.1847438,8.88213223 45.9455702,7.64365289 C43.1749587,4.87373554 38.682,4.87373554 35.9117355,7.64365289 C33.1938843,10.3590744 33.1428595,14.7295041 35.7544959,17.5084463 C35.7940661,17.5542645 35.8353719,17.5969587 35.8766777,17.6420826 C35.9162479,17.6858182 35.9579008,17.7302479 35.9992066,17.7736364 C36.0387769,17.8166777 36.0804298,17.8611074 36.1217355,17.9051901 C36.1613058,17.9489256 36.2029587,17.9926612 36.2435702,18.0367438 C36.2838347,18.0811736 36.3261818,18.1249091 36.3664463,18.1686446 C36.4358678,18.2488264 36.5087603,18.324843 36.582,18.402595 C36.627124,18.4504959 36.6708595,18.4997851 36.7163306,18.5473388 C36.7180661,18.5501157 36.7204959,18.5515041 36.7218843,18.5525455 C36.7579835,18.5924628 36.7937355,18.6323802 36.8315702,18.6722975 C36.8353884,18.6775041 36.8388595,18.6795868 36.8419835,18.6823636 C36.8777355,18.7215868 36.9100165,18.7583802 36.9464628,18.796562 C36.9527107,18.8024628 36.9575702,18.8080165 36.9620826,18.8132231 C36.995405,18.8489752 37.0273388,18.8854215 37.0610083,18.9222149 C37.0682975,18.9295041 37.0755868,18.9360992 37.0818347,18.9433884 C37.1141157,18.9770579 37.1439669,19.0110744 37.176595,19.0468264 C37.1845785,19.0555041 37.1946446,19.064876 37.2026281,19.0735537 C37.2317851,19.1054876 37.2609421,19.1384628 37.2914876,19.1710909 C37.3019008,19.1818512 37.3126612,19.1915702 37.3230744,19.2044132 C37.3518843,19.2342645 37.3779174,19.2655041 37.405686,19.2960496 C37.4192231,19.3099339 37.4310248,19.3213884 37.4438678,19.3352727 C37.470595,19.3630413 37.4945455,19.3925455 37.5216198,19.4217025 C37.535157,19.4355868 37.5507769,19.4508595 37.5650083,19.4647438 C37.5886116,19.4914711 37.6111736,19.5181983 37.635124,19.5445785 C37.6521322,19.5626281 37.6701818,19.5779008 37.6858017,19.5952562 C37.7073223,19.6199008 37.7274545,19.6448926 37.7510579,19.6684959 C37.7687603,19.688281 37.7885455,19.7070248 37.8069421,19.7275041 C37.8263802,19.7479835 37.8465124,19.7726281 37.8662975,19.7934545 C37.887124,19.8160165 37.9069091,19.8358017 37.9280826,19.8583636 C37.9457851,19.8774545 37.9624463,19.8989752 37.9815372,19.9194545 C38.0027107,19.943405 38.026314,19.9666612 38.048876,19.9899174 C38.0644959,20.0072727 38.0801157,20.0260165 38.0950413,20.043719 C38.1189917,20.0697521 38.1453719,20.0943967 38.1693223,20.1214711 C38.1832066,20.1360496 38.1967438,20.1537521 38.210281,20.1686777 C38.236314,20.1978347 38.2637355,20.2242149 38.2897686,20.253719 C38.3015702,20.2655207 38.3126777,20.2800992 38.3248264,20.2943306 C38.3539835,20.3252231 38.3831405,20.3533388 38.4126446,20.3845785 C38.4213223,20.3963802 38.4303471,20.4078347 38.4407603,20.4189421 C38.4706116,20.454 38.5021983,20.4848926 38.533438,20.5171736 C38.5414215,20.5255041 38.5469752,20.5345289 38.5549587,20.5432066 C38.5872397,20.58 38.6219504,20.6136694 38.6542314,20.6501157 C38.6604793,20.6553223 38.6646446,20.6626116 38.6701983,20.6674711 C38.704562,20.7073884 38.7396198,20.7441818 38.7760661,20.7816694 C38.7795372,20.7854876 38.782314,20.7882645 38.7843967,20.7924298 C38.8215372,20.8347769 38.8590248,20.8746942 38.8975537,20.9149587 C38.8975537,20.9163471 38.8989421,20.9163471 38.8992893,20.9163471 C38.9614215,20.9881983 39.024595,21.0586612 39.0905455,21.1256529 C39.1297686,21.1700826 39.1689917,21.2138182 39.2106446,21.2565124 C39.2502149,21.3002479 39.289438,21.3446777 39.3303967,21.3852893 C39.3699669,21.4304132 39.4091901,21.474843 39.450843,21.516843 C39.4904132,21.5605785 39.5303306,21.6070909 39.5712893,21.6490909 C39.6108595,21.6921322 39.6504298,21.736562 39.6910413,21.7792562 C39.7313058,21.8243802 39.7712231,21.8688099 39.812876,21.9108099 C39.8524463,21.9566281 39.8923636,22.0010579 39.9333223,22.0454876 C40.0069091,22.1267107 40.0825785,22.2096694 40.1599835,22.2867273 C40.1999008,22.3294215 40.2356529,22.3752397 40.2766116,22.4158512 C40.3151405,22.4568099 40.3515868,22.5015868 40.391157,22.5408099 C40.4293388,22.5814215 40.4661322,22.6272397 40.5057025,22.6664628 C40.5438843,22.7088099 40.5789421,22.7535868 40.6199008,22.7928099 C40.6584298,22.8341157 40.694876,22.8785455 40.7344463,22.919157 C40.7729752,22.9621983 40.8094215,23.0048926 40.8489917,23.0458512 C40.8864793,23.0885455 40.9239669,23.1315868 40.9635372,23.1721983 C41.0024132,23.2148926 41.0381653,23.2593223 41.0777355,23.2999339 C41.1162645,23.3419339 41.1540992,23.3849752 41.1929752,23.4255868 C41.2304628,23.4693223 41.2682975,23.5127107 41.3082149,23.5540165 C41.3457025,23.5956694 41.3831901,23.6390579 41.4227603,23.681405 C41.460595,23.7240992 41.4987769,23.7664463 41.5383471,23.8091405 C41.5751405,23.8521818 41.6147107,23.8934876 41.6528926,23.9361818 C41.6910744,23.9799174 41.7289091,24.0212231 41.7684793,24.0635702 C41.8056198,24.1086942 41.844843,24.1506942 41.8844132,24.1926942 C41.9212066,24.2357355 41.9604298,24.2798182 41.9986116,24.3221653 C42.0357521,24.3655537 42.0749752,24.408595 42.1145455,24.450595 C42.1513388,24.495719 42.190562,24.5366777 42.2301322,24.5793719 C42.2665785,24.6244959 42.3064959,24.6664959 42.345719,24.7081488 C42.3963967,24.7740992 42.4540165,24.8338017 42.5095537,24.8941983 C42.5727273,24.9702149 42.6362479,25.0462314 42.7046281,25.1149587 C42.7417686,25.158 42.7771736,25.2024298 42.8163967,25.242 C42.8535372,25.2843471 42.8889421,25.3287769 42.9285124,25.3700826 C42.9646116,25.4120826 43.0007107,25.4565124 43.0388926,25.4957355 C43.0760331,25.5377355 43.1121322,25.5821653 43.1506612,25.6227769 C43.1874545,25.6672066 43.2242479,25.7099008 43.263124,25.7508595 C43.2992231,25.7942479 43.3360165,25.8386777 43.3748926,25.8799835 C43.4109917,25.923719 43.4477851,25.9671074 43.4873554,26.0087603 C43.5234545,26.0531901 43.560595,26.0958843 43.599124,26.1385785 C43.6352231,26.1830083 43.6727107,26.2260496 43.7108926,26.2680496 C43.7466446,26.3131736 43.7844793,26.3544793 43.8226612,26.3989091 C43.8584132,26.4440331 43.8976364,26.4863802 43.9358182,26.5290744 C43.9799008,26.5880826 44.028843,26.640843 44.0770909,26.6949917 C44.1288099,26.7616364 44.1815702,26.8244628 44.2381488,26.8848595 C44.2742479,26.9289421 44.3079174,26.9733719 44.3471405,27.0139835 C44.3818512,27.0570248 44.4169091,27.1014545 44.455438,27.1427603 C44.4915372,27.1878843 44.526595,27.2312727 44.5647769,27.2729256 C44.5991405,27.3187438 44.6348926,27.3621322 44.6730744,27.4037851 C44.7084793,27.4489091 44.7445785,27.493686 44.7824132,27.5353388 C44.8167769,27.5804628 44.8532231,27.6252397 44.8907107,27.6668926 C44.9250744,27.713405 44.9615207,27.7585289 44.9993554,27.8012231 C45.0396198,27.8550248 45.0816198,27.9060496 45.1246612,27.9560331 C45.1687438,28.0164298 45.2166446,28.0740496 45.2648926,28.1299339 C45.2996033,28.1750579 45.3329256,28.220876 45.3711074,28.262876 C45.405124,28.308 45.4391405,28.3517355 45.4766281,28.3944298 C45.5102975,28.4409421 45.5453554,28.4867603 45.582843,28.5291074 C45.6158182,28.5756198 45.650876,28.621438 45.6880165,28.6637851 C45.7213388,28.711686 45.7557025,28.7554215 45.7921488,28.8012397 C45.8324132,28.8602479 45.876843,28.9168264 45.9237025,28.9713223 C45.957719,29.0213058 45.9938182,29.070595 46.0323471,29.115719 C46.0646281,29.1625785 46.0982975,29.2083967 46.1340496,29.2517851 C46.1670248,29.3000331 46.2003471,29.3458512 46.2350579,29.3899339 C46.267686,29.4385289 46.3013554,29.484 46.3364132,29.529124 C46.3673058,29.5766777 46.4016694,29.6231901 46.4367273,29.6679669 C46.4735207,29.7276694 46.513438,29.7842479 46.5568264,29.839438 C46.5873719,29.8859504 46.6203471,29.933157 46.6540165,29.9779339 C46.684562,30.026876 46.7171901,30.0730413 46.7508595,30.1199008 C46.7800165,30.1684959 46.8126446,30.2157025 46.846314,30.2629091 C46.8796364,30.320876 46.9146942,30.3764132 46.9546116,30.4281322 C46.9837686,30.4784628 47.014314,30.5253223 47.0483306,30.5725289 C47.0767934,30.6214711 47.1073388,30.6693719 47.140314,30.7158843 C47.1673884,30.7679504 47.1979339,30.8161983 47.230562,30.8647934 C47.2604132,30.9199835 47.2926942,30.9758678 47.3284463,31.0286281 C47.3544793,31.0789587 47.3839835,31.1282479 47.4152231,31.1747603 C47.4419504,31.2268264 47.469719,31.2764628 47.5009587,31.3247107 C47.5256033,31.3760826 47.553719,31.4271074 47.5842645,31.4750083 C47.6106446,31.5326281 47.6401488,31.587124 47.6734711,31.6402314 C47.6974215,31.6919504 47.7238017,31.7419339 47.7533058,31.7922645 C47.7762149,31.8439835 47.8015537,31.8957025 47.8293223,31.9442975 C47.8522314,31.9963636 47.8765289,32.0505124 47.9042975,32.0987603 C47.9275537,32.1563802 47.9549752,32.210876 47.9841322,32.2667603 C48.0042645,32.3188264 48.028562,32.3705455 48.0549421,32.4226116 C48.0754215,32.4743306 48.0986777,32.5281322 48.1233223,32.5784628 C48.144843,32.6357355 48.1680992,32.6943967 48.1951736,32.7499339 C48.2139174,32.8033884 48.235438,32.856843 48.2604298,32.9075207 C48.2784793,32.9620165 48.2996529,33.0158182 48.3246446,33.0664959 C48.3409587,33.1209917 48.3607438,33.1754876 48.3836529,33.2279008 C48.4017025,33.2862149 48.4239174,33.3459174 48.4482149,33.4045785 C48.4645289,33.4590744 48.484314,33.5118347 48.5054876,33.5659835 C48.5204132,33.6204793 48.5388099,33.674281 48.558595,33.7273884 C48.5749091,33.7881322 48.5933058,33.8492231 48.6158678,33.9078843 C48.629405,33.9637686 48.6484959,34.0196529 48.6689752,34.0741488 C48.6821653,34.1286446 48.6988264,34.1831405 48.7175702,34.2379835 C48.7304132,34.2924793 48.7453388,34.3473223 48.7637355,34.4021653 C48.7772727,34.4590909 48.7921983,34.5170579 48.810595,34.5729421 C48.8230909,34.6364628 48.8404463,34.6979008 48.8609256,34.7589917 C48.8723802,34.8155702 48.8859174,34.8693719 48.9039669,34.9259504 C48.9140331,34.9797521 48.926876,35.0342479 48.9442314,35.0911736 C48.9542975,35.1449752 48.9664463,35.2001653 48.9820661,35.2550083 C48.9952562,35.3254711 49.0098347,35.3928099 49.0292727,35.4629256 C49.0410744,35.5181157 49.0518347,35.5746942 49.0674545,35.6298843 C49.0778678,35.6864628 49.0889752,35.7423471 49.104595,35.7961488 C49.1146612,35.8534215 49.1247273,35.9086116 49.1396529,35.9631074 C49.1479835,36.0189917 49.159438,36.0734876 49.1729752,36.1293719 C49.1813058,36.1838678 49.1927603,36.2397521 49.2056033,36.294595 C49.2160165,36.3695702 49.2295537,36.4452397 49.2472562,36.5212562 C49.2482975,36.5226446 49.2489917,36.5243802 49.249686,36.527157 C49.2569752,36.5729752 49.262876,36.6187934 49.2736364,36.6653058 C49.2750248,36.6767603 49.278843,36.6857851 49.2816198,36.6958512 C49.2868264,36.7340331 49.2909917,36.7722149 49.2989752,36.811438 C49.3017521,36.8294876 49.3083471,36.8475372 49.3121653,36.8635041 C49.3159835,36.895438 49.3187603,36.9259835 49.3236198,36.9565289 C49.3295207,36.9818678 49.3368099,37.0072066 49.3413223,37.0328926 C49.3451405,37.0544132 49.3451405,37.0773223 49.3496529,37.1012727 C49.3555537,37.1342479 49.3635372,37.1672231 49.3704793,37.1984628 C49.372562,37.2140826 49.372562,37.2300496 49.3753388,37.2460165 C49.3812397,37.2866281 49.3902645,37.325157 49.398595,37.3668099 C49.398595,37.3744463 49.398595,37.3820826 49.4003306,37.389719 C49.4065785,37.4379669 49.4162975,37.4848264 49.4256694,37.531686 C49.4256694,37.5330744 49.4256694,37.5344628 49.4256694,37.5358512 C49.4346942,37.6233223 49.4492727,37.7083636 49.4666281,37.7923636 C49.4746116,37.8506777 49.4815537,37.9072562 49.4933554,37.9631405 C49.5009917,38.0207603 49.5089752,38.0759504 49.5193884,38.1325289 C49.527719,38.1898017 49.5350083,38.245686 49.5450744,38.3015702 C49.5520165,38.3584959 49.5589587,38.4157686 49.5704132,38.4709587 C49.5756198,38.5275372 49.5842975,38.5834215 49.5947107,38.6386116 C49.5999174,38.6955372 49.6082479,38.7507273 49.6169256,38.8066116 C49.6238678,38.8624959 49.6321983,38.9183802 49.6401818,38.9742645 C49.7814545,40.4730744 51.0414545,41.6466446 52.5784463,41.6466446 C54.2084628,41.6466446 55.5292066,40.326595 55.5292066,38.6951901 C55.5215702,37.9457851 55.2327769,37.2567769 54.7624463,36.7340331" id="Path" fill="url(#linearGradient-4)"></path>
                    </g>
                </g>
            </g>
        </g>
    </g>
</svg>