<svg width="24" height="24" viewBox="0 0 24 24" fill="none" xmlns="http://www.w3.org/2000/svg">
<path d="M18.2676 13.9141C18.5858 13.9141 18.8439 13.6561 18.8439 13.3382C18.8439 13.0202 18.5858 12.7622 18.2676 12.7622H5.7322C5.41429 12.7622 5.15625 13.0199 5.15625 13.3382V16.9682C5.15625 17.2865 5.41398 17.5445 5.7322 17.5445H18.2679C18.5858 17.5445 18.8439 17.2862 18.8442 16.9682V13.5457C18.8442 13.2278 18.5862 12.9698 18.2679 12.9698C17.9497 12.9698 17.6919 13.2275 17.6919 13.5457V16.3923H6.30844V13.9141H18.2676Z" fill="black"/>
<path d="M3.57595 8.47238C3.89418 8.47238 4.15191 8.21465 4.15191 7.89642V5.65191H6.39702C6.71493 5.65191 6.97297 5.3939 6.97297 5.07595C6.97297 4.75801 6.71525 4.5 6.39702 4.5H3.57595C3.25801 4.50004 3 4.75804 3 5.07595V7.89639C3 8.21465 3.25801 8.47238 3.57595 8.47238Z" fill="black"/>
<path d="M20.424 15.8342C20.1058 15.8342 19.8481 16.092 19.8481 16.4102V18.6544H17.6036C17.2854 18.6544 17.0273 18.9121 17.0273 19.2303C17.0273 19.5486 17.2854 19.8066 17.6036 19.8066H20.424C20.742 19.8066 21 19.5483 21.0003 19.2303V16.4102C21.0003 16.092 20.7423 15.8342 20.424 15.8342Z" fill="black"/>
<path d="M20.424 4.5H17.6036C17.2854 4.5 17.0273 4.75801 17.0273 5.07595C17.0273 5.3939 17.2854 5.65191 17.6036 5.65191H19.8481V7.89642C19.8481 8.21433 20.1059 8.47238 20.4241 8.47238C20.742 8.47238 21 8.21465 21.0004 7.89642V5.07592C21.0003 4.75801 20.7423 4.5 20.424 4.5Z" fill="black"/>
<path d="M6.39702 18.6544H4.15187V16.4102C4.15187 16.092 3.89387 15.8342 3.57592 15.8342C3.25801 15.8342 3 16.092 3 16.4102V19.2303C3 19.5482 3.25801 19.8066 3.57595 19.8066H6.39702C6.71525 19.8066 6.97297 19.5486 6.97297 19.2303C6.97297 18.9121 6.71525 18.6544 6.39702 18.6544Z" fill="black"/>
<rect x="6" y="13.5" width="12" height="3" fill="#FB6E00"/>
</svg>
