<svg width="12" height="12" viewBox="0 0 12 12" fill="none" xmlns="http://www.w3.org/2000/svg">
<g clip-path="url(#clip0_2218_51773)">
<rect width="12" height="12" rx="1" fill="#231F20"/>
<path fill-rule="evenodd" clip-rule="evenodd" d="M4.49448 7.22839C4.37331 7.24266 4.25001 7.25 4.125 7.25C2.39911 7.25 1 5.85089 1 4.125C1 2.39911 2.39911 1 4.125 1C5.85089 1 7.25 2.39911 7.25 4.125C7.25 4.46657 7.1952 4.79534 7.09391 5.103L7.09412 5.10309C7.02832 5.30312 6.94287 5.49422 6.84005 5.67412L6.83971 5.67397C6.45985 6.33828 5.84318 6.84975 5.10472 7.09334L5.10487 7.09404C4.9093 7.15856 4.70517 7.2043 4.49465 7.22911L4.49448 7.22839ZM9.75 7.875C10.4404 7.875 11 7.31536 11 6.625C11 5.93464 10.4404 5.375 9.75 5.375C9.35321 5.375 8.9996 5.55988 8.77061 5.8482L7.38108 5.23063C7.31352 5.4298 7.2282 5.62077 7.127 5.80165L8.51683 6.41936C8.50576 6.48626 8.5 6.55496 8.5 6.625C8.5 7.31536 9.05964 7.875 9.75 7.875ZM5.375 11C6.06536 11 6.625 10.4404 6.625 9.75C6.625 9.07386 6.08816 8.5231 5.41747 8.50071L5.17299 7.40057C4.97667 7.46334 4.77267 7.50895 4.56276 7.53563L4.8073 8.63605C4.4023 8.84286 4.125 9.26405 4.125 9.75C4.125 10.4404 4.68464 11 5.375 11Z" fill="white"/>
</g>
<defs>
<clipPath id="clip0_2218_51773">
<rect width="12" height="12" rx="1" fill="white"/>
</clipPath>
</defs>
</svg>
