<svg width="77" height="77" viewBox="0 0 77 77" fill="none" xmlns="http://www.w3.org/2000/svg">
<path fill-rule="evenodd" clip-rule="evenodd" d="M31.5324 40.599C29.0391 40.9482 27.0442 42.1535 26.0179 43.1017C25.4094 43.6639 24.4604 43.6263 23.8982 43.0178C23.3361 42.4093 23.3736 41.4603 23.9821 40.8982C25.4062 39.5825 27.9519 38.0712 31.1163 37.628C34.3385 37.1767 38.1378 37.8451 41.9264 40.8202C42.578 41.3318 42.6914 42.2748 42.1797 42.9263C41.6681 43.5779 40.7251 43.6913 40.0736 43.1797C36.9433 40.7215 33.9678 40.2579 31.5324 40.599Z" fill="#E6E6E6"/>
<mask id="mask0_3121_64777" style="mask-type:alpha" maskUnits="userSpaceOnUse" x="0" y="0" width="77" height="77">
<path d="M53.2957 32.5792C53.2957 26.8884 51.2789 22.0265 47.2453 17.9933C43.2117 13.96 38.3217 11.9158 32.5752 11.8605C26.8287 11.8053 21.9387 13.8495 17.905 17.9933C13.8714 22.137 11.8547 26.9989 11.8547 32.5792C11.8547 38.1595 13.8714 43.049 17.905 47.248C21.9387 51.447 26.8287 53.4636 32.5752 53.2979C38.3217 53.1321 43.2117 51.1155 47.2453 47.248C51.2789 43.3805 53.2957 38.491 53.2957 32.5792ZM77 71.1159C77 72.7182 76.3922 74.0994 75.1766 75.2596C73.961 76.4199 72.552 77 70.9496 77C69.3472 77 67.9935 76.4199 66.8884 75.2596L51.0579 59.4306C45.5324 63.2428 39.3716 65.1489 32.5752 65.1489C28.1548 65.1489 23.9278 64.2926 19.8942 62.5798C15.8606 60.8671 12.4072 58.5466 9.53395 55.6183C6.66069 52.6901 4.34002 49.237 2.57186 45.259C0.803695 41.281 -0.0527434 37.0545 0.00251163 32.5792C0.0577666 28.1039 0.914205 23.905 2.57186 19.9823C4.22951 16.0595 6.55018 12.5788 9.53395 9.54005C12.5177 6.5013 15.9711 4.18083 19.8942 2.57858C23.8173 0.976333 28.0443 0.119972 32.5752 0.00947156C37.1061 -0.101028 41.333 0.755333 45.2561 2.57858C49.1793 4.40183 52.6326 6.7223 55.6164 9.54005C58.6002 12.3578 60.9209 15.8385 62.5785 19.9823C64.2362 24.126 65.0926 28.3249 65.1479 32.5792C65.1479 39.375 63.2416 45.5352 59.429 51.0602L75.2595 66.8893C76.4198 68.0495 77 69.4584 77 71.1159Z" fill="white"/>
<path fill-rule="evenodd" clip-rule="evenodd" d="M69.0356 73.1644L69.0608 73.1909C69.5997 73.7566 70.1682 74.0003 70.9496 74.0003C71.7399 74.0003 72.4176 73.7461 73.1052 73.0898C73.7602 72.4646 74 71.8546 74 71.1159C74 70.2449 73.7295 69.6017 73.1382 69.0104L55.5401 51.4139L56.9597 49.3566C60.4185 44.3444 62.1442 38.7862 62.1479 32.5988C62.0953 28.7374 61.3181 24.9085 59.7931 21.0963C58.2827 17.3207 56.197 14.2145 53.5565 11.7209C50.8196 9.13626 47.6383 6.99359 43.9917 5.29884C40.5071 3.6794 36.7405 2.90851 32.6483 3.00831C28.4562 3.11055 24.5915 3.90045 21.0286 5.3556C17.4853 6.80271 14.3739 8.89264 11.6746 11.6416C8.95539 14.411 6.84599 17.5748 5.33529 21.1498C3.83655 24.6965 3.05299 28.5095 3.00228 32.6162C2.95221 36.6718 3.72569 40.4689 5.31329 44.0407C6.94479 47.7113 9.06831 50.8606 11.6754 53.5175C14.2538 56.1453 17.3714 58.2496 21.0668 59.8187C24.7263 61.3726 28.5541 62.1492 32.5752 62.1492C38.771 62.1492 44.3362 60.4237 49.3541 56.9616L51.4116 55.542L69.0356 73.1644ZM59.429 51.0602C63.2416 45.5352 65.1479 39.375 65.1479 32.5792C65.0926 28.3249 64.2362 24.126 62.5785 19.9823C60.9209 15.8385 58.6002 12.3578 55.6164 9.54005C52.6326 6.7223 49.1793 4.40183 45.2561 2.57858C41.333 0.755333 37.1061 -0.101028 32.5752 0.00947156C28.0443 0.119972 23.8173 0.976333 19.8942 2.57858C15.9711 4.18083 12.5177 6.5013 9.53395 9.54005C6.55018 12.5788 4.22951 16.0595 2.57186 19.9823C0.914205 23.905 0.0577666 28.1039 0.00251163 32.5792C-0.0527434 37.0545 0.803695 41.281 2.57186 45.259C4.34002 49.237 6.66069 52.6901 9.53395 55.6183C12.4072 58.5466 15.8606 60.8671 19.8942 62.5798C23.9278 64.2926 28.1548 65.1489 32.5752 65.1489C39.3716 65.1489 45.5324 63.2428 51.0579 59.4306L66.8884 75.2596C67.9935 76.4199 69.3472 77 70.9496 77C72.552 77 73.961 76.4199 75.1766 75.2596C76.3922 74.0994 77 72.7182 77 71.1159C77 69.4584 76.4198 68.0495 75.2595 66.8893L59.429 51.0602ZM49.3666 15.8721C53.9614 20.4665 56.2957 26.0908 56.2957 32.5792C56.2957 39.2554 53.9825 44.9443 49.3217 49.4132C44.7343 53.8116 39.1283 56.1098 32.6617 56.2963C26.0565 56.4869 20.353 54.1266 15.7415 49.326C11.1969 44.5952 8.85465 38.9706 8.85465 32.5792C8.85465 26.1865 11.1985 20.5822 15.7553 15.901C20.3565 11.1741 26.032 8.79777 32.604 8.86095C39.1296 8.92369 44.7729 11.2788 49.3666 15.8721ZM47.2453 17.9933C51.2789 22.0265 53.2957 26.8884 53.2957 32.5792C53.2957 38.491 51.2789 43.3805 47.2453 47.248C43.2117 51.1155 38.3217 53.1321 32.5752 53.2979C26.8287 53.4636 21.9387 51.447 17.905 47.248C13.8714 43.049 11.8547 38.1595 11.8547 32.5792C11.8547 26.9989 13.8714 22.137 17.905 17.9933C21.9387 13.8495 26.8287 11.8053 32.5752 11.8605C38.3217 11.9158 43.2117 13.96 47.2453 17.9933Z" fill="white"/>
</mask>
<g mask="url(#mask0_3121_64777)">
<path fill-rule="evenodd" clip-rule="evenodd" d="M69.0608 73.1906L69.0356 73.1642L51.4116 55.5418L49.3541 56.9613C44.3362 60.4234 38.771 62.149 32.5752 62.149C28.5541 62.149 24.7263 61.3724 21.0668 59.8185C17.3714 58.2494 14.2538 56.1451 11.6754 53.5173C9.06831 50.8603 6.94479 47.7111 5.31329 44.0405C3.72569 40.4687 2.95221 36.6716 3.00228 32.616C3.05299 28.5092 3.83655 24.6963 5.3353 21.1496C6.84599 17.5746 8.95539 14.4108 11.6746 11.6414C14.3739 8.89243 17.4853 6.8025 21.0286 5.35538C24.5915 3.90023 28.4562 3.11033 32.6483 3.0081C36.7405 2.9083 40.5071 3.67919 43.9917 5.29863C47.6383 6.99338 50.8196 9.13604 53.5565 11.7207C56.197 14.2143 58.2827 17.3205 59.7931 21.0961C61.3181 24.9083 62.0953 28.7372 62.1479 32.5986C62.1442 38.786 60.4185 44.3442 56.9597 49.3564L55.5401 51.4137L73.1382 69.0102C73.7295 69.6015 74 70.2447 74 71.1157C74 71.8544 73.7602 72.4644 73.1052 73.0895C72.4176 73.7458 71.7399 74.0001 70.9496 74.0001C70.1682 74.0001 69.5997 73.7564 69.0608 73.1906ZM56.2957 32.579C56.2957 26.0906 53.9614 20.4663 49.3666 15.8719C44.7729 11.2786 39.1296 8.92348 32.604 8.86074C26.032 8.79755 20.3565 11.1739 15.7553 15.9008C11.1985 20.582 8.85465 26.1862 8.85465 32.579C8.85465 38.9703 11.1969 44.5949 15.7415 49.3258C20.353 54.1264 26.0565 56.4866 32.6617 56.2961C39.1283 56.1096 44.7343 53.8114 49.3217 49.4129C53.9825 44.9441 56.2957 39.2552 56.2957 32.579Z" fill="#BAB8BB"/>
</g>
<path d="M27 28.5C27 29.8807 25.8807 31 24.5 31C23.1193 31 22 29.8807 22 28.5C22 27.1193 23.1193 26 24.5 26C25.8807 26 27 27.1193 27 28.5Z" fill="#E6E6E6"/>
<path fill-rule="evenodd" clip-rule="evenodd" d="M24.5 30C25.3284 30 26 29.3284 26 28.5C26 27.6716 25.3284 27 24.5 27C23.6716 27 23 27.6716 23 28.5C23 29.3284 23.6716 30 24.5 30ZM24.5 31C25.8807 31 27 29.8807 27 28.5C27 27.1193 25.8807 26 24.5 26C23.1193 26 22 27.1193 22 28.5C22 29.8807 23.1193 31 24.5 31Z" fill="#E6E6E6"/>
<path d="M43 28.5C43 29.8807 41.8807 31 40.5 31C39.1193 31 38 29.8807 38 28.5C38 27.1193 39.1193 26 40.5 26C41.8807 26 43 27.1193 43 28.5Z" fill="#E6E6E6"/>
<path fill-rule="evenodd" clip-rule="evenodd" d="M40.5 30C41.3284 30 42 29.3284 42 28.5C42 27.6716 41.3284 27 40.5 27C39.6716 27 39 27.6716 39 28.5C39 29.3284 39.6716 30 40.5 30ZM40.5 31C41.8807 31 43 29.8807 43 28.5C43 27.1193 41.8807 26 40.5 26C39.1193 26 38 27.1193 38 28.5C38 29.8807 39.1193 31 40.5 31Z" fill="#E6E6E6"/>
</svg>
