<svg width="24" height="24" viewBox="0 0 24 24" fill="none" xmlns="http://www.w3.org/2000/svg">
<g clip-path="url(#clip0_4142_83802)">
<path d="M9.51123 19.3762C9.93377 20.3315 10.89 21 12 21C13.1099 21 14.0661 20.3315 14.4887 19.3762H9.51123Z" fill="black"/>
<path d="M11.9998 4.71973C12.7323 4.71973 13.4356 4.84896 14.0882 5.08557V5.00517C14.0882 3.89951 13.1887 3 12.0831 3H11.9169C10.8113 3 9.91174 3.89951 9.91174 5.00517V5.08455C10.5641 4.84864 11.2671 4.71973 11.9998 4.71973Z" fill="black"/>
<path d="M18.591 18.3197H5.40896C5.15958 18.3197 4.93114 18.1516 4.87927 17.9076C4.82793 17.6661 4.93801 17.4277 5.16134 17.3245C5.21433 17.2901 5.61324 17.0112 6.01261 16.1673C6.74609 14.6175 6.90004 12.4344 6.90004 10.8759C6.90004 8.06382 9.18781 5.77612 11.9998 5.77612C14.8052 5.77612 17.0887 8.0528 17.0995 10.8556C17.0998 10.8623 17.0999 10.8691 17.0999 10.8759C17.0999 12.4344 17.2539 14.6175 17.9874 16.1673C18.3867 17.0112 18.7856 17.2901 18.8386 17.3245C19.062 17.4277 19.1721 17.666 19.1207 17.9076C19.0688 18.1515 18.8404 18.3197 18.591 18.3197ZM18.8446 17.3282H18.8449H18.8446Z" fill="black"/>
</g>
<defs>
<clipPath id="clip0_4142_83802">
<rect width="18" height="18" fill="white" transform="translate(3 3)"/>
</clipPath>
</defs>
</svg>
