<svg width="24" height="24" viewBox="0 0 24 24" fill="none" xmlns="http://www.w3.org/2000/svg">
<g clip-path="url(#clip0_1857_50085)">
<mask id="mask0_1857_50085" style="mask-type:alpha" maskUnits="userSpaceOnUse" x="6" y="4" width="15" height="17">
<path d="M19.896 12.6103L6.558 20.0263C6.402 20.1103 6.27 20.1223 6.162 20.0623C6.054 20.0023 6 19.8823 6 19.7023V4.90629C6 4.73829 6.054 4.61829 6.162 4.54629C6.27 4.47429 6.402 4.48629 6.558 4.58229L19.896 11.9983C20.052 12.0823 20.13 12.1843 20.13 12.3043C20.13 12.4243 20.052 12.5263 19.896 12.6103Z" fill="white"/>
</mask>
<g mask="url(#mask0_1857_50085)">
<path d="M19.896 12.6103L6.558 20.0263C6.402 20.1103 6.27 20.1223 6.162 20.0623C6.054 20.0023 6 19.8823 6 19.7023V4.90629C6 4.73829 6.054 4.61829 6.162 4.54629C6.27 4.47429 6.402 4.48629 6.558 4.58229L19.896 11.9983C20.052 12.0823 20.13 12.1843 20.13 12.3043C20.13 12.4243 20.052 12.5263 19.896 12.6103Z" fill="#231F20"/>
</g>
</g>
<defs>
<clipPath id="clip0_1857_50085">
<rect width="15" height="16.5" fill="white" transform="translate(6 4.5)"/>
</clipPath>
</defs>
</svg>
