<svg width="16" height="16" viewBox="0 0 16 16" fill="none" xmlns="http://www.w3.org/2000/svg">
<circle cx="8" cy="8" r="8" fill="#FB6E00" fill-opacity="0.08"/>
<path d="M3.27537 7.31955C3.4642 7.13073 3.69499 7.03632 3.96774 7.03632H7.03619L7.04406 3.96007C7.03881 3.69256 7.13061 3.4644 7.31943 3.27558C7.50826 3.08676 7.73643 2.99497 8.00393 3.00021C8.27144 3.00546 8.49698 3.09987 8.68057 3.28345C8.86415 3.46703 8.95856 3.69256 8.96381 3.96007V7.04419L12.0401 7.03632C12.3024 7.03632 12.5279 7.13073 12.7168 7.31955C12.9056 7.50838 13 7.73392 13 7.99617C13 8.25843 12.9056 8.48397 12.7168 8.67279C12.5279 8.86161 12.3024 8.95603 12.0401 8.95603L8.96381 8.96389V12.0323C8.95856 12.2998 8.86153 12.5279 8.6727 12.7168C8.48387 12.9056 8.25833 13 7.99607 13C7.7338 13 7.50826 12.9056 7.31943 12.7168C7.13061 12.5279 7.03619 12.3024 7.03619 12.0401V8.97176L3.95987 8.96389C3.69761 8.96389 3.47207 8.86948 3.28324 8.68066C3.09441 8.49183 3 8.26367 3 7.99617C3 7.72867 3.09179 7.50313 3.27537 7.31955Z" fill="white"/>
<path d="M3.27537 7.31955C3.4642 7.13073 3.69499 7.03632 3.96774 7.03632H7.03619L7.04406 3.96007C7.03881 3.69256 7.13061 3.4644 7.31943 3.27558C7.50826 3.08676 7.73643 2.99497 8.00393 3.00021C8.27144 3.00546 8.49698 3.09987 8.68057 3.28345C8.86415 3.46703 8.95856 3.69256 8.96381 3.96007V7.04419L12.0401 7.03632C12.3024 7.03632 12.5279 7.13073 12.7168 7.31955C12.9056 7.50838 13 7.73392 13 7.99617C13 8.25843 12.9056 8.48397 12.7168 8.67279C12.5279 8.86161 12.3024 8.95603 12.0401 8.95603L8.96381 8.96389V12.0323C8.95856 12.2998 8.86153 12.5279 8.6727 12.7168C8.48387 12.9056 8.25833 13 7.99607 13C7.7338 13 7.50826 12.9056 7.31943 12.7168C7.13061 12.5279 7.03619 12.3024 7.03619 12.0401V8.97176L3.95987 8.96389C3.69761 8.96389 3.47207 8.86948 3.28324 8.68066C3.09441 8.49183 3 8.26367 3 7.99617C3 7.72867 3.09179 7.50313 3.27537 7.31955Z" fill="black"/>
</svg>
