<svg width="24" height="24" viewBox="0 0 24 24" fill="none" xmlns="http://www.w3.org/2000/svg">
<g clip-path="url(#clip0_248_48672)">
<mask id="mask0_248_48672" style="mask-type:alpha" maskUnits="userSpaceOnUse" x="4" y="4" width="16" height="16">
<path d="M10.7069 5.27586C10.7069 4.75862 11.1379 4.5 12 4.5C12.8621 4.5 13.2931 4.75862 13.2931 5.27586L13.2931 10.7069L18.7241 10.7069C19.2414 10.7069 19.5 11.1379 19.5 12C19.5 12.8621 19.2414 13.2931 18.7241 13.2931L13.2931 13.2931L13.2931 18.7241C13.2931 19.2414 12.8621 19.5 12 19.5C11.1379 19.5 10.7069 19.2414 10.7069 18.7241L10.7069 13.2931L5.27586 13.2931C4.75862 13.2931 4.5 12.8621 4.5 12C4.5 11.1379 4.75862 10.7069 5.27586 10.7069L10.7069 10.7069L10.7069 5.27586Z" fill="white"/>
</mask>
<g mask="url(#mask0_248_48672)">
<path d="M10.7069 5.27586C10.7069 4.75862 11.1379 4.5 12 4.5C12.8621 4.5 13.2931 4.75862 13.2931 5.27586L13.2931 10.7069L18.7241 10.7069C19.2414 10.7069 19.5 11.1379 19.5 12C19.5 12.8621 19.2414 13.2931 18.7241 13.2931L13.2931 13.2931L13.2931 18.7241C13.2931 19.2414 12.8621 19.5 12 19.5C11.1379 19.5 10.7069 19.2414 10.7069 18.7241L10.7069 13.2931L5.27586 13.2931C4.75862 13.2931 4.5 12.8621 4.5 12C4.5 11.1379 4.75862 10.7069 5.27586 10.7069L10.7069 10.7069L10.7069 5.27586Z" fill="#231F20"/>
</g>
</g>
<defs>
<clipPath id="clip0_248_48672">
<rect width="15" height="15" fill="white" transform="translate(4.5 19.5) rotate(-90)"/>
</clipPath>
</defs>
</svg>
