<svg width="24" height="24" viewBox="0 0 24 24" fill="none" xmlns="http://www.w3.org/2000/svg">
<circle cx="12" cy="12" r="12" fill="white"/>
<path d="M4.91306 10.9793C5.1963 10.6961 5.54248 10.5545 5.95161 10.5545H10.5543L10.5661 5.9401C10.5582 5.53885 10.6959 5.19661 10.9792 4.91337C11.2624 4.63013 11.6046 4.49245 12.0059 4.50032C12.4072 4.50819 12.7455 4.6498 13.0209 4.92517C13.2962 5.20054 13.4378 5.53885 13.4457 5.9401V10.5663L18.0602 10.5545C18.4536 10.5545 18.7919 10.6961 19.0751 10.9793C19.3584 11.2626 19.5 11.6009 19.5 11.9943C19.5 12.3876 19.3584 12.7259 19.0751 13.0092C18.7919 13.2924 18.4536 13.434 18.0602 13.434L13.4457 13.4458V18.0484C13.4378 18.4497 13.2923 18.7919 13.009 19.0751C12.7258 19.3584 12.3875 19.5 11.9941 19.5C11.6007 19.5 11.2624 19.3584 10.9792 19.0751C10.6959 18.7919 10.5543 18.4536 10.5543 18.0602V13.4576L5.93981 13.4458C5.54642 13.4458 5.20811 13.3042 4.92486 13.021C4.64162 12.7378 4.5 12.3955 4.5 11.9943C4.5 11.593 4.63769 11.2547 4.91306 10.9793Z" fill="white"/>
<path d="M4.91306 10.9793C5.1963 10.6961 5.54248 10.5545 5.95161 10.5545H10.5543L10.5661 5.9401C10.5582 5.53885 10.6959 5.19661 10.9792 4.91337C11.2624 4.63013 11.6046 4.49245 12.0059 4.50032C12.4072 4.50819 12.7455 4.6498 13.0209 4.92517C13.2962 5.20054 13.4378 5.53885 13.4457 5.9401V10.5663L18.0602 10.5545C18.4536 10.5545 18.7919 10.6961 19.0751 10.9793C19.3584 11.2626 19.5 11.6009 19.5 11.9943C19.5 12.3876 19.3584 12.7259 19.0751 13.0092C18.7919 13.2924 18.4536 13.434 18.0602 13.434L13.4457 13.4458V18.0484C13.4378 18.4497 13.2923 18.7919 13.009 19.0751C12.7258 19.3584 12.3875 19.5 11.9941 19.5C11.6007 19.5 11.2624 19.3584 10.9792 19.0751C10.6959 18.7919 10.5543 18.4536 10.5543 18.0602V13.4576L5.93981 13.4458C5.54642 13.4458 5.20811 13.3042 4.92486 13.021C4.64162 12.7378 4.5 12.3955 4.5 11.9943C4.5 11.593 4.63769 11.2547 4.91306 10.9793Z" fill="black"/>
</svg>
