<svg width="681" height="242" viewBox="0 0 681 242" fill="none" xmlns="http://www.w3.org/2000/svg">
<path opacity="0.08" d="M523.86 87.1767C522.797 87.1767 521.733 87.2213 520.679 87.2569C518.221 38.6679 476.952 0 426.397 0C374.261 0 332 41.1192 332 91.8119C332 142.504 374.261 183.624 426.397 183.624C434.16 183.627 441.895 182.7 449.436 180.86C456.8 215.802 487.318 242 523.86 242C565.907 242 600 207.325 600 164.557C600 121.789 565.907 87.1767 523.86 87.1767Z" fill="url(#paint0_linear_1857_53752)"/>
<g clip-path="url(#clip0_1857_53752)">
<path d="M467.347 51.2012C467.347 54.7285 469.917 57.85 469.917 57.85C470.833 58.9633 471.593 61.0651 471.593 62.5114V63.2606C471.593 64.7069 470.406 65.893 468.96 65.893H427.049C425.602 65.893 424.416 67.0792 424.416 68.5255V110.437C424.416 111.883 423.23 113.069 421.784 113.069H421.753C420.306 113.069 418.205 112.32 417.091 111.394C417.091 111.394 413.97 108.824 410.442 108.824C404.355 108.824 399.413 113.766 399.413 119.853C399.413 125.94 404.355 130.883 410.442 130.883C413.97 130.883 417.091 128.313 417.091 128.313C418.205 127.397 420.306 126.637 421.753 126.637H421.773C423.22 126.637 424.406 127.824 424.406 129.27V171.181C424.406 172.628 425.592 173.814 427.038 173.814H468.95C470.396 173.814 471.582 172.628 471.582 171.181V170.713C471.582 169.267 470.833 167.165 469.907 166.052C469.907 166.052 467.337 162.93 467.337 159.403C467.337 153.305 472.279 148.373 478.366 148.373C484.464 148.373 489.395 153.305 489.395 159.403C489.395 162.93 486.825 166.052 486.825 166.052C485.91 167.165 485.15 169.267 485.15 170.713V171.181C485.15 172.628 486.336 173.814 487.783 173.814H529.694C531.14 173.814 532.327 172.628 532.327 171.181V129.27C532.327 127.824 531.14 126.637 529.694 126.637H529.247C527.8 126.637 525.699 127.387 524.585 128.313C524.585 128.313 521.464 130.883 517.936 130.883C511.849 130.883 506.907 125.94 506.907 119.853C506.907 113.766 511.849 108.824 517.936 108.824C521.464 108.824 524.585 111.394 524.585 111.394C525.709 112.31 527.8 113.059 529.247 113.069H529.694C531.14 113.069 532.327 111.883 532.327 110.437V68.5255C532.327 67.0792 531.14 65.893 529.694 65.893H487.783C486.336 65.893 485.15 64.7069 485.15 63.2606V62.5114C485.15 61.0651 485.899 58.9633 486.825 57.85C486.825 57.85 489.395 54.7285 489.395 51.2012C489.395 45.1142 484.453 40.1719 478.366 40.1719C472.279 40.1719 467.347 45.1142 467.347 51.2012Z" fill="white"/>
</g>
<g clip-path="url(#clip1_1857_53752)">
<path d="M463.185 48.0796C463.185 51.6069 465.755 54.7284 465.755 54.7284C466.671 55.8417 467.43 57.9435 467.43 59.3898V60.139C467.43 61.5853 466.244 62.7715 464.798 62.7715H422.887C421.44 62.7715 420.254 63.9576 420.254 65.4039V107.315C420.254 108.762 419.068 109.948 417.622 109.948H417.591C416.144 109.948 414.042 109.199 412.929 108.273C412.929 108.273 409.808 105.702 406.28 105.702C400.193 105.702 395.251 110.645 395.251 116.732C395.251 122.819 400.193 127.761 406.28 127.761C409.808 127.761 412.929 125.191 412.929 125.191C414.042 124.275 416.144 123.516 417.591 123.516H417.611C419.058 123.516 420.244 124.702 420.244 126.148V168.06C420.244 169.506 421.43 170.692 422.876 170.692H464.788C466.234 170.692 467.42 169.506 467.42 168.06V167.591C467.42 166.145 466.671 164.043 465.745 162.93C465.745 162.93 463.175 159.808 463.175 156.281C463.175 150.184 468.117 145.252 474.204 145.252C480.301 145.252 485.233 150.184 485.233 156.281C485.233 159.808 482.663 162.93 482.663 162.93C481.748 164.043 480.988 166.145 480.988 167.591V168.06C480.988 169.506 482.174 170.692 483.621 170.692H525.532C526.978 170.692 528.164 169.506 528.164 168.06V126.148C528.164 124.702 526.978 123.516 525.532 123.516H525.085C523.638 123.516 521.536 124.265 520.423 125.191C520.423 125.191 517.302 127.761 513.774 127.761C507.687 127.761 502.745 122.819 502.745 116.732C502.745 110.645 507.687 105.702 513.774 105.702C517.302 105.702 520.423 108.273 520.423 108.273C521.547 109.188 523.638 109.937 525.085 109.948H525.532C526.978 109.948 528.164 108.762 528.164 107.315V65.4039C528.164 63.9576 526.978 62.7715 525.532 62.7715H483.621C482.174 62.7715 480.988 61.5853 480.988 60.139V59.3898C480.988 57.9435 481.737 55.8417 482.663 54.7284C482.663 54.7284 485.233 51.6069 485.233 48.0796C485.233 41.9927 480.291 37.0503 474.204 37.0503C468.117 37.0503 463.185 41.9927 463.185 48.0796Z" stroke="#8C0082" stroke-miterlimit="10"/>
<path d="M476.012 116.41H470.002C470.02 114.732 470.164 113.326 470.433 112.189C470.703 111.035 471.152 109.989 471.781 109.051C472.427 108.113 473.281 107.121 474.341 106.075C475.167 105.282 475.913 104.533 476.578 103.83C477.243 103.109 477.773 102.351 478.168 101.558C478.563 100.746 478.761 99.8171 478.761 98.771C478.761 97.6348 478.572 96.6699 478.195 95.8763C477.818 95.0828 477.261 94.4786 476.524 94.0637C475.805 93.6489 474.907 93.4415 473.829 93.4415C472.931 93.4415 472.086 93.6219 471.296 93.9826C470.505 94.3253 469.867 94.8663 469.382 95.6058C468.897 96.3272 468.636 97.2831 468.601 98.4734H462.105C462.141 96.201 462.68 94.2892 463.722 92.7381C464.765 91.1871 466.166 90.0238 467.927 89.2483C469.688 88.4727 471.655 88.085 473.829 88.085C476.236 88.085 478.294 88.4998 480.001 89.3294C481.707 90.141 483.01 91.3314 483.908 92.9005C484.825 94.4515 485.283 96.3272 485.283 98.5275C485.283 100.115 484.968 101.558 484.34 102.856C483.711 104.137 482.893 105.336 481.887 106.454C480.881 107.554 479.794 108.654 478.626 109.755C477.62 110.674 476.937 111.675 476.578 112.758C476.218 113.822 476.03 115.039 476.012 116.41ZM469.463 124.85C469.463 123.876 469.795 123.056 470.46 122.389C471.125 121.703 472.032 121.361 473.182 121.361C474.332 121.361 475.239 121.703 475.904 122.389C476.569 123.056 476.901 123.876 476.901 124.85C476.901 125.824 476.569 126.654 475.904 127.339C475.239 128.007 474.332 128.34 473.182 128.34C472.032 128.34 471.125 128.007 470.46 127.339C469.795 126.654 469.463 125.824 469.463 124.85Z" fill="#8C0082"/>
</g>
<g clip-path="url(#clip2_1857_53752)">
<path d="M463.185 48.0796C463.185 51.6069 465.755 54.7284 465.755 54.7284C466.671 55.8417 467.43 57.9435 467.43 59.3898V60.139C467.43 61.5853 466.244 62.7715 464.798 62.7715H422.887C421.44 62.7715 420.254 63.9576 420.254 65.4039V107.315C420.254 108.762 419.068 109.948 417.622 109.948H417.591C416.144 109.948 414.042 109.199 412.929 108.273C412.929 108.273 409.808 105.702 406.28 105.702C400.193 105.702 395.251 110.645 395.251 116.732C395.251 122.819 400.193 127.761 406.28 127.761C409.808 127.761 412.929 125.191 412.929 125.191C414.042 124.275 416.144 123.516 417.591 123.516H417.611C419.058 123.516 420.244 124.702 420.244 126.148V168.06C420.244 169.506 421.43 170.692 422.876 170.692H464.788C466.234 170.692 467.42 169.506 467.42 168.06V167.591C467.42 166.145 466.671 164.043 465.745 162.93C465.745 162.93 463.175 159.808 463.175 156.281C463.175 150.184 468.117 145.252 474.204 145.252C480.301 145.252 485.233 150.184 485.233 156.281C485.233 159.808 482.663 162.93 482.663 162.93C481.748 164.043 480.988 166.145 480.988 167.591V168.06C480.988 169.506 482.174 170.692 483.621 170.692H525.532C526.978 170.692 528.164 169.506 528.164 168.06V126.148C528.164 124.702 526.978 123.516 525.532 123.516H525.085C523.638 123.516 521.536 124.265 520.423 125.191C520.423 125.191 517.302 127.761 513.774 127.761C507.687 127.761 502.745 122.819 502.745 116.732C502.745 110.645 507.687 105.702 513.774 105.702C517.302 105.702 520.423 108.273 520.423 108.273C521.547 109.188 523.638 109.937 525.085 109.948H525.532C526.978 109.948 528.164 108.762 528.164 107.315V65.4039C528.164 63.9576 526.978 62.7715 525.532 62.7715H483.621C482.174 62.7715 480.988 61.5853 480.988 60.139V59.3898C480.988 57.9435 481.737 55.8417 482.663 54.7284C482.663 54.7284 485.233 51.6069 485.233 48.0796C485.233 41.9927 480.291 37.0503 474.204 37.0503C468.117 37.0503 463.185 41.9927 463.185 48.0796Z" stroke="url(#paint1_linear_1857_53752)" stroke-miterlimit="10"/>
<path d="M476.012 116.91H476.505L476.512 116.416C476.529 115.087 476.712 113.923 477.052 112.918L477.052 112.915C477.38 111.929 478.008 110.997 478.963 110.124L478.963 110.124L478.969 110.119C480.145 109.011 481.241 107.902 482.256 106.792L482.259 106.789C483.294 105.638 484.138 104.401 484.788 103.076L484.79 103.074C485.454 101.701 485.783 100.182 485.783 98.5275C485.783 96.2588 485.31 94.2919 484.341 92.649C483.39 90.9894 482.01 89.7315 480.217 88.8788C478.427 88.009 476.292 87.585 473.829 87.585C471.594 87.585 469.557 87.9838 467.725 88.7907C465.881 89.6032 464.404 90.8272 463.307 92.4593C462.201 94.1064 461.643 96.1175 461.606 98.4655L461.597 98.9734H462.105H468.601H469.086L469.1 98.4885C469.134 97.3588 469.381 96.5041 469.797 95.8848L469.797 95.8848L469.8 95.88C470.233 95.2199 470.796 94.7441 471.494 94.4413L471.494 94.4414L471.503 94.4375C472.226 94.1075 473 93.9415 473.829 93.9415C474.845 93.9415 475.651 94.1371 476.274 94.4968L476.274 94.4968L476.279 94.4994C476.922 94.8615 477.408 95.3867 477.743 96.091C478.081 96.8008 478.261 97.6881 478.261 98.771C478.261 99.7524 478.076 100.604 477.719 101.337C477.348 102.082 476.847 102.8 476.212 103.489C475.554 104.185 474.815 104.927 473.995 105.715L473.995 105.715L473.99 105.72C472.914 106.781 472.038 107.797 471.369 108.767L471.369 108.767L471.365 108.773C470.701 109.763 470.229 110.865 469.946 112.075C469.666 113.259 469.52 114.705 469.502 116.404L469.497 116.91H470.002H476.012ZM476.258 127.692L476.258 127.692L476.263 127.687C477.02 126.907 477.401 125.951 477.401 124.85C477.401 123.75 477.021 122.802 476.261 122.038C475.483 121.238 474.436 120.861 473.182 120.861C471.928 120.861 470.881 121.238 470.103 122.038C469.343 122.802 468.963 123.75 468.963 124.85C468.963 125.951 469.344 126.907 470.101 127.687L470.101 127.687L470.106 127.692C470.884 128.474 471.931 128.84 473.182 128.84C474.434 128.84 475.48 128.474 476.258 127.692Z" fill="#E6E6E6" stroke="#857F87"/>
</g>
<line x1="537.737" y1="75.3862" x2="576.773" y2="75.3862" stroke="#8C0082" stroke-opacity="0.24" stroke-dasharray="4 4"/>
<line x1="537.737" y1="101.003" x2="576.773" y2="101.003" stroke="#FB6E00" stroke-dasharray="4 4"/>
<line x1="537.737" y1="157.117" x2="576.773" y2="157.117" stroke="#8C0082" stroke-dasharray="4 4"/>
<path d="M381.949 102.11C382.145 101.915 382.145 101.598 381.949 101.403L378.767 98.2208C378.572 98.0255 378.255 98.0255 378.06 98.2208C377.865 98.4161 377.865 98.7326 378.06 98.9279L380.889 101.756L378.06 104.585C377.865 104.78 377.865 105.097 378.06 105.292C378.255 105.487 378.572 105.487 378.767 105.292L381.949 102.11ZM1 103.358C20.2035 103.358 33.74 99.8355 43.9676 94.5262C54.1948 89.2172 61.0758 82.1401 66.9885 75.0987C72.9208 68.0339 77.8241 61.084 84.1743 55.858C90.4852 50.6643 98.2102 47.1968 109.742 47.1968V46.1968C97.9713 46.1968 90.0231 49.7494 83.5388 55.0858C77.0938 60.3899 72.08 67.4802 66.2227 74.4556C60.3458 81.4544 53.5648 88.4175 43.5069 93.6386C33.4495 98.8595 20.078 102.358 1 102.358V103.358ZM109.742 47.1968C121.173 47.1968 131.865 54.5616 142.071 65.7708C152.265 76.9678 161.882 91.8992 171.178 106.838C180.461 121.757 189.427 136.692 198.293 147.819C202.727 153.384 207.155 158.022 211.607 161.237C216.059 164.452 220.57 166.267 225.156 166.125L225.125 165.126C220.835 165.259 216.538 163.564 212.192 160.426C207.845 157.287 203.483 152.728 199.075 147.196C190.256 136.127 181.33 121.26 172.027 106.31C162.736 91.379 153.074 76.3718 142.81 65.0976C132.557 53.8357 121.612 46.1968 109.742 46.1968V47.1968ZM225.156 166.125C234.24 165.843 242.473 160.074 250.197 151.736C257.928 143.389 265.232 132.375 272.439 121.44C279.659 110.486 286.779 99.6143 294.168 91.4763C301.568 83.326 309.139 78.0301 317.238 78.0301V77.0301C308.694 77.0301 300.869 82.6085 293.428 90.8041C285.976 99.0118 278.81 109.957 271.604 120.89C264.387 131.841 257.128 142.782 249.463 151.056C241.79 159.339 233.796 164.857 225.125 165.126L225.156 166.125ZM317.238 78.0301C325.495 78.0301 331.456 79.5314 336.291 81.7692C341.135 84.0116 344.87 87.0019 348.69 90.0348C352.502 93.0613 356.395 96.127 361.504 98.4269C366.621 100.73 372.933 102.256 381.596 102.256V101.256C373.059 101.256 366.889 99.7541 361.915 97.5151C356.933 95.2725 353.128 92.2817 349.312 89.2516C345.504 86.2281 341.679 83.1618 336.711 80.8617C331.732 78.5572 325.626 77.0301 317.238 77.0301V78.0301Z" fill="url(#paint2_linear_1857_53752)"/>
<path opacity="0.24" d="M80.0076 107.007V107.507V107.007ZM183.469 75.634L183.491 75.1345L183.469 75.634ZM381.158 75.9174C381.315 75.6899 381.257 75.3786 381.03 75.2221L377.322 72.6718C377.094 72.5153 376.783 72.5728 376.627 72.8003C376.47 73.0279 376.528 73.3392 376.755 73.4957L380.051 75.7626L377.784 79.0582C377.627 79.2857 377.685 79.597 377.913 79.7535C378.14 79.91 378.451 79.8525 378.608 79.6249L381.158 75.9174ZM1 75.634C0.646092 75.9872 0.646343 75.9875 0.646713 75.9878C0.646996 75.9881 0.647486 75.9886 0.648051 75.9892C0.649182 75.9903 0.65079 75.9919 0.652875 75.994C0.657045 75.9981 0.66312 76.0042 0.671095 76.0121C0.687045 76.0279 0.71059 76.0511 0.741676 76.0815C0.803846 76.1423 0.896175 76.2318 1.01821 76.3482C1.26227 76.5809 1.62517 76.921 2.10325 77.353C3.0594 78.2171 4.47644 79.4492 6.32525 80.9266C10.0226 83.8811 15.4484 87.8182 22.3698 91.7549C36.2107 99.6272 56.0478 107.507 80.0076 107.507L80.0076 106.507C56.2692 106.507 36.6025 98.6996 22.8642 90.8856C15.9959 86.9792 10.6133 83.0731 6.94952 80.1454C5.11778 78.6816 3.71613 77.4627 2.77372 76.6111C2.30253 76.1853 1.94618 75.8513 1.70832 75.6245C1.58939 75.5111 1.50009 75.4245 1.44087 75.3666C1.41126 75.3376 1.38917 75.3158 1.37465 75.3014C1.3674 75.2943 1.36204 75.2889 1.35858 75.2855C1.35685 75.2838 1.35559 75.2825 1.35481 75.2817C1.35442 75.2813 1.3542 75.2811 1.354 75.2809C1.3539 75.2808 1.35391 75.2808 1 75.634ZM80.0076 107.507C103.497 107.507 120.985 99.2288 136.786 91.1881C152.615 83.133 166.671 75.3701 183.446 76.1335L183.491 75.1345C166.398 74.3567 152.086 82.2802 136.332 90.2968C120.551 98.3277 103.244 106.507 80.0076 106.507L80.0076 107.507ZM183.446 76.1335C195.871 76.6989 206.272 84.0685 215.533 94.9338C224.795 105.8 232.854 120.087 240.608 134.354C248.349 148.597 255.792 162.828 263.798 173.489C271.793 184.136 280.46 191.372 290.695 191.372V190.372C280.965 190.372 272.559 183.491 264.598 172.889C256.647 162.302 249.247 148.155 241.487 133.876C233.738 119.62 225.634 105.242 216.294 94.2851C206.955 83.3279 196.318 75.7182 183.491 75.1345L183.446 76.1335ZM290.695 191.372C300.93 191.372 309.098 184.471 316.211 174.226C323.329 163.972 329.484 150.236 335.658 136.321C341.842 122.382 348.047 108.257 355.28 97.1357C362.52 86.0047 370.718 77.9971 380.837 76.1257L380.655 75.1424C370.118 77.0911 361.721 85.3981 354.442 96.5905C347.156 107.793 340.917 122 334.744 135.915C328.56 149.854 322.443 163.495 315.389 173.655C308.33 183.824 300.423 190.372 290.695 190.372V191.372Z" fill="#8C0082"/>
<path opacity="0.8" d="M381.725 157.621C381.992 157.549 382.15 157.275 382.079 157.008L380.913 152.662C380.842 152.395 380.567 152.237 380.301 152.308C380.034 152.38 379.876 152.654 379.947 152.921L380.983 156.784L377.12 157.82C376.853 157.892 376.695 158.166 376.766 158.433C376.838 158.699 377.112 158.858 377.379 158.786L381.725 157.621ZM1 127.582C0.704995 127.985 0.705323 127.986 0.70583 127.986C0.706236 127.986 0.706922 127.987 0.707734 127.987C0.709361 127.989 0.711699 127.99 0.714746 127.993C0.72084 127.997 0.729771 128.003 0.741515 128.012C0.765003 128.029 0.799745 128.054 0.845554 128.086C0.937172 128.152 1.07307 128.248 1.25175 128.371C1.60912 128.619 2.13769 128.979 2.8256 129.428C4.20135 130.326 6.21478 131.584 8.77095 133.025C13.8824 135.906 21.1689 139.522 29.8702 142.464C47.2665 148.345 70.3728 151.544 93.0532 140.7L92.6218 139.797C70.2665 150.487 47.4541 147.353 30.1905 141.517C21.5619 138.6 14.3332 135.012 9.26198 132.154C6.7268 130.725 4.73199 129.478 3.37235 128.591C2.69256 128.147 2.17165 127.792 1.82145 127.55C1.64635 127.428 1.51395 127.335 1.42571 127.272C1.38159 127.24 1.34852 127.217 1.32667 127.201C1.31575 127.193 1.30763 127.187 1.30235 127.183C1.2997 127.181 1.29777 127.18 1.29654 127.179C1.29593 127.179 1.29555 127.178 1.29524 127.178C1.29503 127.178 1.29501 127.178 1 127.582ZM93.0532 140.7C104.417 135.266 114.878 124.741 125.295 112.086C130.507 105.753 135.72 98.8716 141.035 91.8089C146.353 84.7435 151.773 77.4961 157.411 70.4172C179.981 42.0768 205.898 16.6133 242.073 16.6133V15.6133C205.385 15.6133 179.202 41.4505 156.629 69.7942C150.981 76.8863 145.55 84.1464 140.236 91.2076C134.92 98.2714 129.719 105.136 124.523 111.45C114.12 124.089 103.775 134.464 92.6218 139.797L93.0532 140.7ZM242.073 16.6133C258.919 16.6133 272.824 23.5122 285.024 34.3656C297.235 45.2283 307.718 60.0349 317.704 75.8094C327.673 91.5586 337.164 108.304 347.34 122.919C357.52 137.543 368.444 150.125 381.346 157.571L381.846 156.705C369.139 149.372 358.317 136.938 348.16 122.348C337.998 107.751 328.558 91.0869 318.549 75.2745C308.555 59.4874 298.011 44.5797 285.689 33.6184C273.357 22.6479 259.225 15.6133 242.073 15.6133V16.6133Z" fill="#8C0082"/>
<path d="M269.02 91.0244H291.675C293.901 91.0244 295.706 92.8291 295.706 95.0553V117.71C295.706 119.936 293.901 121.741 291.675 121.741H269.02C266.794 121.741 264.989 119.936 264.989 117.71V95.0553C264.989 92.8291 266.794 91.0244 269.02 91.0244Z" fill="white" stroke="#E6E6E6"/>
<path d="M292 103.89H286.314C284.89 101.312 283.154 99 280.849 99C278.51 99 277.181 101.229 275.776 103.587C275.716 103.687 275.656 103.788 275.595 103.89H269V105.658H274.483C273.16 107.589 271.473 109.144 269 108.85V110.562C273.513 111.099 275.592 107.425 277.351 104.473C278.487 102.568 279.56 100.769 280.849 100.769C282.813 100.769 284.849 104.903 286.065 107.374C286.39 108.031 286.668 108.594 286.923 109.067C279.785 109.244 277.603 110.498 275.641 111.628C274.148 112.488 272.857 113.231 269 113.231V115C273.357 115 274.918 114.101 276.572 113.149C278.464 112.061 280.579 110.844 288.393 110.815C288.525 110.868 290.73 110.832 291.81 110.868L291.871 109.101C290.85 109.067 289.901 109.049 289.015 109.046C288.688 108.594 288.153 107.509 287.709 106.61C287.555 106.298 287.398 105.98 287.237 105.658H292V103.89Z" fill="#3E323F"/>
<path d="M170.868 27.0869H193.522C195.749 27.0869 197.553 28.8916 197.553 31.1178V53.7723C197.553 55.9985 195.749 57.8032 193.522 57.8032H170.868C168.642 57.8032 166.837 55.9985 166.837 53.7723V31.1178C166.837 28.8916 168.642 27.0869 170.868 27.0869Z" fill="white" stroke="#E6E6E6"/>
<path d="M194 39.8896H188.314C186.89 37.3121 185.154 35 182.849 35C180.51 35 179.181 37.2285 177.776 39.5873C177.716 39.687 177.656 39.7883 177.595 39.8896H171V41.6582H176.483C175.16 43.5893 173.473 45.1441 171 44.8499V46.5623C175.513 47.0993 177.592 43.4253 179.351 40.4732C180.487 38.5679 181.56 36.7687 182.849 36.7687C184.813 36.7687 186.849 40.9025 188.065 43.3738C188.39 44.0315 188.668 44.5942 188.923 45.0669C181.785 45.2438 179.603 46.4979 177.641 47.6283C176.148 48.4885 174.857 49.2313 171 49.2313V51C175.357 51 176.918 50.1012 178.572 49.1493C180.464 48.0608 182.579 46.8436 190.393 46.8147C190.525 46.8678 192.73 46.8324 193.81 46.8678L193.871 45.1007C192.85 45.0669 191.901 45.0492 191.015 45.046C190.688 44.5942 190.153 43.5089 189.709 42.6101C189.555 42.2982 189.398 41.9798 189.237 41.6582H194V39.8896Z" fill="#3E323F"/>
<path d="M75.0631 87.3652H97.7176C99.9438 87.3652 101.749 89.1699 101.749 91.3961V114.051C101.749 116.277 99.9438 118.082 97.7176 118.082H75.0631C72.8369 118.082 71.0322 116.277 71.0322 114.051V91.3961C71.0322 89.1699 72.8369 87.3652 75.0631 87.3652Z" fill="white" stroke="#E6E6E6"/>
<path d="M98 99.8896H92.3137C90.8901 97.3121 89.1536 95 86.8493 95C84.5102 95 83.1809 97.2285 81.7755 99.5873C81.7159 99.687 81.6563 99.7883 81.5951 99.8896H75V101.658H80.4827C79.16 103.589 77.4732 105.144 75 104.85V106.562C79.5126 107.099 81.5918 103.425 83.3514 100.473C84.487 98.5679 85.5597 96.7687 86.8493 96.7687C88.8126 96.7687 90.8487 100.903 92.0654 103.374C92.3899 104.031 92.668 104.594 92.9229 105.067C85.7849 105.244 83.6031 106.498 81.6414 107.628C80.1483 108.488 78.8571 109.231 75 109.231V111C79.357 111 80.918 110.101 82.5718 109.149C84.4639 108.061 86.5795 106.844 94.3929 106.815C94.5253 106.868 96.7303 106.832 97.8096 106.868L97.8709 105.101C96.8495 105.067 95.901 105.049 95.0153 105.046C94.6876 104.594 94.1529 103.509 93.7092 102.61C93.5553 102.298 93.398 101.98 93.2374 101.658H98V99.8896Z" fill="#3E323F"/>
<path d="M608.957 104.639C609.04 104.504 609.124 104.371 609.195 104.231C609.238 104.156 609.286 104.084 609.324 104.006C609.369 103.929 609.416 103.856 609.457 103.779C609.501 103.705 609.549 103.63 609.587 103.556C609.632 103.482 609.68 103.407 609.72 103.332C609.765 103.255 609.811 103.182 609.851 103.104C609.897 103.032 609.942 102.957 609.983 102.88C610.029 102.806 610.073 102.733 610.116 102.657C610.161 102.584 610.205 102.508 610.248 102.434C610.293 102.36 610.338 102.284 610.379 102.211C610.425 102.136 610.469 102.064 610.51 101.986C610.557 101.913 610.6 101.838 610.643 101.764C610.69 101.691 610.731 101.616 610.774 101.542C610.822 101.468 610.863 101.395 610.907 101.321C610.955 101.246 610.995 101.173 611.038 101.099C611.085 101.026 611.127 100.949 611.171 100.874C611.218 100.802 611.258 100.724 611.302 100.654C611.351 100.581 611.39 100.504 611.434 100.432C611.481 100.361 611.521 100.285 611.565 100.211C611.615 100.139 611.654 100.061 611.701 99.9858C611.793 99.8461 611.872 99.7034 611.956 99.5607C612.046 99.4143 612.138 99.2716 612.217 99.1246C612.265 99.0441 612.319 98.963 612.364 98.8813C612.408 98.8075 612.458 98.7319 612.5 98.6544C612.544 98.5794 612.595 98.5062 612.636 98.43C612.681 98.3537 612.73 98.2806 612.773 98.2031C612.818 98.1293 612.869 98.0525 612.909 97.9787C612.955 97.9024 613.005 97.8286 613.047 97.7518C613.092 97.6768 613.142 97.603 613.184 97.5274C613.23 97.4536 613.277 97.3773 613.32 97.3041C613.367 97.2273 613.414 97.1523 613.457 97.076C613.503 97.001 613.55 96.9266 613.594 96.8504C613.64 96.7766 613.687 96.7022 613.73 96.626C613.777 96.5534 613.822 96.4778 613.867 96.4015C613.914 96.3277 613.96 96.2539 614.003 96.1783C614.05 96.1045 614.096 96.0307 614.14 95.9551C614.181 95.8917 614.22 95.8276 614.259 95.7618C614.316 95.6733 614.369 95.5825 614.424 95.4928C614.472 95.416 614.519 95.3379 614.565 95.2604C614.614 95.1866 614.659 95.1086 614.705 95.0317C614.754 94.9555 614.799 94.8793 614.846 94.8018C614.895 94.7268 614.94 94.6493 614.986 94.5719C615.035 94.4969 615.081 94.4188 615.128 94.345C615.186 94.2535 615.238 94.162 615.293 94.073C615.371 93.9522 615.445 93.8315 615.515 93.7101C615.563 93.6333 615.612 93.5558 615.657 93.4765C617.981 89.7331 617.513 84.7522 614.253 81.5119C610.461 77.7417 604.328 77.7587 600.556 81.5497C598.71 83.4068 597.775 85.8219 597.743 88.2468C597.741 88.2883 597.742 88.331 597.741 88.3712C597.741 88.384 597.74 88.3956 597.74 88.4066C597.739 88.4511 597.739 88.4938 597.738 88.5408C597.734 88.6365 597.733 88.7347 597.731 88.8329C597.728 88.9311 597.726 89.0293 597.725 89.1251C597.722 89.2232 597.721 89.3202 597.72 89.4184C597.716 89.5142 597.715 89.6123 597.714 89.7105C597.711 89.8063 597.708 89.9057 597.708 90.0008C597.704 90.099 597.703 90.196 597.701 90.293C597.697 90.3899 597.695 90.4881 597.695 90.5845C597.69 90.7095 597.688 90.837 597.688 90.9644C597.683 91.0529 597.687 91.1407 597.686 91.2291C597.678 91.3316 597.679 91.4334 597.677 91.5383C597.672 91.6365 597.673 91.7414 597.67 91.8421C597.665 91.9439 597.665 92.0464 597.661 92.147C597.655 92.2507 597.655 92.3507 597.654 92.4538C597.648 92.5544 597.647 92.6581 597.646 92.7587C597.64 92.8612 597.639 92.963 597.638 93.0637C597.633 93.1661 597.631 93.2667 597.629 93.3686C597.625 93.4704 597.623 93.5717 597.622 93.6735C597.617 93.776 597.615 93.8748 597.614 93.9773C597.609 94.0797 597.605 94.1803 597.605 94.281C597.602 94.3828 597.597 94.4841 597.597 94.5847C597.594 94.6872 597.588 94.7878 597.588 94.8884C597.584 94.9903 597.579 95.0891 597.579 95.1909C597.576 95.2915 597.57 95.3922 597.57 95.4934C597.568 95.594 597.561 95.6947 597.562 95.7947C597.559 95.8972 597.551 95.9966 597.553 96.096C597.55 96.1631 597.545 96.2301 597.545 96.296C597.543 96.3149 597.545 96.3271 597.543 96.3418C597.543 96.3576 597.542 96.3686 597.542 96.3832C597.537 96.4534 597.539 96.5217 597.536 96.5918C597.528 96.6924 597.529 96.7949 597.526 96.8998C597.519 97.0004 597.519 97.1029 597.515 97.2053C597.508 97.306 597.508 97.4084 597.505 97.5121C597.498 97.614 597.497 97.714 597.495 97.8177C597.487 97.9195 597.486 98.0195 597.482 98.1226C597.476 98.2251 597.473 98.3269 597.471 98.4294C597.465 98.5288 597.462 98.63 597.46 98.7343C597.454 98.8349 597.45 98.935 597.447 99.0393C597.441 99.1399 597.437 99.2405 597.436 99.3418C597.43 99.4412 597.425 99.5424 597.425 99.643C597.418 99.7455 597.41 99.8486 597.41 99.948C597.406 100.047 597.398 100.147 597.398 100.25C597.393 100.349 597.384 100.447 597.384 100.55C597.375 100.648 597.375 100.751 597.371 100.851C597.362 100.953 597.361 101.056 597.358 101.157C597.349 101.262 597.346 101.36 597.343 101.465C597.335 101.565 597.331 101.668 597.328 101.769C597.321 101.868 597.317 101.973 597.314 102.074C597.306 102.174 597.301 102.278 597.298 102.378C597.29 102.479 597.285 102.58 597.284 102.681C597.275 102.781 597.269 102.881 597.267 102.982C597.26 103.084 597.252 103.184 597.251 103.283C597.244 103.383 597.234 103.483 597.233 103.585C597.232 103.605 597.231 103.628 597.23 103.654C597.221 103.727 597.22 103.801 597.217 103.872C597.217 103.874 597.216 103.879 597.216 103.884C597.215 103.908 597.214 103.933 597.213 103.959C597.202 104.06 597.2 104.16 597.195 104.265C597.184 104.363 597.181 104.464 597.176 104.567C597.167 104.666 597.16 104.767 597.157 104.868C597.148 104.97 597.143 105.069 597.139 105.169C597.129 105.272 597.121 105.369 597.117 105.472C597.109 105.571 597.1 105.668 597.098 105.77C597.09 105.867 597.078 105.968 597.076 106.066C597.071 106.108 597.069 106.151 597.067 106.193C597.054 106.293 597.05 106.394 597.043 106.494C597.031 106.595 597.027 106.698 597.023 106.798C597.01 106.895 597.003 106.996 596.999 107.095C596.988 107.195 596.981 107.295 596.976 107.394C596.963 107.492 596.954 107.592 596.951 107.69C596.941 107.789 596.929 107.884 596.924 107.985C596.918 108.042 596.913 108.097 596.909 108.151C596.896 108.25 596.89 108.35 596.885 108.451C596.873 108.549 596.864 108.647 596.858 108.745C596.845 108.847 596.837 108.944 596.832 109.04C596.819 109.139 596.809 109.236 596.803 109.334C596.79 109.431 596.779 109.526 596.773 109.624C596.764 109.689 596.757 109.757 596.75 109.823C596.737 109.921 596.729 110.017 596.721 110.115C596.706 110.213 596.698 110.307 596.689 110.406C596.675 110.501 596.665 110.598 596.655 110.696C596.642 110.79 596.629 110.886 596.621 110.982C596.607 111.076 596.593 111.172 596.584 111.266C596.573 111.339 596.566 111.413 596.559 111.484C596.555 111.508 596.549 111.525 596.546 111.551C596.535 111.622 596.531 111.695 596.524 111.769C596.516 111.815 596.504 111.858 596.498 111.905C596.492 111.953 596.491 112.002 596.486 112.05C596.473 112.12 596.46 112.19 596.451 112.261C596.447 112.285 596.448 112.307 596.446 112.332C596.431 112.408 596.417 112.491 596.409 112.573C596.391 112.663 596.38 112.758 596.37 112.852C596.353 112.943 596.34 113.033 596.329 113.129C596.311 113.217 596.296 113.307 596.285 113.399C596.268 113.49 596.249 113.579 596.238 113.669C596.22 113.755 596.207 113.85 596.196 113.94C596.177 114.026 596.162 114.12 596.15 114.207C596.13 114.295 596.114 114.381 596.101 114.472C596.079 114.565 596.06 114.661 596.047 114.758C596.027 114.844 596.014 114.93 596 115.02C595.98 115.107 595.963 115.194 595.95 115.282C595.928 115.364 595.91 115.449 595.896 115.536C595.871 115.636 595.852 115.737 595.835 115.84C595.814 115.919 595.799 116.005 595.783 116.09C595.761 116.174 595.742 116.256 595.725 116.34C595.699 116.439 595.675 116.538 595.656 116.64C595.635 116.725 595.616 116.807 595.6 116.895C595.576 116.975 595.556 117.057 595.541 117.139C595.513 117.233 595.487 117.328 595.469 117.427C595.442 117.513 595.422 117.602 595.403 117.692C595.379 117.769 595.357 117.849 595.34 117.931C595.31 118.02 595.284 118.116 595.261 118.213C595.234 118.3 595.211 118.388 595.191 118.479C595.166 118.554 595.142 118.635 595.123 118.714C595.092 118.804 595.064 118.899 595.04 118.995C595.01 119.081 594.985 119.168 594.962 119.258C594.936 119.336 594.911 119.414 594.89 119.49C594.856 119.584 594.825 119.675 594.8 119.771C594.769 119.857 594.742 119.943 594.716 120.034C594.688 120.111 594.664 120.191 594.64 120.267C594.604 120.358 594.572 120.448 594.545 120.539C594.511 120.627 594.482 120.716 594.456 120.805C594.425 120.883 594.398 120.961 594.373 121.041C594.337 121.127 594.305 121.214 594.278 121.301C594.24 121.392 594.209 121.484 594.179 121.576C594.146 121.655 594.117 121.734 594.09 121.816C594.057 121.893 594.023 121.976 593.995 122.055C593.953 122.152 593.918 122.245 593.885 122.344C593.85 122.423 593.819 122.505 593.791 122.587C593.754 122.665 593.72 122.748 593.691 122.835C593.652 122.917 593.614 123.003 593.582 123.092C593.542 123.176 593.51 123.263 593.478 123.35C593.439 123.432 593.406 123.516 593.376 123.598C593.337 123.683 593.299 123.765 593.266 123.85C593.225 123.933 593.188 124.017 593.154 124.102C593.115 124.186 593.081 124.272 593.047 124.357C593.006 124.44 592.971 124.524 592.935 124.611C592.894 124.694 592.854 124.779 592.819 124.863C592.782 124.938 592.744 125.018 592.713 125.091C592.713 125.093 592.713 125.093 592.712 125.093C592.708 125.102 592.703 125.113 592.7 125.123C592.663 125.196 592.629 125.272 592.597 125.348C592.554 125.432 592.517 125.518 592.478 125.606C592.435 125.692 592.394 125.776 592.358 125.864C592.313 125.951 592.269 126.037 592.232 126.125C592.201 126.19 592.168 126.255 592.138 126.322C592.134 126.328 592.131 126.333 592.128 126.341C592.083 126.417 592.05 126.5 592.013 126.581C592 126.606 591.984 126.632 591.97 126.656C591.939 126.718 591.915 126.781 591.887 126.839C591.862 126.884 591.836 126.928 591.812 126.974C591.793 127.016 591.776 127.059 591.759 127.1C591.724 127.165 591.688 127.224 591.656 127.291C591.645 127.315 591.638 127.339 591.628 127.361C591.584 127.444 591.539 127.524 591.5 127.607C591.498 127.616 591.496 127.62 591.494 127.628C591.464 127.679 591.437 127.737 591.411 127.793C591.362 127.875 591.321 127.963 591.279 128.054C591.231 128.138 591.187 128.227 591.143 128.315C591.095 128.403 591.049 128.489 591.007 128.58C590.959 128.666 590.912 128.754 590.869 128.846C590.821 128.932 590.773 129.016 590.729 129.108C590.704 129.153 590.679 129.2 590.657 129.245C590.607 129.328 590.564 129.42 590.519 129.506C590.469 129.593 590.424 129.681 590.379 129.77C590.33 129.857 590.283 129.944 590.239 130.033C590.188 130.121 590.141 130.21 590.096 130.298C590.046 130.386 589.997 130.472 589.952 130.564C589.902 130.652 589.85 130.739 589.806 130.829C589.788 130.863 589.768 130.896 589.751 130.929C589.742 130.947 589.735 130.959 589.725 130.976C589.704 131.015 589.679 131.055 589.66 131.098C589.643 131.127 589.627 131.158 589.608 131.19C589.557 131.276 589.511 131.366 589.464 131.451C589.414 131.537 589.367 131.629 589.32 131.717C589.269 131.803 589.221 131.889 589.174 131.981C589.122 132.068 589.073 132.152 589.026 132.244C588.974 132.331 588.925 132.418 588.878 132.508C588.826 132.595 588.775 132.681 588.728 132.774C588.678 132.862 588.626 132.948 588.579 133.039C588.528 133.128 588.474 133.214 588.428 133.307C588.42 133.321 588.411 133.336 588.404 133.349C588.35 133.433 588.303 133.524 588.254 133.612C588.203 133.696 588.156 133.785 588.106 133.873C588.052 133.957 588.004 134.045 587.957 134.136C587.902 134.223 587.855 134.307 587.805 134.397C587.752 134.486 587.702 134.573 587.652 134.663C587.601 134.748 587.55 134.835 587.502 134.926C587.449 135.013 587.396 135.101 587.347 135.191C587.295 135.279 587.243 135.364 587.194 135.454C587.142 135.54 587.09 135.628 587.042 135.72C586.99 135.808 586.935 135.894 586.888 135.986C586.837 136.071 586.785 136.15 586.739 136.236C586.688 136.314 586.644 136.401 586.596 136.485C586.541 136.569 586.494 136.657 586.442 136.744C586.389 136.829 586.34 136.918 586.29 137.007C586.236 137.091 586.187 137.18 586.137 137.267C586.083 137.353 586.033 137.439 585.981 137.529C585.928 137.617 585.879 137.703 585.826 137.792C585.774 137.878 585.722 137.964 585.672 138.053C585.619 138.14 585.568 138.228 585.516 138.315C585.464 138.401 585.41 138.487 585.361 138.577C585.307 138.664 585.254 138.75 585.204 138.84C585.152 138.929 585.098 139.013 585.049 139.103C584.997 139.189 584.942 139.275 584.893 139.367C584.84 139.454 584.784 139.538 584.737 139.629C584.682 139.717 584.627 139.802 584.577 139.894C583.897 141.042 583.501 142.377 583.501 143.809C583.501 148.066 586.954 151.518 591.21 151.518C595.467 151.518 598.921 148.066 598.921 143.809C598.921 143.794 598.917 143.777 598.917 143.76C598.921 143.696 598.93 143.63 598.93 143.562C598.93 143.54 598.927 143.522 598.926 143.504C598.928 143.439 598.938 143.377 598.938 143.313C598.939 143.289 598.935 143.267 598.935 143.242C598.938 143.182 598.946 143.124 598.946 143.064C598.947 143.039 598.944 143.011 598.944 142.984C598.946 142.93 598.954 142.873 598.957 142.816C598.957 142.787 598.952 142.754 598.952 142.726C598.954 142.671 598.963 142.623 598.964 142.571C598.966 142.533 598.961 142.499 598.962 142.466C598.964 142.417 598.971 142.368 598.973 142.323C598.974 142.283 598.971 142.246 598.971 142.205C598.973 142.161 598.98 142.12 598.982 142.074C598.983 142.031 598.979 141.988 598.98 141.946C598.982 141.907 598.989 141.867 598.99 141.827C598.993 141.78 598.988 141.733 598.989 141.686C598.991 141.649 598.999 141.616 599.001 141.579C599.003 141.527 598.999 141.475 599 141.425C599.002 141.394 599.007 141.364 599.009 141.331C599.011 141.277 599.008 141.221 599.009 141.164C599.01 141.139 599.016 141.112 599.017 141.085C599.021 141.025 599.017 140.967 599.018 140.906C599.019 140.882 599.024 140.862 599.025 140.84C599.031 140.773 599.025 140.71 599.028 140.643C599.029 140.626 599.035 140.607 599.036 140.59C599.04 140.518 599.036 140.451 599.039 140.384C599.04 140.369 599.043 140.357 599.043 140.342C599.049 140.268 599.046 140.196 599.048 140.124C599.049 140.111 599.051 140.102 599.051 140.095C599.058 140.015 599.055 139.941 599.058 139.861C599.058 139.857 599.059 139.851 599.06 139.849C599.068 139.755 599.065 139.665 599.069 139.573C599.083 139.409 599.086 139.247 599.088 139.085C599.097 138.955 599.108 138.82 599.108 138.689C599.111 138.605 599.119 138.519 599.119 138.434C599.124 138.35 599.13 138.264 599.132 138.179C599.135 138.093 599.143 138.009 599.144 137.922C599.148 137.837 599.155 137.751 599.156 137.665C599.16 137.578 599.166 137.495 599.169 137.409C599.173 137.324 599.179 137.237 599.181 137.151C599.187 137.065 599.192 136.98 599.194 136.891C599.2 136.807 599.204 136.721 599.208 136.636C599.216 136.551 599.219 136.462 599.222 136.375C599.229 136.289 599.232 136.203 599.235 136.118C599.244 136.031 599.246 135.944 599.25 135.857C599.259 135.77 599.26 135.683 599.266 135.595C599.274 135.513 599.276 135.427 599.28 135.34C599.292 135.221 599.295 135.106 599.301 134.993C599.316 134.841 599.329 134.692 599.33 134.542C599.336 134.457 599.346 134.375 599.347 134.29C599.354 134.205 599.362 134.121 599.364 134.034C599.371 133.949 599.379 133.864 599.381 133.778C599.389 133.694 599.396 133.607 599.399 133.523C599.407 133.437 599.415 133.352 599.418 133.268C599.427 133.18 599.432 133.097 599.437 133.008C599.446 132.925 599.453 132.839 599.456 132.754C599.466 132.667 599.471 132.583 599.477 132.495C599.487 132.41 599.491 132.326 599.499 132.237C599.51 132.151 599.513 132.064 599.519 131.979C599.538 131.845 599.548 131.709 599.555 131.573C599.565 131.47 599.577 131.365 599.582 131.265C599.59 131.18 599.6 131.093 599.605 131.008C599.614 130.923 599.623 130.841 599.628 130.754C599.638 130.668 599.649 130.584 599.653 130.499C599.665 130.414 599.673 130.33 599.679 130.243C599.69 130.158 599.698 130.073 599.702 129.988C599.715 129.9 599.724 129.819 599.731 129.73C599.743 129.646 599.751 129.559 599.759 129.475C599.778 129.355 599.79 129.236 599.799 129.117C599.813 129.014 599.826 128.911 599.835 128.808C599.846 128.723 599.857 128.639 599.863 128.554C599.875 128.467 599.887 128.384 599.895 128.299C599.907 128.214 599.918 128.131 599.926 128.047C599.939 127.962 599.949 127.874 599.957 127.789C599.973 127.706 599.984 127.623 599.992 127.536C600.009 127.449 600.017 127.368 600.029 127.278C600.052 127.153 600.072 127.024 600.082 126.9C600.096 126.816 600.11 126.731 600.119 126.646C600.134 126.563 600.149 126.48 600.157 126.394C600.173 126.309 600.187 126.226 600.196 126.14C600.215 126.057 600.227 125.972 600.237 125.887C600.256 125.802 600.269 125.72 600.281 125.632C600.304 125.534 600.32 125.431 600.334 125.329C600.357 125.229 600.375 125.126 600.387 125.022C600.406 124.938 600.421 124.857 600.433 124.771C600.453 124.687 600.468 124.604 600.481 124.519C600.501 124.435 600.517 124.35 600.529 124.267C600.549 124.184 600.565 124.101 600.581 124.014C600.607 123.912 600.629 123.813 600.645 123.706C600.668 123.613 600.69 123.519 600.705 123.423C600.727 123.339 600.745 123.256 600.76 123.173C600.783 123.086 600.801 123.006 600.817 122.921C600.839 122.838 600.859 122.756 600.875 122.672C600.9 122.588 600.919 122.506 600.937 122.419C600.97 122.312 600.998 122.203 601.019 122.088C601.043 122.008 601.064 121.923 601.082 121.843C601.107 121.762 601.129 121.676 601.148 121.594C601.173 121.51 601.195 121.428 601.216 121.346C601.242 121.265 601.264 121.18 601.286 121.098C601.321 120.995 601.35 120.888 601.375 120.784C601.403 120.7 601.43 120.613 601.449 120.526C601.478 120.444 601.503 120.361 601.524 120.281C601.552 120.198 601.578 120.115 601.6 120.036C601.63 119.956 601.653 119.872 601.677 119.792C601.708 119.707 601.735 119.622 601.759 119.534C601.799 119.433 601.834 119.328 601.861 119.223C601.891 119.143 601.919 119.06 601.944 118.98C601.975 118.899 602.002 118.82 602.027 118.738C602.058 118.658 602.087 118.576 602.113 118.494C602.147 118.418 602.173 118.336 602.2 118.257C602.245 118.147 602.286 118.042 602.321 117.927C602.352 117.85 602.384 117.771 602.41 117.687C602.443 117.611 602.475 117.53 602.502 117.448C602.537 117.37 602.566 117.291 602.595 117.209C602.63 117.133 602.66 117.053 602.69 116.973C602.726 116.894 602.757 116.814 602.786 116.733C602.837 116.626 602.883 116.514 602.923 116.4C602.957 116.324 602.992 116.244 603.02 116.162C603.054 116.085 603.09 116.007 603.12 115.929C603.156 115.852 603.19 115.77 603.22 115.692C603.258 115.615 603.291 115.537 603.322 115.458C603.359 115.382 603.393 115.304 603.424 115.223C603.471 115.132 603.512 115.035 603.552 114.937C603.6 114.841 603.646 114.743 603.686 114.643C603.723 114.566 603.759 114.487 603.792 114.408C603.83 114.333 603.865 114.256 603.9 114.176C603.937 114.101 603.973 114.025 604.007 113.946C604.045 113.868 604.083 113.79 604.116 113.714C604.156 113.639 604.191 113.562 604.225 113.485C604.266 113.41 604.3 113.334 604.335 113.256C604.402 113.137 604.462 113.011 604.516 112.884C604.555 112.81 604.593 112.732 604.629 112.652C604.668 112.578 604.708 112.5 604.744 112.424C604.783 112.349 604.822 112.272 604.859 112.195C604.899 112.121 604.936 112.042 604.973 111.965C605.014 111.891 605.052 111.813 605.089 111.736C605.131 111.665 605.168 111.586 605.205 111.511C605.246 111.437 605.282 111.359 605.32 111.286C605.368 111.2 605.412 111.114 605.454 111.024C605.524 110.906 605.59 110.778 605.649 110.65C605.691 110.573 605.732 110.5 605.768 110.42C605.81 110.346 605.852 110.27 605.888 110.192C605.929 110.118 605.971 110.045 606.008 109.965C606.051 109.89 606.092 109.818 606.129 109.739C606.171 109.668 606.212 109.591 606.251 109.513C606.293 109.439 606.333 109.364 606.371 109.287C606.414 109.214 606.452 109.139 606.492 109.063C606.535 108.991 606.575 108.916 606.614 108.842C606.657 108.769 606.697 108.692 606.735 108.617C606.787 108.533 606.831 108.444 606.878 108.355C606.959 108.221 607.037 108.083 607.106 107.94C607.149 107.866 607.195 107.797 607.233 107.72C607.235 107.712 607.236 107.707 607.241 107.701C607.277 107.637 607.316 107.578 607.35 107.509C607.355 107.501 607.359 107.485 607.367 107.474C607.398 107.415 607.438 107.362 607.469 107.303C607.478 107.285 607.484 107.266 607.493 107.249C607.522 107.196 607.557 107.146 607.586 107.095C607.599 107.072 607.608 107.046 607.62 107.023C607.648 106.976 607.677 106.934 607.704 106.884C607.72 106.857 607.731 106.826 607.746 106.797C607.771 106.757 607.799 106.719 607.822 106.677C607.841 106.645 607.853 106.607 607.872 106.574C607.894 106.539 607.918 106.502 607.939 106.469C607.962 106.429 607.978 106.39 607.999 106.349C608.018 106.319 608.039 106.291 608.057 106.261C608.083 106.216 608.102 106.17 608.126 106.125C608.141 106.1 608.159 106.078 608.174 106.053C608.203 106.003 608.225 105.952 608.253 105.904C608.266 105.881 608.28 105.863 608.293 105.844C608.326 105.79 608.35 105.733 608.382 105.68C608.391 105.663 608.403 105.649 608.412 105.632C608.447 105.573 608.475 105.516 608.507 105.457C608.515 105.445 608.523 105.435 608.529 105.425C608.568 105.363 608.6 105.298 608.635 105.236C608.638 105.226 608.644 105.223 608.648 105.216C608.69 105.15 608.724 105.08 608.763 105.012C608.764 105.009 608.765 105.009 608.766 105.007C608.827 104.881 608.89 104.759 608.957 104.639Z" fill="url(#paint3_linear_1857_53752)"/>
<path d="M637.496 136.978C637.361 136.79 637.219 136.609 637.067 136.431C636.931 136.246 636.785 136.063 636.633 135.886C636.498 135.702 636.355 135.521 636.206 135.348C636.075 135.163 635.935 134.988 635.787 134.814C635.657 134.632 635.52 134.455 635.374 134.285C635.247 134.103 635.113 133.929 634.97 133.761C634.839 133.57 634.697 133.384 634.546 133.211C634.407 133.005 634.257 132.812 634.095 132.626C633.96 132.433 633.818 132.245 633.665 132.065C633.543 131.889 633.411 131.717 633.273 131.554C633.155 131.383 633.027 131.212 632.892 131.052C632.761 130.851 632.614 130.661 632.459 130.48C632.326 130.275 632.18 130.081 632.024 129.896C631.896 129.703 631.76 129.515 631.61 129.34C631.5 129.173 631.38 129.011 631.254 128.857C631.124 128.651 630.978 128.459 630.824 128.274C630.697 128.07 630.557 127.878 630.404 127.693C630.289 127.514 630.169 127.339 630.036 127.18C629.914 126.979 629.776 126.789 629.631 126.614C629.51 126.409 629.376 126.218 629.227 126.038C629.115 125.848 628.993 125.669 628.86 125.503C628.742 125.3 628.609 125.11 628.465 124.93C628.351 124.729 628.227 124.539 628.088 124.36C627.977 124.166 627.853 123.979 627.717 123.808C627.692 123.757 627.667 123.706 627.638 123.661C627.552 123.515 627.458 123.379 627.359 123.248C627.298 123.135 627.236 123.023 627.165 122.913C627.111 122.831 627.051 122.754 626.992 122.675C626.903 122.501 626.806 122.33 626.69 122.171C626.676 122.149 626.66 122.135 626.648 122.117C626.549 121.914 626.43 121.721 626.295 121.536C626.199 121.333 626.084 121.135 625.951 120.947C625.862 120.756 625.756 120.57 625.632 120.39C625.54 120.176 625.426 119.97 625.289 119.772C625.205 119.571 625.1 119.377 624.979 119.191C624.897 118.989 624.797 118.797 624.679 118.609C624.599 118.4 624.5 118.201 624.382 118.009C624.305 117.797 624.206 117.59 624.087 117.396C624.016 117.187 623.923 116.988 623.813 116.798C623.744 116.588 623.657 116.387 623.55 116.196C623.486 115.985 623.402 115.785 623.298 115.591C623.234 115.369 623.149 115.152 623.044 114.949C622.983 114.736 622.905 114.529 622.807 114.332C622.752 114.119 622.677 113.913 622.585 113.716C622.533 113.501 622.461 113.293 622.371 113.093C622.319 112.861 622.245 112.639 622.15 112.425C622.102 112.211 622.038 112.006 621.956 111.81C621.91 111.585 621.842 111.367 621.761 111.16C621.716 110.932 621.655 110.712 621.573 110.501C621.531 110.283 621.471 110.071 621.394 109.867C621.353 109.639 621.297 109.417 621.222 109.204C621.219 109.182 621.217 109.162 621.212 109.136C621.173 108.937 621.118 108.749 621.054 108.562C621.039 108.471 621.027 108.381 621.006 108.29C620.976 108.162 620.939 108.041 620.9 107.92C620.876 107.76 620.843 107.602 620.799 107.444C620.782 107.379 620.758 107.32 620.737 107.256C620.704 107.038 620.661 106.816 620.592 106.598C620.591 106.591 620.588 106.583 620.585 106.575C620.553 106.367 620.505 106.16 620.445 105.953C620.412 105.72 620.362 105.49 620.296 105.263C620.265 105.038 620.22 104.813 620.156 104.589C620.127 104.381 620.084 104.174 620.027 103.966C619.999 103.73 619.95 103.495 619.888 103.264C619.856 103.025 619.815 102.786 619.751 102.546C619.723 102.353 619.686 102.158 619.638 101.963C619.611 101.734 619.567 101.507 619.511 101.281C619.483 101.041 619.44 100.802 619.38 100.562C619.352 100.327 619.311 100.091 619.253 99.8557C619.227 99.6471 619.19 99.4391 619.142 99.2336C619.117 99.0195 619.078 98.8073 619.033 98.5957C619.006 98.3633 618.966 98.1346 618.915 97.9047C618.889 97.6632 618.847 97.4204 618.794 97.1789C618.766 96.949 618.727 96.7185 618.677 96.4885C618.65 96.2708 618.613 96.0519 618.566 95.8341C618.541 95.6146 618.503 95.392 618.456 95.1712C618.431 94.9468 618.395 94.7217 618.35 94.4991C618.324 94.2722 618.29 94.046 618.244 93.8228C618.219 93.5928 618.186 93.3629 618.14 93.1366C618.114 92.9043 618.074 92.678 618.029 92.4481C618.003 92.2224 617.965 91.9974 617.922 91.7742C617.896 91.5461 617.858 91.321 617.815 91.0942C617.787 90.8642 617.751 90.6355 617.709 90.408C617.685 90.2092 617.658 90.011 617.621 89.8122C617.595 89.5597 617.557 89.3078 617.51 89.0541C617.485 88.823 617.449 88.593 617.408 88.3613C617.382 88.1301 617.347 87.899 617.304 87.6678C617.277 87.4337 617.246 87.2001 617.202 86.9701C616.96 84.8539 616.03 82.8071 614.408 81.1854C610.596 77.3731 604.415 77.3731 600.602 81.1854C596.962 84.8252 596.801 90.6184 600.109 94.4522C600.25 94.64 600.398 94.8248 600.552 95.0023C600.693 95.1907 600.839 95.3773 600.997 95.5548C601.132 95.7378 601.273 95.9165 601.424 96.0903C601.559 96.2708 601.702 96.4495 601.852 96.6215C601.97 96.7801 602.098 96.9295 602.226 97.0826C602.357 97.2625 602.501 97.4387 602.647 97.6119C602.795 97.8181 602.957 98.0193 603.125 98.2157C603.267 98.4158 603.419 98.6127 603.584 98.8018C603.593 98.8128 603.606 98.8232 603.615 98.8341C603.726 98.9836 603.835 99.1354 603.956 99.2781C603.978 99.3074 604.006 99.3287 604.027 99.3519C604.125 99.4879 604.221 99.6239 604.328 99.7569C604.365 99.7984 604.404 99.8362 604.441 99.8789C604.528 99.9972 604.607 100.118 604.701 100.234C604.751 100.291 604.804 100.345 604.854 100.403C604.926 100.503 604.994 100.61 605.074 100.71C605.136 100.786 605.204 100.856 605.268 100.932C605.329 101.016 605.382 101.102 605.445 101.188C605.521 101.284 605.605 101.374 605.683 101.464C605.73 101.529 605.77 101.599 605.819 101.666C605.908 101.782 606.004 101.89 606.098 101.999C606.129 102.046 606.157 102.096 606.192 102.14C606.292 102.28 606.405 102.409 606.514 102.538C606.532 102.564 606.546 102.592 606.564 102.616C606.678 102.779 606.802 102.931 606.928 103.076C606.93 103.086 606.932 103.09 606.936 103.095C607.076 103.299 607.227 103.491 607.385 103.675C607.513 103.862 607.651 104.038 607.794 104.205C607.923 104.397 608.059 104.574 608.203 104.746C608.332 104.936 608.469 105.116 608.612 105.288C608.74 105.48 608.875 105.664 609.02 105.835C609.146 106.029 609.282 106.214 609.427 106.387C609.55 106.577 609.683 106.758 609.825 106.931C609.949 107.126 610.085 107.306 610.229 107.481C610.353 107.674 610.49 107.859 610.634 108.033C610.755 108.228 610.889 108.418 611.035 108.593C611.157 108.792 611.287 108.984 611.433 109.161C611.545 109.344 611.667 109.52 611.799 109.685C611.917 109.883 612.05 110.067 612.191 110.246C612.309 110.451 612.44 110.64 612.584 110.821C612.697 111.02 612.82 111.21 612.961 111.385C613.066 111.575 613.183 111.75 613.313 111.92C613.422 112.128 613.553 112.319 613.693 112.502C613.801 112.708 613.923 112.905 614.062 113.087C614.161 113.279 614.273 113.46 614.399 113.632C614.501 113.84 614.62 114.036 614.755 114.217C614.853 114.424 614.967 114.621 615.098 114.805C615.189 115.001 615.295 115.186 615.415 115.359C615.509 115.577 615.625 115.783 615.757 115.98C615.842 116.178 615.944 116.368 616.063 116.547C616.147 116.757 616.249 116.954 616.369 117.144C616.449 117.356 616.551 117.554 616.669 117.748C616.743 117.95 616.837 118.142 616.946 118.331C617.02 118.547 617.119 118.758 617.235 118.96C617.303 119.166 617.387 119.36 617.493 119.55C617.56 119.772 617.649 119.988 617.76 120.193C617.82 120.398 617.9 120.599 617.998 120.789C618.057 121.005 618.137 121.22 618.237 121.423C618.294 121.638 618.368 121.847 618.464 122.049C618.516 122.26 618.586 122.465 618.677 122.665C618.728 122.891 618.8 123.115 618.895 123.332C618.942 123.537 619.005 123.74 619.087 123.94C619.133 124.162 619.199 124.38 619.285 124.592C619.329 124.813 619.389 125.035 619.472 125.249C619.512 125.458 619.568 125.663 619.641 125.864C619.68 126.091 619.742 126.316 619.821 126.535C619.86 126.761 619.912 126.988 619.99 127.211C620.026 127.419 620.076 127.624 620.142 127.83C620.176 128.05 620.232 128.272 620.302 128.49C620.337 128.718 620.388 128.943 620.457 129.168C620.489 129.394 620.535 129.619 620.604 129.843C620.633 130.052 620.679 130.258 620.737 130.467C620.767 130.69 620.82 130.918 620.883 131.142C620.914 131.369 620.961 131.594 621.023 131.818C621.051 132.04 621.095 132.265 621.154 132.489C621.184 132.712 621.223 132.936 621.281 133.159C621.308 133.364 621.343 133.567 621.392 133.773C621.398 133.793 621.406 133.811 621.411 133.829C621.434 134.002 621.46 134.179 621.498 134.351C621.51 134.405 621.526 134.452 621.539 134.503C621.559 134.646 621.574 134.788 621.603 134.929C621.619 135.014 621.645 135.095 621.666 135.179C621.678 135.287 621.689 135.398 621.708 135.509C621.728 135.625 621.759 135.735 621.785 135.848C621.795 135.927 621.799 136.009 621.811 136.089C621.835 136.234 621.869 136.373 621.903 136.514C621.908 136.566 621.91 136.616 621.916 136.667C621.941 136.84 621.978 137.009 622.016 137.177C622.019 137.199 622.017 137.224 622.021 137.247C622.049 137.474 622.091 137.699 622.141 137.921C622.168 138.146 622.207 138.371 622.256 138.59C622.285 138.818 622.322 139.043 622.37 139.262C622.397 139.488 622.434 139.713 622.482 139.93C622.508 140.153 622.544 140.376 622.591 140.597C622.618 140.822 622.653 141.043 622.697 141.261C622.722 141.484 622.758 141.705 622.803 141.922C622.826 142.133 622.858 142.341 622.899 142.544C622.924 142.797 622.962 143.042 623.008 143.286C623.466 147.459 627.025 150.687 631.312 150.643C635.879 150.598 639.545 146.858 639.5 142.292C639.479 140.257 638.726 138.404 637.496 136.978Z" fill="url(#paint4_linear_1857_53752)"/>
<path d="M658.832 113.532C658.913 113.467 658.993 113.402 659.072 113.337C659.154 113.271 659.235 113.206 659.314 113.139C659.395 113.072 659.476 113.007 659.557 112.941C659.637 112.878 659.718 112.812 659.798 112.744C659.881 112.682 659.963 112.616 660.042 112.548C660.124 112.481 660.207 112.417 660.287 112.349C660.367 112.283 660.451 112.22 660.53 112.151C660.614 112.086 660.697 112.021 660.776 111.953C660.792 111.941 660.807 111.93 660.82 111.918C660.872 111.878 660.92 111.836 660.97 111.796C660.988 111.783 661.006 111.769 661.024 111.755C661.037 111.742 661.049 111.734 661.061 111.721C661.144 111.66 661.225 111.595 661.305 111.528C661.387 111.465 661.468 111.397 661.548 111.331C661.63 111.267 661.712 111.204 661.793 111.136C661.874 111.072 661.956 111.006 662.036 110.937C662.117 110.875 662.201 110.81 662.281 110.743C662.363 110.679 662.446 110.614 662.527 110.545C662.905 110.25 663.27 109.933 663.618 109.584C668.454 104.781 668.481 96.9669 663.675 92.1318C658.869 87.2979 651.054 87.2698 646.218 92.0757C644.096 94.1853 642.9 96.8742 642.63 99.6364C642.621 99.7254 642.607 99.8169 642.6 99.9065C642.589 99.9968 642.576 100.086 642.569 100.176C642.557 100.265 642.545 100.357 642.536 100.449C642.525 100.537 642.513 100.627 642.505 100.716C642.494 100.81 642.481 100.9 642.472 100.987C642.46 101.078 642.449 101.17 642.441 101.261C642.428 101.35 642.417 101.442 642.408 101.532C642.394 101.621 642.385 101.712 642.375 101.804C642.361 101.895 642.352 101.987 642.342 102.076C642.328 102.165 642.318 102.256 642.309 102.348C642.295 102.439 642.286 102.53 642.275 102.621C642.262 102.713 642.252 102.804 642.241 102.894C642.219 103.041 642.202 103.188 642.187 103.335C642.171 103.449 642.156 103.562 642.144 103.677C642.132 103.766 642.12 103.855 642.111 103.946C642.098 104.035 642.086 104.122 642.078 104.214C642.064 104.305 642.053 104.395 642.042 104.482C642.029 104.573 642.018 104.663 642.009 104.754C641.995 104.843 641.985 104.934 641.973 105.023C641.96 105.112 641.949 105.204 641.937 105.294C641.924 105.384 641.914 105.473 641.902 105.563C641.889 105.656 641.878 105.746 641.866 105.838C641.853 105.927 641.841 106.018 641.83 106.108C641.816 106.2 641.806 106.29 641.793 106.379C641.768 106.529 641.748 106.679 641.734 106.83C641.72 106.918 641.707 107.009 641.697 107.098C641.684 107.187 641.671 107.278 641.659 107.365C641.645 107.457 641.632 107.546 641.622 107.635C641.607 107.723 641.595 107.815 641.584 107.903C641.57 107.993 641.558 108.084 641.546 108.175C641.531 108.264 641.52 108.353 641.507 108.445C641.491 108.538 641.479 108.635 641.466 108.728C641.459 108.782 641.454 108.833 641.445 108.887C641.444 108.903 641.441 108.921 641.439 108.938C641.424 109.024 641.415 109.11 641.402 109.196C641.387 109.28 641.378 109.369 641.365 109.457C641.348 109.541 641.34 109.627 641.326 109.716C641.303 109.834 641.291 109.95 641.276 110.068C641.247 110.224 641.224 110.383 641.204 110.541C641.18 110.678 641.154 110.811 641.14 110.946C641.129 111.03 641.11 111.112 641.1 111.197C641.087 111.281 641.072 111.364 641.06 111.447C641.047 111.531 641.03 111.614 641.02 111.697C641.005 111.782 640.99 111.864 640.979 111.949C640.963 112.034 640.949 112.116 640.938 112.202C640.922 112.283 640.907 112.369 640.896 112.451C640.879 112.537 640.867 112.619 640.852 112.706C640.836 112.791 640.824 112.873 640.809 112.959C640.792 113.043 640.781 113.125 640.766 113.21C640.747 113.295 640.736 113.379 640.721 113.466C640.695 113.582 640.679 113.699 640.66 113.816C640.628 113.965 640.599 114.114 640.577 114.266C640.559 114.364 640.535 114.459 640.521 114.558C640.505 114.641 640.486 114.721 640.475 114.802C640.457 114.883 640.439 114.965 640.426 115.049C640.409 115.129 640.39 115.214 640.378 115.296C640.358 115.378 640.342 115.459 640.328 115.541C640.308 115.623 640.292 115.707 640.278 115.789C640.258 115.872 640.242 115.955 640.226 116.037C640.206 116.12 640.191 116.203 640.174 116.285C640.139 116.416 640.114 116.55 640.089 116.684C640.06 116.802 640.03 116.917 640.009 117.039C639.991 117.117 639.969 117.197 639.954 117.279C639.934 117.358 639.914 117.441 639.899 117.52C639.877 117.601 639.858 117.681 639.841 117.761C639.817 117.842 639.799 117.923 639.783 118.003C639.759 118.085 639.74 118.168 639.722 118.248C639.695 118.332 639.675 118.42 639.654 118.511C639.612 118.641 639.576 118.777 639.547 118.915C639.522 119.001 639.495 119.087 639.476 119.175C639.451 119.251 639.428 119.331 639.411 119.409C639.385 119.487 639.362 119.568 639.342 119.646C639.315 119.726 639.292 119.804 639.271 119.883C639.243 119.96 639.222 120.04 639.199 120.122C639.161 120.231 639.128 120.339 639.096 120.452C639.059 120.553 639.025 120.656 638.996 120.763C638.97 120.839 638.941 120.914 638.92 120.994C638.889 121.069 638.863 121.146 638.838 121.222C638.81 121.301 638.782 121.376 638.757 121.455C638.726 121.53 638.699 121.608 638.672 121.685C638.623 121.799 638.579 121.915 638.54 122.038C638.505 122.12 638.47 122.202 638.44 122.287C638.408 122.359 638.376 122.434 638.347 122.511C638.314 122.586 638.284 122.661 638.254 122.736C638.218 122.807 638.186 122.883 638.156 122.956C638.107 123.054 638.064 123.155 638.022 123.256C637.976 123.347 637.931 123.439 637.891 123.533C637.855 123.605 637.819 123.676 637.787 123.751C637.749 123.822 637.714 123.894 637.68 123.966C637.64 124.036 637.605 124.108 637.57 124.181C637.517 124.27 637.469 124.363 637.424 124.459C637.375 124.544 637.322 124.627 637.277 124.719C637.274 124.727 637.272 124.732 637.269 124.74C637.239 124.789 637.206 124.834 637.18 124.885C637.168 124.907 637.161 124.927 637.15 124.949C637.127 124.984 637.103 125.019 637.081 125.052C637.063 125.088 637.046 125.124 637.028 125.16C637.014 125.182 636.998 125.199 636.984 125.223C636.955 125.269 636.931 125.318 636.903 125.366C636.899 125.375 636.892 125.382 636.887 125.389C636.835 125.467 636.79 125.546 636.745 125.625C636.681 125.718 636.62 125.809 636.565 125.906C636.519 125.975 636.473 126.039 636.432 126.111C636.384 126.176 636.339 126.241 636.297 126.312C636.247 126.375 636.203 126.444 636.159 126.51C636.101 126.579 636.053 126.655 636.003 126.728C635.924 126.829 635.851 126.927 635.782 127.032C635.732 127.096 635.682 127.161 635.635 127.23C635.585 127.291 635.534 127.354 635.488 127.42C635.437 127.483 635.386 127.545 635.338 127.612C635.285 127.676 635.237 127.739 635.188 127.802C635.112 127.888 635.04 127.977 634.971 128.07C634.901 128.149 634.829 128.232 634.764 128.316C634.711 128.379 634.655 128.44 634.604 128.505C634.55 128.568 634.496 128.625 634.444 128.69C634.388 128.752 634.336 128.812 634.282 128.876C634.226 128.934 634.172 128.996 634.12 129.058C634.044 129.135 633.975 129.217 633.905 129.3C633.816 129.39 633.73 129.48 633.65 129.574C633.593 129.637 633.533 129.694 633.478 129.757C633.422 129.817 633.363 129.875 633.309 129.938C633.251 129.996 633.194 130.056 633.138 130.117C633.079 130.177 633.021 130.235 632.968 130.293C632.907 130.351 632.851 130.412 632.793 130.471C632.719 130.541 632.653 130.613 632.584 130.686C632.477 130.782 632.374 130.885 632.277 130.99C632.213 131.052 632.147 131.112 632.085 131.18C632.024 131.239 631.963 131.294 631.906 131.356C631.844 131.413 631.784 131.47 631.724 131.53C631.663 131.59 631.602 131.644 631.544 131.704C631.482 131.761 631.423 131.818 631.364 131.876C631.301 131.932 631.242 131.99 631.183 132.048C631.12 132.101 631.062 132.162 631.003 132.217C630.913 132.293 630.831 132.376 630.748 132.456C630.633 132.554 630.522 132.657 630.414 132.763C630.345 132.827 630.273 132.887 630.208 132.953C630.145 133.012 630.079 133.066 630.018 133.127C629.955 133.182 629.89 133.238 629.829 133.297C629.765 133.353 629.701 133.409 629.638 133.465C629.574 133.522 629.512 133.579 629.449 133.636C629.384 133.69 629.323 133.747 629.26 133.804C629.195 133.858 629.133 133.917 629.071 133.973C629.005 134.026 628.945 134.085 628.882 134.138C628.816 134.193 628.757 134.252 628.693 134.305C628.624 134.361 628.563 134.421 628.498 134.479C628.377 134.575 628.263 134.68 628.148 134.785C628.027 134.888 627.906 134.985 627.792 135.094C627.725 135.154 627.656 135.205 627.594 135.262C627.528 135.321 627.461 135.377 627.399 135.433C627.332 135.491 627.265 135.544 627.201 135.603C627.193 135.609 627.183 135.616 627.175 135.623C627.17 135.625 627.167 135.631 627.162 135.633C627.121 135.667 627.079 135.701 627.039 135.736C626.965 135.799 626.892 135.856 626.823 135.921C626.752 135.979 626.682 136.038 626.613 136.099C626.542 136.158 626.473 136.216 626.406 136.275C626.335 136.332 626.266 136.392 626.197 136.452C624.286 137.999 623.062 140.368 623.062 143.017C623.062 147.687 626.847 151.471 631.518 151.471C635.822 151.471 639.374 148.257 639.902 144.097C639.917 143.997 639.933 143.898 639.945 143.8C639.961 143.7 639.976 143.603 639.989 143.504C640.005 143.406 640.02 143.308 640.034 143.21C640.048 143.121 640.063 143.032 640.074 142.943C640.086 142.863 640.095 142.78 640.105 142.701C640.123 142.591 640.141 142.484 640.155 142.372C640.175 142.263 640.192 142.156 640.207 142.044C640.224 141.935 640.245 141.828 640.258 141.716C640.275 141.608 640.296 141.502 640.31 141.392C640.327 141.292 640.349 141.192 640.36 141.09C640.382 140.989 640.391 140.883 640.41 140.781C640.432 140.672 640.447 140.564 640.463 140.455C640.486 140.343 640.502 140.235 640.52 140.122C640.542 140.017 640.56 139.908 640.575 139.799C640.597 139.691 640.618 139.584 640.632 139.474C640.654 139.366 640.675 139.261 640.691 139.154C640.693 139.136 640.695 139.122 640.699 139.11C640.705 139.077 640.71 139.044 640.718 139.011C640.727 138.952 640.741 138.893 640.747 138.833C640.752 138.817 640.756 138.799 640.759 138.781C640.782 138.673 640.8 138.566 640.818 138.456C640.843 138.351 640.863 138.242 640.879 138.137C640.904 138.029 640.924 137.922 640.942 137.817C640.966 137.711 640.989 137.606 641.007 137.501C641.015 137.464 641.024 137.427 641.03 137.387C641.038 137.353 641.047 137.316 641.054 137.28C641.059 137.25 641.068 137.217 641.072 137.185C641.081 137.147 641.089 137.107 641.096 137.068C641.122 136.965 641.141 136.857 641.162 136.751C641.188 136.649 641.21 136.545 641.228 136.442C641.253 136.336 641.278 136.236 641.298 136.132C641.312 136.078 641.324 136.024 641.337 135.966C641.365 135.868 641.384 135.761 641.406 135.658C641.432 135.556 641.457 135.457 641.477 135.355C641.503 135.256 641.529 135.156 641.551 135.058C641.57 134.987 641.588 134.922 641.602 134.854C641.631 134.756 641.654 134.657 641.674 134.557C641.702 134.462 641.727 134.365 641.75 134.267C641.779 134.173 641.807 134.079 641.829 133.983C641.852 133.908 641.872 133.827 641.892 133.751C641.922 133.658 641.946 133.564 641.971 133.469C642 133.381 642.029 133.294 642.053 133.202C642.081 133.118 642.107 133.032 642.129 132.947C642.158 132.856 642.185 132.767 642.209 132.68C642.239 132.595 642.272 132.513 642.296 132.424C642.326 132.334 642.356 132.243 642.383 132.153C642.414 132.07 642.441 131.987 642.467 131.902C642.503 131.814 642.538 131.722 642.569 131.629C642.601 131.546 642.628 131.463 642.656 131.381C642.687 131.305 642.719 131.227 642.746 131.146C642.788 131.053 642.821 130.955 642.858 130.855C642.891 130.78 642.921 130.705 642.95 130.629C642.994 130.535 643.036 130.436 643.073 130.338C643.107 130.265 643.137 130.191 643.165 130.117C643.205 130.031 643.247 129.947 643.284 129.86C643.324 129.778 643.359 129.693 643.394 129.612C643.433 129.537 643.473 129.459 643.508 129.381C643.555 129.295 643.597 129.206 643.635 129.115C643.672 129.047 643.708 128.982 643.743 128.911C643.795 128.822 643.841 128.728 643.885 128.635C643.908 128.597 643.932 128.561 643.955 128.52C643.97 128.492 643.98 128.463 643.994 128.436C644.049 128.347 644.1 128.256 644.147 128.162C644.187 128.099 644.224 128.035 644.262 127.965C644.319 127.878 644.377 127.785 644.428 127.689C644.467 127.629 644.506 127.562 644.546 127.493C644.602 127.415 644.657 127.33 644.708 127.243C644.755 127.175 644.8 127.1 644.845 127.028C644.898 126.957 644.952 126.881 644.998 126.805C645.054 126.731 645.106 126.649 645.158 126.566C645.206 126.504 645.254 126.443 645.298 126.374C645.362 126.292 645.422 126.205 645.481 126.115C645.532 126.051 645.58 125.987 645.626 125.919C645.692 125.84 645.755 125.759 645.814 125.676C645.867 125.611 645.916 125.542 645.965 125.474C646.023 125.408 646.078 125.343 646.13 125.272C646.194 125.197 646.253 125.12 646.311 125.041C646.372 124.975 646.427 124.908 646.482 124.837C646.544 124.766 646.605 124.697 646.663 124.623C646.725 124.555 646.782 124.483 646.837 124.412C646.9 124.343 646.962 124.273 647.022 124.2C647.082 124.136 647.14 124.076 647.196 124.01C647.261 123.938 647.32 123.867 647.384 123.794C647.453 123.724 647.519 123.653 647.582 123.578C647.636 123.521 647.692 123.467 647.742 123.41C647.813 123.339 647.878 123.264 647.945 123.193C648.015 123.122 648.085 123.048 648.151 122.974C648.223 122.901 648.299 122.829 648.367 122.754C648.415 122.707 648.46 122.662 648.506 122.612C648.582 122.542 648.651 122.467 648.722 122.392C648.797 122.321 648.872 122.245 648.943 122.171C649.019 122.099 649.097 122.026 649.168 121.949C649.206 121.912 649.244 121.879 649.281 121.839C649.319 121.807 649.354 121.768 649.392 121.732C649.395 121.729 649.397 121.727 649.4 121.724C649.438 121.691 649.47 121.653 649.507 121.618C649.587 121.546 649.664 121.47 649.737 121.396C649.817 121.324 649.896 121.249 649.97 121.172C650.052 121.1 650.133 121.026 650.208 120.949C650.232 120.926 650.255 120.906 650.279 120.882C650.312 120.853 650.342 120.823 650.373 120.795C650.396 120.772 650.424 120.75 650.446 120.725C650.468 120.703 650.491 120.683 650.515 120.661C650.596 120.589 650.674 120.514 650.752 120.439C650.834 120.368 650.915 120.294 650.993 120.219C651.076 120.146 651.159 120.071 651.237 119.995C651.319 119.924 651.403 119.848 651.482 119.775C651.489 119.767 651.493 119.761 651.5 119.757C651.5 119.754 651.503 119.754 651.505 119.751C651.578 119.683 651.659 119.618 651.73 119.547C651.735 119.542 651.737 119.54 651.742 119.536C651.825 119.465 651.905 119.39 651.985 119.319C652.07 119.248 652.15 119.174 652.232 119.099C652.317 119.029 652.399 118.954 652.478 118.88C652.564 118.81 652.647 118.735 652.727 118.662C652.815 118.59 652.899 118.516 652.98 118.443C653.066 118.37 653.151 118.298 653.234 118.223C653.31 118.155 653.394 118.093 653.467 118.021C653.537 117.965 653.601 117.902 653.667 117.845C653.755 117.774 653.834 117.7 653.918 117.63C654.003 117.56 654.085 117.485 654.17 117.414C654.256 117.345 654.337 117.272 654.421 117.198C654.508 117.128 654.593 117.056 654.675 116.984C654.761 116.912 654.846 116.841 654.931 116.768C655.016 116.697 655.102 116.626 655.186 116.552C655.188 116.55 655.191 116.547 655.193 116.545C655.31 116.456 655.421 116.362 655.532 116.266C655.61 116.203 655.688 116.138 655.763 116.072C655.843 116.009 655.921 115.944 655.997 115.878C656.076 115.812 656.154 115.748 656.231 115.682C656.312 115.615 656.391 115.55 656.468 115.482C656.548 115.419 656.629 115.354 656.706 115.286C656.751 115.251 656.794 115.213 656.836 115.175C656.848 115.168 656.859 115.162 656.867 115.155C656.938 115.097 657.004 115.036 657.073 114.981C657.095 114.961 657.115 114.949 657.138 114.93C657.196 114.883 657.253 114.832 657.309 114.785C657.34 114.759 657.375 114.733 657.408 114.708C657.454 114.67 657.5 114.627 657.548 114.589C657.59 114.553 657.634 114.52 657.676 114.484C657.714 114.457 657.747 114.421 657.787 114.392C657.839 114.348 657.895 114.309 657.948 114.263C657.975 114.241 658.002 114.216 658.026 114.192C658.091 114.14 658.155 114.094 658.219 114.039C658.236 114.025 658.251 114.013 658.268 113.997C658.342 113.936 658.417 113.879 658.489 113.817C658.497 113.81 658.503 113.803 658.51 113.799C658.538 113.772 658.571 113.749 658.6 113.724C658.675 113.664 658.754 113.598 658.832 113.532Z" fill="url(#paint5_linear_1857_53752)"/>
<path d="M679.388 142.842C679.318 142.753 679.246 142.669 679.172 142.582C679.102 142.496 679.032 142.409 678.956 142.327C678.888 142.241 678.819 142.154 678.745 142.072C678.692 142.003 678.636 141.938 678.579 141.873C678.511 141.784 678.44 141.699 678.364 141.615C678.297 141.529 678.225 141.445 678.153 141.362C678.086 141.275 678.019 141.191 677.946 141.109C677.882 141.022 677.815 140.938 677.746 140.855C677.682 140.773 677.621 140.694 677.552 140.617C677.489 140.53 677.42 140.446 677.349 140.362C677.285 140.279 677.221 140.196 677.152 140.116C677.088 140.031 677.027 139.949 676.96 139.869C676.896 139.783 676.833 139.699 676.764 139.616C676.7 139.525 676.63 139.436 676.558 139.353C676.499 139.268 676.438 139.188 676.371 139.111C676.316 139.031 676.258 138.949 676.197 138.875C676.129 138.775 676.06 138.68 675.986 138.591C675.925 138.504 675.864 138.422 675.797 138.341C675.745 138.261 675.689 138.186 675.632 138.111C675.569 138.015 675.502 137.921 675.43 137.83C675.37 137.741 675.309 137.651 675.241 137.567C675.195 137.495 675.144 137.418 675.092 137.35C675.029 137.244 674.96 137.146 674.886 137.052C674.834 136.965 674.779 136.884 674.72 136.807C674.669 136.719 674.614 136.636 674.555 136.554C674.547 136.542 674.542 136.529 674.535 136.516C674.483 136.424 674.425 136.34 674.366 136.258C674.343 136.219 674.323 136.177 674.297 136.139C674.276 136.106 674.252 136.076 674.231 136.044C674.179 135.949 674.121 135.853 674.061 135.763C674.055 135.755 674.048 135.749 674.047 135.744C674.005 135.667 673.959 135.592 673.911 135.519C673.859 135.416 673.799 135.317 673.735 135.217C673.694 135.135 673.647 135.057 673.599 134.98C673.552 134.875 673.492 134.777 673.433 134.676C673.394 134.592 673.349 134.509 673.3 134.428C673.253 134.326 673.202 134.223 673.142 134.125C673.103 134.039 673.061 133.956 673.014 133.873C672.97 133.767 672.923 133.666 672.867 133.568C672.83 133.478 672.789 133.392 672.742 133.308C672.705 133.208 672.662 133.108 672.611 133.013C672.575 132.92 672.535 132.828 672.49 132.742C672.458 132.65 672.421 132.561 672.379 132.475C672.343 132.371 672.301 132.265 672.253 132.165C672.223 132.076 672.189 131.984 672.149 131.9C672.116 131.79 672.076 131.685 672.03 131.587C672.004 131.493 671.969 131.406 671.934 131.32C671.903 131.209 671.867 131.102 671.822 130.996C671.797 130.908 671.767 130.821 671.733 130.732C671.704 130.622 671.67 130.511 671.629 130.405C671.605 130.316 671.579 130.23 671.548 130.143C671.522 130.028 671.489 129.917 671.45 129.807C671.429 129.722 671.404 129.64 671.379 129.555C671.355 129.436 671.321 129.325 671.284 129.211C671.265 129.122 671.241 129.033 671.214 128.947C671.191 128.834 671.165 128.731 671.131 128.624C671.11 128.516 671.083 128.406 671.051 128.301C671.035 128.213 671.014 128.127 670.99 128.043C670.969 127.924 670.943 127.81 670.913 127.696C670.892 127.593 670.869 127.488 670.842 127.389C670.825 127.293 670.807 127.199 670.781 127.108C670.763 126.997 670.743 126.89 670.716 126.783C670.714 126.773 670.714 126.764 670.714 126.756C670.698 126.657 670.674 126.563 670.65 126.468C670.642 126.427 670.639 126.386 670.633 126.343C670.622 126.285 670.604 126.231 670.591 126.173C670.578 126.094 670.569 126.012 670.553 125.932C670.548 125.911 670.54 125.891 670.535 125.869C670.521 125.762 670.502 125.653 670.477 125.549C670.461 125.446 670.441 125.345 670.419 125.242C670.403 125.136 670.385 125.033 670.363 124.928C670.349 124.822 670.331 124.717 670.309 124.61C670.294 124.502 670.281 124.394 670.257 124.288C670.245 124.192 670.226 124.097 670.208 124.002C670.195 123.895 670.177 123.788 670.154 123.68C670.142 123.572 670.126 123.465 670.103 123.355C670.09 123.244 670.075 123.136 670.054 123.027C670.04 122.914 670.028 122.805 670.005 122.69C669.995 122.612 669.984 122.529 669.969 122.451C669.958 122.339 669.94 122.23 669.921 122.12C669.908 122.007 669.891 121.901 669.87 121.785C669.859 121.675 669.844 121.565 669.825 121.453C669.812 121.339 669.798 121.228 669.777 121.116C669.766 121 669.753 120.888 669.734 120.773C669.722 120.658 669.709 120.547 669.689 120.43C669.683 120.373 669.675 120.314 669.666 120.256C669.654 120.144 669.638 120.031 669.62 119.919C669.609 119.806 669.595 119.693 669.577 119.582C669.566 119.467 669.551 119.354 669.533 119.24C669.523 119.126 669.508 119.013 669.491 118.898C669.479 118.785 669.466 118.671 669.448 118.555C669.437 118.439 669.424 118.325 669.406 118.209C669.394 118.095 669.384 117.977 669.367 117.862C669.353 117.747 669.342 117.63 669.324 117.516C669.322 117.488 669.317 117.459 669.315 117.431C669.313 117.403 669.308 117.373 669.305 117.345C669.296 117.284 669.292 117.227 669.281 117.164C669.279 117.141 669.276 117.117 669.272 117.093C669.264 116.979 669.247 116.867 669.234 116.753C669.225 116.635 669.208 116.524 669.193 116.41C669.183 116.295 669.169 116.18 669.154 116.066C669.145 115.951 669.13 115.837 669.115 115.721C669.106 115.607 669.092 115.493 669.077 115.378C669.067 115.258 669.054 115.146 669.039 115.031C669.028 114.913 669.014 114.8 669.002 114.685C668.99 114.567 668.978 114.451 668.963 114.335C668.95 114.217 668.942 114.104 668.924 113.984C668.913 113.87 668.903 113.753 668.888 113.637C668.873 113.521 668.866 113.404 668.849 113.285C668.837 113.172 668.829 113.059 668.813 112.944C668.809 112.891 668.8 112.835 668.795 112.779C668.788 112.74 668.788 112.692 668.782 112.65C668.775 112.536 668.757 112.427 668.746 112.313C668.737 112.199 668.722 112.088 668.709 111.973C668.702 111.856 668.685 111.743 668.673 111.628C668.666 111.513 668.651 111.398 668.638 111.284C668.63 111.168 668.616 111.055 668.604 110.94C668.595 110.842 668.584 110.744 668.575 110.644C668.564 110.501 668.551 110.363 668.535 110.222C668.526 110.11 668.513 110.002 668.502 109.892C668.491 109.785 668.479 109.676 668.467 109.564C668.457 109.452 668.446 109.344 668.435 109.236C668.426 109.124 668.415 109.016 668.401 108.902C668.391 108.791 668.382 108.682 668.368 108.569C668.359 108.461 668.348 108.35 668.335 108.239C668.326 108.124 668.316 108.016 668.303 107.905C668.297 107.831 668.288 107.756 668.281 107.681C668.272 107.57 668.259 107.461 668.248 107.352C668.24 107.24 668.225 107.131 668.215 107.021C668.205 106.91 668.193 106.803 668.182 106.691C668.173 106.582 668.161 106.469 668.151 106.358C668.141 106.247 668.13 106.14 668.117 106.028C668.108 105.915 668.098 105.808 668.085 105.693C668.074 105.584 668.065 105.472 668.053 105.362C668.044 105.248 668.033 105.14 668.021 105.028C668.011 104.916 668.002 104.806 667.988 104.693C667.979 104.582 667.97 104.471 667.957 104.356C667.947 104.245 667.937 104.132 667.924 104.023C667.915 103.91 667.906 103.798 667.893 103.686C667.884 103.575 667.874 103.465 667.862 103.35C667.85 103.238 667.842 103.125 667.829 103.014C667.826 102.967 667.822 102.919 667.815 102.873C667.807 102.76 667.796 102.652 667.786 102.539C667.776 102.428 667.764 102.32 667.753 102.208C667.745 102.096 667.733 101.987 667.722 101.878C667.713 101.763 667.702 101.652 667.691 101.54C667.682 101.429 667.671 101.32 667.659 101.208C667.651 101.096 667.64 100.985 667.627 100.872C667.62 100.762 667.608 100.652 667.597 100.54C667.588 100.427 667.578 100.315 667.566 100.202C667.557 100.093 667.547 99.9803 667.535 99.8675C667.526 99.7559 667.514 99.6455 667.503 99.5339C667.274 96.6876 666.073 93.9053 663.896 91.7292C659.028 86.8624 651.134 86.8624 646.266 91.7292C641.491 96.5003 641.401 104.179 645.99 109.062C646.059 109.143 646.132 109.218 646.205 109.297C646.274 109.374 646.347 109.452 646.42 109.528C646.489 109.604 646.563 109.682 646.635 109.759C646.705 109.836 646.778 109.913 646.849 109.99C646.92 110.068 646.994 110.145 647.065 110.222C647.187 110.363 647.315 110.496 647.444 110.633C647.523 110.717 647.6 110.804 647.68 110.887C647.683 110.892 647.687 110.895 647.69 110.897C647.753 110.967 647.816 111.037 647.882 111.107C647.889 111.116 647.895 111.12 647.901 111.125C647.964 111.194 648.02 111.258 648.084 111.325C648.095 111.336 648.104 111.345 648.112 111.355C648.17 111.417 648.226 111.481 648.286 111.546C648.298 111.559 648.311 111.57 648.322 111.583C648.379 111.642 648.431 111.702 648.489 111.765C648.503 111.78 648.52 111.797 648.534 111.812C648.586 111.868 648.637 111.926 648.691 111.983C648.709 112.002 648.728 112.019 648.746 112.042C648.797 112.094 648.842 112.149 648.891 112.203C648.915 112.227 648.936 112.247 648.958 112.272C649.005 112.321 649.047 112.372 649.095 112.424C649.119 112.448 649.146 112.475 649.171 112.499C649.213 112.546 649.252 112.593 649.294 112.64C649.324 112.671 649.356 112.698 649.383 112.729C649.421 112.772 649.457 112.816 649.498 112.857C649.529 112.892 649.564 112.925 649.596 112.961C649.63 112.997 649.666 113.04 649.7 113.077C649.737 113.116 649.772 113.151 649.809 113.191C649.84 113.224 649.869 113.262 649.903 113.298C649.94 113.34 649.982 113.381 650.021 113.422C650.049 113.453 650.076 113.485 650.102 113.517C650.144 113.562 650.191 113.606 650.233 113.653C650.257 113.679 650.281 113.71 650.305 113.736C650.351 113.787 650.399 113.834 650.445 113.886C650.465 113.906 650.485 113.932 650.506 113.957C650.557 114.011 650.609 114.061 650.66 114.115C650.676 114.136 650.692 114.156 650.71 114.176C650.762 114.237 650.818 114.292 650.873 114.348C650.887 114.363 650.896 114.379 650.91 114.394C650.967 114.459 651.028 114.518 651.085 114.582C651.096 114.591 651.103 114.604 651.113 114.613C651.173 114.683 651.235 114.747 651.299 114.813C651.305 114.82 651.31 114.825 651.314 114.832C651.379 114.906 651.445 114.977 651.512 115.047C651.512 115.05 651.515 115.05 651.515 115.05C651.625 115.176 651.736 115.3 651.852 115.418C651.92 115.496 651.989 115.572 652.063 115.647C652.132 115.724 652.201 115.802 652.273 115.874C652.342 115.953 652.411 116.031 652.485 116.105C652.554 116.182 652.624 116.263 652.696 116.337C652.766 116.413 652.835 116.491 652.907 116.566C652.977 116.645 653.047 116.723 653.121 116.797C653.19 116.878 653.26 116.956 653.332 117.034C653.462 117.176 653.595 117.322 653.731 117.458C653.801 117.533 653.864 117.613 653.935 117.684C654.003 117.756 654.067 117.835 654.137 117.904C654.204 117.975 654.268 118.056 654.338 118.125C654.405 118.199 654.467 118.278 654.539 118.347C654.606 118.419 654.67 118.497 654.74 118.569C654.808 118.644 654.872 118.719 654.941 118.791C655.007 118.866 655.073 118.942 655.142 119.013C655.211 119.088 655.274 119.166 655.343 119.238C655.411 119.312 655.477 119.387 655.546 119.459C655.611 119.535 655.678 119.612 655.748 119.684C655.814 119.757 655.88 119.834 655.949 119.908C656.016 119.983 656.083 120.058 656.152 120.133C656.217 120.208 656.287 120.281 656.354 120.356C656.421 120.433 656.487 120.505 656.557 120.58C656.622 120.659 656.691 120.733 656.76 120.806C656.825 120.882 656.894 120.96 656.961 121.034C657.026 121.11 657.095 121.186 657.165 121.26C657.229 121.339 657.298 121.411 657.368 121.486C657.432 121.565 657.502 121.639 657.571 121.712C657.66 121.828 657.761 121.933 657.859 122.039C657.97 122.173 658.081 122.306 658.202 122.427C658.267 122.503 658.329 122.581 658.398 122.65C658.463 122.725 658.525 122.803 658.595 122.875C658.658 122.949 658.722 123.027 658.789 123.096C658.854 123.17 658.918 123.248 658.985 123.319C659.05 123.397 659.115 123.472 659.183 123.544C659.246 123.62 659.311 123.699 659.379 123.771C659.443 123.848 659.507 123.924 659.577 123.997C659.64 124.075 659.706 124.15 659.773 124.225C659.837 124.304 659.903 124.379 659.97 124.453C660.032 124.532 660.099 124.605 660.166 124.683C660.229 124.762 660.298 124.837 660.365 124.912C660.442 125.015 660.528 125.108 660.613 125.203C660.704 125.32 660.797 125.431 660.896 125.537C660.959 125.614 661.019 125.692 661.088 125.764C661.149 125.839 661.21 125.917 661.278 125.99C661.341 126.069 661.403 126.145 661.47 126.219C661.53 126.299 661.593 126.375 661.66 126.448C661.722 126.528 661.786 126.606 661.852 126.68C661.913 126.759 661.977 126.838 662.043 126.911C662.103 126.992 662.167 127.072 662.234 127.147C662.304 127.241 662.378 127.331 662.454 127.419C662.531 127.525 662.615 127.626 662.7 127.724C662.761 127.804 662.82 127.884 662.887 127.958C662.946 128.037 663.006 128.114 663.072 128.189C663.131 128.271 663.193 128.351 663.259 128.426C663.317 128.507 663.378 128.588 663.444 128.662C663.502 128.746 663.562 128.823 663.626 128.904C663.697 129.008 663.775 129.107 663.858 129.203C663.917 129.29 663.981 129.377 664.049 129.456C664.105 129.539 664.164 129.619 664.227 129.695C664.285 129.78 664.344 129.861 664.405 129.938C664.462 130.024 664.521 130.103 664.583 130.183C664.637 130.266 664.697 130.348 664.759 130.427C664.824 130.532 664.894 130.631 664.97 130.728C665.024 130.81 665.082 130.893 665.141 130.971C665.194 131.057 665.252 131.138 665.311 131.221C665.362 131.306 665.42 131.389 665.479 131.472C665.537 131.574 665.599 131.671 665.669 131.762C665.72 131.851 665.774 131.933 665.834 132.016C665.884 132.102 665.937 132.186 665.995 132.268C666.043 132.359 666.096 132.444 666.154 132.53C666.206 132.627 666.263 132.725 666.326 132.817C666.372 132.906 666.423 132.992 666.478 133.074C666.525 133.166 666.574 133.253 666.629 133.338C666.672 133.428 666.722 133.518 666.775 133.602C666.822 133.703 666.873 133.799 666.932 133.892C666.974 133.983 667.02 134.071 667.072 134.159C667.113 134.25 667.157 134.341 667.206 134.426C667.246 134.518 667.289 134.613 667.338 134.698C667.378 134.799 667.427 134.895 667.478 134.993C667.513 135.084 667.556 135.175 667.602 135.267C667.638 135.358 667.679 135.452 667.722 135.541C667.76 135.641 667.801 135.744 667.849 135.842C667.882 135.936 667.919 136.03 667.963 136.119C667.995 136.214 668.032 136.309 668.076 136.398C668.105 136.494 668.14 136.59 668.18 136.682C668.212 136.784 668.251 136.889 668.293 136.992C668.322 137.088 668.357 137.181 668.394 137.276C668.42 137.371 668.452 137.466 668.487 137.559C668.516 137.666 668.548 137.773 668.588 137.876C668.612 137.975 668.645 138.073 668.681 138.169C668.704 138.264 668.734 138.36 668.767 138.456C668.789 138.552 668.815 138.648 668.848 138.745C668.871 138.845 668.898 138.947 668.93 139.045C668.952 139.157 668.982 139.264 669.018 139.372C669.039 139.471 669.062 139.566 669.094 139.665C669.112 139.76 669.134 139.855 669.165 139.955C669.182 140.05 669.204 140.147 669.231 140.243C669.254 140.367 669.28 140.485 669.314 140.609C669.335 140.706 669.354 140.805 669.381 140.902C669.4 141.001 669.419 141.1 669.447 141.194C669.464 141.295 669.482 141.392 669.508 141.487C669.523 141.586 669.543 141.681 669.567 141.78C669.581 141.875 669.601 141.974 669.624 142.07C669.642 142.202 669.666 142.335 669.697 142.468C669.699 142.471 669.7 142.474 669.701 142.479C669.714 142.559 669.725 142.64 669.744 142.721C669.746 142.741 669.753 142.757 669.758 142.775C669.767 142.842 669.774 142.909 669.788 142.978C669.793 143.01 669.805 143.041 669.811 143.069C669.818 143.126 669.823 143.179 669.831 143.233C669.842 143.277 669.855 143.322 669.862 143.367C669.869 143.405 669.869 143.445 669.877 143.487C669.887 143.545 669.902 143.603 669.914 143.658C669.917 143.685 669.917 143.714 669.922 143.742C669.933 143.813 669.948 143.881 669.963 143.954C669.963 143.967 669.963 143.981 669.966 143.994C669.977 144.079 669.994 144.161 670.011 144.244C670.011 144.246 670.011 144.248 670.011 144.251C670.027 144.405 670.052 144.554 670.083 144.702C670.097 144.804 670.109 144.903 670.13 145.002C670.143 145.103 670.157 145.2 670.175 145.299C670.19 145.4 670.203 145.498 670.22 145.596C670.233 145.696 670.245 145.797 670.265 145.894C670.274 145.993 670.289 146.091 670.308 146.188C670.317 146.288 670.331 146.385 670.347 146.484C670.359 146.582 670.374 146.68 670.388 146.778C670.636 149.412 672.85 151.474 675.55 151.474C678.414 151.474 680.735 149.154 680.735 146.288C680.721 144.971 680.214 143.76 679.388 142.842Z" fill="url(#paint6_linear_1857_53752)"/>
<defs>
<linearGradient id="paint0_linear_1857_53752" x1="332" y1="0" x2="643.15" y2="86.1448" gradientUnits="userSpaceOnUse">
<stop stop-color="#FFC500"/>
<stop offset="0.411458" stop-color="#DC2223"/>
<stop offset="1" stop-color="#720096"/>
</linearGradient>
<linearGradient id="paint1_linear_1857_53752" x1="395.251" y1="37.0503" x2="551.72" y2="75.9543" gradientUnits="userSpaceOnUse">
<stop stop-color="#FFC500"/>
<stop offset="0.411458" stop-color="#DC2223"/>
<stop offset="1" stop-color="#720096"/>
</linearGradient>
<linearGradient id="paint2_linear_1857_53752" x1="381.596" y1="165.633" x2="345.366" y2="-20.376" gradientUnits="userSpaceOnUse">
<stop stop-color="#FB6E00"/>
<stop offset="1" stop-color="#FFC500"/>
</linearGradient>
<linearGradient id="paint3_linear_1857_53752" x1="586.451" y1="128.583" x2="608.313" y2="104.881" gradientUnits="userSpaceOnUse">
<stop stop-color="#FF0097"/>
<stop offset="1" stop-color="#FFC516"/>
</linearGradient>
<linearGradient id="paint4_linear_1857_53752" x1="633.657" y1="131.003" x2="605.34" y2="97.4516" gradientUnits="userSpaceOnUse">
<stop stop-color="#FF7300"/>
<stop offset="1" stop-color="#FFC516"/>
</linearGradient>
<linearGradient id="paint5_linear_1857_53752" x1="648.32" y1="113.322" x2="626.844" y2="137.284" gradientUnits="userSpaceOnUse">
<stop stop-color="#6E0097"/>
<stop offset="1" stop-color="#FF7300"/>
</linearGradient>
<linearGradient id="paint6_linear_1857_53752" x1="653.729" y1="98.3745" x2="687.339" y2="152.141" gradientUnits="userSpaceOnUse">
<stop offset="0.0221" stop-color="#6E0097"/>
<stop offset="1" stop-color="#FF0009"/>
</linearGradient>
<clipPath id="clip0_1857_53752">
<rect width="133.975" height="134.693" fill="white" transform="translate(398.883 39.6519)"/>
</clipPath>
<clipPath id="clip1_1857_53752">
<rect width="133.975" height="134.693" fill="white" transform="translate(394.721 36.5303)"/>
</clipPath>
<clipPath id="clip2_1857_53752">
<rect width="133.975" height="134.693" fill="white" transform="translate(394.721 36.5303)"/>
</clipPath>
</defs>
</svg>
