<svg width="320" height="332" viewBox="0 0 320 332" fill="none" xmlns="http://www.w3.org/2000/svg">
<path opacity="0.04" d="M228.594 146.134C227.327 146.134 226.06 146.187 224.804 146.23C221.875 88.1894 172.705 42 112.471 42C50.3527 42 0 91.1175 0 151.671C0 212.224 50.3527 261.341 112.471 261.341C121.72 261.346 130.936 260.237 139.921 258.041C148.694 299.779 185.056 331.073 228.594 331.073C278.691 331.073 319.312 289.653 319.312 238.566C319.312 187.479 278.691 146.134 228.594 146.134Z" fill="url(#paint0_linear_1839_46835)"/>
<path opacity="0.72" fill-rule="evenodd" clip-rule="evenodd" d="M83.8608 142.397L83.8605 142.429V156.11C82.5636 156.37 81.335 156.924 80.2719 157.736C78.7694 158.885 77.6778 160.49 77.1602 162.312L47.9032 265.372C47.5428 266.573 47.4681 267.842 47.6852 269.077C47.9022 270.313 48.4048 271.48 49.1529 272.485C49.9009 273.49 50.8735 274.306 51.9927 274.867C53.1118 275.428 54.3465 275.718 55.5976 275.714H239.607C241.497 275.695 243.33 275.065 244.832 273.916C246.335 272.767 247.426 271.162 247.944 269.341L280.832 153.442C281.192 152.241 281.267 150.972 281.05 149.737C280.833 148.502 280.33 147.335 279.582 146.329C278.834 145.324 277.861 144.508 276.742 143.947C275.623 143.387 274.388 143.097 273.137 143.101H205.068C203.178 143.117 201.344 143.747 199.841 144.896C198.422 145.98 197.37 147.472 196.823 149.169H159.853C158.963 149.17 158.082 148.996 157.259 148.656C156.437 148.317 155.69 147.818 155.061 147.189C154.432 146.56 153.933 145.812 153.593 144.99C153.254 144.168 153.079 143.287 153.081 142.397C153.084 141.512 152.911 140.635 152.573 139.816C152.235 138.998 151.739 138.254 151.112 137.629C150.486 137.003 149.742 136.508 148.923 136.171C148.426 135.967 147.908 135.824 147.38 135.744C147.024 135.686 146.663 135.657 146.298 135.657H90.6324C90.2094 135.66 89.7906 135.702 89.381 135.781C88.9252 135.865 88.4783 135.997 88.0474 136.173C87.2273 136.51 86.4816 137.005 85.8527 137.63C85.2239 138.255 84.7243 138.997 84.3825 139.815C84.0407 140.633 83.8633 141.511 83.8605 142.397L83.8608 142.397Z" fill="white"/>
<path fill-rule="evenodd" clip-rule="evenodd" d="M42.7606 107.388C42.7682 105.4 43.4857 103.487 44.7714 101.99C44.9162 101.82 45.0682 101.655 45.2272 101.496C46.7911 99.932 48.9074 99.046 51.119 99.0293H119.796C120.894 99.0279 121.982 99.2431 122.997 99.6627C124.011 100.082 124.933 100.698 125.71 101.474C126.157 101.922 126.551 102.418 126.885 102.952C127.135 103.349 127.351 103.767 127.53 104.202C127.947 105.212 128.159 106.295 128.155 107.388C128.155 108.489 128.372 109.578 128.795 110.595C129.218 111.611 129.838 112.534 130.618 113.309C131.399 114.085 132.326 114.699 133.345 115.115C134.364 115.532 135.455 115.743 136.556 115.736H236.164C238.383 115.744 240.51 116.625 242.084 118.19C243.658 119.754 244.553 121.875 244.576 124.094V128.353L244.523 128.347V263.163C244.524 264.261 244.309 265.348 243.889 266.363C243.47 267.378 242.854 268.3 242.078 269.076C241.301 269.852 240.379 270.468 239.364 270.888C238.35 271.307 237.262 271.522 236.164 271.521H51.119C50.021 271.522 48.9335 271.307 47.9187 270.888C46.904 270.468 45.982 269.852 45.2056 269.076C44.4292 268.3 43.8136 267.378 43.394 266.363C42.9745 265.348 42.7592 264.261 42.7606 263.163L42.7606 107.388Z" fill="white"/>
<path d="M44.7714 101.99L45.1508 102.315L45.152 102.314L44.7714 101.99ZM42.7606 107.388L42.2606 107.386V107.388H42.7606ZM45.2272 101.496L45.5808 101.849H45.5808L45.2272 101.496ZM51.119 99.0293V98.5293L51.1152 98.5293L51.119 99.0293ZM119.796 99.0293V99.5293L119.797 99.5293L119.796 99.0293ZM122.997 99.6627L123.188 99.2006L122.997 99.6627ZM125.71 101.474L125.356 101.828V101.828L125.71 101.474ZM126.885 102.952L126.461 103.217L126.462 103.218L126.885 102.952ZM127.53 104.202L127.992 104.011V104.011L127.53 104.202ZM128.155 107.388L127.655 107.386V107.388L128.155 107.388ZM128.795 110.595L129.257 110.403V110.403L128.795 110.595ZM133.345 115.115L133.534 114.653L133.345 115.115ZM136.556 115.736V115.236L136.552 115.236L136.556 115.736ZM236.164 115.736L236.166 115.236H236.164V115.736ZM242.084 118.19L241.732 118.544V118.544L242.084 118.19ZM244.576 124.094H245.076L245.076 124.089L244.576 124.094ZM244.576 128.353L244.524 128.85L245.076 128.908V128.353H244.576ZM244.523 128.347L244.574 127.85L244.023 127.793V128.347H244.523ZM244.523 263.163H244.023V263.163L244.523 263.163ZM243.889 266.363L243.427 266.172L243.889 266.363ZM239.364 270.888L239.556 271.35L239.364 270.888ZM236.164 271.521L236.165 271.021H236.164V271.521ZM51.119 271.521V271.021H51.1184L51.119 271.521ZM47.9187 270.888L47.7277 271.35H47.7277L47.9187 270.888ZM45.2056 269.076L44.8521 269.43L45.2056 269.076ZM43.394 266.363L43.8561 266.172L43.394 266.363ZM42.7606 263.163L43.2606 263.163V263.163H42.7606ZM44.392 101.664C43.0292 103.252 42.2687 105.278 42.2606 107.386L43.2606 107.39C43.2678 105.521 43.9422 103.723 45.1507 102.315L44.392 101.664ZM44.8737 101.142C44.7052 101.311 44.5442 101.485 44.3908 101.665L45.152 102.314C45.2882 102.154 45.4312 101.999 45.5808 101.849L44.8737 101.142ZM51.1152 98.5293C48.7723 98.547 46.5304 99.4856 44.8737 101.142L45.5808 101.849C47.0518 100.378 49.0425 99.545 51.1228 99.5293L51.1152 98.5293ZM119.796 98.5293H51.119V99.5293H119.796V98.5293ZM123.188 99.2006C122.112 98.7559 120.959 98.5278 119.796 98.5293L119.797 99.5293C120.829 99.528 121.852 99.7303 122.805 100.125L123.188 99.2006ZM126.063 101.121C125.24 100.298 124.263 99.6453 123.188 99.2006L122.805 100.125C123.759 100.519 124.626 101.098 125.356 101.828L126.063 101.121ZM127.309 102.687C126.955 102.121 126.538 101.595 126.063 101.121L125.356 101.828C125.777 102.249 126.147 102.715 126.461 103.217L127.309 102.687ZM127.992 104.011C127.802 103.55 127.573 103.107 127.309 102.686L126.462 103.218C126.696 103.591 126.899 103.984 127.068 104.393L127.992 104.011ZM128.655 107.39C128.659 106.231 128.434 105.083 127.992 104.011L127.068 104.393C127.459 105.342 127.659 106.359 127.655 107.386L128.655 107.39ZM129.257 110.403C128.859 109.447 128.655 108.423 128.655 107.388L127.655 107.388C127.655 108.554 127.885 109.71 128.333 110.787L129.257 110.403ZM130.971 112.955C130.237 112.225 129.654 111.358 129.257 110.403L128.333 110.787C128.782 111.864 129.438 112.842 130.266 113.664L130.971 112.955ZM133.534 114.653C132.576 114.261 131.705 113.684 130.971 112.955L130.266 113.664C131.094 114.486 132.076 115.137 133.156 115.578L133.534 114.653ZM136.552 115.236C135.518 115.242 134.492 115.044 133.534 114.653L133.156 115.578C134.236 116.02 135.392 116.243 136.559 116.236L136.552 115.236ZM236.164 115.236H136.556V116.236H236.164V115.236ZM242.437 117.835C240.769 116.178 238.517 115.244 236.166 115.236L236.162 116.236C238.25 116.243 240.251 117.073 241.732 118.544L242.437 117.835ZM245.076 124.089C245.052 121.738 244.104 119.492 242.437 117.835L241.732 118.544C243.213 120.016 244.055 122.011 244.076 124.099L245.076 124.089ZM245.076 128.353V124.094H244.076V128.353H245.076ZM244.471 128.845L244.524 128.85L244.628 127.856L244.574 127.85L244.471 128.845ZM245.023 263.163V128.347H244.023V263.163H245.023ZM244.351 266.554C244.796 265.478 245.024 264.326 245.023 263.162L244.023 263.163C244.024 264.196 243.822 265.218 243.427 266.172L244.351 266.554ZM242.431 269.43C243.254 268.607 243.907 267.629 244.351 266.554L243.427 266.172C243.033 267.126 242.454 267.993 241.724 268.723L242.431 269.43ZM239.556 271.35C240.631 270.905 241.608 270.253 242.431 269.43L241.724 268.723C240.994 269.452 240.127 270.031 239.173 270.426L239.556 271.35ZM236.164 272.021C237.327 272.023 238.48 271.794 239.556 271.35L239.173 270.426C238.219 270.82 237.197 271.022 236.165 271.021L236.164 272.021ZM51.119 272.021H236.164V271.021H51.119V272.021ZM47.7277 271.35C48.8032 271.794 49.9558 272.023 51.1196 272.021L51.1184 271.021C50.0861 271.022 49.0637 270.82 48.1098 270.426L47.7277 271.35ZM44.8521 269.43C45.675 270.253 46.6522 270.905 47.7277 271.35L48.1098 270.426C47.1558 270.031 46.2891 269.452 45.5592 268.723L44.8521 269.43ZM42.932 266.554C43.3766 267.629 44.0291 268.607 44.8521 269.43L45.5592 268.723C44.8293 267.993 44.2505 267.126 43.8561 266.172L42.932 266.554ZM42.2606 263.162C42.2591 264.326 42.4873 265.478 42.932 266.554L43.8561 266.172C43.4617 265.218 43.2593 264.196 43.2606 263.163L42.2606 263.162ZM42.2606 107.388L42.2606 263.163H43.2606L43.2606 107.388H42.2606Z" fill="#720096"/>
<path fill-rule="evenodd" clip-rule="evenodd" d="M192.669 145.261V145.4L192.679 145.389C192.168 147.203 191.08 148.802 189.58 149.943C188.08 151.084 186.248 151.706 184.364 151.714H81.1454C79.2493 151.734 77.4106 152.367 75.904 153.518C75.0049 154.206 74.2528 155.055 73.6827 156.017C73.2725 156.69 72.9521 157.42 72.7337 158.187L43.4101 261.267C43.013 262.619 42.9799 264.051 43.3143 265.42C43.3143 265.379 43.3143 265.339 43.3154 265.297C43.5647 266.378 44.0354 267.397 44.6996 268.288C45.4492 269.295 46.4242 270.111 47.5464 270.673C48.6686 271.234 49.9068 271.524 51.1616 271.521H235.632C237.528 271.501 239.367 270.868 240.873 269.716C242.38 268.565 243.473 266.957 243.99 265.132L276.998 149.222C277.361 148.021 277.437 146.751 277.22 145.515C277.004 144.279 276.501 143.111 275.751 142.105C275.001 141.099 274.026 140.282 272.904 139.721C271.782 139.159 270.544 138.869 269.289 138.873H201.027C199.131 138.893 197.292 139.526 195.786 140.677C194.279 141.829 193.186 143.437 192.669 145.261Z" fill="white"/>
<path d="M192.669 145.4H192.169V146.605L193.022 145.754L192.669 145.4ZM192.669 145.261L192.188 145.125L192.169 145.192V145.261H192.669ZM192.679 145.389L193.161 145.525L193.679 143.686L192.326 145.035L192.679 145.389ZM189.58 149.943L189.277 149.545V149.545L189.58 149.943ZM184.364 151.714V152.214L184.366 152.214L184.364 151.714ZM81.1454 151.714V151.214L81.1401 151.214L81.1454 151.714ZM75.904 153.518L75.6004 153.121V153.121L75.904 153.518ZM73.6827 156.017L74.1097 156.277L74.1128 156.272L73.6827 156.017ZM72.7337 158.187L73.2146 158.324L73.2146 158.324L72.7337 158.187ZM43.4101 261.267L43.8899 261.408L43.8911 261.404L43.4101 261.267ZM43.3143 265.42L42.8286 265.538L43.8143 269.572V265.42H43.3143ZM43.3154 265.297L43.8026 265.185L42.9168 261.346L42.8155 265.285L43.3154 265.297ZM44.6996 268.288L45.1006 267.99H45.1006L44.6996 268.288ZM47.5464 270.673L47.7701 270.225L47.5464 270.673ZM51.1616 271.521V271.021H51.1601L51.1616 271.521ZM235.632 271.521V272.021L235.637 272.021L235.632 271.521ZM240.873 269.716L240.57 269.319L240.873 269.716ZM243.99 265.132L243.509 264.995L243.509 264.996L243.99 265.132ZM276.998 149.222L276.519 149.078L276.517 149.085L276.998 149.222ZM277.22 145.515L277.713 145.429V145.429L277.22 145.515ZM275.751 142.105L275.35 142.404V142.404L275.751 142.105ZM272.904 139.721L272.681 140.168V140.168L272.904 139.721ZM269.289 138.873V139.373L269.29 139.373L269.289 138.873ZM201.027 138.873V138.373L201.022 138.373L201.027 138.873ZM195.786 140.677L195.482 140.28V140.28L195.786 140.677ZM193.169 145.4V145.261H192.169V145.4H193.169ZM192.326 145.035L192.316 145.046L193.022 145.754L193.032 145.743L192.326 145.035ZM189.883 150.341C191.469 149.134 192.62 147.443 193.161 145.525L192.198 145.253C191.716 146.963 190.691 148.47 189.277 149.545L189.883 150.341ZM184.366 152.214C186.359 152.205 188.296 151.548 189.883 150.341L189.277 149.545C187.863 150.62 186.138 151.206 184.361 151.214L184.366 152.214ZM81.1454 152.214H184.364V151.214H81.1454V152.214ZM76.2077 153.916C77.6284 152.83 79.3625 152.233 81.1507 152.214L81.1401 151.214C79.136 151.235 77.1927 151.904 75.6004 153.121L76.2077 153.916ZM74.1128 156.272C74.6505 155.365 75.3597 154.564 76.2077 153.916L75.6004 153.121C74.6501 153.847 73.8552 154.746 73.2526 155.762L74.1128 156.272ZM73.2557 155.757C72.8222 156.468 72.4836 157.239 72.2528 158.051L73.2146 158.324C73.4206 157.6 73.7228 156.912 74.1097 156.277L73.2557 155.757ZM72.2528 158.051L42.9292 261.13L43.8911 261.404L73.2146 158.324L72.2528 158.051ZM42.9304 261.126C42.5084 262.562 42.4733 264.084 42.8286 265.538L43.8 265.301C43.4865 264.018 43.5175 262.675 43.8898 261.408L42.9304 261.126ZM43.8143 265.42C43.8143 265.378 43.8143 265.344 43.8152 265.31L42.8155 265.285C42.8143 265.333 42.8143 265.38 42.8143 265.42H43.8143ZM45.1006 267.99C44.4778 267.153 44.0363 266.198 43.8026 265.185L42.8282 265.41C43.093 266.558 43.5931 267.64 44.2986 268.587L45.1006 267.99ZM47.7701 270.225C46.7178 269.699 45.8035 268.933 45.1006 267.99L44.2986 268.587C45.0949 269.656 46.1306 270.523 47.3227 271.12L47.7701 270.225ZM51.1601 271.021C49.9835 271.024 48.8224 270.752 47.7701 270.225L47.3227 271.12C48.5148 271.716 49.8301 272.025 51.1631 272.021L51.1601 271.021ZM235.632 271.021H51.1616V272.021H235.632V271.021ZM240.57 269.319C239.149 270.405 237.415 271.002 235.627 271.021L235.637 272.021C237.641 272 239.585 271.33 241.177 270.113L240.57 269.319ZM243.509 264.996C243.022 266.716 241.99 268.233 240.57 269.319L241.177 270.113C242.769 268.896 243.925 267.197 244.471 265.269L243.509 264.996ZM276.517 149.085L243.509 264.995L244.471 265.269L277.479 149.359L276.517 149.085ZM276.728 145.602C276.931 146.761 276.859 147.951 276.519 149.078L277.477 149.367C277.862 148.091 277.943 146.742 277.713 145.429L276.728 145.602ZM275.35 142.404C276.053 143.347 276.525 144.443 276.728 145.602L277.713 145.429C277.483 144.116 276.948 142.875 276.152 141.806L275.35 142.404ZM272.681 140.168C273.733 140.694 274.647 141.46 275.35 142.404L276.152 141.806C275.356 140.737 274.32 139.87 273.128 139.274L272.681 140.168ZM269.29 139.373C270.467 139.369 271.628 139.642 272.681 140.168L273.128 139.274C271.936 138.677 270.62 138.369 269.288 138.373L269.29 139.373ZM201.027 139.373H269.289V138.373H201.027V139.373ZM196.089 141.075C197.51 139.989 199.244 139.392 201.032 139.373L201.022 138.373C199.018 138.394 197.074 139.063 195.482 140.28L196.089 141.075ZM193.15 145.398C193.637 143.677 194.669 142.16 196.089 141.075L195.482 140.28C193.89 141.497 192.734 143.197 192.188 145.125L193.15 145.398Z" fill="url(#paint1_linear_1839_46835)"/>
<path opacity="0.72" fill-rule="evenodd" clip-rule="evenodd" d="M160.137 65.2747C159.228 65.2747 158.49 66.0121 158.49 66.9217V70.4903H154.922C154.012 70.4903 153.275 71.2278 153.275 72.1374C153.275 73.047 154.012 73.7845 154.922 73.7845H158.49V77.3531C158.49 78.2627 159.228 79.0001 160.137 79.0001C161.047 79.0001 161.784 78.2627 161.784 77.3531V73.7845H165.353C166.263 73.7845 167 73.047 167 72.1374C167 71.2278 166.263 70.4903 165.353 70.4903H161.784V66.9217C161.784 66.0121 161.047 65.2747 160.137 65.2747Z" fill="white"/>
<mask id="path-8-inside-1_1839_46835" fill="white">
<path fill-rule="evenodd" clip-rule="evenodd" d="M159.216 65C158.663 65 158.216 65.4477 158.216 66V70.2157H154C153.448 70.2157 153 70.6634 153 71.2157V72.5098C153 73.0621 153.448 73.5098 154 73.5098H158.216V77.7255C158.216 78.2778 158.663 78.7255 159.216 78.7255H160.51C161.062 78.7255 161.51 78.2778 161.51 77.7255V73.5098H165.725C166.278 73.5098 166.725 73.0621 166.725 72.5098V71.2157C166.725 70.6634 166.278 70.2157 165.725 70.2157H161.51V66C161.51 65.4477 161.062 65 160.51 65H159.216Z"/>
</mask>
<path fill-rule="evenodd" clip-rule="evenodd" d="M159.216 65C158.663 65 158.216 65.4477 158.216 66V70.2157H154C153.448 70.2157 153 70.6634 153 71.2157V72.5098C153 73.0621 153.448 73.5098 154 73.5098H158.216V77.7255C158.216 78.2778 158.663 78.7255 159.216 78.7255H160.51C161.062 78.7255 161.51 78.2778 161.51 77.7255V73.5098H165.725C166.278 73.5098 166.725 73.0621 166.725 72.5098V71.2157C166.725 70.6634 166.278 70.2157 165.725 70.2157H161.51V66C161.51 65.4477 161.062 65 160.51 65H159.216Z" fill="white"/>
<path d="M158.216 70.2157V70.9657H158.966V70.2157H158.216ZM158.216 73.5098H158.966V72.7598H158.216V73.5098ZM161.51 73.5098V72.7598H160.76V73.5098H161.51ZM161.51 70.2157H160.76V70.9657H161.51V70.2157ZM158.966 66C158.966 65.8619 159.078 65.75 159.216 65.75V64.25C158.249 64.25 157.466 65.0335 157.466 66H158.966ZM158.966 70.2157V66H157.466V70.2157H158.966ZM154 70.9657H158.216V69.4657H154V70.9657ZM153.75 71.2157C153.75 71.0776 153.862 70.9657 154 70.9657V69.4657C153.034 69.4657 152.25 70.2492 152.25 71.2157H153.75ZM153.75 72.5098V71.2157H152.25V72.5098H153.75ZM154 72.7598C153.862 72.7598 153.75 72.6479 153.75 72.5098H152.25C152.25 73.4763 153.034 74.2598 154 74.2598V72.7598ZM158.216 72.7598H154V74.2598H158.216V72.7598ZM158.966 77.7255V73.5098H157.466V77.7255H158.966ZM159.216 77.9755C159.078 77.9755 158.966 77.8636 158.966 77.7255H157.466C157.466 78.692 158.249 79.4755 159.216 79.4755V77.9755ZM160.51 77.9755H159.216V79.4755H160.51V77.9755ZM160.76 77.7255C160.76 77.8636 160.648 77.9755 160.51 77.9755V79.4755C161.476 79.4755 162.26 78.692 162.26 77.7255H160.76ZM160.76 73.5098V77.7255H162.26V73.5098H160.76ZM165.725 72.7598H161.51V74.2598H165.725V72.7598ZM165.975 72.5098C165.975 72.6479 165.864 72.7598 165.725 72.7598V74.2598C166.692 74.2598 167.475 73.4763 167.475 72.5098H165.975ZM165.975 71.2157V72.5098H167.475V71.2157H165.975ZM165.725 70.9657C165.864 70.9657 165.975 71.0776 165.975 71.2157H167.475C167.475 70.2492 166.692 69.4657 165.725 69.4657V70.9657ZM161.51 70.9657H165.725V69.4657H161.51V70.9657ZM160.76 66V70.2157H162.26V66H160.76ZM160.51 65.75C160.648 65.75 160.76 65.8619 160.76 66H162.26C162.26 65.0335 161.476 64.25 160.51 64.25V65.75ZM159.216 65.75H160.51V64.25H159.216V65.75Z" fill="url(#paint2_linear_1839_46835)" mask="url(#path-8-inside-1_1839_46835)"/>
<path opacity="0.72" fill-rule="evenodd" clip-rule="evenodd" d="M52.32 81C51.2154 81 50.32 81.8954 50.32 83V103.32H30C28.8954 103.32 28 104.215 28 105.32V118.68C28 119.785 28.8954 120.68 30 120.68H50.32V141C50.32 142.105 51.2154 143 52.32 143H65.68C66.7846 143 67.68 142.105 67.68 141V120.68H88C89.1046 120.68 90 119.785 90 118.68V105.32C90 104.215 89.1046 103.32 88 103.32H67.68V83C67.68 81.8954 66.7846 81 65.68 81H52.32Z" fill="white"/>
<mask id="path-11-inside-2_1839_46835" fill="white">
<path fill-rule="evenodd" clip-rule="evenodd" d="M54.263 83.5925C53.1584 83.5925 52.263 84.488 52.263 85.5925V105.263H32.5928C31.4882 105.263 30.5928 106.158 30.5928 107.263L30.5928 116.949C30.5928 118.054 31.4882 118.949 32.5928 118.949H52.263V138.619C52.263 139.724 53.1584 140.619 54.263 140.619H63.9494C65.054 140.619 65.9494 139.724 65.9494 138.619V118.949H85.6196C86.7241 118.949 87.6196 118.054 87.6196 116.949V107.263C87.6196 106.158 86.7241 105.263 85.6196 105.263H65.9494V85.5925C65.9494 84.488 65.054 83.5925 63.9494 83.5925H54.263Z"/>
</mask>
<path fill-rule="evenodd" clip-rule="evenodd" d="M54.263 83.5925C53.1584 83.5925 52.263 84.488 52.263 85.5925V105.263H32.5928C31.4882 105.263 30.5928 106.158 30.5928 107.263L30.5928 116.949C30.5928 118.054 31.4882 118.949 32.5928 118.949H52.263V138.619C52.263 139.724 53.1584 140.619 54.263 140.619H63.9494C65.054 140.619 65.9494 139.724 65.9494 138.619V118.949H85.6196C86.7241 118.949 87.6196 118.054 87.6196 116.949V107.263C87.6196 106.158 86.7241 105.263 85.6196 105.263H65.9494V85.5925C65.9494 84.488 65.054 83.5925 63.9494 83.5925H54.263Z" fill="#F9F9F9"/>
<path d="M52.263 105.263V106.263H53.263V105.263H52.263ZM30.5928 107.263H29.5928H30.5928ZM30.5928 116.949H31.5928H30.5928ZM52.263 118.949H53.263V117.949H52.263V118.949ZM65.9494 118.949V117.949H64.9494V118.949H65.9494ZM65.9494 105.263H64.9494V106.263H65.9494V105.263ZM53.263 85.5925C53.263 85.0402 53.7107 84.5925 54.263 84.5925V82.5925C52.6061 82.5925 51.263 83.9357 51.263 85.5925H53.263ZM53.263 105.263V85.5925H51.263V105.263H53.263ZM32.5928 106.263H52.263V104.263H32.5928V106.263ZM31.5928 107.263C31.5928 106.71 32.0405 106.263 32.5928 106.263V104.263C30.9359 104.263 29.5928 105.606 29.5928 107.263H31.5928ZM31.5928 116.949L31.5928 107.263H29.5928L29.5928 116.949H31.5928ZM32.5928 117.949C32.0405 117.949 31.5928 117.501 31.5928 116.949H29.5928C29.5928 118.606 30.9359 119.949 32.5928 119.949V117.949ZM52.263 117.949H32.5928V119.949H52.263V117.949ZM53.263 138.619V118.949H51.263V138.619H53.263ZM54.263 139.619C53.7107 139.619 53.263 139.172 53.263 138.619H51.263C51.263 140.276 52.6061 141.619 54.263 141.619V139.619ZM63.9494 139.619H54.263V141.619H63.9494V139.619ZM64.9494 138.619C64.9494 139.172 64.5017 139.619 63.9494 139.619V141.619C65.6062 141.619 66.9494 140.276 66.9494 138.619H64.9494ZM64.9494 118.949V138.619H66.9494V118.949H64.9494ZM85.6196 117.949H65.9494V119.949H85.6196V117.949ZM86.6196 116.949C86.6196 117.501 86.1718 117.949 85.6196 117.949V119.949C87.2764 119.949 88.6196 118.606 88.6196 116.949H86.6196ZM86.6196 107.263V116.949H88.6196V107.263H86.6196ZM85.6196 106.263C86.1718 106.263 86.6196 106.71 86.6196 107.263H88.6196C88.6196 105.606 87.2764 104.263 85.6196 104.263V106.263ZM65.9494 106.263H85.6196V104.263H65.9494V106.263ZM64.9494 85.5925V105.263H66.9494V85.5925H64.9494ZM63.9494 84.5925C64.5017 84.5925 64.9494 85.0402 64.9494 85.5925H66.9494C66.9494 83.9357 65.6062 82.5925 63.9494 82.5925V84.5925ZM54.263 84.5925H63.9494V82.5925H54.263V84.5925Z" fill="#857F87" mask="url(#path-11-inside-2_1839_46835)"/>
<path opacity="0.72" fill-rule="evenodd" clip-rule="evenodd" d="M103.137 0.274658C102.228 0.274658 101.49 1.01207 101.49 1.92172V5.49034H97.9216C97.0119 5.49034 96.2745 6.22775 96.2745 7.1374C96.2745 8.04704 97.0119 8.78446 97.9216 8.78446H101.49V12.3531C101.49 13.2627 102.228 14.0001 103.137 14.0001C104.047 14.0001 104.784 13.2627 104.784 12.3531V8.78445H108.353C109.263 8.78445 110 8.04704 110 7.1374C110 6.22775 109.263 5.49034 108.353 5.49034H104.784V1.92172C104.784 1.01207 104.047 0.274658 103.137 0.274658Z" fill="white"/>
<mask id="path-14-inside-3_1839_46835" fill="white">
<path fill-rule="evenodd" clip-rule="evenodd" d="M102.216 0C101.663 0 101.216 0.447715 101.216 1V5.21568H97C96.4477 5.21568 96 5.66339 96 6.21568V7.5098C96 8.06208 96.4477 8.5098 97 8.5098H101.216V12.7255C101.216 13.2778 101.663 13.7255 102.216 13.7255H103.51C104.062 13.7255 104.51 13.2778 104.51 12.7255V8.5098H108.725C109.278 8.5098 109.725 8.06208 109.725 7.5098V6.21568C109.725 5.66339 109.278 5.21568 108.725 5.21568H104.51V1C104.51 0.447715 104.062 0 103.51 0H102.216Z"/>
</mask>
<path fill-rule="evenodd" clip-rule="evenodd" d="M102.216 0C101.663 0 101.216 0.447715 101.216 1V5.21568H97C96.4477 5.21568 96 5.66339 96 6.21568V7.5098C96 8.06208 96.4477 8.5098 97 8.5098H101.216V12.7255C101.216 13.2778 101.663 13.7255 102.216 13.7255H103.51C104.062 13.7255 104.51 13.2778 104.51 12.7255V8.5098H108.725C109.278 8.5098 109.725 8.06208 109.725 7.5098V6.21568C109.725 5.66339 109.278 5.21568 108.725 5.21568H104.51V1C104.51 0.447715 104.062 0 103.51 0H102.216Z" fill="white"/>
<path d="M101.216 5.21568V5.96568H101.966V5.21568H101.216ZM101.216 8.5098H101.966V7.7598H101.216V8.5098ZM104.51 8.5098V7.7598H103.76V8.5098H104.51ZM104.51 5.21568H103.76V5.96568H104.51V5.21568ZM101.966 1C101.966 0.861929 102.078 0.75 102.216 0.75V-0.75C101.249 -0.75 100.466 0.0335017 100.466 1H101.966ZM101.966 5.21568V1H100.466V5.21568H101.966ZM97 5.96568H101.216V4.46568H97V5.96568ZM96.75 6.21568C96.75 6.07761 96.8619 5.96568 97 5.96568V4.46568C96.0335 4.46568 95.25 5.24918 95.25 6.21568H96.75ZM96.75 7.5098V6.21568H95.25V7.5098H96.75ZM97 7.7598C96.8619 7.7598 96.75 7.64787 96.75 7.5098H95.25C95.25 8.47629 96.0335 9.2598 97 9.2598V7.7598ZM101.216 7.7598H97V9.2598H101.216V7.7598ZM101.966 12.7255V8.5098H100.466V12.7255H101.966ZM102.216 12.9755C102.078 12.9755 101.966 12.8636 101.966 12.7255H100.466C100.466 13.692 101.249 14.4755 102.216 14.4755V12.9755ZM103.51 12.9755H102.216V14.4755H103.51V12.9755ZM103.76 12.7255C103.76 12.8636 103.648 12.9755 103.51 12.9755V14.4755C104.476 14.4755 105.26 13.692 105.26 12.7255H103.76ZM103.76 8.5098V12.7255H105.26V8.5098H103.76ZM108.725 7.7598H104.51V9.2598H108.725V7.7598ZM108.975 7.5098C108.975 7.64787 108.864 7.7598 108.725 7.7598V9.2598C109.692 9.2598 110.475 8.4763 110.475 7.5098H108.975ZM108.975 6.21568V7.5098H110.475V6.21568H108.975ZM108.725 5.96568C108.864 5.96568 108.975 6.07761 108.975 6.21568H110.475C110.475 5.24918 109.692 4.46568 108.725 4.46568V5.96568ZM104.51 5.96568H108.725V4.46568H104.51V5.96568ZM103.76 1V5.21568H105.26V1H103.76ZM103.51 0.75C103.648 0.75 103.76 0.861928 103.76 1H105.26C105.26 0.0335024 104.476 -0.75 103.51 -0.75V0.75ZM102.216 0.75H103.51V-0.75H102.216V0.75Z" fill="#857F87" mask="url(#path-14-inside-3_1839_46835)"/>
<defs>
<linearGradient id="paint0_linear_1839_46835" x1="0" y1="42" x2="370.858" y2="144.413" gradientUnits="userSpaceOnUse">
<stop stop-color="#FFC500"/>
<stop offset="0.411458" stop-color="#DC2223"/>
<stop offset="1" stop-color="#720096"/>
</linearGradient>
<linearGradient id="paint1_linear_1839_46835" x1="43.0858" y1="138.873" x2="288.139" y2="247.063" gradientUnits="userSpaceOnUse">
<stop stop-color="#FFC500"/>
<stop offset="0.411458" stop-color="#DC2223"/>
<stop offset="1" stop-color="#720096"/>
</linearGradient>
<linearGradient id="paint2_linear_1839_46835" x1="153" y1="65" x2="169.148" y2="69.0369" gradientUnits="userSpaceOnUse">
<stop stop-color="#FFC500"/>
<stop offset="0.411458" stop-color="#DC2223"/>
<stop offset="1" stop-color="#720096"/>
</linearGradient>
</defs>
</svg>
