<svg width="18" height="16" viewBox="0 0 18 16" fill="none" xmlns="http://www.w3.org/2000/svg">
<path d="M17.8357 9.94276L16.1075 7.54322C15.8218 7.14766 15.2643 7.05188 14.8598 7.33361L12.4195 9.03229C12.0167 9.3127 11.9206 9.86166 12.2063 10.2581C12.492 10.6541 13.0495 10.749 13.454 10.4677L14.2713 9.89878C14.0957 10.4832 13.8274 11.039 13.4531 11.5414C12.4115 12.9394 10.8082 13.7408 9.05285 13.7408C7.45954 13.7408 5.95757 13.0593 4.93268 11.8708C4.6138 11.5015 4.04932 11.4559 3.67139 11.7691C3.29481 12.0834 3.2481 12.6384 3.56788 13.009C4.93357 14.5921 6.93264 15.5 9.05285 15.5C11.3508 15.5 13.5352 14.4087 14.8965 12.5808C15.3911 11.9171 15.7473 11.1835 15.9809 10.4121L16.3748 10.9591C16.5496 11.2014 16.8257 11.3307 17.1062 11.3307C17.2844 11.3307 17.4653 11.2782 17.6225 11.1687C18.0253 10.8881 18.1214 10.3391 17.8357 9.94276Z" fill="black"/>
<path d="M5.79381 5.74186C5.50768 5.34508 4.94929 5.25096 4.54649 5.5319L3.72898 6.10082C3.90435 5.51625 4.17258 4.96061 4.54649 4.45862C5.58802 3.06103 7.1918 2.25919 8.94715 2.25919C10.5409 2.25919 12.0429 2.94079 13.0678 4.12921C13.3875 4.49899 13.952 4.54535 14.3286 4.23098C14.7061 3.91661 14.7523 3.36168 14.4326 2.99101C13.0669 1.40792 11.0677 0.5 8.94715 0.5C6.64961 0.5 4.4648 1.59131 3.10313 3.4192C2.6088 4.08277 2.25279 4.81653 2.01927 5.58837L1.62515 5.041C1.33902 4.64413 0.78107 4.5501 0.377911 4.83095C-0.0252482 5.11181 -0.120983 5.66076 0.164253 6.05711L1.89213 8.45665C2.06687 8.69889 2.34298 8.82819 2.62347 8.82819C2.80215 8.82819 2.98261 8.77576 3.13945 8.66669L5.58024 6.96802C5.9834 6.68716 6.07905 6.1383 5.79381 5.74186Z" fill="black"/>
</svg>
