<svg width="16" height="16" viewBox="0 0 16 16" fill="none" xmlns="http://www.w3.org/2000/svg">
<mask id="mask0_3030_63631" style="mask-type:alpha" maskUnits="userSpaceOnUse" x="2" y="2" width="12" height="12">
<path d="M14 8C14 7.1875 13.8411 6.41146 13.5234 5.67188C13.2057 4.93229 12.7786 4.29427 12.2422 3.75781C11.7057 3.22135 11.0677 2.79427 10.3281 2.47656C9.58854 2.15885 8.8125 2 8 2C7.23438 2 6.49349 2.14453 5.77734 2.43359C5.0612 2.72266 4.42448 3.13021 3.86719 3.65625L2.85156 2.64844C2.69531 2.48698 2.51562 2.45052 2.3125 2.53906C2.10417 2.6276 2 2.78125 2 3V6.5C2 6.63542 2.04948 6.7526 2.14844 6.85156C2.2474 6.95052 2.36458 7 2.5 7H6C6.21875 7 6.3724 6.89583 6.46094 6.6875C6.54948 6.48438 6.51302 6.30469 6.35156 6.14844L5.28125 5.07031C5.64583 4.72656 6.0625 4.46224 6.53125 4.27734C7 4.09245 7.48958 4 8 4C8.54167 4 9.05859 4.10547 9.55078 4.31641C10.043 4.52734 10.4688 4.8125 10.8281 5.17187C11.1875 5.53125 11.4727 5.95703 11.6836 6.44922C11.8945 6.94141 12 7.45833 12 8C12 8.54167 11.8945 9.05859 11.6836 9.55078C11.4727 10.043 11.1875 10.4688 10.8281 10.8281C10.4688 11.1875 10.043 11.4727 9.55078 11.6836C9.05859 11.8945 8.54167 12 8 12C7.38021 12 6.79427 11.8646 6.24219 11.5938C5.6901 11.3229 5.22396 10.9401 4.84375 10.4453C4.80729 10.3932 4.7474 10.362 4.66406 10.3516C4.58594 10.3516 4.52083 10.375 4.46875 10.4219L3.39844 11.5C3.35677 11.5417 3.33464 11.5951 3.33203 11.6602C3.32943 11.7253 3.34635 11.7839 3.38281 11.8359C3.95052 12.5234 4.63802 13.056 5.44531 13.4336C6.2526 13.8112 7.10417 14 8 14C8.8125 14 9.58854 13.8411 10.3281 13.5234C11.0677 13.2057 11.7057 12.7786 12.2422 12.2422C12.7786 11.7057 13.2057 11.0677 13.5234 10.3281C13.8411 9.58854 14 8.8125 14 8Z" fill="white"/>
</mask>
<g mask="url(#mask0_3030_63631)">
<path d="M14 8C14 7.1875 13.8411 6.41146 13.5234 5.67188C13.2057 4.93229 12.7786 4.29427 12.2422 3.75781C11.7057 3.22135 11.0677 2.79427 10.3281 2.47656C9.58854 2.15885 8.8125 2 8 2C7.23438 2 6.49349 2.14453 5.77734 2.43359C5.0612 2.72266 4.42448 3.13021 3.86719 3.65625L2.85156 2.64844C2.69531 2.48698 2.51562 2.45052 2.3125 2.53906C2.10417 2.6276 2 2.78125 2 3V6.5C2 6.63542 2.04948 6.7526 2.14844 6.85156C2.2474 6.95052 2.36458 7 2.5 7H6C6.21875 7 6.3724 6.89583 6.46094 6.6875C6.54948 6.48438 6.51302 6.30469 6.35156 6.14844L5.28125 5.07031C5.64583 4.72656 6.0625 4.46224 6.53125 4.27734C7 4.09245 7.48958 4 8 4C8.54167 4 9.05859 4.10547 9.55078 4.31641C10.043 4.52734 10.4688 4.8125 10.8281 5.17187C11.1875 5.53125 11.4727 5.95703 11.6836 6.44922C11.8945 6.94141 12 7.45833 12 8C12 8.54167 11.8945 9.05859 11.6836 9.55078C11.4727 10.043 11.1875 10.4688 10.8281 10.8281C10.4688 11.1875 10.043 11.4727 9.55078 11.6836C9.05859 11.8945 8.54167 12 8 12C7.38021 12 6.79427 11.8646 6.24219 11.5938C5.6901 11.3229 5.22396 10.9401 4.84375 10.4453C4.80729 10.3932 4.7474 10.362 4.66406 10.3516C4.58594 10.3516 4.52083 10.375 4.46875 10.4219L3.39844 11.5C3.35677 11.5417 3.33464 11.5951 3.33203 11.6602C3.32943 11.7253 3.34635 11.7839 3.38281 11.8359C3.95052 12.5234 4.63802 13.056 5.44531 13.4336C6.2526 13.8112 7.10417 14 8 14C8.8125 14 9.58854 13.8411 10.3281 13.5234C11.0677 13.2057 11.7057 12.7786 12.2422 12.2422C12.7786 11.7057 13.2057 11.0677 13.5234 10.3281C13.8411 9.58854 14 8.8125 14 8Z" fill="#857F87"/>
</g>
</svg>
