<svg width="12" height="12" viewBox="0 0 12 12" fill="none" xmlns="http://www.w3.org/2000/svg">
<path d="M12 6C12 5.1875 11.8411 4.41146 11.5234 3.67188C11.2057 2.93229 10.7786 2.29427 10.2422 1.75781C9.70573 1.22135 9.06771 0.794271 8.32812 0.476563C7.58854 0.158854 6.8125 0 6 0C5.23438 0 4.49349 0.144531 3.77734 0.433594C3.0612 0.722656 2.42448 1.13021 1.86719 1.65625L0.851562 0.648437C0.695312 0.486979 0.515625 0.450521 0.3125 0.539062C0.104167 0.627604 0 0.78125 0 1V4.5C0 4.63542 0.0494795 4.7526 0.148438 4.85156C0.247396 4.95052 0.364584 5 0.5 5H4C4.21875 5 4.3724 4.89583 4.46094 4.6875C4.54948 4.48438 4.51302 4.30469 4.35156 4.14844L3.28125 3.07031C3.64583 2.72656 4.0625 2.46224 4.53125 2.27734C5 2.09245 5.48958 2 6 2C6.54167 2 7.05859 2.10547 7.55078 2.31641C8.04297 2.52734 8.46875 2.8125 8.82813 3.17187C9.1875 3.53125 9.47266 3.95703 9.68359 4.44922C9.89453 4.94141 10 5.45833 10 6C10 6.54167 9.89453 7.05859 9.68359 7.55078C9.47266 8.04297 9.1875 8.46875 8.82813 8.82812C8.46875 9.1875 8.04297 9.47266 7.55078 9.68359C7.05859 9.89453 6.54167 10 6 10C5.38021 10 4.79427 9.86458 4.24219 9.59375C3.6901 9.32292 3.22396 8.9401 2.84375 8.44531C2.80729 8.39323 2.7474 8.36198 2.66406 8.35156C2.58594 8.35156 2.52083 8.375 2.46875 8.42188L1.39844 9.5C1.35677 9.54167 1.33464 9.59505 1.33203 9.66016C1.32943 9.72526 1.34635 9.78385 1.38281 9.83594C1.95052 10.5234 2.63802 11.056 3.44531 11.4336C4.2526 11.8112 5.10417 12 6 12C6.8125 12 7.58854 11.8411 8.32812 11.5234C9.06771 11.2057 9.70573 10.7786 10.2422 10.2422C10.7786 9.70573 11.2057 9.06771 11.5234 8.32812C11.8411 7.58854 12 6.8125 12 6Z" fill="black"/>
</svg>
