<svg width="105" height="51" viewBox="0 0 105 51" fill="none" xmlns="http://www.w3.org/2000/svg">
<path d="M0.731549 32.9295L0.5 33.0768V33.3513V41V41.904L1.26576 41.4235L30.2658 23.2263L30.5 23.0793V22.8028V19.9871V19.7088L30.2635 19.5622L1.26354 1.5751L0.5 1.10151V2V9.43858V9.71666L0.736242 9.86335L19.079 21.2531L0.731549 32.9295Z" fill="#E6E6E6" stroke="#857F87"/>
<path d="M74.7315 32.9295L74.5 33.0768V33.3513V41V41.904L75.2658 41.4235L104.266 23.2263L104.5 23.0793V22.8028V19.9871V19.7088L104.264 19.5622L75.2635 1.5751L74.5 1.10151V2V9.43858V9.71666L74.7362 9.86335L93.079 21.2531L74.7315 32.9295Z" fill="#E6E6E6" stroke="#857F87"/>
<path d="M69.5 46.4527C69.5 45.2485 69.1418 44.2506 68.3667 43.5346C67.638 42.8352 66.7021 42.5 65.605 42.5H33.395C32.2979 42.5 31.362 42.8352 30.6333 43.5346C29.8582 44.2506 29.5 45.2485 29.5 46.4527C29.5 47.6743 29.8358 48.6859 30.5781 49.4058C31.2795 50.1454 32.2081 50.5 33.3101 50.5H65.6899C66.7919 50.5 67.7205 50.1454 68.4219 49.4058C69.1642 48.6859 69.5 47.6743 69.5 46.4527Z" fill="#E6E6E6" stroke="#857F87"/>
</svg>
