<svg width="29" height="18" viewBox="0 0 29 18" fill="none" xmlns="http://www.w3.org/2000/svg">
<g clip-path="url(#clip0_4417_88318)">
<g clip-path="url(#clip1_4417_88318)">
<path d="M27.7742 1.33333V16.6533H1.22581V1.33333H27.7742ZM27.1935 0H1.80645C0.258064 0 0 0.52 0 1.16V16.84C0 17.48 0.258064 18 1.80645 18H27.1935C28.7419 18 29 17.48 29 16.84V1.16C29 0.52 28.7419 0 27.1935 0Z" fill="#231F20"/>
<path d="M0.800781 4.02688L2.74078 2.37355L4.68078 0.720215" stroke="#231F20" stroke-miterlimit="10" stroke-linecap="round"/>
<path d="M7.29999 17.1867L26.7863 0.5" stroke="#231F20" stroke-miterlimit="10" stroke-linecap="round"/>
<path d="M10.5 17.1867L28.5 1.5" stroke="#231F20" stroke-miterlimit="10" stroke-linecap="round"/>
<path d="M13.7 17.1867L28.7 4" stroke="#231F20" stroke-miterlimit="10" stroke-linecap="round"/>
<path d="M16.7 17.2867L29.1004 6.5" stroke="#231F20" stroke-miterlimit="10" stroke-linecap="round"/>
<path d="M0.654297 6.8265L8.0943 0.493164" stroke="#231F20" stroke-miterlimit="10"/>
<path d="M0.560547 9.57333L11.5 0.5" stroke="#231F20" stroke-miterlimit="10"/>
<path d="M19.8 17.5L29 9.5" stroke="#231F20" stroke-miterlimit="10"/>
<path d="M23 17.5L29 12.5" stroke="#231F20" stroke-miterlimit="10"/>
<path d="M1.29999 16.88L20.7062 0.5" stroke="#231F20" stroke-miterlimit="10"/>
<path d="M4.10001 17.2133L23.6391 0.5" stroke="#231F20" stroke-miterlimit="10"/>
<path d="M0.800781 12.0933L14.5 0.5" stroke="#231F20" stroke-miterlimit="10"/>
<path d="M0.5 15L17.6992 0.5" stroke="#231F20" stroke-miterlimit="10"/>
</g>
</g>
<defs>
<clipPath id="clip0_4417_88318">
<rect width="29" height="18" fill="white"/>
</clipPath>
<clipPath id="clip1_4417_88318">
<rect width="29" height="18" fill="white"/>
</clipPath>
</defs>
</svg>
