<svg width="194" height="176" viewBox="0 0 194 176" fill="none" xmlns="http://www.w3.org/2000/svg">
<path opacity="0.08" d="M139.018 63.7283C138.252 63.7283 137.487 63.7605 136.727 63.7863C134.957 28.707 105.239 0.790283 68.8339 0.790283C31.2899 0.790283 0.856934 30.4767 0.856934 67.0747C0.856934 103.673 31.2899 133.359 68.8339 133.359C74.424 133.362 79.9942 132.692 85.4243 131.364C90.7271 156.591 112.704 175.505 139.018 175.505C169.297 175.505 193.848 150.471 193.848 119.594C193.848 88.7169 169.297 63.7283 139.018 63.7283Z" fill="url(#paint0_linear_1839_46831)"/>
<path opacity="0.72" fill-rule="evenodd" clip-rule="evenodd" d="M62.8168 62.0614L62.8169 62.0421L62.8168 62.0421C62.8185 61.5063 62.9257 60.976 63.1323 60.4817C63.3389 59.9873 63.6408 59.5385 64.0209 59.1608C64.4009 58.7831 64.8517 58.484 65.3473 58.2805C65.6134 58.1713 65.8896 58.0908 66.1713 58.0399C66.4131 57.9942 66.6602 57.9701 66.9097 57.9685H100.554C100.769 57.9685 100.982 57.9854 101.192 58.0185C101.517 58.0665 101.835 58.1539 102.14 58.2792C102.635 58.4826 103.085 58.782 103.463 59.1601C103.842 59.5382 104.142 59.9875 104.346 60.4821C104.551 60.9768 104.655 61.5069 104.653 62.0421C104.652 62.5798 104.758 63.1124 104.963 63.6093C105.168 64.1063 105.47 64.5578 105.85 64.9381C106.23 65.3183 106.682 65.6197 107.179 65.8251C107.676 66.0305 108.208 66.1358 108.746 66.135H157.546C158.632 66.1383 159.674 66.5698 160.445 67.3359C161.216 68.102 161.654 69.1411 161.664 70.2279V72.3129L161.613 72.3076V77.4612H173.756L173.698 77.4934H173.731C174.345 77.4915 174.951 77.6335 175.5 77.9081C176.05 78.1827 176.527 78.5822 176.895 79.0746C177.262 79.5669 177.509 80.1385 177.615 80.7434C177.722 81.3484 177.685 81.9699 177.508 82.5581L161.612 138.44C161.586 139.489 161.158 140.49 160.414 141.234C159.646 142.002 158.605 142.433 157.52 142.433H157.465C157.4 142.437 157.334 142.439 157.269 142.439H66.929C66.6038 142.44 66.2809 142.401 65.9674 142.323C65.2343 142.15 64.5569 141.776 64.0156 141.234C63.248 140.467 62.8168 139.426 62.8168 138.34V62.0614Z" fill="white"/>
<path fill-rule="evenodd" clip-rule="evenodd" d="M37.9762 40.8827V135.032C37.9754 135.696 38.1054 136.353 38.359 136.967C38.6126 137.58 38.9847 138.137 39.4539 138.606C39.9232 139.076 40.4805 139.448 41.0937 139.701C41.707 139.955 42.3643 140.085 43.028 140.084H154.868C155.532 140.085 156.189 139.955 156.803 139.701C157.416 139.448 157.973 139.076 158.443 138.606C158.912 138.137 159.284 137.58 159.537 136.967C159.791 136.353 159.921 135.696 159.92 135.032V53.5506L159.952 53.554V50.9798C159.939 49.6386 159.398 48.3567 158.447 47.4113C157.495 46.4659 156.21 45.933 154.868 45.928H94.6655C94.0002 45.9323 93.3407 45.8049 92.7248 45.5533C92.109 45.3016 91.549 44.9306 91.0771 44.4617C90.6052 43.9928 90.2306 43.4352 89.9751 42.8209C89.7195 42.2067 89.588 41.548 89.588 40.8827C89.5905 40.2223 89.4622 39.5679 89.2105 38.9573C89.1038 38.6986 88.9758 38.4499 88.8283 38.2137C88.6248 37.8862 88.3841 37.5824 88.1102 37.3086C87.641 36.8393 87.0837 36.4672 86.4704 36.2136C85.8571 35.9601 85.1998 35.83 84.5362 35.8308H43.028C41.6913 35.8409 40.4122 36.3764 39.467 37.3216C39.3684 37.4202 39.2743 37.5224 39.1848 37.6279C38.4119 38.532 37.9808 39.6845 37.9762 40.8827L37.9762 40.8827Z" fill="white"/>
<path d="M37.9762 40.8827H38.4762V40.4374L38.0338 40.386L37.9762 40.8827ZM37.9762 135.032L38.4762 135.033V135.032H37.9762ZM38.359 136.967L37.897 137.158H37.897L38.359 136.967ZM41.0937 139.701L41.2848 139.239L41.2848 139.239L41.0937 139.701ZM43.028 140.084V139.584H43.0273L43.028 140.084ZM154.868 140.084L154.869 139.584H154.868V140.084ZM156.803 139.701L156.612 139.239L156.803 139.701ZM159.537 136.967L159.075 136.775L159.537 136.967ZM159.92 135.032H159.42V135.033L159.92 135.032ZM159.92 53.5506L159.972 53.0533L159.42 52.996V53.5506H159.92ZM159.952 53.554L159.901 54.0513L160.452 54.1086V53.554H159.952ZM159.952 50.9798H160.452L160.452 50.9748L159.952 50.9798ZM158.447 47.4113L158.799 47.0566L158.799 47.0566L158.447 47.4113ZM154.868 45.928L154.87 45.428H154.868V45.928ZM94.6655 45.928V45.428L94.6623 45.4281L94.6655 45.928ZM92.7248 45.5533L92.5357 46.0161L92.7248 45.5533ZM89.9751 42.8209L90.4367 42.6289L89.9751 42.8209ZM89.588 40.8827L89.088 40.8808V40.8827L89.588 40.8827ZM89.2105 38.9573L89.6727 38.7667L89.6727 38.7667L89.2105 38.9573ZM88.8283 38.2137L88.4035 38.4775L88.4042 38.4786L88.8283 38.2137ZM88.1102 37.3086L87.7567 37.6621V37.6621L88.1102 37.3086ZM86.4704 36.2136L86.2794 36.6757L86.4704 36.2136ZM84.5362 35.8308V36.3308L84.5368 36.3308L84.5362 35.8308ZM43.028 35.8308V35.3308L43.0242 35.3308L43.028 35.8308ZM39.467 37.3216L39.8206 37.6752V37.6752L39.467 37.3216ZM39.1848 37.6279L39.5648 37.9528L39.566 37.9514L39.1848 37.6279ZM37.9762 40.8827L37.4762 40.8808L37.4745 41.3278L37.9186 41.3794L37.9762 40.8827ZM37.4762 40.8827V135.032H38.4762V40.8827H37.4762ZM37.4762 135.032C37.4753 135.761 37.6183 136.483 37.897 137.158L38.8211 136.775C38.5926 136.223 38.4754 135.631 38.4762 135.033L37.4762 135.032ZM37.897 137.158C38.1757 137.832 38.5846 138.444 39.1004 138.96L39.8075 138.253C39.3847 137.83 39.0495 137.328 38.8211 136.775L37.897 137.158ZM39.1004 138.96C39.6162 139.476 40.2286 139.885 40.9027 140.163L41.2848 139.239C40.7323 139.011 40.2303 138.676 39.8075 138.253L39.1004 138.96ZM40.9027 140.163C41.5768 140.442 42.2992 140.585 43.0286 140.584L43.0273 139.584C42.4295 139.585 41.8373 139.468 41.2848 139.239L40.9027 140.163ZM43.028 140.584H154.868V139.584H43.028V140.584ZM154.868 140.584C155.597 140.585 156.32 140.442 156.994 140.163L156.612 139.239C156.059 139.468 155.467 139.585 154.869 139.584L154.868 140.584ZM156.994 140.163C157.668 139.885 158.28 139.476 158.796 138.96L158.089 138.253C157.666 138.676 157.164 139.011 156.612 139.239L156.994 140.163ZM158.796 138.96C159.312 138.444 159.721 137.832 159.999 137.158L159.075 136.775C158.847 137.328 158.512 137.83 158.089 138.253L158.796 138.96ZM159.999 137.158C160.278 136.483 160.421 135.761 160.42 135.032L159.42 135.033C159.421 135.631 159.304 136.223 159.075 136.775L159.999 137.158ZM160.42 135.032V53.5506H159.42V135.032H160.42ZM159.869 54.0479L159.901 54.0513L160.004 53.0566L159.972 53.0533L159.869 54.0479ZM160.452 53.554V50.9798H159.452V53.554H160.452ZM160.452 50.9748C160.438 49.5022 159.844 48.0946 158.799 47.0566L158.094 47.766C158.952 48.6187 159.44 49.7751 159.452 50.9849L160.452 50.9748ZM158.799 47.0566C157.754 46.0186 156.343 45.4335 154.87 45.428L154.867 46.428C156.076 46.4326 157.236 46.9132 158.094 47.766L158.799 47.0566ZM154.868 45.428H94.6655V46.428H154.868V45.428ZM94.6623 45.4281C94.063 45.4319 93.4688 45.3171 92.914 45.0904L92.5357 46.0161C93.2126 46.2927 93.9375 46.4327 94.6687 46.428L94.6623 45.4281ZM92.914 45.0904C92.3592 44.8637 91.8547 44.5295 91.4295 44.107L90.7246 44.8164C91.2433 45.3318 91.8588 45.7395 92.5357 46.0161L92.914 45.0904ZM91.4295 44.107C91.0044 43.6846 90.667 43.1822 90.4367 42.6289L89.5134 43.013C89.7943 43.6881 90.206 44.301 90.7246 44.8164L91.4295 44.107ZM90.4367 42.6289C90.2065 42.0755 90.088 41.4821 90.088 40.8827L89.088 40.8827C89.088 41.6139 89.2326 42.3379 89.5134 43.013L90.4367 42.6289ZM90.088 40.8846C90.0908 40.1582 89.9497 39.4383 89.6727 38.7667L88.7482 39.1479C88.9748 39.6974 89.0903 40.2864 89.088 40.8808L90.088 40.8846ZM89.6727 38.7667C89.5554 38.4821 89.4146 38.2085 89.2523 37.9487L88.4042 38.4786C88.5371 38.6912 88.6522 38.915 88.7482 39.1479L89.6727 38.7667ZM89.253 37.9498C89.0294 37.5899 88.7648 37.256 88.4638 36.955L87.7567 37.6621C88.0034 37.9088 88.2203 38.1825 88.4036 38.4775L89.253 37.9498ZM88.4638 36.955C87.948 36.4392 87.3355 36.0303 86.6615 35.7516L86.2794 36.6757C86.8319 36.9041 87.3339 37.2393 87.7567 37.6621L88.4638 36.955ZM86.6615 35.7516C85.9874 35.4729 85.265 35.3299 84.5356 35.3308L84.5368 36.3308C85.1347 36.33 85.7269 36.4472 86.2794 36.6757L86.6615 35.7516ZM84.5362 35.3308H43.028V36.3308H84.5362V35.3308ZM43.0242 35.3308C41.5562 35.3419 40.1515 35.93 39.1134 36.9681L39.8206 37.6752C40.6729 36.8228 41.8264 36.3399 43.0318 36.3308L43.0242 35.3308ZM39.1134 36.9681C39.0052 37.0763 38.9018 37.1885 38.8035 37.3044L39.566 37.9514C39.6468 37.8562 39.7317 37.7641 39.8206 37.6752L39.1134 36.9681ZM38.8047 37.303C37.9552 38.2968 37.4812 39.5637 37.4762 40.8808L38.4762 40.8846C38.4803 39.8054 38.8687 38.7671 39.5648 37.9528L38.8047 37.303ZM37.9186 41.3794L37.9186 41.3794L38.0338 40.386L38.0338 40.386L37.9186 41.3794Z" fill="#720096"/>
<path fill-rule="evenodd" clip-rule="evenodd" d="M128.58 63.7734V63.857L128.586 63.8506C128.277 64.9472 127.62 65.9133 126.713 66.603C125.806 67.2927 124.7 67.6683 123.56 67.6732H61.1758C60.0298 67.6853 58.9185 68.068 58.0079 68.7639C57.4657 69.1784 57.012 69.6906 56.6677 70.2701C56.4186 70.6781 56.2242 71.1203 56.0918 71.5858L38.3688 133.887C38.1287 134.704 38.1088 135.569 38.3109 136.397C38.3109 136.372 38.3109 136.348 38.3115 136.323C38.4622 136.976 38.7467 137.591 39.1481 138.13C39.6012 138.739 40.1905 139.232 40.8687 139.571C41.547 139.911 42.2953 140.086 43.0537 140.084H154.547C155.693 140.072 156.804 139.689 157.715 138.993C158.625 138.297 159.286 137.326 159.599 136.223L179.548 66.1673C179.767 65.4413 179.814 64.674 179.683 63.927C179.552 63.18 179.248 62.4741 178.795 61.8658C178.342 61.2576 177.752 60.7641 177.074 60.4248C176.396 60.0855 175.647 59.9099 174.889 59.9121H133.632C132.486 59.9243 131.374 60.3069 130.464 61.0029C129.553 61.6988 128.892 62.6707 128.58 63.7734Z" fill="white"/>
<path d="M128.58 63.857H128.08V65.0631L128.933 64.2108L128.58 63.857ZM128.58 63.7734L128.099 63.637L128.08 63.7039V63.7734H128.58ZM128.586 63.8506L129.068 63.9862L129.586 62.1451L128.233 63.4968L128.586 63.8506ZM126.713 66.603L127.016 67.001V67.001L126.713 66.603ZM123.56 67.6732V68.1732L123.562 68.1732L123.56 67.6732ZM61.1758 67.6732V67.1732L61.1705 67.1732L61.1758 67.6732ZM58.0079 68.7639L58.3116 69.1612V69.1612L58.0079 68.7639ZM56.6677 70.2701L57.0945 70.5307L57.0975 70.5255L56.6677 70.2701ZM56.0918 71.5858L56.5727 71.7226L56.5728 71.7226L56.0918 71.5858ZM38.3688 133.887L38.8485 134.028L38.8497 134.024L38.3688 133.887ZM38.3109 136.397L37.8252 136.515L38.8109 140.549V136.397H38.3109ZM38.3115 136.323L38.7987 136.21L37.9124 132.369L37.8117 136.31L38.3115 136.323ZM39.1481 138.13L38.7471 138.429L38.7471 138.429L39.1481 138.13ZM43.0537 140.084V139.584H43.0523L43.0537 140.084ZM154.547 140.084V140.584L154.552 140.584L154.547 140.084ZM157.715 138.993L157.411 138.596L157.411 138.596L157.715 138.993ZM159.599 136.223L159.118 136.086L159.117 136.087L159.599 136.223ZM179.548 66.1673L179.07 66.0227L179.067 66.0304L179.548 66.1673ZM179.683 63.927L180.175 63.8407V63.8407L179.683 63.927ZM178.795 61.8658L178.394 62.1645V62.1645L178.795 61.8658ZM177.074 60.4248L177.298 59.9776V59.9776L177.074 60.4248ZM174.889 59.9121V60.4121L174.89 60.4121L174.889 59.9121ZM133.632 59.9121V59.4121L133.626 59.4122L133.632 59.9121ZM130.464 61.0029L130.768 61.4001L130.464 61.0029ZM129.08 63.857V63.7734H128.08V63.857H129.08ZM128.233 63.4968L128.227 63.5033L128.933 64.2108L128.94 64.2043L128.233 63.4968ZM127.016 67.001C128.009 66.2456 128.729 65.1873 129.068 63.9862L128.105 63.715C127.826 64.707 127.231 65.5811 126.41 66.205L127.016 67.001ZM123.562 68.1732C124.81 68.1679 126.023 67.7564 127.016 67.001L126.41 66.205C125.59 66.829 124.589 67.1688 123.558 67.1732L123.562 68.1732ZM61.1758 68.1732H123.56V67.1732H61.1758V68.1732ZM58.3116 69.1612C59.1363 68.5308 60.143 68.1842 61.1811 68.1732L61.1705 67.1732C59.9165 67.1865 58.7006 67.6052 57.7043 68.3667L58.3116 69.1612ZM57.0975 70.5255C57.4094 70.0006 57.8204 69.5366 58.3116 69.1612L57.7043 68.3667C57.111 68.8201 56.6146 69.3807 56.2379 70.0147L57.0975 70.5255ZM56.2409 70.0096C55.9685 70.4559 55.7557 70.9397 55.6109 71.449L56.5728 71.7226C56.6927 71.3008 56.8688 70.9002 57.0945 70.5307L56.2409 70.0096ZM55.6109 71.449L37.8879 133.75L38.8497 134.024L56.5727 71.7226L55.6109 71.449ZM37.8891 133.746C37.6242 134.647 37.6021 135.603 37.8252 136.515L38.7966 136.278C38.6154 135.536 38.6333 134.76 38.8485 134.028L37.8891 133.746ZM38.8109 136.397C38.8109 136.371 38.8109 136.353 38.8113 136.336L37.8117 136.31C37.8108 136.342 37.8109 136.373 37.8109 136.397H38.8109ZM39.5491 137.832C39.1891 137.348 38.9338 136.796 38.7987 136.21L37.8243 136.435C37.9905 137.156 38.3044 137.835 38.7471 138.429L39.5491 137.832ZM41.0924 139.124C40.484 138.82 39.9555 138.377 39.5491 137.832L38.7471 138.429C39.2469 139.1 39.8969 139.644 40.645 140.019L41.0924 139.124ZM43.0523 139.584C42.372 139.586 41.7008 139.429 41.0924 139.124L40.645 140.019C41.3932 140.393 42.2186 140.587 43.0552 140.584L43.0523 139.584ZM154.547 139.584H43.0537V140.584H154.547V139.584ZM157.411 138.596C156.586 139.227 155.58 139.573 154.541 139.584L154.552 140.584C155.806 140.571 157.022 140.152 158.018 139.391L157.411 138.596ZM159.117 136.087C158.834 137.085 158.236 137.966 157.411 138.596L158.018 139.391C159.014 138.629 159.738 137.566 160.08 136.359L159.117 136.087ZM179.067 66.0304L159.118 136.086L160.079 136.36L180.029 66.3043L179.067 66.0304ZM179.19 64.0133C179.308 64.6833 179.266 65.3716 179.07 66.0228L180.027 66.3119C180.269 65.5111 180.319 64.6647 180.175 63.8407L179.19 64.0133ZM178.394 62.1645C178.8 62.7101 179.073 63.3433 179.19 64.0133L180.175 63.8407C180.031 63.0167 179.695 62.2381 179.196 61.5672L178.394 62.1645ZM176.85 60.872C177.459 61.1763 177.987 61.619 178.394 62.1645L179.196 61.5672C178.696 60.8963 178.046 60.3519 177.298 59.9776L176.85 60.872ZM174.89 60.4121C175.571 60.4101 176.242 60.5676 176.85 60.872L177.298 59.9776C176.55 59.6034 175.724 59.4097 174.887 59.4121L174.89 60.4121ZM133.632 60.4121H174.889V59.4121H133.632V60.4121ZM130.768 61.4001C131.592 60.7697 132.599 60.4231 133.637 60.4121L133.626 59.4122C132.373 59.4254 131.157 59.8441 130.16 60.6056L130.768 61.4001ZM129.061 63.9097C129.344 62.9109 129.943 62.0305 130.768 61.4001L130.16 60.6056C129.164 61.3671 128.441 62.4305 128.099 63.637L129.061 63.9097Z" fill="url(#paint1_linear_1839_46831)"/>
<defs>
<linearGradient id="paint0_linear_1839_46831" x1="9.6541" y1="45.0786" x2="191.46" y2="126.724" gradientUnits="userSpaceOnUse">
<stop offset="0.33" stop-color="#FB6E00"/>
<stop offset="0.79" stop-color="#8E1678"/>
<stop offset="0.91" stop-color="#720096"/>
</linearGradient>
<linearGradient id="paint1_linear_1839_46831" x1="38.1727" y1="59.9121" x2="186.282" y2="125.302" gradientUnits="userSpaceOnUse">
<stop stop-color="#FFC500"/>
<stop offset="0.411458" stop-color="#DC2223"/>
<stop offset="1" stop-color="#720096"/>
</linearGradient>
</defs>
</svg>
