<svg width="24" height="24" viewBox="0 0 24 24" fill="none" xmlns="http://www.w3.org/2000/svg">
<g clip-path="url(#clip0_1256_73460)">
<path d="M20.4375 14.8846H19.3125V12C19.3125 11.6815 19.0605 11.4231 18.75 11.4231H12.5625V9.11538H13.6875C13.998 9.11538 14.25 8.85692 14.25 8.53846V5.07692C14.25 4.75846 13.998 4.5 13.6875 4.5H10.3125C10.002 4.5 9.75 4.75846 9.75 5.07692V8.53846C9.75 8.85692 10.002 9.11538 10.3125 9.11538H11.4375V11.4231H5.25C4.9395 11.4231 4.6875 11.6815 4.6875 12V14.8846H3.5625C3.252 14.8846 3 15.1431 3 15.4615V18.9231C3 19.2415 3.252 19.5 3.5625 19.5H6.9375C7.248 19.5 7.5 19.2415 7.5 18.9231V15.4615C7.5 15.1431 7.248 14.8846 6.9375 14.8846H5.8125V12.5769H11.4375V14.8846H10.3125C10.002 14.8846 9.75 15.1431 9.75 15.4615V18.9231C9.75 19.2415 10.002 19.5 10.3125 19.5H13.6875C13.998 19.5 14.25 19.2415 14.25 18.9231V15.4615C14.25 15.1431 13.998 14.8846 13.6875 14.8846H12.5625V12.5769H18.1875V14.8846H17.0625C16.752 14.8846 16.5 15.1431 16.5 15.4615V18.9231C16.5 19.2415 16.752 19.5 17.0625 19.5H20.4375C20.748 19.5 21 19.2415 21 18.9231V15.4615C21 15.1431 20.748 14.8846 20.4375 14.8846Z" fill="#646265"/>
</g>
<defs>
<clipPath id="clip0_1256_73460">
<rect width="18" height="15" fill="white" transform="translate(3 4.5)"/>
</clipPath>
</defs>
</svg>
