<svg width="24" height="24" viewBox="0 0 24 24" fill="none" xmlns="http://www.w3.org/2000/svg">
<g clip-path="url(#clip0_4488_506)">
<path d="M19.6757 5.99995C19.6757 7.34619 18.5845 8.43755 17.2382 8.43755C15.892 8.43755 14.8008 7.34619 14.8008 5.99995C14.8008 4.65385 15.892 3.5625 17.2382 3.5625C18.5845 3.5625 19.6757 4.65385 19.6757 5.99995Z" fill="#231f20"/>
<path d="M17.2382 9.00005C15.5837 9.00005 14.2383 7.6545 14.2383 5.99995C14.2383 4.34555 15.5837 3 17.2382 3C18.8928 3 20.2382 4.34555 20.2382 5.99995C20.2382 7.6545 18.8928 9.00005 17.2382 9.00005ZM17.2382 4.125C16.204 4.125 15.3633 4.96655 15.3633 5.99995C15.3633 7.03349 16.204 7.87505 17.2382 7.87505C18.2725 7.87505 19.1132 7.03349 19.1132 5.99995C19.1132 4.96655 18.2725 4.125 17.2382 4.125Z" fill="#231f20"/>
<path d="M19.6757 18.0001C19.6757 19.3462 18.5845 20.4375 17.2382 20.4375C15.892 20.4375 14.8008 19.3462 14.8008 18.0001C14.8008 16.6539 15.892 15.5625 17.2382 15.5625C18.5845 15.5625 19.6757 16.6539 19.6757 18.0001Z" fill="#231f20"/>
<path d="M17.2382 21C15.5837 21 14.2383 19.6545 14.2383 18.0001C14.2383 16.3456 15.5837 15 17.2382 15C18.8928 15 20.2382 16.3456 20.2382 18.0001C20.2382 19.6545 18.8928 21 17.2382 21ZM17.2382 16.125C16.204 16.125 15.3633 16.9666 15.3633 18.0001C15.3633 19.0335 16.204 19.875 17.2382 19.875C18.2725 19.875 19.1132 19.0335 19.1132 18.0001C19.1132 16.9666 18.2725 16.125 17.2382 16.125Z" fill="#231f20"/>
<path d="M9.17583 12C9.17583 13.3462 8.08447 14.4374 6.73824 14.4374C5.39214 14.4374 4.30078 13.3462 4.30078 12C4.30078 10.6537 5.39214 9.5625 6.73824 9.5625C8.08447 9.5625 9.17583 10.6537 9.17583 12Z" fill="#231f20"/>
<path d="M6.73824 14.9999C5.08383 14.9999 3.73828 13.6545 3.73828 12C3.73828 10.3454 5.08383 9 6.73824 9C8.39278 9 9.73833 10.3454 9.73833 12C9.73833 13.6545 8.39278 14.9999 6.73824 14.9999ZM6.73824 10.125C5.70401 10.125 4.86328 10.9664 4.86328 12C4.86328 13.0335 5.70401 13.8749 6.73824 13.8749C7.7726 13.8749 8.61333 13.0335 8.61333 12C8.61333 10.9664 7.7726 10.125 6.73824 10.125Z" fill="#231f20"/>
<path d="M8.50905 11.6398C8.24799 11.6398 7.99448 11.504 7.85646 11.2611C7.6517 10.9018 7.77777 10.4436 8.13702 10.238L15.0962 6.27055C15.4554 6.06428 15.9137 6.19035 16.1193 6.55097C16.324 6.91023 16.198 7.36849 15.8387 7.57407L8.87943 11.5415C8.76242 11.6083 8.63498 11.6398 8.50905 11.6398Z" fill="#231f20"/>
<path d="M15.4676 17.8277C15.3415 17.8277 15.2141 17.7961 15.0971 17.7294L8.13778 13.7619C7.77852 13.5572 7.65259 13.0989 7.85735 12.7388C8.06128 12.3789 8.52024 12.2521 8.88031 12.4584L15.8396 16.4258C16.1989 16.6306 16.3248 17.0888 16.12 17.4489C15.9813 17.6919 15.7278 17.8277 15.4676 17.8277Z" fill="#231f20"/>
</g>
<defs>
<clipPath id="clip0_4488_506">
<rect width="18" height="18" fill="white" transform="translate(3 3)"/>
</clipPath>
</defs>
</svg>
