<svg width="320" height="290" viewBox="0 0 320 290" fill="none" xmlns="http://www.w3.org/2000/svg">
<path opacity="0.04" d="M228.594 104.134C227.327 104.134 226.06 104.187 224.804 104.23C221.875 46.1894 172.705 0 112.471 0C50.3527 0 0 49.1175 0 109.671C0 170.224 50.3527 219.341 112.471 219.341C121.72 219.346 130.936 218.237 139.921 216.041C148.694 257.779 185.056 289.073 228.594 289.073C278.691 289.073 319.312 247.653 319.312 196.566C319.312 145.479 278.691 104.134 228.594 104.134Z" fill="url(#paint0_linear_1839_46842)"/>
<rect opacity="0.72" x="24" y="65" width="274" height="167" rx="4" fill="white"/>
<rect x="21.5" y="57.5" width="272" height="169.829" rx="3.5" fill="white" stroke="url(#paint1_linear_1839_46842)"/>
<path d="M21 61C21 58.7909 22.7909 57 25 57H290C292.209 57 294 58.7909 294 61V67.8709H21V61Z" fill="url(#paint2_linear_1839_46842)"/>
<ellipse cx="28.0579" cy="62.6698" rx="1.23778" ry="1.26742" fill="white"/>
<ellipse cx="32.1838" cy="62.6698" rx="1.23778" ry="1.26742" fill="white"/>
<ellipse cx="36.3098" cy="62.6698" rx="1.23778" ry="1.26742" fill="white"/>
<path d="M111.732 146.929L111.5 147.077V147.351V155V155.904L112.266 155.424L141.266 137.226L141.5 137.079V136.803V133.987V133.709L141.264 133.562L112.264 115.575L111.5 115.102V116V123.439V123.717L111.736 123.863L130.079 135.253L111.732 146.929Z" fill="#E6E6E6" stroke="#857F87"/>
<path d="M185.732 146.929L185.5 147.077V147.351V155V155.904L186.266 155.424L215.266 137.226L215.5 137.079V136.803V133.987V133.709L215.264 133.562L186.264 115.575L185.5 115.102V116V123.439V123.717L185.736 123.863L204.079 135.253L185.732 146.929Z" fill="#E6E6E6" stroke="#857F87"/>
<path d="M180.5 160.453C180.5 159.249 180.142 158.251 179.367 157.535C178.638 156.835 177.702 156.5 176.605 156.5H144.395C143.298 156.5 142.362 156.835 141.633 157.535C140.858 158.251 140.5 159.249 140.5 160.453C140.5 161.674 140.836 162.686 141.578 163.406C142.28 164.145 143.208 164.5 144.31 164.5H176.69C177.792 164.5 178.72 164.145 179.422 163.406C180.164 162.686 180.5 161.674 180.5 160.453Z" fill="#E6E6E6" stroke="#857F87"/>
<path d="M269 208L272.032 193.799L300.719 165.061C301.427 164.354 302.286 164 303.297 164C304.308 164 305.15 164.337 305.824 165.011L311.939 171.176C312.646 171.884 313 172.726 313 173.703C313 174.68 312.646 175.523 311.939 176.23L283.201 204.968L269 208Z" fill="white"/>
<mask id="mask0_1839_46842" style="mask-type:alpha" maskUnits="userSpaceOnUse" x="270" y="165" width="42" height="42">
<path d="M310.697 171.765L310.698 171.766C311.239 172.307 311.5 172.934 311.5 173.671C311.5 174.408 311.239 175.034 310.698 175.575L282.441 203.832L270.65 206.35L273.168 194.558L301.379 166.302C301.917 165.765 302.557 165.5 303.329 165.5C304.108 165.5 304.731 165.754 305.233 166.256C305.233 166.256 305.233 166.256 305.234 166.257L310.697 171.765ZM272.584 203.771L272.404 204.548L273.182 204.371L281.943 202.384L282.089 202.351L282.193 202.243L283.277 201.114L283.616 200.761L283.27 200.414L276.541 193.685L276.187 193.332L275.834 193.685L274.75 194.769L274.648 194.87L274.616 195.01L272.584 203.771Z" fill="white" stroke="url(#paint3_linear_1839_46842)"/>
</mask>
<g mask="url(#mask0_1839_46842)">
<path d="M310.697 171.765L310.698 171.766C311.239 172.307 311.5 172.934 311.5 173.671C311.5 174.408 311.239 175.034 310.698 175.575L282.441 203.832L270.65 206.35L273.168 194.558L301.379 166.302C301.917 165.765 302.557 165.5 303.329 165.5C304.108 165.5 304.731 165.754 305.233 166.256C305.233 166.256 305.233 166.256 305.234 166.257L310.697 171.765Z" stroke="url(#paint4_linear_1839_46842)"/>
</g>
<defs>
<linearGradient id="paint0_linear_1839_46842" x1="0" y1="0" x2="370.858" y2="102.413" gradientUnits="userSpaceOnUse">
<stop stop-color="#FFC500"/>
<stop offset="0.411458" stop-color="#DC2223"/>
<stop offset="1" stop-color="#720096"/>
</linearGradient>
<linearGradient id="paint1_linear_1839_46842" x1="21" y1="57" x2="315.278" y2="174.571" gradientUnits="userSpaceOnUse">
<stop stop-color="#FFC500"/>
<stop offset="0.411458" stop-color="#DC2223"/>
<stop offset="1" stop-color="#720096"/>
</linearGradient>
<linearGradient id="paint2_linear_1839_46842" x1="21" y1="57" x2="29.4434" y2="110.01" gradientUnits="userSpaceOnUse">
<stop stop-color="#FFC500"/>
<stop offset="0.411458" stop-color="#DC2223"/>
<stop offset="1" stop-color="#720096"/>
</linearGradient>
<linearGradient id="paint3_linear_1839_46842" x1="270" y1="165" x2="319.412" y2="177.353" gradientUnits="userSpaceOnUse">
<stop stop-color="#FFC500"/>
<stop offset="0.411458" stop-color="#DC2223"/>
<stop offset="1" stop-color="#720096"/>
</linearGradient>
<linearGradient id="paint4_linear_1839_46842" x1="270" y1="165" x2="319.412" y2="177.353" gradientUnits="userSpaceOnUse">
<stop stop-color="#FFC500"/>
<stop offset="0.411458" stop-color="#DC2223"/>
<stop offset="1" stop-color="#720096"/>
</linearGradient>
</defs>
</svg>
