<svg width="486" height="332" viewBox="0 0 486 332" fill="none" xmlns="http://www.w3.org/2000/svg">
<path opacity="0.08" d="M319.594 146.134C318.327 146.134 317.06 146.187 315.804 146.23C312.875 88.1894 263.705 42 203.471 42C141.353 42 91 91.1175 91 151.671C91 212.224 141.353 261.341 203.471 261.341C212.72 261.346 221.936 260.237 230.921 258.041C239.694 299.779 276.056 331.073 319.594 331.073C369.691 331.073 410.312 289.653 410.312 238.566C410.312 187.479 369.691 146.134 319.594 146.134Z" fill="url(#paint0_linear_1839_46837)"/>
<path d="M484.354 182.083C484.549 181.888 484.549 181.571 484.354 181.376L481.172 178.194C480.976 177.999 480.66 177.999 480.464 178.194C480.269 178.389 480.269 178.706 480.464 178.901L483.293 181.729L480.464 184.558C480.269 184.753 480.269 185.07 480.464 185.265C480.66 185.46 480.976 185.46 481.172 185.265L484.354 182.083ZM2 183.624C26.3033 183.624 43.4244 179.167 56.3544 172.455C69.2838 165.743 77.9849 156.795 85.4682 147.884C92.9711 138.948 99.1955 130.128 107.25 123.499C115.266 116.903 125.079 112.5 139.714 112.5V111.5C124.84 111.5 114.804 115.988 106.615 122.727C98.4652 129.434 92.1302 138.395 84.7024 147.24C77.2549 156.11 68.6539 164.943 55.8936 171.567C43.1339 178.191 26.1777 182.624 2 182.624V183.624ZM139.714 112.5C154.25 112.5 167.825 121.864 180.755 136.066C193.675 150.257 205.861 169.177 217.632 188.095C229.392 206.993 240.741 225.898 251.963 239.982C257.575 247.026 263.174 252.889 268.798 256.949C274.423 261.011 280.107 263.294 285.876 263.115L285.845 262.116C280.371 262.285 274.901 260.123 269.383 256.139C263.864 252.154 258.331 246.369 252.745 239.359C241.57 225.333 230.26 206.496 218.481 187.567C206.715 168.657 194.485 149.661 181.495 135.393C168.516 121.138 154.689 111.5 139.714 111.5V112.5ZM285.876 263.115C297.324 262.76 307.719 255.487 317.494 244.935C327.276 234.374 336.521 220.435 345.649 206.584C354.79 192.715 363.814 178.936 373.18 168.621C382.557 158.293 392.179 151.548 402.496 151.548V150.548C391.734 150.548 381.858 157.576 372.44 167.949C363.01 178.334 353.941 192.186 344.814 206.034C335.675 219.901 326.476 233.766 316.76 244.255C307.036 254.752 296.88 261.773 285.845 262.116L285.876 263.115ZM402.496 151.548C412.97 151.548 420.538 153.453 426.68 156.296C432.831 159.144 437.573 162.941 442.41 166.781C447.238 170.614 452.157 174.486 458.61 177.391C465.071 180.3 473.047 182.229 484 182.229V181.229C473.172 181.229 465.339 179.324 459.021 176.48C452.695 173.632 447.865 169.834 443.032 165.997C438.207 162.167 433.376 158.294 427.1 155.389C420.814 152.479 413.1 150.548 402.496 150.548V151.548Z" fill="white"/>
<path d="M485.354 181.815C485.549 181.62 485.549 181.303 485.354 181.108L482.172 177.926C481.976 177.731 481.66 177.731 481.464 177.926C481.269 178.121 481.269 178.438 481.464 178.633L484.293 181.461L481.464 184.29C481.269 184.485 481.269 184.802 481.464 184.997C481.66 185.192 481.976 185.192 482.172 184.997L485.354 181.815ZM3 183.356C27.3033 183.356 44.4244 178.899 57.3544 172.187C70.2838 165.475 78.9849 156.527 86.4682 147.615C93.9711 138.68 100.195 129.86 108.25 123.231C116.266 116.635 126.079 112.232 140.714 112.232V111.232C125.84 111.232 115.804 115.72 107.615 122.459C99.4652 129.166 93.1302 138.127 85.7024 146.972C78.2549 155.842 69.6539 164.675 56.8936 171.299C44.1339 177.923 27.1777 182.356 3 182.356V183.356ZM140.714 112.232C155.25 112.232 168.825 121.596 181.755 135.798C194.675 149.989 206.861 168.909 218.632 187.827C230.392 206.725 241.741 225.63 252.963 239.714C258.575 246.758 264.174 252.62 269.798 256.681C275.423 260.743 281.107 263.026 286.876 262.847L286.845 261.848C281.371 262.017 275.901 259.855 270.383 255.871C264.864 251.886 259.331 246.101 253.745 239.091C242.57 225.065 231.26 206.228 219.481 187.298C207.715 168.388 195.485 149.393 182.495 135.125C169.516 120.87 155.689 111.232 140.714 111.232V112.232ZM286.876 262.847C298.324 262.492 308.719 255.219 318.494 244.666C328.276 234.106 337.521 220.166 346.649 206.316C355.79 192.447 364.814 178.668 374.18 168.353C383.557 158.025 393.179 151.28 403.496 151.28V150.28C392.734 150.28 382.858 157.307 373.44 167.681C364.01 178.066 354.941 191.918 345.814 205.766C336.675 219.633 327.476 233.498 317.76 243.987C308.036 254.484 297.88 261.505 286.845 261.848L286.876 262.847ZM403.496 151.28C413.97 151.28 421.538 153.185 427.68 156.028C433.831 158.876 438.573 162.673 443.41 166.512C448.238 170.346 453.157 174.218 459.61 177.123C466.071 180.032 474.047 181.961 485 181.961V180.961C474.172 180.961 466.339 179.056 460.021 176.211C453.695 173.364 448.865 169.566 444.032 165.729C439.207 161.899 434.376 158.026 428.1 155.121C421.814 152.211 414.1 150.28 403.496 150.28V151.28Z" fill="url(#paint1_linear_1839_46837)"/>
<path opacity="0.24" d="M102.058 188.798V189.298V188.798ZM233.085 149.066L233.108 148.567L233.085 149.066ZM483.336 149.35C483.493 149.122 483.435 148.811 483.207 148.655L479.5 146.104C479.272 145.948 478.961 146.005 478.805 146.233C478.648 146.46 478.706 146.772 478.933 146.928L482.229 149.195L479.962 152.491C479.805 152.718 479.863 153.029 480.09 153.186C480.318 153.342 480.629 153.285 480.786 153.057L483.336 149.35ZM2 149.066C1.64609 149.42 1.64637 149.42 1.64681 149.42C1.64715 149.421 1.64774 149.421 1.64843 149.422C1.64982 149.423 1.65181 149.425 1.6544 149.428C1.65959 149.433 1.66719 149.441 1.67719 149.451C1.6972 149.47 1.72682 149.5 1.76599 149.538C1.84434 149.615 1.96086 149.728 2.115 149.875C2.42326 150.168 2.88197 150.598 3.48652 151.145C4.69558 152.237 6.48812 153.796 8.82725 155.665C13.5052 159.403 20.371 164.385 29.1293 169.367C46.6443 179.329 71.744 189.298 102.058 189.298V188.298C71.9654 188.298 47.0361 178.401 29.6237 168.497C20.9184 163.546 14.0959 158.595 9.45152 154.884C7.12947 153.028 5.35232 151.483 4.15699 150.403C3.55933 149.863 3.10717 149.439 2.80511 149.151C2.65408 149.007 2.54058 148.897 2.46519 148.823C2.42749 148.786 2.39932 148.758 2.38075 148.74C2.37146 148.731 2.36458 148.724 2.3601 148.719C2.35786 148.717 2.35623 148.716 2.3552 148.715C2.35468 148.714 2.35436 148.714 2.3541 148.713C2.35393 148.713 2.35391 148.713 2 149.066ZM102.058 189.298C131.772 189.298 153.896 178.828 173.904 168.646C193.94 158.45 211.775 148.597 233.062 149.566L233.108 148.567C211.502 147.584 193.411 157.597 173.45 167.755C153.461 177.927 131.519 188.298 102.058 188.298V189.298ZM233.062 149.566C248.851 150.284 262.055 159.65 273.794 173.422C285.534 187.195 295.746 205.301 305.565 223.367C315.372 241.41 324.791 259.422 334.923 272.914C345.044 286.391 355.985 295.508 368.879 295.508V294.508C356.49 294.508 345.81 285.746 335.723 272.314C325.646 258.896 316.27 240.968 306.444 222.89C296.63 204.834 286.372 186.637 274.555 172.773C262.738 158.909 249.298 149.304 233.108 148.567L233.062 149.566ZM368.879 295.508C381.775 295.508 392.084 286.815 401.085 273.85C410.091 260.878 417.881 243.495 425.701 225.868C433.531 208.218 441.394 190.319 450.561 176.224C459.735 162.119 470.143 151.938 483.015 149.558L482.833 148.575C469.543 151.032 458.937 161.513 449.723 175.679C440.503 189.855 432.606 207.837 424.786 225.463C416.956 243.112 409.205 260.401 400.263 273.28C391.316 286.168 381.268 294.508 368.879 294.508V295.508Z" fill="white"/>
<path opacity="0.24" d="M103.058 188.11V188.61V188.11ZM234.085 148.379L234.108 147.879L234.085 148.379ZM484.336 148.662C484.493 148.435 484.435 148.124 484.207 147.967L480.5 145.417C480.272 145.26 479.961 145.318 479.805 145.545C479.648 145.773 479.706 146.084 479.933 146.241L483.229 148.508L480.962 151.803C480.805 152.031 480.863 152.342 481.09 152.498C481.318 152.655 481.629 152.597 481.786 152.37L484.336 148.662ZM3 148.379C2.64609 148.732 2.64637 148.732 2.64681 148.733C2.64715 148.733 2.64774 148.734 2.64843 148.735C2.64982 148.736 2.65181 148.738 2.6544 148.74C2.65959 148.746 2.66719 148.753 2.67719 148.763C2.6972 148.783 2.72682 148.812 2.76599 148.85C2.84434 148.927 2.96086 149.04 3.115 149.187C3.42326 149.481 3.88197 149.911 4.48652 150.457C5.69558 151.55 7.48812 153.108 9.82725 154.978C14.5052 158.716 21.371 163.698 30.1293 168.679C47.6443 178.641 72.744 188.61 103.058 188.61V187.61C72.9654 187.61 48.0361 177.714 30.6237 167.81C21.9184 162.859 15.0959 157.908 10.4515 154.196C8.12947 152.341 6.35232 150.795 5.15699 149.715C4.55933 149.175 4.10717 148.751 3.80511 148.463C3.65408 148.319 3.54058 148.209 3.46519 148.135C3.42749 148.099 3.39932 148.071 3.38075 148.052C3.37146 148.043 3.36458 148.036 3.3601 148.032C3.35786 148.03 3.35623 148.028 3.3552 148.027C3.35468 148.027 3.35436 148.026 3.3541 148.026C3.35393 148.026 3.35391 148.026 3 148.379ZM103.058 188.61C132.772 188.61 154.896 178.14 174.904 167.958C194.94 157.762 212.775 147.91 234.062 148.878L234.108 147.879C212.502 146.896 194.411 156.91 174.45 167.067C154.461 177.239 132.519 187.61 103.058 187.61V188.61ZM234.062 148.878C249.851 149.597 263.055 158.962 274.794 172.735C286.534 186.507 296.746 204.614 306.565 222.68C316.372 240.723 325.791 258.735 335.923 272.227C346.044 285.703 356.985 294.82 369.879 294.82V293.82C357.49 293.82 346.81 285.059 336.723 271.626C326.646 258.208 317.27 240.281 307.444 222.202C297.63 204.147 287.372 185.95 275.555 172.086C263.738 158.221 250.298 148.616 234.108 147.879L234.062 148.878ZM369.879 294.82C382.775 294.82 393.084 286.127 402.085 273.163C411.091 260.19 418.881 242.807 426.701 225.181C434.531 207.531 442.394 189.632 451.561 175.537C460.735 161.432 471.143 151.251 484.015 148.871L483.833 147.887C470.543 150.345 459.937 160.825 450.723 174.992C441.503 189.168 433.606 207.149 425.786 224.775C417.956 242.425 410.205 259.713 401.263 272.592C392.316 285.48 382.268 293.82 369.879 293.82V294.82Z" fill="#8C0082"/>
<path opacity="0.8" d="M483.129 252.081C483.396 252.01 483.554 251.735 483.483 251.469L482.317 247.122C482.246 246.856 481.972 246.697 481.705 246.769C481.438 246.84 481.28 247.115 481.351 247.381L482.388 251.245L478.524 252.281C478.257 252.352 478.099 252.627 478.171 252.893C478.242 253.16 478.516 253.318 478.783 253.247L483.129 252.081ZM1 214.168C0.704995 214.571 0.705371 214.572 0.705972 214.572C0.706474 214.572 0.707302 214.573 0.708305 214.574C0.71031 214.575 0.713218 214.577 0.717023 214.58C0.724634 214.586 0.735835 214.594 0.750599 214.604C0.780126 214.626 0.823902 214.657 0.881691 214.698C0.99727 214.781 1.16891 214.902 1.39472 215.058C1.84635 215.371 2.51473 215.826 3.38484 216.394C5.125 217.53 7.67239 219.122 10.9068 220.945C17.3748 224.591 26.5949 229.167 37.605 232.889C59.6185 240.331 88.842 244.374 117.522 230.66L117.091 229.758C88.7357 243.316 59.8061 239.338 37.9252 231.942C26.988 228.244 17.8256 223.697 11.3979 220.074C8.18441 218.262 5.65564 216.683 3.9316 215.557C3.06961 214.994 2.40888 214.545 1.96442 214.236C1.74219 214.082 1.57405 213.964 1.46185 213.884C1.40575 213.844 1.36364 213.814 1.33576 213.793C1.32181 213.783 1.31143 213.776 1.30462 213.771C1.30122 213.768 1.29872 213.767 1.29711 213.765C1.29631 213.765 1.29579 213.764 1.29538 213.764C1.29508 213.764 1.29501 213.764 1 214.168ZM117.522 230.66C131.886 223.792 145.119 210.483 158.308 194.458C164.908 186.44 171.507 177.728 178.239 168.784C184.973 159.836 191.839 150.656 198.98 141.689C227.564 105.798 260.422 73.5 306.304 73.5V72.5C259.909 72.5 226.785 105.171 198.198 141.066C191.046 150.046 184.171 159.239 177.44 168.182C170.707 177.128 164.12 185.824 157.536 193.823C144.36 209.831 131.244 222.991 117.091 229.758L117.522 230.66ZM306.304 73.5C327.679 73.5 345.319 82.2551 360.787 96.0158C376.266 109.786 389.55 128.551 402.198 148.53C414.829 168.484 426.841 189.679 439.726 208.187C452.616 226.702 466.437 242.617 482.75 252.031L483.25 251.165C467.132 241.864 453.413 226.097 440.547 207.615C427.675 189.127 415.714 168.012 403.043 147.995C390.387 128.004 377.042 109.137 361.452 95.2687C345.852 81.3909 327.985 72.5 306.304 72.5V73.5Z" fill="white"/>
<path opacity="0.8" d="M485.129 252.081C485.396 252.01 485.554 251.735 485.483 251.469L484.317 247.122C484.246 246.856 483.972 246.697 483.705 246.769C483.438 246.84 483.28 247.115 483.351 247.381L484.388 251.245L480.524 252.281C480.257 252.352 480.099 252.627 480.171 252.893C480.242 253.16 480.516 253.318 480.783 253.247L485.129 252.081ZM3 214.168C2.70499 214.571 2.70537 214.572 2.70597 214.572C2.70647 214.572 2.7073 214.573 2.7083 214.574C2.71031 214.575 2.71322 214.577 2.71702 214.58C2.72463 214.586 2.73584 214.594 2.7506 214.604C2.78013 214.626 2.8239 214.657 2.88169 214.698C2.99727 214.781 3.16891 214.902 3.39472 215.058C3.84635 215.371 4.51473 215.826 5.38484 216.394C7.125 217.53 9.67239 219.122 12.9068 220.945C19.3748 224.591 28.5949 229.167 39.605 232.889C61.6185 240.331 90.842 244.374 119.522 230.66L119.091 229.758C90.7357 243.316 61.8061 239.338 39.9252 231.942C28.988 228.244 19.8256 223.697 13.3979 220.074C10.1844 218.262 7.65564 216.683 5.9316 215.557C5.06961 214.994 4.40888 214.545 3.96442 214.236C3.74219 214.082 3.57405 213.964 3.46185 213.884C3.40575 213.844 3.36364 213.814 3.33576 213.793C3.32181 213.783 3.31143 213.776 3.30462 213.771C3.30122 213.768 3.29872 213.767 3.29711 213.765C3.29631 213.765 3.29579 213.764 3.29538 213.764C3.29508 213.764 3.29501 213.764 3 214.168ZM119.522 230.66C133.886 223.792 147.119 210.483 160.308 194.458C166.908 186.44 173.507 177.728 180.239 168.784C186.973 159.836 193.839 150.656 200.98 141.689C229.564 105.798 262.422 73.5 308.304 73.5V72.5C261.909 72.5 228.785 105.171 200.198 141.066C193.046 150.046 186.171 159.239 179.44 168.182C172.707 177.128 166.12 185.824 159.536 193.823C146.36 209.831 133.244 222.991 119.091 229.758L119.522 230.66ZM308.304 73.5C329.679 73.5 347.319 82.2551 362.787 96.0158C378.266 109.786 391.55 128.551 404.198 148.53C416.829 168.484 428.841 189.679 441.726 208.187C454.616 226.702 468.437 242.617 484.75 252.031L485.25 251.165C469.132 241.864 455.413 226.097 442.547 207.615C429.675 189.127 417.714 168.012 405.043 147.995C392.387 128.004 379.042 109.137 363.452 95.2687C347.852 81.3909 329.985 72.5 308.304 72.5V73.5Z" fill="#8C0082"/>
<g filter="url(#filter0_d_1839_46837)">
<circle cx="105" cy="187" r="16" fill="white"/>
</g>
<path d="M99.3304 186.183C99.557 185.957 99.834 185.844 100.161 185.844H103.843L103.853 182.152C103.847 181.831 103.957 181.557 104.183 181.331C104.41 181.104 104.684 180.994 105.005 181C105.326 181.007 105.596 181.12 105.817 181.34C106.037 181.56 106.15 181.831 106.157 182.152V185.853L109.848 185.844C110.163 185.844 110.434 185.957 110.66 186.183C110.887 186.41 111 186.681 111 186.995C111 187.31 110.887 187.581 110.66 187.807C110.434 188.034 110.163 188.147 109.848 188.147L106.157 188.157V191.839C106.15 192.16 106.034 192.434 105.807 192.66C105.581 192.887 105.31 193 104.995 193C104.681 193 104.41 192.887 104.183 192.66C103.957 192.434 103.843 192.163 103.843 191.848V188.166L100.152 188.157C99.8371 188.157 99.5665 188.043 99.3399 187.817C99.1133 187.59 99 187.316 99 186.995C99 186.674 99.1101 186.404 99.3304 186.183Z" fill="white"/>
<path d="M99.3304 186.183C99.557 185.957 99.834 185.844 100.161 185.844H103.843L103.853 182.152C103.847 181.831 103.957 181.557 104.183 181.331C104.41 181.104 104.684 180.994 105.005 181C105.326 181.007 105.596 181.12 105.817 181.34C106.037 181.56 106.15 181.831 106.157 182.152V185.853L109.848 185.844C110.163 185.844 110.434 185.957 110.66 186.183C110.887 186.41 111 186.681 111 186.995C111 187.31 110.887 187.581 110.66 187.807C110.434 188.034 110.163 188.147 109.848 188.147L106.157 188.157V191.839C106.15 192.16 106.034 192.434 105.807 192.66C105.581 192.887 105.31 193 104.995 193C104.681 193 104.41 192.887 104.183 192.66C103.957 192.434 103.843 192.163 103.843 191.848V188.166L100.152 188.157C99.8371 188.157 99.5665 188.043 99.3399 187.817C99.1133 187.59 99 187.316 99 186.995C99 186.674 99.1101 186.404 99.3304 186.183Z" fill="black"/>
<g filter="url(#filter1_d_1839_46837)">
<circle cx="292" cy="73" r="16" fill="white"/>
</g>
<path d="M286.33 72.1835C286.557 71.9569 286.834 71.8436 287.161 71.8436H290.843L290.853 68.1521C290.847 67.8311 290.957 67.5573 291.183 67.3307C291.41 67.1041 291.684 66.994 292.005 67.0003C292.326 67.0065 292.596 67.1198 292.817 67.3401C293.037 67.5604 293.15 67.8311 293.157 68.1521V71.853L296.848 71.8436C297.163 71.8436 297.434 71.9569 297.66 72.1835C297.887 72.4101 298 72.6807 298 72.9954C298 73.3101 297.887 73.5808 297.66 73.8073C297.434 74.0339 297.163 74.1472 296.848 74.1472L293.157 74.1567V77.8387C293.15 78.1597 293.034 78.4335 292.807 78.6601C292.581 78.8867 292.31 79 291.995 79C291.681 79 291.41 78.8867 291.183 78.6601C290.957 78.4335 290.843 78.1629 290.843 77.8482V74.1661L287.152 74.1567C286.837 74.1567 286.566 74.0434 286.34 73.8168C286.113 73.5902 286 73.3164 286 72.9954C286 72.6744 286.11 72.4038 286.33 72.1835Z" fill="white"/>
<path d="M286.33 72.1835C286.557 71.9569 286.834 71.8436 287.161 71.8436H290.843L290.853 68.1521C290.847 67.8311 290.957 67.5573 291.183 67.3307C291.41 67.1041 291.684 66.994 292.005 67.0003C292.326 67.0065 292.596 67.1198 292.817 67.3401C293.037 67.5604 293.15 67.8311 293.157 68.1521V71.853L296.848 71.8436C297.163 71.8436 297.434 71.9569 297.66 72.1835C297.887 72.4101 298 72.6807 298 72.9954C298 73.3101 297.887 73.5808 297.66 73.8073C297.434 74.0339 297.163 74.1472 296.848 74.1472L293.157 74.1567V77.8387C293.15 78.1597 293.034 78.4335 292.807 78.6601C292.581 78.8867 292.31 79 291.995 79C291.681 79 291.41 78.8867 291.183 78.6601C290.957 78.4335 290.843 78.1629 290.843 77.8482V74.1661L287.152 74.1567C286.837 74.1567 286.566 74.0434 286.34 73.8168C286.113 73.5902 286 73.3164 286 72.9954C286 72.6744 286.11 72.4038 286.33 72.1835Z" fill="black"/>
<g filter="url(#filter2_d_1839_46837)">
<circle cx="360" cy="187" r="16" fill="white"/>
</g>
<path d="M354.33 186.183C354.557 185.957 354.834 185.844 355.161 185.844H358.843L358.853 182.152C358.847 181.831 358.957 181.557 359.183 181.331C359.41 181.104 359.684 180.994 360.005 181C360.326 181.007 360.596 181.12 360.817 181.34C361.037 181.56 361.15 181.831 361.157 182.152V185.853L364.848 185.844C365.163 185.844 365.434 185.957 365.66 186.183C365.887 186.41 366 186.681 366 186.995C366 187.31 365.887 187.581 365.66 187.807C365.434 188.034 365.163 188.147 364.848 188.147L361.157 188.157V191.839C361.15 192.16 361.034 192.434 360.807 192.66C360.581 192.887 360.31 193 359.995 193C359.681 193 359.41 192.887 359.183 192.66C358.957 192.434 358.843 192.163 358.843 191.848V188.166L355.152 188.157C354.837 188.157 354.566 188.043 354.34 187.817C354.113 187.59 354 187.316 354 186.995C354 186.674 354.11 186.404 354.33 186.183Z" fill="white"/>
<path d="M354.33 186.183C354.557 185.957 354.834 185.844 355.161 185.844H358.843L358.853 182.152C358.847 181.831 358.957 181.557 359.183 181.331C359.41 181.104 359.684 180.994 360.005 181C360.326 181.007 360.596 181.12 360.817 181.34C361.037 181.56 361.15 181.831 361.157 182.152V185.853L364.848 185.844C365.163 185.844 365.434 185.957 365.66 186.183C365.887 186.41 366 186.681 366 186.995C366 187.31 365.887 187.581 365.66 187.807C365.434 188.034 365.163 188.147 364.848 188.147L361.157 188.157V191.839C361.15 192.16 361.034 192.434 360.807 192.66C360.581 192.887 360.31 193 359.995 193C359.681 193 359.41 192.887 359.183 192.66C358.957 192.434 358.843 192.163 358.843 191.848V188.166L355.152 188.157C354.837 188.157 354.566 188.043 354.34 187.817C354.113 187.59 354 187.316 354 186.995C354 186.674 354.11 186.404 354.33 186.183Z" fill="black"/>
<path opacity="0.72" fill-rule="evenodd" clip-rule="evenodd" d="M441.137 262.275C440.228 262.275 439.49 263.012 439.49 263.922V267.49H435.921C435.012 267.49 434.274 268.228 434.274 269.137C434.274 270.047 435.012 270.784 435.921 270.784H439.49V274.353C439.49 275.263 440.228 276 441.137 276C442.047 276 442.784 275.263 442.784 274.353V270.784H446.353C447.262 270.784 448 270.047 448 269.137C448 268.228 447.262 267.49 446.353 267.49H442.784V263.922C442.784 263.012 442.047 262.275 441.137 262.275Z" fill="white"/>
<mask id="path-15-inside-1_1839_46837" fill="white">
<path fill-rule="evenodd" clip-rule="evenodd" d="M440.216 262C439.663 262 439.216 262.448 439.216 263V267.216H435C434.448 267.216 434 267.663 434 268.216V269.51C434 270.062 434.448 270.51 435 270.51H439.216V274.725C439.216 275.278 439.663 275.725 440.216 275.725H441.51C442.062 275.725 442.51 275.278 442.51 274.725V270.51H446.725C447.278 270.51 447.725 270.062 447.725 269.51V268.216C447.725 267.663 447.278 267.216 446.725 267.216H442.51V263C442.51 262.448 442.062 262 441.51 262H440.216Z"/>
</mask>
<path fill-rule="evenodd" clip-rule="evenodd" d="M440.216 262C439.663 262 439.216 262.448 439.216 263V267.216H435C434.448 267.216 434 267.663 434 268.216V269.51C434 270.062 434.448 270.51 435 270.51H439.216V274.725C439.216 275.278 439.663 275.725 440.216 275.725H441.51C442.062 275.725 442.51 275.278 442.51 274.725V270.51H446.725C447.278 270.51 447.725 270.062 447.725 269.51V268.216C447.725 267.663 447.278 267.216 446.725 267.216H442.51V263C442.51 262.448 442.062 262 441.51 262H440.216Z" fill="white"/>
<path d="M439.216 267.216V267.966H439.966V267.216H439.216ZM439.216 270.51H439.966V269.76H439.216V270.51ZM442.51 270.51V269.76H441.76V270.51H442.51ZM442.51 267.216H441.76V267.966H442.51V267.216ZM439.966 263C439.966 262.862 440.078 262.75 440.216 262.75V261.25C439.249 261.25 438.466 262.034 438.466 263H439.966ZM439.966 267.216V263H438.466V267.216H439.966ZM435 267.966H439.216V266.466H435V267.966ZM434.75 268.216C434.75 268.078 434.862 267.966 435 267.966V266.466C434.034 266.466 433.25 267.249 433.25 268.216H434.75ZM434.75 269.51V268.216H433.25V269.51H434.75ZM435 269.76C434.862 269.76 434.75 269.648 434.75 269.51H433.25C433.25 270.476 434.034 271.26 435 271.26V269.76ZM439.216 269.76H435V271.26H439.216V269.76ZM439.966 274.725V270.51H438.466V274.725H439.966ZM440.216 274.975C440.078 274.975 439.966 274.864 439.966 274.725H438.466C438.466 275.692 439.249 276.475 440.216 276.475V274.975ZM441.51 274.975H440.216V276.475H441.51V274.975ZM441.76 274.725C441.76 274.864 441.648 274.975 441.51 274.975V276.475C442.476 276.475 443.26 275.692 443.26 274.725H441.76ZM441.76 270.51V274.725H443.26V270.51H441.76ZM446.725 269.76H442.51V271.26H446.725V269.76ZM446.975 269.51C446.975 269.648 446.864 269.76 446.725 269.76V271.26C447.692 271.26 448.475 270.476 448.475 269.51H446.975ZM446.975 268.216V269.51H448.475V268.216H446.975ZM446.725 267.966C446.864 267.966 446.975 268.078 446.975 268.216H448.475C448.475 267.249 447.692 266.466 446.725 266.466V267.966ZM442.51 267.966H446.725V266.466H442.51V267.966ZM441.76 263V267.216H443.26V263H441.76ZM441.51 262.75C441.648 262.75 441.76 262.862 441.76 263H443.26C443.26 262.034 442.476 261.25 441.51 261.25V262.75ZM440.216 262.75H441.51V261.25H440.216V262.75Z" fill="url(#paint2_linear_1839_46837)" mask="url(#path-15-inside-1_1839_46837)"/>
<path opacity="0.72" fill-rule="evenodd" clip-rule="evenodd" d="M158 28C156.895 28 156 28.8954 156 30V46H140C138.895 46 138 46.8954 138 48V58C138 59.1046 138.895 60 140 60H156V76C156 77.1046 156.895 78 158 78H168C169.105 78 170 77.1046 170 76V60H186C187.105 60 188 59.1046 188 58V48C188 46.8954 187.105 46 186 46H170V30C170 28.8954 169.105 28 168 28H158Z" fill="white"/>
<mask id="path-18-inside-2_1839_46837" fill="white">
<path fill-rule="evenodd" clip-rule="evenodd" d="M159.567 30.0908C158.462 30.0908 157.567 30.9863 157.567 32.0908V47.5667H142.091C140.986 47.5667 140.091 48.4621 140.091 49.5667L140.091 56.6041C140.091 57.7087 140.986 58.6041 142.091 58.6041H157.567V74.0802C157.567 75.1847 158.462 76.0802 159.567 76.0802H166.604C167.709 76.0802 168.604 75.1847 168.604 74.0802V58.6041H184.08C185.185 58.6041 186.08 57.7087 186.08 56.6041V49.5667C186.08 48.4621 185.185 47.5667 184.08 47.5667H168.604V32.0908C168.604 30.9863 167.709 30.0908 166.604 30.0908H159.567Z"/>
</mask>
<path fill-rule="evenodd" clip-rule="evenodd" d="M159.567 30.0908C158.462 30.0908 157.567 30.9863 157.567 32.0908V47.5667H142.091C140.986 47.5667 140.091 48.4621 140.091 49.5667L140.091 56.6041C140.091 57.7087 140.986 58.6041 142.091 58.6041H157.567V74.0802C157.567 75.1847 158.462 76.0802 159.567 76.0802H166.604C167.709 76.0802 168.604 75.1847 168.604 74.0802V58.6041H184.08C185.185 58.6041 186.08 57.7087 186.08 56.6041V49.5667C186.08 48.4621 185.185 47.5667 184.08 47.5667H168.604V32.0908C168.604 30.9863 167.709 30.0908 166.604 30.0908H159.567Z" fill="white"/>
<path d="M157.567 47.5667V48.5667H158.567V47.5667H157.567ZM140.091 49.5667H141.091H140.091ZM140.091 56.6041H141.091H140.091ZM157.567 58.6041H158.567V57.6041H157.567V58.6041ZM168.604 58.6041V57.6041H167.604V58.6041H168.604ZM168.604 47.5667H167.604V48.5667H168.604V47.5667ZM158.567 32.0908C158.567 31.5385 159.014 31.0908 159.567 31.0908V29.0908C157.91 29.0908 156.567 30.434 156.567 32.0908H158.567ZM158.567 47.5667V32.0908H156.567V47.5667H158.567ZM142.091 48.5667H157.567V46.5667H142.091V48.5667ZM141.091 49.5667C141.091 49.0144 141.539 48.5667 142.091 48.5667V46.5667C140.434 46.5667 139.091 47.9098 139.091 49.5667H141.091ZM141.091 56.6041L141.091 49.5667H139.091L139.091 56.6041H141.091ZM142.091 57.6041C141.539 57.6041 141.091 57.1564 141.091 56.6041H139.091C139.091 58.261 140.434 59.6041 142.091 59.6041V57.6041ZM157.567 57.6041H142.091V59.6041H157.567V57.6041ZM158.567 74.0802V58.6041H156.567V74.0802H158.567ZM159.567 75.0802C159.014 75.0802 158.567 74.6325 158.567 74.0802H156.567C156.567 75.737 157.91 77.0802 159.567 77.0802V75.0802ZM166.604 75.0802H159.567V77.0802H166.604V75.0802ZM167.604 74.0802C167.604 74.6325 167.157 75.0802 166.604 75.0802V77.0802C168.261 77.0802 169.604 75.737 169.604 74.0802H167.604ZM167.604 58.6041V74.0802H169.604V58.6041H167.604ZM184.08 57.6041H168.604V59.6041H184.08V57.6041ZM185.08 56.6041C185.08 57.1564 184.632 57.6041 184.08 57.6041V59.6041C185.737 59.6041 187.08 58.261 187.08 56.6041H185.08ZM185.08 49.5667V56.6041H187.08V49.5667H185.08ZM184.08 48.5667C184.632 48.5667 185.08 49.0144 185.08 49.5667H187.08C187.08 47.9098 185.737 46.5667 184.08 46.5667V48.5667ZM168.604 48.5667H184.08V46.5667H168.604V48.5667ZM167.604 32.0908V47.5667H169.604V32.0908H167.604ZM166.604 31.0908C167.157 31.0908 167.604 31.5385 167.604 32.0908H169.604C169.604 30.434 168.261 29.0908 166.604 29.0908V31.0908ZM159.567 31.0908H166.604V29.0908H159.567V31.0908Z" fill="#857F87" mask="url(#path-18-inside-2_1839_46837)"/>
<path opacity="0.72" fill-rule="evenodd" clip-rule="evenodd" d="M207.137 0.274658C206.227 0.274658 205.49 1.01207 205.49 1.92172V5.49034H201.921C201.012 5.49034 200.274 6.22775 200.274 7.1374C200.274 8.04704 201.012 8.78446 201.921 8.78446H205.49V12.3531C205.49 13.2627 206.227 14.0001 207.137 14.0001C208.047 14.0001 208.784 13.2627 208.784 12.3531V8.78445H212.353C213.262 8.78445 214 8.04704 214 7.1374C214 6.22775 213.262 5.49034 212.353 5.49034H208.784V1.92172C208.784 1.01207 208.047 0.274658 207.137 0.274658Z" fill="white"/>
<mask id="path-21-inside-3_1839_46837" fill="white">
<path fill-rule="evenodd" clip-rule="evenodd" d="M206.216 0C205.663 0 205.216 0.447715 205.216 1V5.21568H201C200.448 5.21568 200 5.66339 200 6.21568V7.5098C200 8.06208 200.448 8.5098 201 8.5098H205.216V12.7255C205.216 13.2778 205.663 13.7255 206.216 13.7255H207.51C208.062 13.7255 208.51 13.2778 208.51 12.7255V8.5098H212.725C213.278 8.5098 213.725 8.06208 213.725 7.5098V6.21568C213.725 5.66339 213.278 5.21568 212.725 5.21568H208.51V1C208.51 0.447715 208.062 0 207.51 0H206.216Z"/>
</mask>
<path fill-rule="evenodd" clip-rule="evenodd" d="M206.216 0C205.663 0 205.216 0.447715 205.216 1V5.21568H201C200.448 5.21568 200 5.66339 200 6.21568V7.5098C200 8.06208 200.448 8.5098 201 8.5098H205.216V12.7255C205.216 13.2778 205.663 13.7255 206.216 13.7255H207.51C208.062 13.7255 208.51 13.2778 208.51 12.7255V8.5098H212.725C213.278 8.5098 213.725 8.06208 213.725 7.5098V6.21568C213.725 5.66339 213.278 5.21568 212.725 5.21568H208.51V1C208.51 0.447715 208.062 0 207.51 0H206.216Z" fill="white"/>
<path d="M205.216 5.21568V5.96568H205.966V5.21568H205.216ZM205.216 8.5098H205.966V7.7598H205.216V8.5098ZM208.51 8.5098V7.7598H207.76V8.5098H208.51ZM208.51 5.21568H207.76V5.96568H208.51V5.21568ZM205.966 1C205.966 0.861929 206.078 0.75 206.216 0.75V-0.75C205.249 -0.75 204.466 0.0335017 204.466 1H205.966ZM205.966 5.21568V1H204.466V5.21568H205.966ZM201 5.96568H205.216V4.46568H201V5.96568ZM200.75 6.21568C200.75 6.07761 200.862 5.96568 201 5.96568V4.46568C200.034 4.46568 199.25 5.24918 199.25 6.21568H200.75ZM200.75 7.5098V6.21568H199.25V7.5098H200.75ZM201 7.7598C200.862 7.7598 200.75 7.64787 200.75 7.5098H199.25C199.25 8.47629 200.034 9.2598 201 9.2598V7.7598ZM205.216 7.7598H201V9.2598H205.216V7.7598ZM205.966 12.7255V8.5098H204.466V12.7255H205.966ZM206.216 12.9755C206.078 12.9755 205.966 12.8636 205.966 12.7255H204.466C204.466 13.692 205.249 14.4755 206.216 14.4755V12.9755ZM207.51 12.9755H206.216V14.4755H207.51V12.9755ZM207.76 12.7255C207.76 12.8636 207.648 12.9755 207.51 12.9755V14.4755C208.476 14.4755 209.26 13.692 209.26 12.7255H207.76ZM207.76 8.5098V12.7255H209.26V8.5098H207.76ZM212.725 7.7598H208.51V9.2598H212.725V7.7598ZM212.975 7.5098C212.975 7.64787 212.864 7.7598 212.725 7.7598V9.2598C213.692 9.2598 214.475 8.4763 214.475 7.5098H212.975ZM212.975 6.21568V7.5098H214.475V6.21568H212.975ZM212.725 5.96568C212.864 5.96568 212.975 6.07761 212.975 6.21568H214.475C214.475 5.24918 213.692 4.46568 212.725 4.46568V5.96568ZM208.51 5.96568H212.725V4.46568H208.51V5.96568ZM207.76 1V5.21568H209.26V1H207.76ZM207.51 0.75C207.648 0.75 207.76 0.861928 207.76 1H209.26C209.26 0.0335022 208.476 -0.75 207.51 -0.75V0.75ZM206.216 0.75H207.51V-0.75H206.216V0.75Z" fill="#857F87" mask="url(#path-21-inside-3_1839_46837)"/>
<defs>
<filter id="filter0_d_1839_46837" x="79" y="163" width="52" height="52" filterUnits="userSpaceOnUse" color-interpolation-filters="sRGB">
<feFlood flood-opacity="0" result="BackgroundImageFix"/>
<feColorMatrix in="SourceAlpha" type="matrix" values="0 0 0 0 0 0 0 0 0 0 0 0 0 0 0 0 0 0 127 0" result="hardAlpha"/>
<feOffset dy="2"/>
<feGaussianBlur stdDeviation="5"/>
<feComposite in2="hardAlpha" operator="out"/>
<feColorMatrix type="matrix" values="0 0 0 0 0 0 0 0 0 0 0 0 0 0 0 0 0 0 0.1 0"/>
<feBlend mode="normal" in2="BackgroundImageFix" result="effect1_dropShadow_1839_46837"/>
<feBlend mode="normal" in="SourceGraphic" in2="effect1_dropShadow_1839_46837" result="shape"/>
</filter>
<filter id="filter1_d_1839_46837" x="266" y="49" width="52" height="52" filterUnits="userSpaceOnUse" color-interpolation-filters="sRGB">
<feFlood flood-opacity="0" result="BackgroundImageFix"/>
<feColorMatrix in="SourceAlpha" type="matrix" values="0 0 0 0 0 0 0 0 0 0 0 0 0 0 0 0 0 0 127 0" result="hardAlpha"/>
<feOffset dy="2"/>
<feGaussianBlur stdDeviation="5"/>
<feComposite in2="hardAlpha" operator="out"/>
<feColorMatrix type="matrix" values="0 0 0 0 0 0 0 0 0 0 0 0 0 0 0 0 0 0 0.1 0"/>
<feBlend mode="normal" in2="BackgroundImageFix" result="effect1_dropShadow_1839_46837"/>
<feBlend mode="normal" in="SourceGraphic" in2="effect1_dropShadow_1839_46837" result="shape"/>
</filter>
<filter id="filter2_d_1839_46837" x="334" y="163" width="52" height="52" filterUnits="userSpaceOnUse" color-interpolation-filters="sRGB">
<feFlood flood-opacity="0" result="BackgroundImageFix"/>
<feColorMatrix in="SourceAlpha" type="matrix" values="0 0 0 0 0 0 0 0 0 0 0 0 0 0 0 0 0 0 127 0" result="hardAlpha"/>
<feOffset dy="2"/>
<feGaussianBlur stdDeviation="5"/>
<feComposite in2="hardAlpha" operator="out"/>
<feColorMatrix type="matrix" values="0 0 0 0 0 0 0 0 0 0 0 0 0 0 0 0 0 0 0.1 0"/>
<feBlend mode="normal" in2="BackgroundImageFix" result="effect1_dropShadow_1839_46837"/>
<feBlend mode="normal" in="SourceGraphic" in2="effect1_dropShadow_1839_46837" result="shape"/>
</filter>
<linearGradient id="paint0_linear_1839_46837" x1="91" y1="42" x2="461.858" y2="144.413" gradientUnits="userSpaceOnUse">
<stop stop-color="#FFC500"/>
<stop offset="0.411458" stop-color="#DC2223"/>
<stop offset="1" stop-color="#720096"/>
</linearGradient>
<linearGradient id="paint1_linear_1839_46837" x1="485" y1="262.357" x2="439.118" y2="26.7886" gradientUnits="userSpaceOnUse">
<stop stop-color="#FB6E00"/>
<stop offset="1" stop-color="#FFC500"/>
</linearGradient>
<linearGradient id="paint2_linear_1839_46837" x1="434" y1="262" x2="450.148" y2="266.037" gradientUnits="userSpaceOnUse">
<stop stop-color="#FFC500"/>
<stop offset="0.411458" stop-color="#DC2223"/>
<stop offset="1" stop-color="#720096"/>
</linearGradient>
</defs>
</svg>
