<svg width="16" height="16" viewBox="0 0 16 16" fill="none" xmlns="http://www.w3.org/2000/svg">
<path d="M8 2C4.69147 2 2 4.69147 2 8C2 11.3085 4.69147 14 8 14C11.3085 14 14 11.3085 14 8C14 4.69147 11.3085 2 8 2ZM10.8535 11.1035C10.756 11.201 10.628 11.25 10.5 11.25C10.372 11.25 10.244 11.201 10.1465 11.1035L7.64651 8.60352C7.55249 8.51004 7.50003 8.38297 7.50003 8.25003V5C7.50003 4.72351 7.72397 4.50003 8 4.50003C8.27603 4.50003 8.49997 4.72351 8.49997 5V8.04303L10.8535 10.3965C11.049 10.592 11.049 10.908 10.8535 11.1035V11.1035Z" fill="#857F87"/>
</svg>
