<svg width="16" height="16" viewBox="0 0 16 16" fill="none" xmlns="http://www.w3.org/2000/svg">
<path d="M12.8 3.2H12.2V2.6C12.2 2.24 11.96 2 11.6 2C11.24 2 11 2.24 11 2.6V3.2H5V2.6C5 2.24 4.76 2 4.4 2C4.04 2 3.8 2.24 3.8 2.6V3.2H2.6C2.3 3.2 2 3.44 2 3.8V12.2C2 12.56 2.3 12.8 2.6 12.8H6.26C5.84 12.08 5.6 11.24 5.6 10.4C5.6 7.76 7.76 5.6 10.4 5.6C11.54 5.6 12.56 6.02 13.4 6.68V3.8C13.4 3.5 13.1 3.2 12.8 3.2Z" fill="#857F87"/>
<path d="M10.4 6.80005C8.42005 6.80005 6.80005 8.42005 6.80005 10.4C6.80005 12.38 8.42005 14 10.4 14C12.38 14 14 12.38 14 10.4C14 8.42005 12.38 6.80005 10.4 6.80005ZM11.6 11H10.4C10.04 11 9.80005 10.76 9.80005 10.4V8.60005C9.80005 8.24005 10.04 8.00005 10.4 8.00005C10.76 8.00005 11 8.24005 11 8.60005V9.80005H11.6C11.96 9.80005 12.2 10.04 12.2 10.4C12.2 10.76 11.96 11 11.6 11Z" fill="#857F87"/>
</svg>
