<svg width="24" height="24" viewBox="0 0 24 24" fill="none" xmlns="http://www.w3.org/2000/svg">
<path d="M7.48266 9.27907H10.1202V14.1628C10.1202 14.3023 10.1202 14.5814 10.2668 14.7209C10.4133 14.8605 10.6491 15 10.7064 15H13.3439C13.4905 15 13.637 14.8605 13.7835 14.7209C13.9301 14.5814 13.93 14.4419 13.93 14.1628V9.27907H16.5676C16.8607 9.27907 17.0072 9.13953 17.1537 8.86046C17.3003 8.58139 17.3003 8.5814 17.0072 8.16279L12.6113 3.27907C12.4647 3.13953 12.3182 3 12.1717 3C12.0251 3 11.8786 3.13953 11.7321 3.27907L6.89653 8.16279C6.75 8.30233 6.75 8.58139 6.75 8.86046C6.89653 9.13953 7.18959 9.27907 7.48266 9.27907Z" fill="#646265"/>
<path d="M20.7 15.3C20.55 15.15 20.25 15 19.95 15H15L14.7 15.6C14.25 16.5 13.2 17.25 12.15 17.25C11.1 17.25 9.70982 16.5 9.25982 15.6L9 15H4.05C3.75 15 3.45 15.15 3.3 15.3C3.12715 15.4729 3 15.75 3 16.2V19.95C3 20.25 3.15 20.55 3.3 20.7C3.45 20.85 3.75 21 4.05 21H19.95C20.25 21 20.55 20.85 20.7 20.7C20.85 20.55 21 20.25 21 19.95V16.2C21 15.75 20.85 15.45 20.7 15.3ZM16.65 19.5C16.35 19.5 16.05 19.2 16.05 18.9C16.05 18.6 16.35 18.3 16.65 18.3C16.95 18.3 17.25 18.6 17.25 18.9C17.25 19.2 16.95 19.5 16.65 19.5ZM19.05 19.5C18.75 19.5 18.45 19.2 18.45 18.9C18.45 18.6 18.75 18.3 19.05 18.3C19.35 18.3 19.65 18.6 19.65 18.9C19.65 19.2 19.35 19.5 19.05 19.5Z" fill="#646265"/>
</svg>
