<svg width="12" height="11" viewBox="0 0 12 11" fill="none" xmlns="http://www.w3.org/2000/svg">
<path d="M11.9076 9.90143L6.6571 0.385963C6.52367 0.144441 6.2779 0 6 0C5.7221 0 5.47634 0.144441 5.34291 0.385963L0.0923748 9.90143C-0.034821 10.1334 -0.0305084 10.4069 0.104375 10.6337C0.240219 10.8632 0.48165 11 0.74994 11H11.25C11.5184 11 11.7598 10.8632 11.8956 10.6337C12.0305 10.4069 12.0348 10.1334 11.9076 9.90143ZM5.88146 3.83613C5.92177 3.82943 5.96161 3.82609 6.00097 3.82609C6.34655 3.82609 6.65133 4.0724 6.70991 4.41913C6.72383 4.49804 6.72237 4.5784 6.70991 4.65299L6.23663 7.45417C6.21694 7.56991 6.1152 7.65216 6.00047 7.65216C5.98751 7.65216 5.97359 7.65121 5.96063 7.64882C5.85647 7.63161 5.77967 7.55125 5.76335 7.45417L5.2901 4.65299C5.22436 4.2661 5.48979 3.90022 5.88146 3.83613ZM6 9.56521C5.60307 9.56521 5.28003 9.24335 5.28003 8.84781C5.28003 8.45228 5.60304 8.13042 6 8.13042C6.39697 8.13042 6.71998 8.4523 6.71998 8.84781C6.71998 9.24333 6.39694 9.56521 6 9.56521Z" fill="#FB6E00"/>
</svg>
