<svg xmlns="http://www.w3.org/2000/svg" width="16" height="16" viewBox="0 0 16 16" fill="none">
  <path d="M13.9076 11.9014L8.6571 2.38596C8.52367 2.14444 8.2779 2 8 2C7.7221 2 7.47634 2.14444 7.34291 2.38596L2.09237 11.9014C1.96518 12.1334 1.96949 12.4069 2.10437 12.6337C2.24022 12.8632 2.48165 13 2.74994 13H13.25C13.5184 13 13.7598 12.8632 13.8956 12.6337C14.0305 12.4069 14.0348 12.1334 13.9076 11.9014ZM7.88146 5.83613C7.92177 5.82943 7.96161 5.82609 8.00097 5.82609C8.34655 5.82609 8.65133 6.0724 8.70991 6.41913C8.72383 6.49804 8.72237 6.5784 8.70991 6.65299L8.23663 9.45417C8.21694 9.56991 8.1152 9.65216 8.00047 9.65216C7.98751 9.65216 7.97359 9.65121 7.96063 9.64882C7.85647 9.63161 7.77967 9.55125 7.76335 9.45417L7.2901 6.65299C7.22436 6.2661 7.48979 5.90022 7.88146 5.83613ZM8 11.5652C7.60307 11.5652 7.28003 11.2434 7.28003 10.8478C7.28003 10.4523 7.60304 10.1304 8 10.1304C8.39697 10.1304 8.71998 10.4523 8.71998 10.8478C8.71998 11.2433 8.39694 11.5652 8 11.5652Z" fill="#FB6E00"/>
</svg>
